<svg xmlns="http://www.w3.org/2000/svg" width="35.639" height="35.639" viewBox="0 0 35.639 35.639"><g transform="translate(0 0)"><path d="M17.82,0a17.82,17.82,0,1,0,17.82,17.82A17.826,17.826,0,0,0,17.82,0Zm0,32.788A14.968,14.968,0,1,1,32.788,17.82,14.967,14.967,0,0,1,17.82,32.788Z" fill="#efefef"/><path d="M32.48,23.6l-6.771-3.92V10.554A1.353,1.353,0,0,0,24.354,9.2,1.311,1.311,0,0,0,23,10.554v9.908a1.677,1.677,0,0,0,.784,1.212l7.27,4.205a1.294,1.294,0,0,0,1.782-.5A1.166,1.166,0,0,0,32.48,23.6Z" transform="translate(-6.606 -2.642)" fill="#efefef"/></g></svg>