<svg xmlns="http://www.w3.org/2000/svg" width="32.217" height="40.129" viewBox="0 0 32.217 40.129"><g transform="translate(-49.527 -107.129)"><g transform="translate(24 93)"><path d="M57.417,34.146c.149-2.11.285-4.982.319-6.871,0-.173.008-1.115.006-1.283,0-.422-.014.788-.032.386-.028-.643-.142-2.869-.215-3.452-.229-1.814-.235-2.872-2.19-4.671s-6.056-2.64-6.857-2.841q-.133-.034-.264-.063a8.57,8.57,0,0,0-3.251-.156l0,0h0l-.005,0,0,0-.006-.005-.006-.005-.006,0-.01-.007-.008-.005-.014-.01-.006,0c-.03-.019-.071-.043-.126-.072l0,0-.043-.021-.007,0-.048-.022-.007,0a4.517,4.517,0,0,0-.477-.178h0l-.106-.033-.006,0-.115-.033h0c-.244-.069-.544-.143-.911-.217l-.021,0-.172-.033-.027-.005-.185-.034-.018,0c-.275-.049-.581-.1-.922-.145l-.011,0h0c-.424-.059-.9-.116-1.438-.168-4.089-.4-8.916,2.75-10.449,3.724a4.31,4.31,0,0,0-1.87,2.066,3.777,3.777,0,0,0-2.017,1.634c-.776,1.087-.1,10.326.274,14.725l-.273,11.2s0,.008,0,.013v.033a3.073,3.073,0,0,0,1.581,2.6l6.577,3.263a9.278,9.278,0,0,0,3.439.836h8.665a9.284,9.284,0,0,0,3.439-.835l6.577-3.273a3.115,3.115,0,0,0,1.581-2.623ZM55,47.89l-6.548,3.259a6.928,6.928,0,0,1-2.307.569H37.481a6.926,6.926,0,0,1-2.313-.573l-6.575-3.262a.84.84,0,0,1-.17-.3l.415-17.046c.05-.155.1-.311.137-.476a38.978,38.978,0,0,0,.668-4.389,10.244,10.244,0,0,1,4.374.7,23.954,23.954,0,0,1,4.927,2.462s-.72,1.491,0,2.027a13.547,13.547,0,0,0,2.852.681l.054.014.09.024L42,31.6l.084.025.054.017.092.03.04.014c.042.015.083.03.123.047l.033.014.085.037.041.02.071.036.039.021.07.042.03.018c.031.021.061.042.089.064l.014.012c.023.019.044.037.065.057l.024.025c.016.017.031.033.045.05s.015.018.022.028a.608.608,0,0,1,.038.055l.016.026a.635.635,0,0,1,.041.086h0a.564.564,0,0,1,.029.109c0,.012,0,.024,0,.036a.659.659,0,0,1,0,.077c0,.014,0,.028,0,.043s-.006.049-.01.074-.006.029-.009.044-.015.052-.024.079-.008.026-.014.039a1.142,1.142,0,0,1-.049.108l-.006.011c-.021.04-.044.08-.07.12l-.025.037c-.019.028-.038.056-.059.084l-.034.044q-.03.039-.063.079l-.038.044-.075.082-.035.038c-.035.036-.07.072-.107.107l-.011.011c-.041.04-.085.08-.128.119l-.029.025-.1.09-.04.033-.1.081-.04.032-.108.084-.03.023c-.1.072-.192.142-.286.208-.524.367-.983.617-.983.617a7.927,7.927,0,0,0,.983-.113h0c.15-.025.313-.056.488-.094l.018,0,.152-.034.045-.011.133-.032.057-.014.127-.033.064-.017.13-.036.064-.018.145-.043.053-.016.2-.065h0l.2-.069.069-.025.139-.051.084-.032.129-.05.089-.036.129-.053.09-.039.132-.059.088-.04.144-.068.077-.037q.107-.052.213-.107l.009,0a1.287,1.287,0,0,0,.792-1.119c.056-1.305-1.7-2.948-1.7-2.948s1.189-.131,2.584-.406q.22-.043.446-.091a15.95,15.95,0,0,0,2.39-.678c.64-.251,1.357-.588,2.041-.932.137-.069.273-.137.406-.207a7.119,7.119,0,0,0,1.406-1.2.509.509,0,0,1,.274.516c0,.778.783,2.1.985,3.141.04.209.088.407.142.59.029.1.06.186.094.272L55.2,47.553A.823.823,0,0,1,55,47.89Z" fill="#9d1010"/><path d="M43.149,65.514l6.546.9v-1.75l-6.546-.9Z" transform="translate(-10.162 -28.623)" fill="#9d1010"/><path d="M69.387,66.414l6.546-.9v-1.75l-6.546.9Z" transform="translate(-25.293 -28.623)" fill="#9d1010"/></g></g></svg>