<svg xmlns="http://www.w3.org/2000/svg" width="30.264" height="30.267" viewBox="0 0 30.264 30.267"><g transform="translate(0 0)"><path d="M34.446,27.109,27.836,23.7a1.526,1.526,0,0,0-2.115.787l-.762,1.9a1.465,1.465,0,0,1-2.138.69,29.85,29.85,0,0,1-5.354-4.269A29.908,29.908,0,0,1,13.2,17.46a1.465,1.465,0,0,1,.69-2.138l1.9-.762a1.526,1.526,0,0,0,.788-2.115L13.171,5.833a1.5,1.5,0,0,0-1.479-.822,8.626,8.626,0,0,0-2.343.57A6.776,6.776,0,0,0,7.114,7.056c-4.254,4.254-1.857,13.55,5.352,20.758s16.5,9.606,20.758,5.352A6.705,6.705,0,0,0,34.7,30.932a8.5,8.5,0,0,0,.565-2.266A1.544,1.544,0,0,0,34.446,27.109Z" transform="translate(-5.009 -5.005)" fill="#efefef"/></g></svg>