<svg id="mars" xmlns="http://www.w3.org/2000/svg" viewBox="0 0 36.062 36"><defs><style>.cls-1{fill:#9500ff}</style></defs><path id="Path_3493" data-name="Path 3493" class="cls-1" d="M33.815 12.034a2.247 2.247 0 0 0 2.247-2.247V2.692c0-.075 0-.149-.011-.222 0-.032-.009-.064-.014-.1s-.011-.081-.018-.121-.018-.074-.027-.111-.016-.068-.026-.1-.025-.072-.038-.108-.023-.067-.036-.1-.031-.067-.046-.1-.03-.067-.048-.1-.037-.064-.056-.1-.036-.063-.056-.093-.052-.071-.078-.106l-.052-.07q-.07-.085-.15-.165c-.053-.053-.109-.1-.166-.15-.023-.011-.046-.026-.068-.046s-.072-.053-.11-.078S35 .786 34.973.768s-.066-.041-.1-.059-.062-.03-.093-.045-.07-.034-.106-.049-.061-.022-.091-.034-.077-.029-.116-.041-.06-.016-.091-.023-.082-.017-.123-.03-.068-.01-.1-.016-.077-.013-.116-.017c-.056-.006-.114-.007-.171-.009h-7.149a2.247 2.247 0 1 0 0 4.495h1.67L25 8.325a15.64 15.64 0 1 0 3.169 3.187l3.395-3.395v1.67a2.247 2.247 0 0 0 2.251 2.247zM15.627 31.949a11.132 11.132 0 1 1 11.132-11.132 11.145 11.145 0 0 1-11.132 11.132z" transform="translate(0 -.444)"/><path id="Path_3494" data-name="Path 3494" class="cls-1" d="M15.627 303.659a15.645 15.645 0 0 0 15.627-15.627v-.126h-4.5v.126a11.132 11.132 0 1 1-22.264 0v-.126H0v.126a15.645 15.645 0 0 0 15.627 15.627z" transform="translate(0 -267.659)"/></svg>