<svg xmlns="http://www.w3.org/2000/svg" viewBox="0 0 36.088 36"><path data-name="Union 2" d="M7.091 21.5A14.421 14.421 0 0 1 10 12.8l-1.275-1.243-1.583 1.638a2.037 2.037 0 0 1-2.876.125 2.037 2.037 0 0 1 .024-2.879l1.6-1.653-1.716-1.673v1.55a2.085 2.085 0 0 1-2.085 2.085A2.085 2.085 0 0 1 0 8.668V2.086v-.047c0-.053 0-.106.008-.159 0-.036.01-.071.015-.107s.008-.064.014-.094.018-.076.028-.114l.022-.084c.008-.028.024-.072.037-.108s.02-.057.032-.085l.046-.1c.016-.034.026-.058.041-.087s.037-.062.055-.093S.33.953.348.926s.05-.069.075-.1S.453.785.47.765A1.931 1.931 0 0 1 .608.612c.05-.05.1-.1.154-.139C.783.455.805.44.827.424s.065-.051.1-.073l.087-.052c.029-.017.058-.037.089-.053l.091-.044c.031-.014.061-.03.093-.042l.092-.034c.031-.011.067-.025.1-.035s.063-.017.094-.024.069-.019.1-.025.074-.012.112-.017.059-.011.089-.014a2.33 2.33 0 0 1 .206-.01h6.582a2.085 2.085 0 0 1 2.085 2.085A2.084 2.084 0 0 1 8.662 4.17H7.113l1.666 1.624.193-.2 1.788-1.85a2.038 2.038 0 0 1 2.876-.125 2.036 2.036 0 0 1-.024 2.879l-1.786 1.85-.208.216 1.336 1.3A14.424 14.424 0 0 1 21.589 7a14.515 14.515 0 0 1 14.5 14.5 14.515 14.515 0 0 1-14.5 14.5A14.515 14.515 0 0 1 7.091 21.5zm14.5 10.328A10.34 10.34 0 0 0 31.917 21.5a10.339 10.339 0 0 0-10.328-10.327h-.117a10.339 10.339 0 0 0-10.21 10.326 10.34 10.34 0 0 0 10.21 10.328l.117.003z" fill="#9500ff" class="cls-1"/></svg>