<svg id="venus" xmlns="http://www.w3.org/2000/svg" viewBox="0 0 28.723 40"><defs><style>.cls-1{fill:#fff}</style></defs><path id="SVGCleanerId_0" class="cls-1" d="M100.9 14.361a14.361 14.361 0 1 0-16.429 14.213v2.685h-2.545a2.065 2.065 0 0 0 0 4.131h2.545v2.546a2.065 2.065 0 0 0 4.131 0v-2.547h2.545a2.065 2.065 0 0 0 0-4.131H88.6v-2.684a14.383 14.383 0 0 0 12.3-14.213zM86.536 24.592a10.231 10.231 0 1 1 10.231-10.231 10.242 10.242 0 0 1-10.231 10.231z" transform="translate(-72.175)"/><g id="Group_710" data-name="Group 710"><path id="SVGCleanerId_0_1_" class="cls-1" d="M100.9 14.361a14.361 14.361 0 1 0-16.429 14.213v2.685h-2.545a2.065 2.065 0 0 0 0 4.131h2.545v2.546a2.065 2.065 0 0 0 4.131 0v-2.547h2.545a2.065 2.065 0 0 0 0-4.131H88.6v-2.684a14.383 14.383 0 0 0 12.3-14.213zM86.536 24.592a10.231 10.231 0 1 1 10.231-10.231 10.242 10.242 0 0 1-10.231 10.231z" transform="translate(-72.175)"/></g><path id="Path_3492" data-name="Path 3492" class="cls-1" d="M86.536 0a14.378 14.378 0 0 0-14.361 14.361v.2h4.134c0-.068-.005-.136-.005-.2a10.231 10.231 0 1 1 20.461 0c0 .069 0 .137-.005.2h4.14v-.2A14.378 14.378 0 0 0 86.536 0z" transform="translate(-72.175)"/></svg>