<svg xmlns="http://www.w3.org/2000/svg" viewBox="0 0 18.27 18.82"><defs><style>.cls-1{fill:#868688;}</style></defs><title>Ресурс 4</title><g id="Слой_2" data-name="Слой 2"><g id="Group_211" data-name="Group 211"><g id="g4780"><g id="g15"><path id="path17-6" class="cls-1" d="M16.84,13.69c-.56-.45-1.17-.87-1.77-1.29-1.19-.83-2.28-.9-3.16.45a1.39,1.39,0,0,1-1.9.47l0,0A8.47,8.47,0,0,1,5.51,8.94,1.68,1.68,0,0,1,6,6.62l.06,0c.51-.34,1-.74,1-1.48C7,4.14,4.62.92,3.69.58a1.63,1.63,0,0,0-1.15,0A3.25,3.25,0,0,0,.08,4.46a3.09,3.09,0,0,0,.26.74A24,24,0,0,0,13.61,18.56a6.37,6.37,0,0,0,1,.26,4.41,4.41,0,0,0,3.57-2.7c.51-1.35-.51-1.81-1.28-2.44Z"/><path id="path19-1" class="cls-1" d="M9.88,1c4.54.7,6.63,2.86,7.22,7.43,0,.43-.1,1.06.51,1.07s.48-.61.48-1A8.64,8.64,0,0,0,10,0C9.7.06,9-.21,9,.52c0,.51.55.42.93.48Z"/><path id="path21-2" class="cls-1" d="M10.77,2.24c-.44-.05-1-.26-1.12.34s.54.58.95.67c2.81.63,3.78,1.65,4.24,4.43.07.4-.06,1,.63.93.51-.08.32-.62.36-.93A5.73,5.73,0,0,0,10.77,2.24Z"/><path id="path23" class="cls-1" d="M11,4.41c-.29,0-.58,0-.69.35-.16.46.18.58.51.63a2.06,2.06,0,0,1,1.88,2c0,.31.23.56.51.51s.45-.42.44-.77A3,3,0,0,0,11,4.39Z"/></g></g></g></g></svg>