<svg xmlns="http://www.w3.org/2000/svg" viewBox="0 0 27.947 24.747"><g transform="translate(-844.053 -232.555)"><g transform="translate(844.052 208.555)"><g transform="translate(0 24)"><g transform="translate(0 0)"><circle cx="1.92" cy="1.92" r="1.92" transform="translate(8.614 6.107)"/><path d="M26.294,39.094a5.913,5.913,0,0,0-3.307-1.573V27.76a3.839,3.839,0,0,0-1.093-2.667A3.726,3.726,0,0,0,19.227,24H3.76a3.839,3.839,0,0,0-2.667,1.093A3.726,3.726,0,0,0,0,27.76V43.681a3.839,3.839,0,0,0,1.093,2.667A3.726,3.726,0,0,0,3.76,47.441h14.96a5.642,5.642,0,0,0,7.574-8.347ZM1.413,27.76A2.368,2.368,0,0,1,3.76,25.413H19.227a2.368,2.368,0,0,1,2.347,2.347v8.32l-3.947-3.92a.716.716,0,0,0-1.013,0l-5.947,5.974L6.64,34.08a.716.716,0,0,0-1.013,0L1.413,38.347Zm2.32,18.294v-.027a2.34,2.34,0,0,1-1.653-.693,2.434,2.434,0,0,1-.667-1.653V40.347L6.16,35.6l4.027,4.027a.742.742,0,0,0,1.013,0l5.947-5.974,3.893,3.92-.24.08a2.477,2.477,0,0,0-.347.107c-.107.027-.213.08-.32.107a.8.8,0,0,0-.213.107,2.477,2.477,0,0,0-.267.133l-.4.24c-.08.053-.133.08-.213.133-.053.027-.08.053-.133.08a3.217,3.217,0,0,0-.64.56,5.641,5.641,0,0,0-1.653,4,5.863,5.863,0,0,0,.133,1.173c.027.107.053.187.08.293.08.267.16.533.267.8v.027a4.892,4.892,0,0,0,.347.64Zm21.521.027a4.219,4.219,0,0,1-5.894.053c-.107-.107-.213-.24-.32-.347-.08-.08-.16-.187-.24-.267a2.532,2.532,0,0,1-.267-.453c-.053-.107-.107-.187-.16-.293a2.253,2.253,0,0,1-.133-.453c-.027-.107-.08-.24-.107-.347a4.414,4.414,0,0,1-.08-.853,4.28,4.28,0,0,1,1.227-2.987,4.168,4.168,0,0,1,2.987-1.227,4.28,4.28,0,0,1,2.987,1.227,4.123,4.123,0,0,1,1.227,2.987A4.265,4.265,0,0,1,25.254,46.081Z" transform="translate(0 -24)"/><path d="M293.014,266.747h-1.627V265.12a.72.72,0,1,0-1.44,0v1.627H288.32a.72.72,0,1,0,0,1.44h1.627v1.627a.72.72,0,1,0,1.44,0v-1.627h1.627a.72.72,0,1,0,0-1.44Z" transform="translate(-268.426 -248.373)"/></g></g></g></g></svg>