<svg xmlns="http://www.w3.org/2000/svg" viewBox="0 0 104 28"><defs><style>.a,.b{fill:#fff;}.a{font-size:21px;font-family:SegoeUI-Semibold, Segoe UI;font-weight:600;}</style></defs><g transform="translate(-112 -64)"><text class="a" transform="translate(137 87)"><tspan x="0" y="0">Pending</tspan></text><g transform="translate(99.041 70.267)"><g transform="translate(12.959 -0.001)"><g transform="translate(0 0)"><path class="b" d="M131.965,121.452a1.257,1.257,0,0,0,.923-.868l.467-1.374.188.064a.166.166,0,0,0,.21-.1l.251-.737a.166.166,0,0,0-.1-.21l-6.057-2.06a.166.166,0,0,0-.21.1l-.251.737a.166.166,0,0,0,.1.21l.188.064-.476,1.4a1.013,1.013,0,0,0,.206,1.221l1.226,1.468-.137.4c-.469.1-1.695.369-1.86.416a1.258,1.258,0,0,0-.923.868l-.4,1.183-.188-.064a.166.166,0,0,0-.21.1l-.251.737a.166.166,0,0,0,.1.21l6.057,2.06a.166.166,0,0,0,.21-.1l.25-.737a.166.166,0,0,0-.1-.21l-.188-.064.411-1.208a1.013,1.013,0,0,0-.206-1.221l-1.226-1.468.137-.4C130.574,121.767,131.8,121.5,131.965,121.452Zm-2.56,1.071,1.333,1.6a.771.771,0,0,1,.171.25.853.853,0,0,1-.072.4l-.411,1.208-4.555-1.549.4-1.183a.674.674,0,0,1,.525-.489c.131-.038,1.259-.285,1.985-.442a.3.3,0,0,0,.219-.195l.245-.719a.3.3,0,0,0-.053-.286l-1.329-1.591,0,0a.768.768,0,0,1-.171-.251.852.852,0,0,1,.072-.4l.476-1.4,4.555,1.549-.467,1.374a.673.673,0,0,1-.525.489c-.131.038-1.259.285-1.984.442a.3.3,0,0,0-.219.195l-.244.719A.3.3,0,0,0,129.4,122.524Z" transform="translate(-120.277 -111.607)"/><path class="b" d="M25.685,16.587c-.133.075-.27.147-.407.214q-.033.016-.064.036a.7.7,0,0,0-.066.027,7.463,7.463,0,0,1-1.856.587l-.025,0c-.151.027-.3.049-.456.066h0a7.707,7.707,0,0,1-.845.046,7.566,7.566,0,0,1-7.123-5.04c-.016-.045-.031-.089-.046-.134a7.557,7.557,0,0,1,0-4.761l.016-.049q.022-.065.046-.13l.022-.061a7.584,7.584,0,0,1,5.269-4.709h0l.109-.026.012,0a7.55,7.55,0,0,1,1.65-.19l.007.777c0,.241.154.311.338.155L23.907,2a.353.353,0,0,0,0-.561L22.239.08C22.052-.073,21.9,0,21.9.24l.007.775A8.94,8.94,0,0,0,15.6,3.651q-.249.249-.476.515l0,0-.016.02a8.926,8.926,0,0,0-2.136,5.563c0,.016,0,.032,0,.048,0,.069,0,.139,0,.208,0,.113,0,.228.007.341,0,.013,0,.026,0,.039a8.921,8.921,0,0,0,1.865,5.124l.011.016c.111.144.229.286.349.423l.024.025q.183.206.379.4a8.934,8.934,0,0,0,4.845,2.509l.017,0,.012,0a9.117,9.117,0,0,0,1.49.123,8.925,8.925,0,0,0,3.8-.839.717.717,0,0,0,.074-.04.7.7,0,0,0,.079-.033c.164-.08.327-.166.486-.256a.724.724,0,1,0-.713-1.26Z" transform="translate(-12.959 0.001)"/><path class="b" d="M392.737,110.451a.724.724,0,0,0,1.2-.807c-.1-.151-.209-.3-.32-.446a.724.724,0,1,0-1.149.879C392.561,110.2,392.652,110.325,392.737,110.451Z" transform="translate(-377.463 -104.649)"/><path class="b" d="M425.6,173.529c.047.145.089.294.127.443a.724.724,0,0,0,1.4-.357c-.045-.177-.1-.354-.151-.527a.724.724,0,1,0-1.378.441Z" transform="translate(-409.403 -165.826)"/><path class="b" d="M376.925,375.815a.724.724,0,0,0-1.021.074c-.1.116-.2.23-.312.339a.724.724,0,0,0,1.035,1.012c.127-.13.252-.266.371-.4A.724.724,0,0,0,376.925,375.815Z" transform="translate(-361.193 -360.929)"/><path class="b" d="M435.634,243.728a.723.723,0,0,0-.745.7c0,.153-.014.308-.028.46a.724.724,0,0,0,.655.787c.023,0,.045,0,.067,0a.724.724,0,0,0,.72-.658c.017-.182.028-.366.033-.549A.724.724,0,0,0,435.634,243.728Z" transform="translate(-418.336 -234.183)"/><path class="b" d="M417.354,314.173a.724.724,0,0,0-.938.41c-.056.142-.117.285-.181.424a.724.724,0,1,0,1.313.608c.077-.165.149-.335.215-.5A.724.724,0,0,0,417.354,314.173Z" transform="translate(-400.378 -301.822)"/><path class="b" d="M341.318,61.548a.724.724,0,0,0-.151-1.012c-.146-.108-.3-.214-.451-.313a.724.724,0,0,0-.789,1.213c.128.083.256.172.379.263a.723.723,0,0,0,1.012-.151Z" transform="translate(-326.806 -57.752)"/></g></g></g></g></svg>