<svg xmlns="http://www.w3.org/2000/svg" viewBox="0 0 104.001 91.119">
  <defs>
    <style>
      .cls-1 {
        fill: #959595;
        fill-rule: evenodd;
      }
    </style>
  </defs>
  <g id="if_icon-20-sad-face-eyebrows_314612" transform="translate(-28.502 -32.881)">
    <g id="icon-20-sad-face-eyebrows" transform="translate(28.502 32.881)">
      <path id="sad-face-eyebrows" class="cls-1" d="M80.371,110.017C56.032,110.017,42.049,124,42.049,124v-6.991s13.983-13.983,38.322-13.983,38.584,13.983,38.584,13.983V124s-14.244-13.983-38.584-13.983Zm28.946-77.136-3.91,5.8,23.185,15.639,3.91-5.8L109.317,32.881ZM28.5,48.519l3.91,5.8L55.6,38.677l-3.91-5.8L28.5,48.519ZM49.04,68.068a6.991,6.991,0,1,0-6.991-6.991,6.991,6.991,0,0,0,6.991,6.991Zm62.923,0a6.991,6.991,0,1,0-6.991-6.991,6.991,6.991,0,0,0,6.991,6.991Z" transform="translate(-28.502 -32.881)"/>
    </g>
  </g>
</svg>
