<svg xmlns="http://www.w3.org/2000/svg" viewBox="0 0 10.923 13"><defs><style>.a{fill:red;}.b{fill:#fff;stroke:#fff;stroke-width:0.5px;}</style></defs><g transform="translate(7.445 0.384)"><path class="a" d="M28.021,3.348c-.007-.351-.013-.683-.013-1a.455.455,0,0,0-.455-.455A6.274,6.274,0,0,1,22.89.129a.455.455,0,0,0-.634,0,6.273,6.273,0,0,1-4.662,1.76.455.455,0,0,0-.455.455c0,.321-.006.653-.013,1-.062,3.266-.148,7.74,5.3,9.627a.455.455,0,0,0,.3,0C28.169,11.087,28.083,6.614,28.021,3.348Z" transform="translate(-24.558 -0.384)"/><path class="b" d="M39.028,19.617,41.149,17.5a.291.291,0,1,0-.411-.411l-2.121,2.121L36.5,17.085a.291.291,0,0,0-.411.411l2.121,2.121-2.121,2.121a.291.291,0,1,0,.411.411l2.121-2.121,2.121,2.121a.291.291,0,1,0,.411-.411Z" transform="translate(-40.62 -13.252)"/></g></svg>