<svg xmlns="http://www.w3.org/2000/svg" viewBox="0 0 16 15.24"><defs><style>.a{fill:#fff;}</style></defs><g transform="translate(-1216 -1536)"><g transform="translate(1215.999 1536)"><g transform="translate(0.001)"><path class="a" d="M9.152,9.914l-.517-.268a.666.666,0,0,1-.367-.589v-.84A5.246,5.246,0,0,0,9.2,6.378a.993.993,0,0,0,.4-.79V4.572a.985.985,0,0,0-.267-.667V2.554A2.2,2.2,0,0,0,8.776.9,3.452,3.452,0,0,0,6.134,0,3.452,3.452,0,0,0,3.492.9a2.2,2.2,0,0,0-.558,1.657V3.905a.984.984,0,0,0-.267.667V5.588a.992.992,0,0,0,.4.79A5.241,5.241,0,0,0,4,8.216v.84a.667.667,0,0,1-.367.589L1.255,10.882A2.276,2.276,0,0,0,0,12.893V13.97a.26.26,0,0,0,.267.254H9.342a3.634,3.634,0,0,1-.19-4.31Z" transform="translate(-0.001 0)"/><path class="a" d="M293.6,290.132a3.306,3.306,0,1,0,3.467,3.3A3.391,3.391,0,0,0,293.6,290.132Zm1.6,3.556h-1.333v1.27a.267.267,0,0,1-.533,0v-1.27H292a.254.254,0,1,1,0-.508h1.333v-1.27a.267.267,0,0,1,.533,0v1.27H295.2a.254.254,0,1,1,0,.508Z" transform="translate(-281.064 -281.496)"/></g></g></g></svg>