<svg heigth="13px" xmlns="http://www.w3.org/2000/svg" viewBox="0 0 10.923 13"><defs><style>.a{fill:#0081d1;}.b{fill:#fff;}</style></defs><path class="a" d="M28.021,3.348c-.007-.351-.013-.683-.013-1a.455.455,0,0,0-.455-.455A6.274,6.274,0,0,1,22.89.129a.455.455,0,0,0-.634,0,6.273,6.273,0,0,1-4.662,1.76.455.455,0,0,0-.455.455c0,.321-.006.653-.013,1-.062,3.266-.148,7.74,5.3,9.627a.455.455,0,0,0,.3,0C28.169,11.087,28.083,6.614,28.021,3.348Z" transform="translate(-17.112 0)"/><path class="b" d="M74.028,79.074l-3.1,3.1-1.323-1.323a.642.642,0,0,0-.908.908l1.777,1.777a.642.642,0,0,0,.908,0l3.554-3.554a.642.642,0,1,0-.908-.908Z" transform="translate(-66.015 -74.719)"/></svg>