<svg xmlns="http://www.w3.org/2000/svg" xmlns:xlink="http://www.w3.org/1999/xlink" viewBox="0 0 32 29.753"><defs><style>.a,.c{fill:none;}.b{clip-path:url(#a);}.c{stroke:#000;}</style><clipPath id="a"><rect class="a" width="32" height="29.753"/></clipPath></defs><g class="b" transform="translate(0)"><g transform="translate(-112 -113.296)"><path class="c" d="M31.947,10.7c-.467-5.141-4.106-8.871-8.66-8.871a8.609,8.609,0,0,0-7.375,4.25,8.3,8.3,0,0,0-7.2-4.25C4.16,1.826.52,5.556.054,10.7a9.148,9.148,0,0,0,.272,3.371,14.46,14.46,0,0,0,4.43,7.393L15.9,31.579l11.34-10.116a14.462,14.462,0,0,0,4.43-7.394A9.168,9.168,0,0,0,31.947,10.7Z" transform="translate(112 111.47)"/><path class="c" d="M4.594,1.826C2.193,1.826.274,3.792.028,6.5A6.583,6.583,0,0,1,1.837,2.82C3.016,1.794,5.417,1.826,4.594,1.826Z" transform="translate(115 115.47)"/></g></g></svg>