<svg xmlns="http://www.w3.org/2000/svg" viewBox="0 0 21.48 21.52"><defs><style>.cls-1{fill:#868688;}</style></defs><title>Ресурс 6</title><g id="Слой_2" data-name="Слой 2"><g id="Group_211" data-name="Group 211"><g id="_34hbmL.tif" data-name=" 34hbmL.tif"><path id="Path_230" data-name="Path 230" class="cls-1" d="M10.76,0c1.44,0,2.88,0,4.33.08A7.1,7.1,0,0,1,18.66,1a5.33,5.33,0,0,1,2.58,3.78,18.73,18.73,0,0,1,.23,3c0,2.13,0,4.27,0,6.4A10.38,10.38,0,0,1,21,17.5a5.41,5.41,0,0,1-4.33,3.77,18.59,18.59,0,0,1-3,.24c-2.13,0-4.26,0-6.38,0A10.69,10.69,0,0,1,4,21.09,5.4,5.4,0,0,1,.26,16.76a17.34,17.34,0,0,1-.25-3c0-2.13,0-4.27,0-6.4A10.38,10.38,0,0,1,.44,4.07,5.4,5.4,0,0,1,4.78.3a21,21,0,0,1,3-.24c1,0,2,0,3,0Zm8.82,10.6h0V8.05c0-.82-.05-1.63-.13-2.45a3.63,3.63,0,0,0-3.07-3.41A17.26,17.26,0,0,0,13.47,2c-1.83,0-3.65,0-5.47,0a19,19,0,0,0-2.72.19A3.49,3.49,0,0,0,2.22,4.83,6.16,6.16,0,0,0,2,6.36c-.05,2-.08,3.9-.07,5.84,0,1.24,0,2.48.14,3.72a3.6,3.6,0,0,0,3.11,3.44A19.46,19.46,0,0,0,8,19.57c1.8,0,3.57,0,5.39,0,.82,0,1.65-.06,2.46-.14a3.9,3.9,0,0,0,2.1-.82,4,4,0,0,0,1.45-3.1C19.52,13.9,19.54,12.24,19.58,10.6Z"/><path id="Path_231" data-name="Path 231" class="cls-1" d="M16.25,10.78a5.52,5.52,0,1,1-5.51-5.52h0A5.5,5.5,0,0,1,16.25,10.78Zm-5.52,3.57a3.57,3.57,0,1,0-3.57-3.57h0A3.57,3.57,0,0,0,10.73,14.35Z"/><path id="Path_232" data-name="Path 232" class="cls-1" d="M17.76,5a1.29,1.29,0,0,1-1.29,1.3A1.31,1.31,0,0,1,15.17,5a1.29,1.29,0,0,1,1.29-1.28A1.26,1.26,0,0,1,17.76,5Z"/></g></g></g></svg>