<svg xmlns="http://www.w3.org/2000/svg" viewBox="0 0 18.81 15.76"><defs><style>.cls-1{fill:#868688;}</style></defs><title>Ресурс 2</title><g id="Слой_2" data-name="Слой 2"><g id="Group_211" data-name="Group 211"><g id="Het1PX.tif"><path id="Path_229" data-name="Path 229" class="cls-1" d="M18.81,1a11.45,11.45,0,0,1-.28,1.44q-1.29,6.14-2.59,12.25a2,2,0,0,1-.23.68.76.76,0,0,1-.9.38,1.63,1.63,0,0,1-.66-.32l-3.92-2.9a.25.25,0,0,0-.36,0l0,0c-.64.64-1.3,1.26-1.93,1.9a1.15,1.15,0,0,1-.88.38.46.46,0,0,1-.47-.36c-.4-1.25-.81-2.51-1.22-3.76-.14-.43-.29-.85-.42-1.28a.37.37,0,0,0-.28-.28L.81,7.94a1.87,1.87,0,0,1-.51-.2A.47.47,0,0,1,0,7.14a.45.45,0,0,1,.19-.22A2.23,2.23,0,0,1,1,6.5l5.22-2L17.45.14l.09,0a.87.87,0,0,1,1.17.33.93.93,0,0,1,.1.54ZM7,13.58a.11.11,0,0,0,.07-.12c.08-.91.17-1.83.25-2.75a.74.74,0,0,1,.26-.55l7.33-6.6.46-.42c.06-.06.14-.13.1-.23s-.16-.1-.26-.08a1.26,1.26,0,0,0-.51.21l-9,5.7a.28.28,0,0,0-.15.36v0c.38,1.11.74,2.23,1.1,3.35Z"/></g></g></g></svg>