<svg xmlns="http://www.w3.org/2000/svg" width="31.961" height="31.961" viewBox="0 0 31.961 31.961">
  <path id="Path_51" data-name="Path 51" d="M47.87,40.082v4.435a6.345,6.345,0,0,1-6.331,6.331H25.219a6.345,6.345,0,0,1-6.331-6.331V28.2a6.345,6.345,0,0,1,6.331-6.331h4.435a1.117,1.117,0,0,1,0,2.234H25.219a4.124,4.124,0,0,0-4.1,4.1V44.518a4.123,4.123,0,0,0,4.1,4.1H41.539a4.124,4.124,0,0,0,4.1-4.1V40.082h0a1.117,1.117,0,1,1,2.234,0Zm2.979-20.077-.327-.79-.79-.327H40.747a1.117,1.117,0,1,0,0,2.234h6.287L35.98,32.177a1.117,1.117,0,0,0,1.58,1.58L48.614,22.7V28.99a1.117,1.117,0,0,0,2.234,0Z" transform="translate(-18.888 -18.888)" fill="#fff"/>
</svg>
