<svg xmlns="http://www.w3.org/2000/svg" viewBox="0 0 16 14.281"><defs><style>.a{fill:#2a2a2a;}</style></defs><g transform="translate(0 -20.857)"><g transform="translate(0 20.857)"><g transform="translate(0 0)"><path class="a" d="M274.588,186.894a.405.405,0,0,0-.142-.209,3.422,3.422,0,0,0-1.766-.749,1.94,1.94,0,0,0-.268-.013,2.532,2.532,0,0,0-.286.012,3.462,3.462,0,0,0-1.7.749.4.4,0,0,0-.142.209,7.085,7.085,0,0,0-.231,2.873,17.413,17.413,0,0,0,.636,2.78.405.405,0,0,0,.142.209,2.714,2.714,0,0,0,3.209,0,.406.406,0,0,0,.142-.209,17.42,17.42,0,0,0,.636-2.78A7.086,7.086,0,0,0,274.588,186.894Zm-1.8,1.653a.355.355,0,1,1-.709,0v-1.479a.355.355,0,1,1,.709,0Z" transform="translate(-258.873 -179.121)"/><path class="a" d="M10.866,34.067h-.639L9.7,32.273h1.077c-.034-.192-.062-.384-.085-.577a7.965,7.965,0,0,1-.024-1.69H1.236V22.093H14.013v5.079a3.627,3.627,0,0,1,1.236.362v-6.06a.618.618,0,0,0-.618-.618H.618A.618.618,0,0,0,0,21.475V31.655a.618.618,0,0,0,.618.618H5.55l-.528,1.794H4.384a.294.294,0,0,0-.294.294v.483a.294.294,0,0,0,.294.294h6.483a.294.294,0,0,0,.294-.294v-.483A.294.294,0,0,0,10.866,34.067Z" transform="translate(0 -20.857)"/></g></g></g></svg>