<svg xmlns="http://www.w3.org/2000/svg" xmlns:xlink="http://www.w3.org/1999/xlink" viewBox="0 0 400 400">
  <defs>
    <style>
      .cls-1 {
        clip-path: url(#clip-_400);
      }

      .cls-2 {
        fill: #cd0061;
      }

      .cls-3 {
        fill: #fff;
      }
    </style>
    <clipPath id="clip-_400">
      <rect width="400" height="400"/>
    </clipPath>
  </defs>
  <g id="_400" data-name="400" class="cls-1">
    <rect class="cls-3" width="400" height="400"/>
    <path id="Path_1" data-name="Path 1" class="cls-2" d="M31.869,160.625c65.413,63.892,1.521,1.521,71.5,69.976C247.883,89.128,199.2,131.722,270.7,66.309c28.9-36.509,88.231-16.733,88.231,30.425a49,49,0,0,1-10.649,30.425c-13.691,13.691-123.219,124.741-141.474,143l-19.776-19.776L328.508,105.861C342.2,83.043,308.732,60.224,292,81.521c-4.564,6.085-167.335,165.814-170.377,168.856,4.564,4.564,79.1,79.1,83.667,82.146l173.42-176.462a91.428,91.428,0,0,0,21.3-59.328c0-77.583-88.231-120.177-149.08-77.583-6.085,6.085-139.953,141.474-149.08,150.6-7.606-7.606-42.594-41.073-47.158-45.637C24.262,92.17,48.6,38.927,92.718,38.927c12.17,0,28.9,4.564,38.031,18.255l-19.776,21.3C101.845,69.352,95.76,67.83,92.718,67.83c-18.255,0-27.382,21.3-16.733,34.988l31.946,31.946c3.042-3.042,63.892-65.413,68.455-71.5C162.694,23.715,127.706,2.418,86.633,3.939,4.487,6.981-30.5,110.425,31.869,160.625" transform="translate(-0.005 32.708)"/>
  </g>
</svg>
