<svg height="1982.111" viewBox="0 0 2841.736 1982.111" width="2841.736" xmlns="http://www.w3.org/2000/svg" xmlns:xlink="http://www.w3.org/1999/xlink"><radialGradient id="a" cx="2201.297" cy="1339.902" gradientUnits="userSpaceOnUse" r="600"><stop offset="0" stop-color="#fff"/><stop offset=".039" stop-color="#f1f1f1"/><stop offset=".249" stop-color="#a9a9a9"/><stop offset=".446" stop-color="#6d6d6d"/><stop offset=".625" stop-color="#3e3e3e"/><stop offset=".783" stop-color="#1c1c1c"/><stop offset=".913" stop-color="#070707"/><stop offset="1"/></radialGradient><radialGradient id="b" cx="640.439" cy="642.207" r="600" xlink:href="#a"/><radialGradient id="c" cx="1063.409" cy="983.943" gradientUnits="userSpaceOnUse" r="335.116"><stop offset=".005" stop-color="#22416d"/><stop offset="1" stop-color="#0071bc"/></radialGradient><mask id="d" height="1284.416" maskUnits="userSpaceOnUse" width="1280.878" x="1560.858" y="697.695"><path d="m1601.297 739.902h1200v1200h-1200z" fill="url(#a)"/></mask><mask id="e" height="1284.416" maskUnits="userSpaceOnUse" width="1280.878" x="0" y="0"><path d="m40.439 42.207h1200v1200h-1200z" fill="url(#b)"/></mask><radialGradient id="f" cx="1351.51" cy="1037.244" r="129.434" xlink:href="#c"/><radialGradient id="g" cx="1596.48" cy="1037.244" r="128.502" xlink:href="#c"/><radialGradient id="h" cx="1831.381" cy="1039.71" r="125.189" xlink:href="#c"/><path d="m1197.945 830.319c-102.824-1.7-134.536-44.774-134.536-44.774s-31.712 43.073-134.536 44.774c0 0 3.955 46.806-47.457 49.325 0 0 0 230.046 181.993 302.7 181.993-72.65 181.993-302.7 181.993-302.7-51.412-2.518-47.457-49.325-47.457-49.325zm-174.412 235.417 22.067-103.429a32.717 32.717 0 1 1 35.615 0l22.069 103.429z" fill="url(#c)" opacity=".13"/><g mask="url(#d)"><g fill="#22416d" opacity=".26"><path d="m1650.324 801h-59.644l-29.822-51.651 29.822-51.649h59.644l29.822 51.653zm-59.3-.6h58.95l29.475-51.051-29.472-51.049h-58.95l-29.475 51.053z"/><path d="m1739.444 852.352h-59.644l-29.822-51.652 29.822-51.651h59.644l29.822 51.651zm-59.3-.6h58.95l29.475-51.053-29.469-51.051h-58.95l-29.478 51.052z"/><path d="m1829.069 801h-59.644l-29.825-51.652 29.822-51.653h59.644l29.822 51.653zm-59.3-.6h58.95l29.475-51.051-29.472-51.049h-58.95l-29.472 51.048z"/><path d="m1918.19 852.352h-59.645l-29.822-51.652 29.822-51.651h59.645l29.822 51.651zm-59.3-.6h58.951l29.475-51.053-29.475-51.051h-58.951l-29.473 51.052z"/><path d="m2007.814 801h-59.644l-29.822-51.651 29.822-51.649h59.644l29.822 51.653zm-59.3-.6h58.95l29.475-51.051-29.472-51.049h-58.95l-29.475 51.053z"/><path d="m2096.935 852.352h-59.644l-29.822-51.652 29.822-51.651h59.644l29.822 51.651zm-59.3-.6h58.95l29.475-51.053-29.475-51.051h-58.95l-29.472 51.052z"/><path d="m2186.558 801h-59.644l-29.822-51.651 29.822-51.653h59.644l29.822 51.653zm-59.3-.6h58.95l29.475-51.051-29.471-51.049h-58.95l-29.475 51.053z"/><path d="m2275.679 852.352h-59.644l-29.821-51.652 29.822-51.651h59.644l29.82 51.651zm-59.3-.6h58.95l29.475-51.053-29.475-51.051h-58.95l-29.471 51.052z"/><path d="m2365.3 801h-59.64l-29.822-51.651 29.822-51.649h59.64l29.822 51.653zm-59.3-.6h58.95l29.475-51.051-29.469-51.049h-58.95l-29.475 51.053z"/><path d="m2454.425 852.352h-59.644l-29.822-51.652 29.822-51.651h59.644l29.822 51.651zm-59.3-.6h58.95l29.475-51.053-29.475-51.051h-58.95l-29.472 51.052z"/><path d="m2544.049 801h-59.649l-29.822-51.651 29.822-51.649h59.645l29.822 51.653zm-59.3-.6h58.951l29.475-51.051-29.475-51.049h-58.951l-29.475 51.053z"/><path d="m2633.169 852.352h-59.644l-29.825-51.652 29.822-51.651h59.644l29.822 51.651zm-59.3-.6h58.95l29.481-51.052-29.475-51.051h-58.95l-29.475 51.051z"/><path d="m2722.794 801h-59.644l-29.822-51.651 29.822-51.653h59.644l29.822 51.653zm-59.3-.6h58.95l29.475-51.051-29.472-51.049h-58.947l-29.475 51.053z"/><path d="m2811.914 852.352h-59.644l-29.821-51.652 29.822-51.651h59.644l29.822 51.651zm-59.3-.6h58.95l29.475-51.053-29.475-51.051h-58.95l-29.472 51.052z"/><path d="m1650.324 903.7h-59.644l-29.822-51.653 29.822-51.647h59.644l29.822 51.653zm-59.3-.6h58.95l29.475-51.053-29.472-51.047h-58.95l-29.475 51.053z"/><path d="m1739.444 955.057h-59.644l-29.822-51.657 29.822-51.653h59.644l29.822 51.653zm-59.3-.6h58.95l29.475-51.053-29.469-51.052h-58.95l-29.478 51.048z"/><path d="m1829.069 903.7h-59.644l-29.825-51.648 29.822-51.653h59.644l29.822 51.653zm-59.3-.6h58.95l29.475-51.053-29.472-51.047h-58.95l-29.472 51.052z"/><path d="m1918.19 955.057h-59.645l-29.822-51.657 29.822-51.653h59.645l29.822 51.653zm-59.3-.6h58.951l29.475-51.053-29.475-51.053h-58.951l-29.473 51.049z"/><path d="m2007.814 903.7h-59.644l-29.822-51.653 29.822-51.647h59.644l29.822 51.653zm-59.3-.6h58.95l29.475-51.053-29.472-51.047h-58.95l-29.475 51.053z"/><path d="m2096.935 955.057h-59.644l-29.822-51.657 29.822-51.653h59.644l29.822 51.653zm-59.3-.6h58.95l29.475-51.053-29.475-51.053h-58.95l-29.472 51.049z"/><path d="m2186.558 903.7h-59.644l-29.822-51.653 29.822-51.653h59.644l29.822 51.653zm-59.3-.6h58.95l29.475-51.053-29.471-51.047h-58.95l-29.475 51.053z"/><path d="m2275.679 955.057h-59.644l-29.821-51.657 29.822-51.653h59.644l29.82 51.653zm-59.3-.6h58.95l29.475-51.053-29.475-51.053h-58.95l-29.471 51.049z"/><path d="m2365.3 903.7h-59.64l-29.822-51.653 29.822-51.647h59.64l29.822 51.653zm-59.3-.6h58.95l29.475-51.053-29.469-51.047h-58.95l-29.475 51.053z"/><path d="m2454.425 955.057h-59.644l-29.822-51.657 29.822-51.653h59.644l29.822 51.653zm-59.3-.6h58.95l29.475-51.053-29.475-51.053h-58.95l-29.472 51.049z"/><path d="m2544.049 903.7h-59.649l-29.822-51.653 29.822-51.647h59.645l29.822 51.653zm-59.3-.6h58.951l29.475-51.053-29.475-51.047h-58.951l-29.475 51.053z"/><path d="m2633.169 955.057h-59.644l-29.825-51.657 29.822-51.653h59.644l29.822 51.653zm-59.3-.6h58.95l29.481-51.057-29.475-51.053h-58.95l-29.475 51.053z"/><path d="m2722.794 903.7h-59.644l-29.822-51.653 29.822-51.653h59.644l29.822 51.653zm-59.3-.6h58.95l29.475-51.053-29.472-51.047h-58.947l-29.475 51.053z"/><path d="m2811.914 955.057h-59.644l-29.821-51.657 29.822-51.653h59.644l29.822 51.653zm-59.3-.6h58.95l29.475-51.053-29.475-51.053h-58.95l-29.472 51.049z"/><path d="m1650.324 1006.41h-59.644l-29.822-51.653 29.822-51.657h59.644l29.822 51.653zm-59.3-.6h58.95l29.475-51.053-29.472-51.057h-58.95l-29.475 51.053z"/><path d="m1739.444 1057.763h-59.644l-29.822-51.653 29.822-51.653h59.644l29.822 51.653zm-59.3-.6h58.95l29.475-51.053-29.469-51.053h-58.95l-29.475 51.053z"/><path d="m1829.069 1006.41h-59.644l-29.825-51.653 29.822-51.653h59.644l29.822 51.653zm-59.3-.6h58.95l29.475-51.053-29.472-51.057h-58.95l-29.472 51.057z"/><path d="m1918.19 1057.763h-59.645l-29.822-51.653 29.822-51.653h59.645l29.822 51.653zm-59.3-.6h58.951l29.475-51.053-29.475-51.053h-58.951l-29.475 51.053z"/><path d="m2007.814 1006.41h-59.644l-29.822-51.653 29.822-51.657h59.644l29.822 51.653zm-59.3-.6h58.95l29.475-51.053-29.472-51.057h-58.95l-29.475 51.053z"/><path d="m2096.935 1057.763h-59.644l-29.822-51.653 29.822-51.653h59.644l29.822 51.653zm-59.3-.6h58.95l29.475-51.053-29.475-51.053h-58.95l-29.475 51.053z"/><path d="m2186.558 1006.41h-59.644l-29.822-51.653 29.822-51.653h59.644l29.822 51.653zm-59.3-.6h58.95l29.475-51.053-29.471-51.057h-58.95l-29.475 51.053z"/><path d="m2275.679 1057.763h-59.644l-29.822-51.653 29.822-51.653h59.644l29.822 51.653zm-59.3-.6h58.95l29.475-51.053-29.475-51.053h-58.95l-29.475 51.053z"/><path d="m2365.3 1006.41h-59.64l-29.822-51.653 29.822-51.657h59.64l29.822 51.653zm-59.3-.6h58.95l29.475-51.053-29.469-51.057h-58.95l-29.475 51.053z"/><path d="m2454.425 1057.763h-59.644l-29.822-51.653 29.822-51.653h59.644l29.822 51.653zm-59.3-.6h58.95l29.475-51.053-29.475-51.053h-58.95l-29.475 51.053z"/><path d="m2544.049 1006.41h-59.649l-29.822-51.653 29.822-51.657h59.645l29.822 51.653zm-59.3-.6h58.951l29.475-51.053-29.475-51.057h-58.951l-29.475 51.053z"/><path d="m2633.169 1057.763h-59.644l-29.825-51.653 29.822-51.653h59.644l29.822 51.653zm-59.3-.6h58.95l29.475-51.053-29.475-51.053h-58.95l-29.469 51.053z"/><path d="m2722.794 1006.41h-59.644l-29.822-51.653 29.822-51.653h59.644l29.822 51.653zm-59.3-.6h58.95l29.475-51.053-29.472-51.057h-58.947l-29.475 51.053z"/><path d="m2811.914 1057.763h-59.644l-29.822-51.653 29.822-51.653h59.644l29.822 51.653zm-59.3-.6h58.95l29.475-51.053-29.475-51.053h-58.95l-29.475 51.053z"/><path d="m1650.324 1109.116h-59.644l-29.822-51.653 29.822-51.653h59.644l29.822 51.653zm-59.3-.6h58.95l29.475-51.053-29.475-51.053h-58.95l-29.475 51.053z"/><path d="m1739.444 1160.468h-59.644l-29.822-51.653 29.822-51.653h59.644l29.822 51.653zm-59.3-.6h58.95l29.475-51.053-29.475-51.053h-58.95l-29.475 51.053z"/><path d="m1829.069 1109.116h-59.644l-29.822-51.653 29.822-51.653h59.644l29.822 51.653zm-59.3-.6h58.95l29.475-51.053-29.475-51.053h-58.95l-29.475 51.053z"/><path d="m1918.19 1160.468h-59.645l-29.822-51.653 29.822-51.653h59.645l29.822 51.653zm-59.3-.6h58.951l29.475-51.053-29.475-51.053h-58.951l-29.475 51.053z"/><path d="m2007.814 1109.116h-59.644l-29.822-51.653 29.822-51.653h59.644l29.822 51.653zm-59.3-.6h58.95l29.475-51.053-29.475-51.053h-58.95l-29.475 51.053z"/><path d="m2096.935 1160.468h-59.644l-29.822-51.653 29.822-51.653h59.644l29.822 51.653zm-59.3-.6h58.95l29.475-51.053-29.475-51.053h-58.95l-29.475 51.053z"/><path d="m2186.558 1109.116h-59.644l-29.822-51.653 29.822-51.653h59.644l29.822 51.653zm-59.3-.6h58.95l29.475-51.053-29.475-51.053h-58.95l-29.475 51.053z"/><path d="m2275.679 1160.468h-59.644l-29.822-51.653 29.822-51.653h59.644l29.822 51.653zm-59.3-.6h58.95l29.475-51.053-29.475-51.053h-58.95l-29.475 51.053z"/><path d="m2365.3 1109.116h-59.64l-29.822-51.653 29.822-51.653h59.64l29.822 51.653zm-59.3-.6h58.95l29.475-51.053-29.475-51.053h-58.95l-29.475 51.053z"/><path d="m2454.425 1160.468h-59.644l-29.822-51.653 29.822-51.653h59.644l29.822 51.653zm-59.3-.6h58.95l29.475-51.053-29.475-51.053h-58.95l-29.475 51.053z"/><path d="m2544.049 1109.116h-59.649l-29.822-51.653 29.822-51.653h59.645l29.822 51.653zm-59.3-.6h58.951l29.475-51.053-29.475-51.053h-58.951l-29.475 51.053z"/><path d="m2633.169 1160.468h-59.644l-29.822-51.653 29.822-51.653h59.644l29.822 51.653zm-59.3-.6h58.95l29.475-51.053-29.475-51.053h-58.95l-29.475 51.053z"/><path d="m2722.794 1109.116h-59.644l-29.822-51.653 29.822-51.653h59.644l29.822 51.653zm-59.3-.6h58.95l29.475-51.053-29.475-51.053h-58.944l-29.475 51.053z"/><path d="m2811.914 1160.468h-59.644l-29.822-51.653 29.822-51.653h59.644l29.822 51.653zm-59.3-.6h58.95l29.475-51.053-29.475-51.053h-58.95l-29.475 51.053z"/><path d="m1650.324 1211.821h-59.644l-29.822-51.653 29.822-51.653h59.644l29.822 51.653zm-59.3-.6h58.95l29.475-51.053-29.475-51.053h-58.95l-29.475 51.053z"/><path d="m1739.444 1263.174h-59.644l-29.822-51.653 29.822-51.653h59.644l29.822 51.653zm-59.3-.6h58.95l29.475-51.053-29.475-51.053h-58.95l-29.475 51.053z"/><path d="m1829.069 1211.821h-59.644l-29.822-51.653 29.822-51.653h59.644l29.822 51.653zm-59.3-.6h58.95l29.475-51.053-29.475-51.053h-58.95l-29.475 51.053z"/><path d="m1918.19 1263.174h-59.645l-29.822-51.653 29.822-51.653h59.645l29.822 51.653zm-59.3-.6h58.951l29.475-51.053-29.475-51.053h-58.951l-29.475 51.053z"/><path d="m2007.814 1211.821h-59.644l-29.822-51.653 29.822-51.653h59.644l29.822 51.653zm-59.3-.6h58.95l29.475-51.053-29.475-51.053h-58.95l-29.475 51.053z"/><path d="m2096.935 1263.174h-59.644l-29.822-51.653 29.822-51.653h59.644l29.822 51.653zm-59.3-.6h58.95l29.475-51.053-29.475-51.053h-58.95l-29.475 51.053z"/><path d="m2186.558 1211.821h-59.644l-29.822-51.653 29.822-51.653h59.644l29.822 51.653zm-59.3-.6h58.95l29.475-51.053-29.475-51.053h-58.95l-29.475 51.053z"/><path d="m2275.679 1263.174h-59.644l-29.822-51.653 29.822-51.653h59.644l29.822 51.653zm-59.3-.6h58.95l29.475-51.053-29.475-51.053h-58.95l-29.475 51.053z"/><path d="m2365.3 1211.821h-59.64l-29.822-51.653 29.822-51.653h59.64l29.822 51.653zm-59.3-.6h58.95l29.475-51.053-29.475-51.053h-58.95l-29.475 51.053z"/><path d="m2454.425 1263.174h-59.644l-29.822-51.653 29.822-51.653h59.644l29.822 51.653zm-59.3-.6h58.95l29.475-51.053-29.475-51.053h-58.95l-29.475 51.053z"/><path d="m2544.049 1211.821h-59.649l-29.822-51.653 29.822-51.653h59.645l29.822 51.653zm-59.3-.6h58.951l29.475-51.053-29.475-51.053h-58.951l-29.475 51.053z"/><path d="m2633.169 1263.174h-59.644l-29.822-51.653 29.822-51.653h59.644l29.822 51.653zm-59.3-.6h58.95l29.475-51.053-29.475-51.053h-58.95l-29.475 51.053z"/><path d="m2722.794 1211.821h-59.644l-29.822-51.653 29.822-51.653h59.644l29.822 51.653zm-59.3-.6h58.95l29.475-51.053-29.475-51.053h-58.944l-29.475 51.053z"/><path d="m2811.914 1263.174h-59.644l-29.822-51.653 29.822-51.653h59.644l29.822 51.653zm-59.3-.6h58.95l29.475-51.053-29.475-51.053h-58.95l-29.475 51.053z"/><path d="m1650.324 1314.527h-59.644l-29.822-51.653 29.822-51.653h59.644l29.822 51.653zm-59.3-.6h58.95l29.475-51.053-29.475-51.053h-58.95l-29.475 51.053z"/><path d="m1739.444 1365.878h-59.644l-29.822-51.651 29.822-51.653h59.644l29.822 51.653zm-59.3-.6h58.95l29.475-51.051-29.475-51.053h-58.95l-29.475 51.053z"/><path d="m1829.069 1314.527h-59.644l-29.822-51.653 29.822-51.653h59.644l29.822 51.653zm-59.3-.6h58.95l29.475-51.053-29.475-51.053h-58.95l-29.475 51.053z"/><path d="m1918.19 1365.878h-59.645l-29.822-51.651 29.822-51.653h59.645l29.822 51.653zm-59.3-.6h58.951l29.475-51.051-29.475-51.053h-58.951l-29.475 51.053z"/><path d="m2007.814 1314.527h-59.644l-29.822-51.653 29.822-51.653h59.644l29.822 51.653zm-59.3-.6h58.95l29.475-51.053-29.475-51.053h-58.95l-29.475 51.053z"/><path d="m2096.935 1365.878h-59.644l-29.822-51.651 29.822-51.653h59.644l29.822 51.653zm-59.3-.6h58.95l29.475-51.051-29.475-51.053h-58.95l-29.475 51.053z"/><path d="m2186.558 1314.527h-59.644l-29.822-51.653 29.822-51.653h59.644l29.822 51.653zm-59.3-.6h58.95l29.475-51.053-29.475-51.053h-58.95l-29.475 51.053z"/><path d="m2275.679 1365.878h-59.644l-29.822-51.651 29.822-51.653h59.644l29.822 51.653zm-59.3-.6h58.95l29.475-51.051-29.475-51.053h-58.95l-29.475 51.053z"/><path d="m2365.3 1314.527h-59.64l-29.822-51.653 29.822-51.653h59.64l29.822 51.653zm-59.3-.6h58.95l29.475-51.053-29.475-51.053h-58.95l-29.475 51.053z"/><path d="m2454.425 1365.878h-59.644l-29.822-51.651 29.822-51.653h59.644l29.822 51.653zm-59.3-.6h58.95l29.475-51.051-29.475-51.053h-58.95l-29.475 51.053z"/><path d="m2544.049 1314.527h-59.649l-29.822-51.653 29.822-51.653h59.645l29.822 51.653zm-59.3-.6h58.951l29.475-51.053-29.475-51.053h-58.951l-29.475 51.053z"/><path d="m2633.169 1365.878h-59.644l-29.822-51.651 29.822-51.653h59.644l29.822 51.653zm-59.3-.6h58.95l29.475-51.051-29.475-51.053h-58.95l-29.475 51.053z"/><path d="m2722.794 1314.527h-59.644l-29.822-51.653 29.822-51.653h59.644l29.822 51.653zm-59.3-.6h58.95l29.475-51.053-29.475-51.053h-58.944l-29.475 51.053z"/><path d="m2811.914 1365.878h-59.644l-29.822-51.651 29.822-51.653h59.644l29.822 51.653zm-59.3-.6h58.95l29.475-51.051-29.475-51.053h-58.95l-29.475 51.053z"/><path d="m1650.324 1417.232h-59.644l-29.822-51.654 29.822-51.651h59.644l29.822 51.651zm-59.3-.6h58.95l29.475-51.054-29.475-51.051h-58.95l-29.475 51.051z"/><path d="m1739.444 1468.584h-59.644l-29.822-51.652 29.822-51.654h59.644l29.822 51.654zm-59.3-.6h58.95l29.475-51.052-29.475-51.054h-58.95l-29.475 51.054z"/><path d="m1829.069 1417.232h-59.644l-29.822-51.654 29.822-51.651h59.644l29.822 51.651zm-59.3-.6h58.95l29.475-51.054-29.475-51.051h-58.95l-29.475 51.051z"/><path d="m1918.19 1468.584h-59.645l-29.822-51.652 29.822-51.654h59.645l29.822 51.654zm-59.3-.6h58.951l29.475-51.052-29.475-51.054h-58.951l-29.475 51.054z"/><path d="m2007.814 1417.232h-59.644l-29.822-51.654 29.822-51.651h59.644l29.822 51.651zm-59.3-.6h58.95l29.475-51.054-29.475-51.051h-58.95l-29.475 51.051z"/><path d="m2096.935 1468.584h-59.644l-29.822-51.652 29.822-51.654h59.644l29.822 51.654zm-59.3-.6h58.95l29.475-51.052-29.475-51.054h-58.95l-29.475 51.054z"/><path d="m2186.558 1417.232h-59.644l-29.822-51.654 29.822-51.651h59.644l29.822 51.651zm-59.3-.6h58.95l29.475-51.054-29.475-51.051h-58.95l-29.475 51.051z"/><path d="m2275.679 1468.584h-59.644l-29.822-51.652 29.822-51.654h59.644l29.822 51.654zm-59.3-.6h58.95l29.475-51.052-29.475-51.054h-58.95l-29.475 51.054z"/><path d="m2365.3 1417.232h-59.64l-29.822-51.654 29.822-51.651h59.64l29.822 51.651zm-59.3-.6h58.95l29.475-51.054-29.475-51.051h-58.95l-29.475 51.051z"/><path d="m2454.425 1468.584h-59.644l-29.822-51.652 29.822-51.654h59.644l29.822 51.654zm-59.3-.6h58.95l29.475-51.052-29.475-51.054h-58.95l-29.475 51.054z"/><path d="m2544.049 1417.232h-59.649l-29.822-51.654 29.822-51.651h59.645l29.822 51.651zm-59.3-.6h58.951l29.475-51.054-29.475-51.051h-58.951l-29.475 51.051z"/><path d="m2633.169 1468.584h-59.644l-29.822-51.652 29.822-51.654h59.644l29.822 51.654zm-59.3-.6h58.95l29.475-51.052-29.475-51.054h-58.95l-29.475 51.054z"/><path d="m2722.794 1417.232h-59.644l-29.822-51.654 29.822-51.651h59.644l29.822 51.651zm-59.3-.6h58.95l29.475-51.054-29.475-51.051h-58.944l-29.475 51.051z"/><path d="m2811.914 1468.584h-59.644l-29.822-51.652 29.822-51.654h59.644l29.822 51.654zm-59.3-.6h58.95l29.475-51.052-29.475-51.054h-58.95l-29.475 51.054z"/><path d="m1650.324 1519.937h-59.644l-29.822-51.654 29.822-51.652h59.644l29.822 51.652zm-59.3-.6h58.95l29.475-51.054-29.475-51.052h-58.95l-29.475 51.052z"/><path d="m1739.444 1571.289h-59.644l-29.822-51.652 29.822-51.654h59.644l29.822 51.654zm-59.3-.6h58.95l29.475-51.052-29.475-51.054h-58.95l-29.475 51.054z"/><path d="m1829.069 1519.937h-59.644l-29.822-51.654 29.822-51.652h59.644l29.822 51.652zm-59.3-.6h58.95l29.475-51.054-29.475-51.052h-58.95l-29.475 51.052z"/><path d="m1918.19 1571.289h-59.645l-29.822-51.652 29.822-51.654h59.645l29.822 51.654zm-59.3-.6h58.951l29.475-51.052-29.475-51.054h-58.951l-29.475 51.054z"/><path d="m2007.814 1519.937h-59.644l-29.822-51.654 29.822-51.652h59.644l29.822 51.652zm-59.3-.6h58.95l29.475-51.054-29.475-51.052h-58.95l-29.475 51.052z"/><path d="m2096.935 1571.289h-59.644l-29.822-51.652 29.822-51.654h59.644l29.822 51.654zm-59.3-.6h58.95l29.475-51.052-29.475-51.054h-58.95l-29.475 51.054z"/><path d="m2186.558 1519.937h-59.644l-29.822-51.654 29.822-51.652h59.644l29.822 51.652zm-59.3-.6h58.95l29.475-51.054-29.475-51.052h-58.95l-29.475 51.052z"/><path d="m2275.679 1571.289h-59.644l-29.822-51.652 29.822-51.654h59.644l29.822 51.654zm-59.3-.6h58.95l29.475-51.052-29.475-51.054h-58.95l-29.475 51.054z"/><path d="m2365.3 1519.937h-59.64l-29.822-51.654 29.822-51.652h59.64l29.822 51.652zm-59.3-.6h58.95l29.475-51.054-29.475-51.052h-58.95l-29.475 51.052z"/><path d="m2454.425 1571.289h-59.644l-29.822-51.652 29.822-51.654h59.644l29.822 51.654zm-59.3-.6h58.95l29.475-51.052-29.475-51.054h-58.95l-29.475 51.054z"/><path d="m2544.049 1519.937h-59.649l-29.822-51.654 29.822-51.652h59.645l29.822 51.652zm-59.3-.6h58.951l29.475-51.054-29.475-51.052h-58.951l-29.475 51.052z"/><path d="m2633.169 1571.289h-59.644l-29.822-51.652 29.822-51.654h59.644l29.822 51.654zm-59.3-.6h58.95l29.475-51.052-29.475-51.054h-58.95l-29.475 51.054z"/><path d="m2722.794 1519.937h-59.644l-29.822-51.654 29.822-51.652h59.644l29.822 51.652zm-59.3-.6h58.95l29.475-51.054-29.475-51.052h-58.944l-29.475 51.052z"/><path d="m2811.914 1571.289h-59.644l-29.822-51.652 29.822-51.654h59.644l29.822 51.654zm-59.3-.6h58.95l29.475-51.052-29.475-51.054h-58.95l-29.475 51.054z"/><path d="m1650.324 1622.643h-59.644l-29.822-51.654 29.822-51.652h59.644l29.822 51.652zm-59.3-.6h58.95l29.475-51.054-29.475-51.052h-58.95l-29.475 51.052z"/><path d="m1739.444 1673.995h-59.644l-29.822-51.652 29.822-51.654h59.644l29.822 51.654zm-59.3-.6h58.95l29.475-51.052-29.475-51.054h-58.95l-29.475 51.054z"/><path d="m1829.069 1622.643h-59.644l-29.822-51.654 29.822-51.652h59.644l29.822 51.652zm-59.3-.6h58.95l29.475-51.054-29.475-51.052h-58.95l-29.475 51.052z"/><path d="m1918.19 1673.995h-59.645l-29.822-51.652 29.822-51.654h59.645l29.822 51.654zm-59.3-.6h58.951l29.475-51.052-29.475-51.054h-58.951l-29.475 51.054z"/><path d="m2007.814 1622.643h-59.644l-29.822-51.654 29.822-51.652h59.644l29.822 51.652zm-59.3-.6h58.95l29.475-51.054-29.475-51.052h-58.95l-29.475 51.052z"/><path d="m2096.935 1673.995h-59.644l-29.822-51.652 29.822-51.654h59.644l29.822 51.654zm-59.3-.6h58.95l29.475-51.052-29.475-51.054h-58.95l-29.475 51.054z"/><path d="m2186.558 1622.643h-59.644l-29.822-51.654 29.822-51.652h59.644l29.822 51.652zm-59.3-.6h58.95l29.475-51.054-29.475-51.052h-58.95l-29.475 51.052z"/><path d="m2275.679 1673.995h-59.644l-29.822-51.652 29.822-51.654h59.644l29.822 51.654zm-59.3-.6h58.95l29.475-51.052-29.475-51.054h-58.95l-29.475 51.054z"/><path d="m2365.3 1622.643h-59.64l-29.822-51.654 29.822-51.652h59.64l29.822 51.652zm-59.3-.6h58.95l29.475-51.054-29.475-51.052h-58.95l-29.475 51.052z"/><path d="m2454.425 1673.995h-59.644l-29.822-51.652 29.822-51.654h59.644l29.822 51.654zm-59.3-.6h58.95l29.475-51.052-29.475-51.054h-58.95l-29.475 51.054z"/><path d="m2544.049 1622.643h-59.649l-29.822-51.654 29.822-51.652h59.645l29.822 51.652zm-59.3-.6h58.951l29.475-51.054-29.475-51.052h-58.951l-29.475 51.052z"/><path d="m2633.169 1673.995h-59.644l-29.822-51.652 29.822-51.654h59.644l29.822 51.654zm-59.3-.6h58.95l29.475-51.052-29.475-51.054h-58.95l-29.475 51.054z"/><path d="m2722.794 1622.643h-59.644l-29.822-51.654 29.822-51.652h59.644l29.822 51.652zm-59.3-.6h58.95l29.475-51.054-29.475-51.052h-58.944l-29.475 51.052z"/><path d="m2811.914 1673.995h-59.644l-29.822-51.652 29.822-51.654h59.644l29.822 51.654zm-59.3-.6h58.95l29.475-51.052-29.475-51.054h-58.95l-29.475 51.054z"/><path d="m1650.324 1725.346h-59.644l-29.822-51.652 29.822-51.652h59.644l29.822 51.652zm-59.3-.6h58.95l29.475-51.052-29.475-51.052h-58.95l-29.475 51.052z"/><path d="m1739.444 1776.7h-59.644l-29.822-51.654 29.822-51.652h59.644l29.822 51.652zm-59.3-.6h58.95l29.475-51.054-29.475-51.052h-58.95l-29.475 51.052z"/><path d="m1829.069 1725.346h-59.644l-29.822-51.652 29.822-51.652h59.644l29.822 51.652zm-59.3-.6h58.95l29.475-51.052-29.475-51.052h-58.95l-29.475 51.052z"/><path d="m1918.19 1776.7h-59.645l-29.822-51.654 29.822-51.652h59.645l29.822 51.652zm-59.3-.6h58.951l29.475-51.054-29.475-51.052h-58.951l-29.475 51.052z"/><path d="m2007.814 1725.346h-59.644l-29.822-51.652 29.822-51.652h59.644l29.822 51.652zm-59.3-.6h58.95l29.475-51.052-29.475-51.052h-58.95l-29.475 51.052z"/><path d="m2096.935 1776.7h-59.644l-29.822-51.654 29.822-51.652h59.644l29.822 51.652zm-59.3-.6h58.95l29.475-51.054-29.475-51.052h-58.95l-29.475 51.052z"/><path d="m2186.558 1725.346h-59.644l-29.822-51.652 29.822-51.652h59.644l29.822 51.652zm-59.3-.6h58.95l29.475-51.052-29.475-51.052h-58.95l-29.475 51.052z"/><path d="m2275.679 1776.7h-59.644l-29.822-51.654 29.822-51.652h59.644l29.822 51.652zm-59.3-.6h58.95l29.475-51.054-29.475-51.052h-58.95l-29.475 51.052z"/><path d="m2365.3 1725.346h-59.64l-29.822-51.652 29.822-51.652h59.64l29.822 51.652zm-59.3-.6h58.95l29.475-51.052-29.475-51.052h-58.95l-29.475 51.052z"/><path d="m2454.425 1776.7h-59.644l-29.822-51.654 29.822-51.652h59.644l29.822 51.652zm-59.3-.6h58.95l29.475-51.054-29.475-51.052h-58.95l-29.475 51.052z"/><path d="m2544.049 1725.346h-59.649l-29.822-51.652 29.822-51.652h59.645l29.822 51.652zm-59.3-.6h58.951l29.475-51.052-29.475-51.052h-58.951l-29.475 51.052z"/><path d="m2633.169 1776.7h-59.644l-29.822-51.654 29.822-51.652h59.644l29.822 51.652zm-59.3-.6h58.95l29.475-51.054-29.475-51.052h-58.95l-29.475 51.052z"/><path d="m2722.794 1725.346h-59.644l-29.822-51.652 29.822-51.652h59.644l29.822 51.652zm-59.3-.6h58.95l29.475-51.052-29.475-51.052h-58.944l-29.475 51.052z"/><path d="m2811.914 1776.7h-59.644l-29.822-51.654 29.822-51.652h59.644l29.822 51.652zm-59.3-.6h58.95l29.475-51.054-29.475-51.052h-58.95l-29.475 51.052z"/><path d="m1650.324 1828.052h-59.644l-29.822-51.652 29.822-51.654h59.644l29.822 51.654zm-59.3-.6h58.95l29.475-51.052-29.475-51.054h-58.95l-29.475 51.054z"/><path d="m1739.444 1879.406h-59.644l-29.822-51.654 29.822-51.652h59.644l29.822 51.652zm-59.3-.6h58.95l29.475-51.054-29.469-51.052h-58.95l-29.475 51.052z"/><path d="m1829.069 1828.052h-59.644l-29.825-51.652 29.822-51.654h59.644l29.822 51.654zm-59.3-.6h58.95l29.481-51.052-29.475-51.054h-58.95l-29.475 51.054z"/><path d="m1918.19 1879.406h-59.645l-29.822-51.654 29.822-51.652h59.645l29.822 51.652zm-59.3-.6h58.951l29.475-51.054-29.475-51.052h-58.951l-29.475 51.052z"/><path d="m2007.814 1828.052h-59.644l-29.822-51.652 29.822-51.654h59.644l29.822 51.654zm-59.3-.6h58.95l29.475-51.052-29.475-51.054h-58.95l-29.475 51.054z"/><path d="m2096.935 1879.406h-59.644l-29.822-51.654 29.822-51.652h59.644l29.822 51.652zm-59.3-.6h58.95l29.475-51.054-29.475-51.052h-58.95l-29.475 51.052z"/><path d="m2186.558 1828.052h-59.644l-29.822-51.652 29.822-51.654h59.644l29.822 51.654zm-59.3-.6h58.95l29.475-51.052-29.475-51.054h-58.95l-29.475 51.054z"/><path d="m2275.679 1879.406h-59.644l-29.822-51.654 29.822-51.652h59.644l29.822 51.652zm-59.3-.6h58.95l29.475-51.054-29.475-51.052h-58.95l-29.475 51.052z"/><path d="m2365.3 1828.052h-59.64l-29.822-51.652 29.822-51.654h59.64l29.822 51.654zm-59.3-.6h58.95l29.475-51.052-29.475-51.054h-58.95l-29.475 51.054z"/><path d="m2454.425 1879.406h-59.644l-29.822-51.654 29.822-51.652h59.644l29.822 51.652zm-59.3-.6h58.95l29.475-51.054-29.475-51.052h-58.95l-29.475 51.052z"/><path d="m2544.049 1828.052h-59.649l-29.822-51.652 29.822-51.654h59.645l29.822 51.654zm-59.3-.6h58.951l29.475-51.052-29.475-51.054h-58.951l-29.475 51.054z"/><path d="m2633.169 1879.406h-59.644l-29.822-51.654 29.822-51.652h59.644l29.822 51.652zm-59.3-.6h58.95l29.475-51.054-29.475-51.052h-58.95l-29.475 51.052z"/><path d="m2722.794 1828.052h-59.644l-29.822-51.652 29.822-51.654h59.644l29.822 51.654zm-59.3-.6h58.95l29.475-51.052-29.475-51.054h-58.944l-29.475 51.054z"/><path d="m2811.914 1879.406h-59.644l-29.822-51.654 29.822-51.652h59.644l29.822 51.652zm-59.3-.6h58.95l29.475-51.054-29.475-51.052h-58.95l-29.475 51.052z"/><path d="m1650.324 1930.757h-59.644l-29.822-51.652 29.822-51.654h59.644l29.822 51.654zm-59.3-.6h58.95l29.475-51.052-29.475-51.054h-58.95l-29.475 51.054z"/><path d="m1739.444 1982.111h-59.644l-29.822-51.654 29.822-51.652h59.644l29.822 51.652zm-59.3-.6h58.95l29.475-51.054-29.475-51.052h-58.95l-29.475 51.052z"/><path d="m1829.069 1930.757h-59.644l-29.822-51.652 29.822-51.654h59.644l29.822 51.654zm-59.3-.6h58.95l29.475-51.052-29.475-51.054h-58.95l-29.475 51.054z"/><path d="m1918.19 1982.111h-59.645l-29.822-51.654 29.822-51.652h59.645l29.822 51.652zm-59.3-.6h58.951l29.475-51.054-29.475-51.052h-58.951l-29.475 51.052z"/><path d="m2007.814 1930.757h-59.644l-29.822-51.652 29.822-51.654h59.644l29.822 51.654zm-59.3-.6h58.95l29.475-51.052-29.475-51.054h-58.95l-29.475 51.054z"/><path d="m2096.935 1982.111h-59.644l-29.822-51.654 29.822-51.652h59.644l29.822 51.652zm-59.3-.6h58.95l29.475-51.054-29.475-51.052h-58.95l-29.475 51.052z"/><path d="m2186.558 1930.757h-59.644l-29.822-51.652 29.822-51.654h59.644l29.822 51.654zm-59.3-.6h58.95l29.475-51.052-29.475-51.054h-58.95l-29.475 51.054z"/><path d="m2275.679 1982.111h-59.644l-29.822-51.654 29.822-51.652h59.644l29.822 51.652zm-59.3-.6h58.95l29.475-51.054-29.475-51.052h-58.95l-29.475 51.052z"/><path d="m2365.3 1930.757h-59.64l-29.822-51.652 29.822-51.654h59.64l29.822 51.654zm-59.3-.6h58.95l29.475-51.052-29.475-51.054h-58.95l-29.475 51.054z"/><path d="m2454.425 1982.111h-59.644l-29.822-51.654 29.822-51.652h59.644l29.822 51.652zm-59.3-.6h58.95l29.475-51.054-29.475-51.052h-58.95l-29.475 51.052z"/><path d="m2544.049 1930.757h-59.649l-29.822-51.652 29.822-51.654h59.645l29.822 51.654zm-59.3-.6h58.951l29.475-51.052-29.475-51.054h-58.951l-29.475 51.054z"/><path d="m2633.169 1982.111h-59.644l-29.822-51.654 29.822-51.652h59.644l29.822 51.652zm-59.3-.6h58.95l29.475-51.054-29.475-51.052h-58.95l-29.475 51.052z"/><path d="m2722.794 1930.757h-59.644l-29.822-51.652 29.822-51.654h59.644l29.822 51.654zm-59.3-.6h58.95l29.475-51.052-29.475-51.054h-58.944l-29.475 51.054z"/><path d="m2811.914 1982.111h-59.644l-29.822-51.654 29.822-51.652h59.644l29.822 51.652zm-59.3-.6h58.95l29.475-51.054-29.475-51.052h-58.95l-29.475 51.052z"/></g></g><g mask="url(#e)"><g fill="#22416d" opacity=".26"><path d="m89.466 103.3h-59.644l-29.822-51.647 29.822-51.653h59.644l29.822 51.653zm-59.3-.6h58.95l29.475-51.051-29.472-51.049h-58.95l-29.475 51.053z"/><path d="m178.586 154.657h-59.644l-29.822-51.657 29.822-51.651h59.644l29.822 51.651zm-59.3-.6h58.95l29.478-51.057-29.475-51.047h-58.95l-29.475 51.047z"/><path d="m268.211 103.3h-59.644l-29.822-51.647 29.822-51.653h59.644l29.822 51.653zm-59.3-.6h58.95l29.475-51.051-29.472-51.049h-58.95l-29.475 51.053z"/><path d="m357.332 154.657h-59.645l-29.822-51.657 29.822-51.651h59.645l29.822 51.651zm-59.3-.6h58.951l29.477-51.057-29.475-51.047h-58.951l-29.475 51.047z"/><path d="m446.956 103.3h-59.644l-29.822-51.647 29.822-51.653h59.644l29.822 51.653zm-59.3-.6h58.95l29.475-51.051-29.472-51.049h-58.95l-29.475 51.053z"/><path d="m536.077 154.657h-59.644l-29.822-51.657 29.822-51.651h59.644l29.823 51.651zm-59.3-.6h58.95l29.473-51.057-29.47-51.047h-58.95l-29.48 51.047z"/><path d="m625.7 103.3h-59.643l-29.822-51.647 29.822-51.653h59.643l29.822 51.653zm-59.3-.6h58.95l29.475-51.051-29.471-51.049h-58.954l-29.472 51.053z"/><path d="m714.822 154.657h-59.644l-29.822-51.657 29.822-51.651h59.644l29.821 51.651zm-59.3-.6h58.95l29.478-51.057-29.475-51.047h-58.95l-29.475 51.047z"/><path d="m804.445 103.3h-59.645l-29.82-51.647 29.82-51.653h59.644l29.822 51.653zm-59.3-.6h58.955l29.475-51.051-29.475-51.049h-58.95l-29.476 51.053z"/><path d="m893.567 154.657h-59.644l-29.823-51.657 29.822-51.651h59.644l29.822 51.651zm-59.3-.6h58.95l29.478-51.057-29.476-51.047h-58.95l-29.474 51.047z"/><path d="m983.191 103.3h-59.644l-29.822-51.647 29.822-51.653h59.645l29.822 51.653zm-59.3-.6h58.951l29.475-51.051-29.472-51.049h-58.952l-29.475 51.053z"/><path d="m1072.311 154.657h-59.644l-29.821-51.657 29.822-51.651h59.644l29.821 51.651zm-59.3-.6h58.95l29.478-51.057-29.475-51.051h-58.95l-29.475 51.051z"/><path d="m1161.936 103.3h-59.644l-29.822-51.651 29.823-51.649h59.644l29.822 51.653zm-59.3-.6h58.95l29.475-51.051-29.472-51.049h-58.95l-29.475 51.053z"/><path d="m1251.056 154.657h-59.644l-29.821-51.657 29.822-51.651h59.644l29.821 51.651zm-59.3-.6h58.95l29.478-51.057-29.475-51.051h-58.95l-29.475 51.051z"/><path d="m89.466 206.01h-59.644l-29.822-51.653 29.822-51.657h59.644l29.822 51.653zm-59.3-.6h58.95l29.475-51.053-29.472-51.057h-58.95l-29.475 51.057z"/><path d="m178.586 257.362h-59.644l-29.822-51.652 29.822-51.653h59.644l29.822 51.653zm-59.3-.6h58.95l29.475-51.053-29.475-51.053h-58.95l-29.472 51.054z"/><path d="m268.211 206.01h-59.644l-29.822-51.653 29.822-51.657h59.644l29.822 51.653zm-59.3-.6h58.95l29.475-51.053-29.472-51.057h-58.95l-29.475 51.053z"/><path d="m357.332 257.362h-59.645l-29.822-51.652 29.822-51.653h59.645l29.822 51.653zm-59.3-.6h58.951l29.477-51.052-29.475-51.053h-58.951l-29.475 51.053z"/><path d="m446.956 206.01h-59.644l-29.822-51.653 29.822-51.657h59.644l29.822 51.653zm-59.3-.6h58.95l29.475-51.053-29.472-51.057h-58.95l-29.475 51.053z"/><path d="m536.077 257.362h-59.644l-29.822-51.652 29.822-51.653h59.644l29.823 51.653zm-59.3-.6h58.95l29.473-51.052-29.47-51.053h-58.95l-29.48 51.053z"/><path d="m625.7 206.01h-59.643l-29.822-51.653 29.822-51.657h59.643l29.822 51.653zm-59.3-.6h58.95l29.475-51.053-29.471-51.057h-58.954l-29.475 51.053z"/><path d="m714.822 257.362h-59.644l-29.822-51.652 29.822-51.653h59.644l29.822 51.653zm-59.3-.6h58.95l29.478-51.052-29.475-51.053h-58.95l-29.475 51.053z"/><path d="m804.445 206.01h-59.645l-29.82-51.653 29.82-51.657h59.644l29.822 51.653zm-59.3-.6h58.955l29.475-51.053-29.475-51.057h-58.95l-29.475 51.053z"/><path d="m893.567 257.362h-59.644l-29.823-51.652 29.822-51.653h59.644l29.822 51.653zm-59.3-.6h58.95l29.475-51.053-29.475-51.053h-58.95l-29.472 51.054z"/><path d="m983.191 206.01h-59.644l-29.822-51.653 29.822-51.657h59.645l29.822 51.653zm-59.3-.6h58.951l29.475-51.053-29.472-51.057h-58.952l-29.475 51.053z"/><path d="m1072.311 257.362h-59.644l-29.821-51.652 29.822-51.653h59.644l29.822 51.653zm-59.3-.6h58.95l29.475-51.053-29.475-51.053h-58.95l-29.472 51.054z"/><path d="m1161.936 206.01h-59.644l-29.822-51.653 29.822-51.653h59.644l29.822 51.653zm-59.3-.6h58.95l29.475-51.053-29.472-51.057h-58.95l-29.475 51.053z"/><path d="m1251.056 257.362h-59.644l-29.822-51.653 29.822-51.653h59.644l29.822 51.653zm-59.3-.6h58.95l29.475-51.053-29.475-51.053h-58.95l-29.475 51.053z"/><path d="m89.466 308.715h-59.644l-29.822-51.653 29.822-51.652h59.644l29.822 51.653zm-59.3-.6h58.95l29.475-51.053-29.472-51.052h-58.95l-29.475 51.052z"/><path d="m178.586 360.068h-59.644l-29.822-51.653 29.822-51.653h59.644l29.822 51.653zm-59.3-.6h58.95l29.475-51.053-29.475-51.053h-58.95l-29.472 51.053z"/><path d="m268.211 308.715h-59.644l-29.822-51.653 29.822-51.653h59.644l29.822 51.653zm-59.3-.6h58.95l29.475-51.053-29.472-51.052h-58.95l-29.475 51.053z"/><path d="m357.332 360.068h-59.645l-29.822-51.653 29.822-51.653h59.645l29.822 51.653zm-59.3-.6h58.951l29.475-51.053-29.475-51.053h-58.949l-29.475 51.053z"/><path d="m446.956 308.715h-59.644l-29.822-51.653 29.822-51.653h59.644l29.822 51.653zm-59.3-.6h58.95l29.475-51.053-29.472-51.052h-58.95l-29.475 51.053z"/><path d="m536.077 360.068h-59.644l-29.822-51.653 29.822-51.653h59.644l29.823 51.653zm-59.3-.6h58.95l29.473-51.053-29.47-51.053h-58.95l-29.48 51.053z"/><path d="m625.7 308.715h-59.643l-29.822-51.653 29.822-51.653h59.643l29.822 51.653zm-59.3-.6h58.95l29.475-51.053-29.471-51.052h-58.954l-29.475 51.053z"/><path d="m714.822 360.068h-59.644l-29.822-51.653 29.822-51.653h59.644l29.822 51.653zm-59.3-.6h58.95l29.475-51.053-29.475-51.053h-58.95l-29.472 51.053z"/><path d="m804.445 308.715h-59.645l-29.82-51.653 29.82-51.652h59.644l29.822 51.653zm-59.3-.6h58.955l29.475-51.053-29.475-51.052h-58.95l-29.475 51.053z"/><path d="m893.567 360.068h-59.644l-29.823-51.653 29.822-51.653h59.644l29.822 51.653zm-59.3-.6h58.95l29.475-51.053-29.475-51.053h-58.95l-29.475 51.053z"/><path d="m983.191 308.715h-59.644l-29.822-51.653 29.822-51.653h59.645l29.822 51.653zm-59.3-.6h58.951l29.475-51.053-29.472-51.052h-58.952l-29.475 51.053z"/><path d="m1072.311 360.068h-59.644l-29.822-51.653 29.822-51.653h59.644l29.822 51.653zm-59.3-.6h58.95l29.475-51.053-29.475-51.053h-58.95l-29.475 51.053z"/><path d="m1161.936 308.715h-59.644l-29.822-51.653 29.822-51.653h59.644l29.822 51.653zm-59.3-.6h58.95l29.475-51.053-29.475-51.053h-58.95l-29.475 51.053z"/><path d="m1251.056 360.068h-59.644l-29.822-51.653 29.822-51.653h59.644l29.822 51.653zm-59.3-.6h58.95l29.475-51.053-29.475-51.053h-58.95l-29.475 51.053z"/><path d="m89.466 411.421h-59.644l-29.822-51.653 29.822-51.653h59.644l29.822 51.653zm-59.3-.6h58.95l29.475-51.053-29.472-51.053h-58.95l-29.475 51.053z"/><path d="m178.586 462.773h-59.644l-29.822-51.652 29.822-51.653h59.644l29.822 51.653zm-59.3-.6h58.95l29.475-51.053-29.475-51.053h-58.95l-29.472 51.054z"/><path d="m268.211 411.421h-59.644l-29.822-51.653 29.822-51.653h59.644l29.822 51.653zm-59.3-.6h58.95l29.475-51.053-29.475-51.053h-58.95l-29.475 51.053z"/><path d="m357.332 462.773h-59.645l-29.822-51.653 29.822-51.653h59.645l29.822 51.653zm-59.3-.6h58.951l29.475-51.053-29.475-51.053h-58.949l-29.475 51.053z"/><path d="m446.956 411.421h-59.644l-29.822-51.653 29.822-51.653h59.644l29.822 51.653zm-59.3-.6h58.95l29.475-51.053-29.475-51.053h-58.95l-29.475 51.053z"/><path d="m536.077 462.773h-59.644l-29.822-51.653 29.822-51.653h59.644l29.823 51.654zm-59.3-.6h58.95l29.473-51.052-29.47-51.053h-58.95l-29.48 51.053z"/><path d="m625.7 411.421h-59.643l-29.822-51.653 29.822-51.653h59.643l29.822 51.653zm-59.3-.6h58.95l29.475-51.053-29.475-51.053h-58.95l-29.475 51.053z"/><path d="m714.822 462.773h-59.644l-29.822-51.653 29.822-51.653h59.644l29.822 51.653zm-59.3-.6h58.95l29.475-51.053-29.475-51.053h-58.95l-29.472 51.054z"/><path d="m804.445 411.421h-59.645l-29.82-51.653 29.82-51.653h59.644l29.822 51.653zm-59.3-.6h58.955l29.475-51.053-29.475-51.053h-58.95l-29.475 51.053z"/><path d="m893.567 462.773h-59.644l-29.823-51.652 29.822-51.653h59.644l29.822 51.653zm-59.3-.6h58.95l29.475-51.053-29.475-51.053h-58.95l-29.475 51.053z"/><path d="m983.191 411.421h-59.644l-29.822-51.653 29.822-51.653h59.645l29.822 51.653zm-59.3-.6h58.951l29.475-51.053-29.475-51.053h-58.949l-29.475 51.053z"/><path d="m1072.311 462.773h-59.644l-29.822-51.653 29.822-51.653h59.644l29.822 51.653zm-59.3-.6h58.95l29.475-51.053-29.475-51.053h-58.95l-29.475 51.053z"/><path d="m1161.936 411.421h-59.644l-29.822-51.653 29.822-51.653h59.644l29.822 51.653zm-59.3-.6h58.95l29.475-51.053-29.475-51.053h-58.95l-29.475 51.053z"/><path d="m1251.056 462.773h-59.644l-29.822-51.653 29.822-51.653h59.644l29.822 51.653zm-59.3-.6h58.95l29.475-51.053-29.475-51.053h-58.95l-29.475 51.053z"/><path d="m89.466 514.126h-59.644l-29.822-51.653 29.822-51.653h59.644l29.822 51.653zm-59.3-.6h58.95l29.475-51.053-29.472-51.052h-58.95l-29.475 51.052z"/><path d="m178.586 565.479h-59.644l-29.822-51.653 29.822-51.653h59.644l29.822 51.653zm-59.3-.6h58.95l29.475-51.053-29.475-51.053h-58.95l-29.472 51.053z"/><path d="m268.211 514.126h-59.644l-29.822-51.653 29.822-51.653h59.644l29.822 51.653zm-59.3-.6h58.95l29.475-51.053-29.475-51.053h-58.95l-29.475 51.053z"/><path d="m357.332 565.479h-59.645l-29.822-51.653 29.822-51.653h59.645l29.822 51.653zm-59.3-.6h58.951l29.475-51.053-29.475-51.053h-58.949l-29.475 51.053z"/><path d="m446.956 514.126h-59.644l-29.822-51.653 29.822-51.653h59.644l29.822 51.653zm-59.3-.6h58.95l29.475-51.053-29.475-51.053h-58.95l-29.475 51.053z"/><path d="m536.077 565.479h-59.644l-29.822-51.653 29.822-51.653h59.644l29.823 51.653zm-59.3-.6h58.95l29.473-51.053-29.47-51.053h-58.95l-29.48 51.053z"/><path d="m625.7 514.126h-59.643l-29.822-51.653 29.822-51.653h59.643l29.822 51.653zm-59.3-.6h58.95l29.475-51.053-29.475-51.053h-58.95l-29.475 51.053z"/><path d="m714.822 565.479h-59.644l-29.822-51.653 29.822-51.653h59.644l29.822 51.653zm-59.3-.6h58.95l29.475-51.053-29.475-51.053h-58.95l-29.472 51.053z"/><path d="m804.445 514.126h-59.645l-29.82-51.653 29.82-51.652h59.644l29.822 51.653zm-59.3-.6h58.955l29.475-51.053-29.475-51.052h-58.95l-29.475 51.053z"/><path d="m893.567 565.479h-59.644l-29.823-51.653 29.822-51.653h59.644l29.822 51.653zm-59.3-.6h58.95l29.475-51.053-29.475-51.053h-58.95l-29.475 51.053z"/><path d="m983.191 514.126h-59.644l-29.822-51.653 29.822-51.653h59.645l29.822 51.653zm-59.3-.6h58.951l29.475-51.053-29.475-51.053h-58.949l-29.475 51.053z"/><path d="m1072.311 565.479h-59.644l-29.822-51.653 29.822-51.653h59.644l29.822 51.653zm-59.3-.6h58.95l29.475-51.053-29.475-51.053h-58.95l-29.475 51.053z"/><path d="m1161.936 514.126h-59.644l-29.822-51.653 29.822-51.653h59.644l29.822 51.653zm-59.3-.6h58.95l29.475-51.053-29.475-51.053h-58.95l-29.475 51.053z"/><path d="m1251.056 565.479h-59.644l-29.822-51.653 29.822-51.653h59.644l29.822 51.653zm-59.3-.6h58.95l29.475-51.053-29.475-51.053h-58.95l-29.475 51.053z"/><path d="m89.466 616.832h-59.644l-29.822-51.653 29.822-51.653h59.644l29.822 51.653zm-59.3-.6h58.95l29.475-51.053-29.472-51.053h-58.95l-29.475 51.053z"/><path d="m178.586 668.183h-59.644l-29.822-51.651 29.822-51.653h59.644l29.822 51.653zm-59.3-.6h58.95l29.475-51.051-29.475-51.053h-58.95l-29.472 51.053z"/><path d="m268.211 616.832h-59.644l-29.822-51.653 29.822-51.653h59.644l29.822 51.653zm-59.3-.6h58.95l29.475-51.053-29.475-51.053h-58.95l-29.475 51.053z"/><path d="m357.332 668.183h-59.645l-29.822-51.651 29.822-51.653h59.645l29.822 51.653zm-59.3-.6h58.951l29.475-51.051-29.475-51.053h-58.949l-29.475 51.053z"/><path d="m446.956 616.832h-59.644l-29.822-51.653 29.822-51.653h59.644l29.822 51.653zm-59.3-.6h58.95l29.475-51.053-29.475-51.053h-58.95l-29.475 51.053z"/><path d="m536.077 668.183h-59.644l-29.822-51.651 29.822-51.653h59.644l29.823 51.653zm-59.3-.6h58.95l29.473-51.051-29.47-51.053h-58.95l-29.48 51.053z"/><path d="m625.7 616.832h-59.643l-29.822-51.653 29.822-51.653h59.643l29.822 51.653zm-59.3-.6h58.95l29.475-51.053-29.475-51.053h-58.95l-29.475 51.053z"/><path d="m714.822 668.183h-59.644l-29.822-51.651 29.822-51.653h59.644l29.822 51.653zm-59.3-.6h58.95l29.475-51.051-29.475-51.053h-58.95l-29.472 51.053z"/><path d="m804.445 616.832h-59.645l-29.82-51.653 29.82-51.653h59.644l29.822 51.653zm-59.3-.6h58.955l29.475-51.053-29.475-51.053h-58.95l-29.475 51.053z"/><path d="m893.567 668.183h-59.644l-29.823-51.651 29.822-51.653h59.644l29.822 51.653zm-59.3-.6h58.95l29.475-51.051-29.475-51.053h-58.95l-29.475 51.053z"/><path d="m983.191 616.832h-59.644l-29.822-51.653 29.822-51.653h59.645l29.822 51.653zm-59.3-.6h58.951l29.475-51.053-29.475-51.053h-58.949l-29.475 51.053z"/><path d="m1072.311 668.183h-59.644l-29.822-51.651 29.822-51.653h59.644l29.822 51.653zm-59.3-.6h58.95l29.475-51.051-29.475-51.053h-58.95l-29.475 51.053z"/><path d="m1161.936 616.832h-59.644l-29.822-51.653 29.822-51.653h59.644l29.822 51.653zm-59.3-.6h58.95l29.475-51.053-29.475-51.053h-58.95l-29.475 51.053z"/><path d="m1251.056 668.183h-59.644l-29.822-51.651 29.822-51.653h59.644l29.822 51.653zm-59.3-.6h58.95l29.475-51.051-29.475-51.053h-58.95l-29.475 51.053z"/><path d="m89.466 719.537h-59.644l-29.822-51.654 29.822-51.651h59.644l29.822 51.651zm-59.3-.6h58.95l29.475-51.054-29.472-51.051h-58.95l-29.475 51.051z"/><path d="m178.586 770.889h-59.644l-29.822-51.652 29.822-51.654h59.644l29.822 51.654zm-59.3-.6h58.95l29.475-51.052-29.475-51.054h-58.95l-29.472 51.054z"/><path d="m268.211 719.537h-59.644l-29.822-51.654 29.822-51.651h59.644l29.822 51.651zm-59.3-.6h58.95l29.475-51.054-29.475-51.051h-58.95l-29.475 51.051z"/><path d="m357.332 770.889h-59.645l-29.822-51.652 29.822-51.654h59.645l29.822 51.654zm-59.3-.6h58.951l29.475-51.052-29.475-51.054h-58.949l-29.475 51.054z"/><path d="m446.956 719.537h-59.644l-29.822-51.654 29.822-51.651h59.644l29.822 51.651zm-59.3-.6h58.95l29.475-51.054-29.475-51.051h-58.95l-29.475 51.051z"/><path d="m536.077 770.889h-59.644l-29.822-51.652 29.822-51.654h59.644l29.823 51.654zm-59.3-.6h58.95l29.473-51.052-29.47-51.054h-58.95l-29.48 51.054z"/><path d="m625.7 719.537h-59.643l-29.822-51.654 29.822-51.651h59.643l29.822 51.651zm-59.3-.6h58.95l29.475-51.054-29.475-51.051h-58.95l-29.475 51.051z"/><path d="m714.822 770.889h-59.644l-29.822-51.652 29.822-51.654h59.644l29.822 51.654zm-59.3-.6h58.95l29.475-51.052-29.475-51.054h-58.95l-29.472 51.054z"/><path d="m804.445 719.537h-59.645l-29.82-51.654 29.82-51.651h59.644l29.822 51.651zm-59.3-.6h58.955l29.475-51.054-29.475-51.051h-58.95l-29.475 51.051z"/><path d="m893.567 770.889h-59.644l-29.823-51.652 29.822-51.654h59.644l29.822 51.654zm-59.3-.6h58.95l29.475-51.052-29.475-51.054h-58.95l-29.475 51.054z"/><path d="m983.191 719.537h-59.644l-29.822-51.654 29.822-51.651h59.645l29.822 51.651zm-59.3-.6h58.951l29.475-51.054-29.475-51.051h-58.949l-29.475 51.051z"/><path d="m1072.311 770.889h-59.644l-29.822-51.652 29.822-51.654h59.644l29.822 51.654zm-59.3-.6h58.95l29.475-51.052-29.475-51.054h-58.95l-29.475 51.054z"/><path d="m1161.936 719.537h-59.644l-29.822-51.654 29.822-51.651h59.644l29.822 51.651zm-59.3-.6h58.95l29.475-51.054-29.475-51.051h-58.95l-29.475 51.051z"/><path d="m1251.056 770.889h-59.644l-29.822-51.652 29.822-51.654h59.644l29.822 51.654zm-59.3-.6h58.95l29.475-51.052-29.475-51.054h-58.95l-29.475 51.054z"/><path d="m89.466 822.242h-59.644l-29.822-51.653 29.822-51.652h59.644l29.822 51.652zm-59.3-.6h58.95l29.475-51.054-29.472-51.051h-58.95l-29.475 51.052z"/><path d="m178.586 873.594h-59.644l-29.822-51.652 29.822-51.654h59.644l29.822 51.654zm-59.3-.6h58.95l29.475-51.052-29.475-51.054h-58.95l-29.472 51.054z"/><path d="m268.211 822.242h-59.644l-29.822-51.654 29.822-51.652h59.644l29.822 51.652zm-59.3-.6h58.95l29.475-51.054-29.475-51.052h-58.95l-29.475 51.052z"/><path d="m357.332 873.594h-59.645l-29.822-51.652 29.822-51.654h59.645l29.822 51.654zm-59.3-.6h58.951l29.475-51.052-29.475-51.054h-58.949l-29.475 51.054z"/><path d="m446.956 822.242h-59.644l-29.822-51.653 29.822-51.652h59.644l29.822 51.652zm-59.3-.6h58.95l29.475-51.054-29.475-51.052h-58.95l-29.475 51.052z"/><path d="m536.077 873.594h-59.644l-29.822-51.652 29.822-51.654h59.644l29.823 51.654zm-59.3-.6h58.95l29.473-51.052-29.47-51.053h-58.95l-29.48 51.053z"/><path d="m625.7 822.242h-59.643l-29.822-51.654 29.822-51.652h59.643l29.822 51.652zm-59.3-.6h58.95l29.475-51.054-29.475-51.052h-58.95l-29.475 51.052z"/><path d="m714.822 873.594h-59.644l-29.822-51.652 29.822-51.654h59.644l29.822 51.654zm-59.3-.6h58.95l29.475-51.052-29.475-51.054h-58.95l-29.472 51.054z"/><path d="m804.445 822.242h-59.645l-29.82-51.653 29.82-51.652h59.644l29.822 51.652zm-59.3-.6h58.955l29.475-51.054-29.475-51.051h-58.95l-29.475 51.052z"/><path d="m893.567 873.594h-59.644l-29.823-51.652 29.822-51.654h59.644l29.822 51.654zm-59.3-.6h58.95l29.475-51.052-29.475-51.054h-58.95l-29.475 51.054z"/><path d="m983.191 822.242h-59.644l-29.822-51.654 29.822-51.652h59.645l29.822 51.652zm-59.3-.6h58.951l29.475-51.054-29.475-51.052h-58.949l-29.475 51.052z"/><path d="m1072.311 873.594h-59.644l-29.822-51.652 29.822-51.654h59.644l29.822 51.654zm-59.3-.6h58.95l29.475-51.052-29.475-51.054h-58.95l-29.475 51.054z"/><path d="m1161.936 822.242h-59.644l-29.822-51.654 29.822-51.652h59.644l29.822 51.652zm-59.3-.6h58.95l29.475-51.054-29.475-51.052h-58.95l-29.475 51.052z"/><path d="m1251.056 873.594h-59.644l-29.822-51.652 29.822-51.654h59.644l29.822 51.654zm-59.3-.6h58.95l29.475-51.052-29.475-51.054h-58.95l-29.475 51.054z"/><path d="m89.466 924.948h-59.644l-29.822-51.654 29.822-51.652h59.644l29.822 51.652zm-59.3-.6h58.95l29.475-51.054-29.472-51.052h-58.95l-29.475 51.052z"/><path d="m178.586 976.3h-59.644l-29.822-51.652 29.822-51.654h59.644l29.822 51.654zm-59.3-.6h58.95l29.475-51.052-29.475-51.054h-58.95l-29.472 51.054z"/><path d="m268.211 924.948h-59.644l-29.822-51.654 29.822-51.652h59.644l29.822 51.652zm-59.3-.6h58.95l29.475-51.054-29.475-51.052h-58.95l-29.475 51.052z"/><path d="m357.332 976.3h-59.645l-29.822-51.652 29.822-51.654h59.645l29.822 51.654zm-59.3-.6h58.951l29.475-51.052-29.475-51.054h-58.949l-29.475 51.054z"/><path d="m446.956 924.948h-59.644l-29.822-51.654 29.822-51.652h59.644l29.822 51.652zm-59.3-.6h58.95l29.475-51.054-29.475-51.052h-58.95l-29.475 51.052z"/><path d="m536.077 976.3h-59.644l-29.822-51.652 29.822-51.654h59.644l29.823 51.654zm-59.3-.6h58.95l29.473-51.052-29.47-51.054h-58.95l-29.48 51.054z"/><path d="m625.7 924.948h-59.643l-29.822-51.654 29.822-51.652h59.643l29.822 51.652zm-59.3-.6h58.95l29.475-51.054-29.475-51.052h-58.95l-29.475 51.052z"/><path d="m714.822 976.3h-59.644l-29.822-51.652 29.822-51.654h59.644l29.822 51.654zm-59.3-.6h58.95l29.475-51.052-29.475-51.054h-58.95l-29.472 51.054z"/><path d="m804.445 924.948h-59.645l-29.82-51.654 29.82-51.652h59.644l29.822 51.652zm-59.3-.6h58.955l29.475-51.054-29.475-51.052h-58.95l-29.475 51.052z"/><path d="m893.567 976.3h-59.644l-29.823-51.652 29.822-51.654h59.644l29.822 51.654zm-59.3-.6h58.95l29.475-51.052-29.475-51.054h-58.95l-29.475 51.054z"/><path d="m983.191 924.948h-59.644l-29.822-51.654 29.822-51.652h59.645l29.822 51.652zm-59.3-.6h58.951l29.475-51.054-29.475-51.052h-58.949l-29.475 51.052z"/><path d="m1072.311 976.3h-59.644l-29.822-51.652 29.822-51.654h59.644l29.822 51.654zm-59.3-.6h58.95l29.475-51.052-29.475-51.054h-58.95l-29.475 51.054z"/><path d="m1161.936 924.948h-59.644l-29.822-51.654 29.822-51.652h59.644l29.822 51.652zm-59.3-.6h58.95l29.475-51.054-29.475-51.052h-58.95l-29.475 51.052z"/><path d="m1251.056 976.3h-59.644l-29.822-51.652 29.822-51.654h59.644l29.822 51.654zm-59.3-.6h58.95l29.475-51.052-29.475-51.054h-58.95l-29.475 51.054z"/><path d="m89.466 1027.651h-59.644l-29.822-51.651 29.822-51.652h59.644l29.822 51.652zm-59.3-.6h58.95l29.478-51.051-29.475-51.052h-58.95l-29.475 51.052z"/><path d="m178.586 1079h-59.644l-29.822-51.649 29.822-51.651h59.644l29.822 51.652zm-59.3-.6h58.95l29.475-51.054-29.472-51.046h-58.95l-29.475 51.052z"/><path d="m268.211 1027.651h-59.644l-29.822-51.651 29.822-51.652h59.644l29.821 51.652zm-59.3-.6h58.95l29.478-51.051-29.475-51.052h-58.95l-29.475 51.052z"/><path d="m357.332 1079h-59.645l-29.822-51.654 29.822-51.646h59.645l29.822 51.652zm-59.3-.6h58.951l29.475-51.054-29.473-51.046h-58.951l-29.475 51.052z"/><path d="m446.956 1027.651h-59.644l-29.822-51.651 29.822-51.652h59.644l29.822 51.652zm-59.3-.6h58.95l29.478-51.051-29.475-51.052h-58.95l-29.475 51.052z"/><path d="m536.077 1079h-59.644l-29.822-51.654 29.822-51.646h59.644l29.822 51.652zm-59.3-.6h58.95l29.475-51.054-29.472-51.046h-58.95l-29.48 51.051z"/><path d="m625.7 1027.651h-59.643l-29.822-51.651 29.822-51.652h59.643l29.822 51.652zm-59.3-.6h58.95l29.478-51.051-29.475-51.052h-58.953l-29.472 51.052z"/><path d="m714.822 1079h-59.644l-29.822-51.654 29.822-51.646h59.644l29.822 51.652zm-59.3-.6h58.95l29.475-51.054-29.472-51.046h-58.95l-29.475 51.052z"/><path d="m804.445 1027.651h-59.645l-29.82-51.651 29.82-51.652h59.644l29.823 51.652zm-59.3-.6h58.955l29.473-51.051-29.473-51.052h-58.95l-29.476 51.052z"/><path d="m893.567 1079h-59.644l-29.823-51.649 29.823-51.651h59.644l29.822 51.652zm-59.3-.6h58.95l29.475-51.054-29.473-51.046h-58.95l-29.475 51.052z"/><path d="m983.191 1027.651h-59.644l-29.822-51.651 29.822-51.652h59.645l29.821 51.652zm-59.3-.6h58.951l29.477-51.051-29.475-51.052h-58.951l-29.475 51.052z"/><path d="m1072.311 1079h-59.644l-29.822-51.654 29.822-51.652h59.644l29.822 51.652zm-59.3-.6h58.95l29.475-51.054-29.471-51.046h-58.95l-29.475 51.052z"/><path d="m1161.936 1027.651h-59.644l-29.821-51.651 29.822-51.652h59.644l29.821 51.652zm-59.3-.6h58.95l29.479-51.051-29.475-51.052h-58.95l-29.475 51.052z"/><path d="m1251.056 1079h-59.644l-29.822-51.654 29.822-51.652h59.644l29.822 51.652zm-59.3-.6h58.95l29.475-51.054-29.472-51.046h-58.95l-29.475 51.052z"/><path d="m89.466 1130.357h-59.644l-29.822-51.657 29.822-51.654h59.644l29.822 51.654zm-59.3-.6h58.95l29.475-51.052-29.475-51.054h-58.947l-29.475 51.049z"/><path d="m178.586 1181.711h-59.644l-29.822-51.654 29.822-51.652h59.644l29.822 51.652zm-59.3-.6h58.95l29.475-51.054-29.472-51.057h-58.95l-29.475 51.052z"/><path d="m268.211 1130.357h-59.644l-29.822-51.657 29.822-51.654h59.644l29.822 51.654zm-59.3-.6h58.95l29.475-51.052-29.475-51.054h-58.95l-29.472 51.049z"/><path d="m357.332 1181.711h-59.645l-29.822-51.654 29.822-51.652h59.645l29.822 51.652zm-59.3-.6h58.951l29.475-51.054-29.473-51.057h-58.951l-29.475 51.052z"/><path d="m446.956 1130.357h-59.644l-29.822-51.657 29.822-51.654h59.644l29.822 51.654zm-59.3-.6h58.95l29.475-51.052-29.475-51.054h-58.95l-29.472 51.049z"/><path d="m536.077 1181.711h-59.644l-29.822-51.654 29.822-51.652h59.644l29.822 51.652zm-59.3-.6h58.95l29.475-51.054-29.472-51.057h-58.95l-29.48 51.057z"/><path d="m625.7 1130.357h-59.643l-29.822-51.657 29.822-51.654h59.643l29.822 51.654zm-59.3-.6h58.95l29.475-51.052-29.475-51.054h-58.95l-29.472 51.049z"/><path d="m714.822 1181.711h-59.644l-29.822-51.654 29.822-51.652h59.644l29.822 51.652zm-59.3-.6h58.95l29.475-51.054-29.472-51.057h-58.95l-29.475 51.052z"/><path d="m804.445 1130.357h-59.645l-29.82-51.657 29.822-51.654h59.644l29.822 51.654zm-59.3-.6h58.955l29.475-51.052-29.475-51.054h-58.95l-29.476 51.049z"/><path d="m893.567 1181.711h-59.644l-29.823-51.654 29.822-51.652h59.644l29.822 51.652zm-59.3-.6h58.95l29.475-51.054-29.473-51.057h-58.95l-29.475 51.052z"/><path d="m983.191 1130.357h-59.644l-29.822-51.657 29.822-51.654h59.645l29.822 51.654zm-59.3-.6h58.951l29.475-51.052-29.475-51.054h-58.949l-29.475 51.049z"/><path d="m1072.311 1181.711h-59.644l-29.822-51.654 29.822-51.652h59.644l29.822 51.652zm-59.3-.6h58.95l29.475-51.054-29.471-51.057h-58.95l-29.475 51.052z"/><path d="m1161.936 1130.357h-59.644l-29.822-51.652 29.822-51.654h59.644l29.822 51.654zm-59.3-.6h58.95l29.475-51.052-29.475-51.054h-58.95l-29.475 51.054z"/><path d="m1251.056 1181.711h-59.644l-29.822-51.654 29.822-51.652h59.644l29.822 51.652zm-59.3-.6h58.95l29.475-51.054-29.472-51.057h-58.95l-29.475 51.052z"/><path d="m89.466 1233.062h-59.644l-29.822-51.651 29.822-51.654h59.644l29.822 51.654zm-59.3-.6h58.95l29.475-51.052-29.475-51.054h-58.947l-29.475 51.055z"/><path d="m178.586 1284.416h-59.644l-29.822-51.654 29.822-51.652h59.644l29.822 51.652zm-59.3-.6h58.95l29.475-51.054-29.475-51.052h-58.95l-29.475 51.052z"/><path d="m268.211 1233.062h-59.644l-29.822-51.652 29.822-51.654h59.644l29.822 51.654zm-59.3-.6h58.95l29.475-51.052-29.475-51.054h-58.95l-29.475 51.054z"/><path d="m357.332 1284.416h-59.645l-29.822-51.654 29.822-51.652h59.645l29.822 51.652zm-59.3-.6h58.951l29.475-51.054-29.475-51.052h-58.949l-29.475 51.052z"/><path d="m446.956 1233.062h-59.644l-29.822-51.652 29.822-51.654h59.644l29.822 51.654zm-59.3-.6h58.95l29.475-51.052-29.475-51.054h-58.95l-29.475 51.054z"/><path d="m536.077 1284.416h-59.644l-29.822-51.654 29.822-51.652h59.644l29.822 51.652zm-59.3-.6h58.95l29.475-51.054-29.475-51.052h-58.947l-29.48 51.052z"/><path d="m625.7 1233.062h-59.643l-29.822-51.652 29.822-51.654h59.643l29.822 51.654zm-59.3-.6h58.95l29.475-51.052-29.475-51.054h-58.95l-29.475 51.054z"/><path d="m714.822 1284.416h-59.644l-29.822-51.654 29.822-51.652h59.644l29.822 51.652zm-59.3-.6h58.95l29.475-51.054-29.475-51.052h-58.95l-29.475 51.052z"/><path d="m804.445 1233.062h-59.645l-29.822-51.652 29.822-51.654h59.644l29.822 51.654zm-59.3-.6h58.955l29.475-51.052-29.475-51.053h-58.95l-29.475 51.054z"/><path d="m893.567 1284.416h-59.644l-29.823-51.654 29.822-51.652h59.644l29.822 51.652zm-59.3-.6h58.95l29.475-51.054-29.475-51.052h-58.95l-29.475 51.052z"/><path d="m983.191 1233.062h-59.644l-29.822-51.652 29.822-51.654h59.645l29.822 51.654zm-59.3-.6h58.951l29.475-51.052-29.475-51.054h-58.949l-29.475 51.054z"/><path d="m1072.311 1284.416h-59.644l-29.822-51.654 29.822-51.652h59.644l29.822 51.652zm-59.3-.6h58.95l29.475-51.054-29.475-51.052h-58.95l-29.475 51.052z"/><path d="m1161.936 1233.062h-59.644l-29.822-51.652 29.822-51.654h59.644l29.822 51.654zm-59.3-.6h58.95l29.475-51.052-29.475-51.054h-58.95l-29.475 51.054z"/><path d="m1251.056 1284.416h-59.644l-29.822-51.654 29.822-51.652h59.644l29.822 51.652zm-59.3-.6h58.95l29.475-51.054-29.475-51.052h-58.95l-29.475 51.052z"/></g></g><g opacity=".26"><path d="m1239.914 1079.17 131.12-187.021h46.858v177.978h45.214v35.349h-45.214v76.864h-41.1v-76.864h-136.878zm69.465-9.042h67.82v-99.883c0-13.153 1.643-29.593 1.643-29.593h-.821a256.67 256.67 0 0 1 -14.387 24.25l-64.121 87.14a173.352 173.352 0 0 1 -14.8 18.5v.822s11.924-1.237 24.666-1.237z" fill="url(#f)"/><path d="m1493.927 1036.833c0-83.439 25.073-149.616 102.348-149.616 77.685 0 102.758 66.177 102.758 149.616 0 83.852-25.073 150.439-102.758 150.439-77.275 0-102.348-66.587-102.348-150.439zm163.592 0c0-62.889-13.564-112.213-61.244-112.213-47.27 0-60.834 49.324-60.834 112.213 0 63.3 13.564 113.035 60.834 113.035 47.68 0 61.244-49.735 61.244-113.035z" fill="url(#g)"/><path d="m1755.751 1115.752s29.183 32.883 73.576 32.883c31.649 0 57.955-21.784 57.955-53.024 0-32.472-29.183-51.79-62.889-51.79h-20.141l-9.042-21.784 60.423-76.042a91.634 91.634 0 0 1 17.262-18.907v-.822s-8.631 1.234-24.661 1.234h-56.312c-5.754 0-9.042 2.877-9.042 9.042v18.5h-37.4v-36.587c0-18.5 6.165-26.306 24.663-26.306h152.9v25.9l-76.043 92.067c37.4 4.111 82.207 29.185 82.207 85.084 0 48.5-39.459 92.072-99.881 92.072-60.011 0-95.771-40.692-95.771-40.692z" fill="url(#h)"/></g><g fill="#22416d"><path d="m1229.232 803.238a9.032 9.032 0 0 0 4.57 1.289c2.607 0 4.131-1.377 4.131-3.369 0-1.846-1.055-2.9-3.721-3.926-3.223-1.143-5.215-2.812-5.215-5.6 0-3.076 2.549-5.361 6.387-5.361a8.972 8.972 0 0 1 4.365.967l-.7 2.08a7.864 7.864 0 0 0 -3.75-.937c-2.7 0-3.721 1.611-3.721 2.959 0 1.846 1.2 2.754 3.926 3.809 3.34 1.289 5.039 2.9 5.039 5.8 0 3.047-2.256 5.684-6.914 5.684a10.2 10.2 0 0 1 -5.039-1.26z"/><path d="m1256.945 799.136c0 5.244-3.633 7.529-7.061 7.529-3.838 0-6.8-2.812-6.8-7.295 0-4.746 3.105-7.529 7.031-7.529 4.076.001 6.83 2.959 6.83 7.295zm-11.25.146c0 3.105 1.787 5.449 4.307 5.449 2.461 0 4.307-2.314 4.307-5.508 0-2.4-1.2-5.449-4.248-5.449s-4.366 2.814-4.366 5.509z"/><path d="m1260.2 796.588c0-1.67-.029-3.105-.117-4.424h2.256l.088 2.783h.117a4.254 4.254 0 0 1 3.926-3.105 2.789 2.789 0 0 1 .732.088v2.432a3.873 3.873 0 0 0 -.879-.088c-1.816 0-3.105 1.377-3.457 3.311a7.256 7.256 0 0 0 -.117 1.2v7.559h-2.549z"/><path d="m1269.892 796.588c0-1.67-.029-3.105-.117-4.424h2.256l.088 2.783h.117a4.254 4.254 0 0 1 3.926-3.105 2.789 2.789 0 0 1 .732.088v2.432a3.873 3.873 0 0 0 -.879-.088c-1.816 0-3.105 1.377-3.457 3.311a7.257 7.257 0 0 0 -.117 1.2v7.559h-2.549z"/><path d="m1281.14 792.164 3.105 8.379c.322.938.674 2.051.908 2.9h.059c.264-.85.557-1.934.908-2.959l2.813-8.32h2.725l-3.867 10.107c-1.846 4.863-3.105 7.354-4.863 8.877a6.986 6.986 0 0 1 -3.164 1.67l-.645-2.168a6.819 6.819 0 0 0 2.256-1.26 7.817 7.817 0 0 0 2.168-2.871 1.851 1.851 0 0 0 .205-.615 2.248 2.248 0 0 0 -.176-.674l-5.244-13.066z"/><path d="m1291.188 809.947a42.153 42.153 0 0 0 1.758-7l2.871-.293a35.717 35.717 0 0 1 -2.783 7.119z"/><path d="m1306.069 792.164 3.105 8.379c.322.938.674 2.051.908 2.9h.059c.264-.85.557-1.934.908-2.959l2.813-8.32h2.725l-3.867 10.107c-1.846 4.863-3.105 7.354-4.863 8.877a6.986 6.986 0 0 1 -3.164 1.67l-.645-2.168a6.819 6.819 0 0 0 2.256-1.26 7.817 7.817 0 0 0 2.168-2.871 1.851 1.851 0 0 0 .205-.615 2.248 2.248 0 0 0 -.176-.674l-5.244-13.066z"/><path d="m1331.468 799.136c0 5.244-3.633 7.529-7.061 7.529-3.838 0-6.8-2.812-6.8-7.295 0-4.746 3.105-7.529 7.031-7.529 4.077.001 6.83 2.959 6.83 7.295zm-11.25.146c0 3.105 1.787 5.449 4.307 5.449 2.461 0 4.307-2.314 4.307-5.508 0-2.4-1.2-5.449-4.248-5.449s-4.366 2.814-4.366 5.509z"/><path d="m1346.584 802.476c0 1.465.029 2.754.117 3.867h-2.285l-.146-2.314h-.059a5.335 5.335 0 0 1 -4.687 2.637c-2.227 0-4.893-1.23-4.893-6.211v-8.291h2.578v7.852c0 2.7.82 4.512 3.164 4.512a3.727 3.727 0 0 0 3.4-2.344 3.77 3.77 0 0 0 .234-1.318v-8.7h2.578z"/><path d="m1357.07 785.543h2.578v8.848h.059a4.784 4.784 0 0 1 1.846-1.816 5.306 5.306 0 0 1 2.637-.732c1.9 0 4.951 1.172 4.951 6.064v8.438h-2.578v-8.145c0-2.285-.85-4.219-3.281-4.219a3.7 3.7 0 0 0 -3.457 2.578 3.121 3.121 0 0 0 -.176 1.23v8.555h-2.578z"/><path d="m1381.18 806.343-.205-1.787h-.088a5.281 5.281 0 0 1 -4.336 2.109 4.04 4.04 0 0 1 -4.336-4.072c0-3.428 3.047-5.3 8.525-5.273v-.293c0-1.172-.322-3.281-3.223-3.281a7.065 7.065 0 0 0 -3.691 1.055l-.586-1.7a8.8 8.8 0 0 1 4.658-1.26c4.336 0 5.391 2.959 5.391 5.8v5.3a19.965 19.965 0 0 0 .234 3.4zm-.381-7.236c-2.812-.059-6.006.439-6.006 3.193a2.281 2.281 0 0 0 2.432 2.461 3.528 3.528 0 0 0 3.428-2.373 2.691 2.691 0 0 0 .146-.82z"/><path d="m1388.21 792.164 2.783 7.969a36.465 36.465 0 0 1 1.143 3.633h.088c.322-1.172.732-2.344 1.2-3.633l2.754-7.969h2.7l-5.566 14.18h-2.461l-5.391-14.18z"/><path d="m1402.446 799.722c.059 3.486 2.285 4.922 4.863 4.922a9.323 9.323 0 0 0 3.926-.732l.439 1.846a11.485 11.485 0 0 1 -4.717.879c-4.365 0-6.973-2.871-6.973-7.148s2.52-7.646 6.65-7.646c4.629 0 5.859 4.072 5.859 6.68a9.724 9.724 0 0 1 -.088 1.2zm7.559-1.846c.029-1.641-.674-4.189-3.574-4.189-2.607 0-3.75 2.4-3.955 4.189z"/><path d="m1421.9 796c0-1.465-.029-2.666-.117-3.838h2.285l.146 2.344h.059a5.214 5.214 0 0 1 4.688-2.666c1.963 0 5.01 1.172 5.01 6.035v8.467h-2.578v-8.172c0-2.285-.85-4.189-3.281-4.189a3.663 3.663 0 0 0 -3.457 2.637 3.707 3.707 0 0 0 -.176 1.2v8.525h-2.579z"/><path d="m1450.988 799.136c0 5.244-3.633 7.529-7.061 7.529-3.838 0-6.8-2.812-6.8-7.295 0-4.746 3.105-7.529 7.031-7.529 4.076.001 6.83 2.959 6.83 7.295zm-11.25.146c0 3.105 1.787 5.449 4.307 5.449 2.461 0 4.307-2.314 4.307-5.508 0-2.4-1.2-5.449-4.248-5.449s-4.366 2.814-4.366 5.509z"/><path d="m1457.344 788.092v4.072h3.691v1.963h-3.691v7.646c0 1.758.5 2.754 1.934 2.754a5.735 5.735 0 0 0 1.494-.176l.117 1.934a6.311 6.311 0 0 1 -2.285.352 3.573 3.573 0 0 1 -2.783-1.084c-.732-.762-1-2.021-1-3.691v-7.734h-2.2v-1.963h2.2v-3.4z"/><path d="m1471.581 799.722c.059 3.486 2.285 4.922 4.863 4.922a9.323 9.323 0 0 0 3.926-.732l.439 1.846a11.485 11.485 0 0 1 -4.717.879c-4.365 0-6.973-2.871-6.973-7.148s2.52-7.646 6.65-7.646c4.629 0 5.859 4.072 5.859 6.68a9.724 9.724 0 0 1 -.088 1.2zm7.559-1.846c.029-1.641-.674-4.189-3.574-4.189-2.607 0-3.75 2.4-3.955 4.189z"/><path d="m1484.821 796c0-1.465-.029-2.666-.117-3.838h2.285l.146 2.344h.059a5.214 5.214 0 0 1 4.688-2.666c1.963 0 5.01 1.172 5.01 6.035v8.467h-2.578v-8.172c0-2.285-.85-4.189-3.281-4.189a3.663 3.663 0 0 0 -3.457 2.637 3.707 3.707 0 0 0 -.176 1.2v8.525h-2.578z"/><path d="m1513.911 799.136c0 5.244-3.633 7.529-7.061 7.529-3.838 0-6.8-2.812-6.8-7.295 0-4.746 3.105-7.529 7.031-7.529 4.076.001 6.83 2.959 6.83 7.295zm-11.25.146c0 3.105 1.787 5.449 4.307 5.449 2.461 0 4.307-2.314 4.307-5.508 0-2.4-1.2-5.449-4.248-5.449s-4.366 2.814-4.366 5.509z"/><path d="m1529.027 802.476c0 1.465.029 2.754.117 3.867h-2.285l-.146-2.314h-.059a5.335 5.335 0 0 1 -4.687 2.637c-2.227 0-4.893-1.23-4.893-6.211v-8.291h2.578v7.852c0 2.7.82 4.512 3.164 4.512a3.727 3.727 0 0 0 3.4-2.344 3.77 3.77 0 0 0 .234-1.318v-8.7h2.578z"/><path d="m1545.519 792.164c-.059 1.025-.117 2.168-.117 3.9v8.232c0 3.252-.645 5.244-2.021 6.475a7.517 7.517 0 0 1 -5.156 1.7 9.152 9.152 0 0 1 -4.717-1.172l.645-1.963a8 8 0 0 0 4.16 1.113c2.637 0 4.57-1.377 4.57-4.951v-1.582h-.059a5.062 5.062 0 0 1 -4.512 2.373c-3.516 0-6.035-2.988-6.035-6.914 0-4.8 3.135-7.529 6.387-7.529a4.716 4.716 0 0 1 4.424 2.461h.059l.117-2.139zm-2.666 5.6a3.672 3.672 0 0 0 -.146-1.172 3.714 3.714 0 0 0 -3.6-2.725c-2.461 0-4.219 2.08-4.219 5.361 0 2.783 1.406 5.1 4.189 5.1a3.769 3.769 0 0 0 3.574-2.637 4.485 4.485 0 0 0 .205-1.377z"/><path d="m1549.677 785.543h2.578v8.848h.059a4.784 4.784 0 0 1 1.846-1.816 5.306 5.306 0 0 1 2.637-.732c1.9 0 4.951 1.172 4.951 6.064v8.438h-2.578v-8.145c0-2.285-.85-4.219-3.281-4.219a3.7 3.7 0 0 0 -3.457 2.578 3.121 3.121 0 0 0 -.176 1.23v8.555h-2.578z"/><path d="m1572.145 796.588c0-1.67-.029-3.105-.117-4.424h2.256l.088 2.783h.117a4.254 4.254 0 0 1 3.926-3.105 2.789 2.789 0 0 1 .732.088v2.432a3.873 3.873 0 0 0 -.879-.088c-1.816 0-3.105 1.377-3.457 3.311a7.256 7.256 0 0 0 -.117 1.2v7.559h-2.549z"/><path d="m1584.713 788.179a1.6 1.6 0 0 1 -3.193 0 1.571 1.571 0 0 1 1.611-1.611 1.53 1.53 0 0 1 1.582 1.611zm-2.871 18.164v-14.18h2.578v14.18z"/><path d="m1600.913 792.164c-.059 1.025-.117 2.168-.117 3.9v8.232c0 3.252-.645 5.244-2.021 6.475a7.517 7.517 0 0 1 -5.156 1.7 9.152 9.152 0 0 1 -4.717-1.172l.645-1.963a8 8 0 0 0 4.16 1.113c2.637 0 4.57-1.377 4.57-4.951v-1.582h-.059a5.062 5.062 0 0 1 -4.512 2.373c-3.516 0-6.035-2.988-6.035-6.914 0-4.8 3.135-7.529 6.387-7.529a4.716 4.716 0 0 1 4.424 2.461h.059l.117-2.139zm-2.666 5.6a3.672 3.672 0 0 0 -.146-1.172 3.714 3.714 0 0 0 -3.6-2.725c-2.461 0-4.219 2.08-4.219 5.361 0 2.783 1.406 5.1 4.189 5.1a3.769 3.769 0 0 0 3.574-2.637 4.485 4.485 0 0 0 .205-1.377z"/><path d="m1605.071 785.543h2.578v8.848h.059a4.784 4.784 0 0 1 1.846-1.816 5.306 5.306 0 0 1 2.637-.732c1.9 0 4.951 1.172 4.951 6.064v8.438h-2.578v-8.145c0-2.285-.85-4.219-3.281-4.219a3.7 3.7 0 0 0 -3.457 2.578 3.121 3.121 0 0 0 -.176 1.23v8.555h-2.578z"/><path d="m1624.317 788.092v4.072h3.691v1.963h-3.691v7.646c0 1.758.5 2.754 1.934 2.754a5.735 5.735 0 0 0 1.494-.176l.117 1.934a6.311 6.311 0 0 1 -2.285.352 3.573 3.573 0 0 1 -2.783-1.084c-.732-.762-1-2.021-1-3.691v-7.734h-2.2v-1.963h2.2v-3.4z"/><path d="m1630.556 803.707a6.757 6.757 0 0 0 3.4 1.025c1.875 0 2.754-.937 2.754-2.109 0-1.23-.732-1.9-2.637-2.607-2.549-.908-3.75-2.314-3.75-4.014 0-2.285 1.846-4.16 4.893-4.16a7.077 7.077 0 0 1 3.486.879l-.645 1.875a5.519 5.519 0 0 0 -2.9-.82c-1.523 0-2.373.879-2.373 1.934 0 1.172.85 1.7 2.7 2.4 2.461.938 3.721 2.168 3.721 4.277 0 2.49-1.934 4.248-5.3 4.248a8.086 8.086 0 0 1 -3.984-.967z"/><path d="m1651.824 788.092v4.072h3.691v1.963h-3.691v7.646c0 1.758.5 2.754 1.934 2.754a5.735 5.735 0 0 0 1.494-.176l.117 1.934a6.311 6.311 0 0 1 -2.285.352 3.573 3.573 0 0 1 -2.783-1.084c-.732-.762-1-2.021-1-3.691v-7.734h-2.2v-1.963h2.2v-3.4z"/><path d="m1671.071 799.136c0 5.244-3.633 7.529-7.061 7.529-3.838 0-6.8-2.812-6.8-7.295 0-4.746 3.105-7.529 7.031-7.529 4.076.001 6.83 2.959 6.83 7.295zm-11.25.146c0 3.105 1.787 5.449 4.307 5.449 2.461 0 4.307-2.314 4.307-5.508 0-2.4-1.2-5.449-4.248-5.449s-4.366 2.814-4.366 5.509z"/><path d="m1681.528 792.164 2.783 7.969a36.465 36.465 0 0 1 1.143 3.633h.088c.322-1.172.732-2.344 1.2-3.633l2.754-7.969h2.7l-5.566 14.18h-2.461l-5.391-14.18z"/><path d="m1697.493 788.179a1.6 1.6 0 0 1 -3.193 0 1.571 1.571 0 0 1 1.611-1.611 1.53 1.53 0 0 1 1.582 1.611zm-2.871 18.164v-14.18h2.578v14.18z"/><path d="m1702.912 799.722c.059 3.486 2.285 4.922 4.863 4.922a9.323 9.323 0 0 0 3.926-.732l.439 1.846a11.485 11.485 0 0 1 -4.717.879c-4.365 0-6.973-2.871-6.973-7.148s2.52-7.646 6.65-7.646c4.629 0 5.859 4.072 5.859 6.68a9.724 9.724 0 0 1 -.088 1.2zm7.559-1.846c.029-1.641-.674-4.189-3.574-4.189-2.607 0-3.75 2.4-3.955 4.189z"/><path d="m1717.178 792.164 1.875 7.207c.41 1.582.791 3.047 1.055 4.512h.088c.322-1.436.791-2.959 1.26-4.482l2.314-7.236h2.168l2.2 7.09c.527 1.7.938 3.193 1.26 4.629h.088a42.639 42.639 0 0 1 1.084-4.6l2.021-7.119h2.549l-4.57 14.18h-2.344l-2.168-6.768a47.257 47.257 0 0 1 -1.26-4.658h-.059a41.956 41.956 0 0 1 -1.289 4.688l-2.285 6.738h-2.344l-4.277-14.18z"/><path d="m1747.029 788.092v4.072h3.691v1.963h-3.691v7.646c0 1.758.5 2.754 1.934 2.754a5.735 5.735 0 0 0 1.494-.176l.117 1.934a6.311 6.311 0 0 1 -2.285.352 3.573 3.573 0 0 1 -2.783-1.084c-.732-.762-1-2.021-1-3.691v-7.734h-2.2v-1.963h2.2v-3.4z"/><path d="m1753.62 785.543h2.578v8.848h.059a4.784 4.784 0 0 1 1.846-1.816 5.306 5.306 0 0 1 2.637-.732c1.9 0 4.951 1.172 4.951 6.064v8.438h-2.578v-8.145c0-2.285-.85-4.219-3.281-4.219a3.7 3.7 0 0 0 -3.457 2.578 3.121 3.121 0 0 0 -.176 1.23v8.555h-2.578z"/><path d="m1771.313 799.722c.059 3.486 2.285 4.922 4.863 4.922a9.323 9.323 0 0 0 3.926-.732l.439 1.846a11.485 11.485 0 0 1 -4.717.879c-4.365 0-6.973-2.871-6.973-7.148s2.52-7.646 6.65-7.646c4.629 0 5.859 4.072 5.859 6.68a9.724 9.724 0 0 1 -.088 1.2zm7.559-1.846c.029-1.641-.674-4.189-3.574-4.189-2.607 0-3.75 2.4-3.955 4.189z"/><path d="m1791.027 806.343v-12.216h-1.992v-1.963h1.992v-.674a6.685 6.685 0 0 1 1.641-4.951 4.933 4.933 0 0 1 3.457-1.318 5.978 5.978 0 0 1 2.2.41l-.352 1.992a3.85 3.85 0 0 0 -1.641-.322c-2.2 0-2.754 1.934-2.754 4.1v.762h3.422v1.963h-3.428v12.217z"/><path d="m1811.768 799.136c0 5.244-3.633 7.529-7.061 7.529-3.838 0-6.8-2.812-6.8-7.295 0-4.746 3.105-7.529 7.031-7.529 4.076.001 6.83 2.959 6.83 7.295zm-11.25.146c0 3.105 1.787 5.449 4.307 5.449 2.461 0 4.307-2.314 4.307-5.508 0-2.4-1.2-5.449-4.248-5.449s-4.366 2.814-4.366 5.509z"/><path d="m1815.019 785.543h2.578v20.8h-2.578z"/><path d="m1821.932 785.543h2.578v20.8h-2.578z"/><path d="m1841.677 799.136c0 5.244-3.633 7.529-7.061 7.529-3.838 0-6.8-2.812-6.8-7.295 0-4.746 3.105-7.529 7.031-7.529 4.077.001 6.83 2.959 6.83 7.295zm-11.25.146c0 3.105 1.787 5.449 4.307 5.449 2.461 0 4.307-2.314 4.307-5.508 0-2.4-1.2-5.449-4.248-5.449s-4.366 2.814-4.366 5.509z"/><path d="m1845.75 792.164 1.875 7.207c.41 1.582.791 3.047 1.055 4.512h.088c.322-1.436.791-2.959 1.26-4.482l2.314-7.236h2.168l2.2 7.09c.527 1.7.938 3.193 1.26 4.629h.088a42.639 42.639 0 0 1 1.084-4.6l2.021-7.119h2.549l-4.57 14.18h-2.344l-2.168-6.768a47.257 47.257 0 0 1 -1.26-4.658h-.059a41.956 41.956 0 0 1 -1.289 4.688l-2.285 6.738h-2.344l-4.277-14.18z"/><path d="m1869.156 788.179a1.6 1.6 0 0 1 -3.193 0 1.571 1.571 0 0 1 1.611-1.611 1.53 1.53 0 0 1 1.582 1.611zm-2.871 18.164v-14.18h2.578v14.18z"/><path d="m1873.139 796c0-1.465-.029-2.666-.117-3.838h2.285l.146 2.344h.059a5.214 5.214 0 0 1 4.688-2.666c1.963 0 5.01 1.172 5.01 6.035v8.467h-2.578v-8.172c0-2.285-.85-4.189-3.281-4.189a3.663 3.663 0 0 0 -3.457 2.637 3.707 3.707 0 0 0 -.176 1.2v8.525h-2.578z"/><path d="m1901.614 792.164c-.059 1.025-.117 2.168-.117 3.9v8.232c0 3.252-.645 5.244-2.021 6.475a7.517 7.517 0 0 1 -5.156 1.7 9.152 9.152 0 0 1 -4.717-1.172l.645-1.963a8 8 0 0 0 4.16 1.113c2.637 0 4.57-1.377 4.57-4.951v-1.582h-.059a5.062 5.062 0 0 1 -4.512 2.373c-3.516 0-6.035-2.988-6.035-6.914 0-4.8 3.135-7.529 6.387-7.529a4.716 4.716 0 0 1 4.424 2.461h.059l.117-2.139zm-2.666 5.6a3.672 3.672 0 0 0 -.146-1.172 3.714 3.714 0 0 0 -3.6-2.725c-2.461 0-4.219 2.08-4.219 5.361 0 2.783 1.406 5.1 4.189 5.1a3.769 3.769 0 0 0 3.574-2.637 4.485 4.485 0 0 0 .205-1.377z"/><path d="m1239.6 840.969a9.5 9.5 0 0 1 -4.072.82c-4.277 0-7.061-2.9-7.061-7.236a7.2 7.2 0 0 1 7.617-7.529 8.618 8.618 0 0 1 3.574.732l-.586 1.992a5.979 5.979 0 0 0 -2.988-.674c-3.252 0-5.01 2.4-5.01 5.361 0 3.281 2.109 5.3 4.922 5.3a7.324 7.324 0 0 0 3.164-.7z"/><path d="m1255.276 834.29c0 5.244-3.633 7.529-7.061 7.529-3.838 0-6.8-2.812-6.8-7.295 0-4.746 3.105-7.529 7.031-7.529 4.076 0 6.83 2.959 6.83 7.295zm-11.25.146c0 3.105 1.787 5.449 4.307 5.449 2.461 0 4.307-2.314 4.307-5.508 0-2.4-1.2-5.449-4.248-5.449s-4.366 2.813-4.366 5.508z"/><path d="m1258.526 831.155c0-1.465-.029-2.666-.117-3.838h2.285l.146 2.344h.059a5.214 5.214 0 0 1 4.688-2.666c1.963 0 5.01 1.172 5.01 6.035v8.47h-2.578v-8.174c0-2.285-.85-4.189-3.281-4.189a3.663 3.663 0 0 0 -3.457 2.637 3.707 3.707 0 0 0 -.176 1.2v8.526h-2.578z"/><path d="m1277.773 823.245v4.072h3.691v1.963h-3.691v7.646c0 1.758.5 2.754 1.934 2.754a5.735 5.735 0 0 0 1.494-.176l.117 1.934a6.311 6.311 0 0 1 -2.285.352 3.573 3.573 0 0 1 -2.783-1.084c-.732-.762-1-2.021-1-3.691v-7.735h-2.2v-1.963h2.2v-3.4z"/><path d="m1285.624 834.876c.059 3.486 2.285 4.922 4.863 4.922a9.323 9.323 0 0 0 3.926-.732l.439 1.846a11.485 11.485 0 0 1 -4.717.879c-4.365 0-6.973-2.871-6.973-7.148s2.52-7.646 6.65-7.646c4.629 0 5.859 4.072 5.859 6.68a9.724 9.724 0 0 1 -.088 1.2zm7.559-1.846c.029-1.641-.674-4.189-3.574-4.189-2.607 0-3.75 2.4-3.955 4.189z"/><path d="m1298.864 831.155c0-1.465-.029-2.666-.117-3.838h2.285l.146 2.344h.059a5.214 5.214 0 0 1 4.688-2.666c1.963 0 5.01 1.172 5.01 6.035v8.47h-2.578v-8.174c0-2.285-.85-4.189-3.281-4.189a3.663 3.663 0 0 0 -3.457 2.637 3.707 3.707 0 0 0 -.176 1.2v8.526h-2.578z"/><path d="m1318.111 823.245v4.072h3.691v1.963h-3.691v7.646c0 1.758.5 2.754 1.934 2.754a5.735 5.735 0 0 0 1.494-.176l.117 1.934a6.311 6.311 0 0 1 -2.285.352 3.573 3.573 0 0 1 -2.783-1.084c-.732-.762-1-2.021-1-3.691v-7.735h-2.2v-1.963h2.2v-3.4z"/><path d="m1343.744 834.29c0 5.244-3.633 7.529-7.061 7.529-3.838 0-6.8-2.812-6.8-7.295 0-4.746 3.105-7.529 7.031-7.529 4.076 0 6.83 2.959 6.83 7.295zm-11.25.146c0 3.105 1.787 5.449 4.307 5.449 2.461 0 4.307-2.314 4.307-5.508 0-2.4-1.2-5.449-4.248-5.449s-4.366 2.813-4.366 5.508z"/><path d="m1346.994 831.741c0-1.67-.029-3.105-.117-4.424h2.256l.088 2.783h.117a4.254 4.254 0 0 1 3.926-3.105 2.789 2.789 0 0 1 .732.088v2.432a3.873 3.873 0 0 0 -.879-.088c-1.816 0-3.105 1.377-3.457 3.311a7.257 7.257 0 0 0 -.117 1.2v7.562h-2.549z"/><path d="m1362.783 831.741c0-1.67-.029-3.105-.117-4.424h2.256l.088 2.783h.117a4.254 4.254 0 0 1 3.926-3.105 2.789 2.789 0 0 1 .732.088v2.432a3.873 3.873 0 0 0 -.879-.088c-1.816 0-3.105 1.377-3.457 3.311a7.256 7.256 0 0 0 -.117 1.2v7.562h-2.549z"/><path d="m1373.505 834.876c.059 3.486 2.285 4.922 4.863 4.922a9.323 9.323 0 0 0 3.926-.732l.439 1.846a11.485 11.485 0 0 1 -4.717.879c-4.365 0-6.973-2.871-6.973-7.148s2.52-7.646 6.65-7.646c4.629 0 5.859 4.072 5.859 6.68a9.724 9.724 0 0 1 -.088 1.2zm7.559-1.846c.029-1.641-.674-4.189-3.574-4.189-2.607 0-3.75 2.4-3.955 4.189z"/><path d="m1396.414 839.3h-.059a5.047 5.047 0 0 1 -4.629 2.52c-3.311 0-6.006-2.871-6.006-7.178 0-5.3 3.428-7.646 6.416-7.646a4.66 4.66 0 0 1 4.365 2.461h.059l.088-2.139h2.432c-.059 1.2-.088 2.432-.088 3.9v16.082h-2.578zm0-6.24a4.393 4.393 0 0 0 -.117-1.084 3.768 3.768 0 0 0 -3.691-2.93c-2.666 0-4.277 2.256-4.277 5.449 0 2.813 1.348 5.273 4.189 5.273a3.84 3.84 0 0 0 3.691-2.812 4.33 4.33 0 0 0 .205-1.23z"/><path d="m1415.1 837.63c0 1.465.029 2.754.117 3.867h-2.285l-.146-2.314h-.059a5.335 5.335 0 0 1 -4.687 2.637c-2.227 0-4.893-1.23-4.893-6.211v-8.291h2.578v7.852c0 2.7.82 4.512 3.164 4.512a3.727 3.727 0 0 0 3.4-2.344 3.77 3.77 0 0 0 .234-1.318v-8.7h2.578z"/><path d="m1420.815 834.876c.059 3.486 2.285 4.922 4.863 4.922a9.323 9.323 0 0 0 3.926-.732l.439 1.846a11.485 11.485 0 0 1 -4.717.879c-4.365 0-6.973-2.871-6.973-7.148s2.52-7.646 6.65-7.646c4.629 0 5.859 4.072 5.859 6.68a9.724 9.724 0 0 1 -.088 1.2zm7.559-1.846c.029-1.641-.674-4.189-3.574-4.189-2.607 0-3.75 2.4-3.955 4.189z"/><path d="m1433.7 838.86a6.757 6.757 0 0 0 3.4 1.025c1.875 0 2.754-.937 2.754-2.109 0-1.23-.732-1.9-2.637-2.607-2.549-.908-3.75-2.314-3.75-4.014 0-2.285 1.846-4.16 4.893-4.16a7.077 7.077 0 0 1 3.486.879l-.645 1.875a5.519 5.519 0 0 0 -2.9-.82c-1.523 0-2.373.879-2.373 1.934 0 1.172.85 1.7 2.7 2.4 2.461.938 3.721 2.168 3.721 4.277 0 2.49-1.934 4.248-5.3 4.248a8.086 8.086 0 0 1 -3.984-.967z"/><path d="m1448.762 823.245v4.072h3.691v1.963h-3.691v7.646c0 1.758.5 2.754 1.934 2.754a5.735 5.735 0 0 0 1.494-.176l.117 1.934a6.311 6.311 0 0 1 -2.285.352 3.573 3.573 0 0 1 -2.783-1.084c-.732-.762-1-2.021-1-3.691v-7.735h-2.2v-1.963h2.2v-3.4z"/><path d="m1456.613 834.876c.059 3.486 2.285 4.922 4.863 4.922a9.323 9.323 0 0 0 3.926-.732l.439 1.846a11.485 11.485 0 0 1 -4.717.879c-4.365 0-6.973-2.871-6.973-7.148s2.52-7.646 6.65-7.646c4.629 0 5.859 4.072 5.859 6.68a9.724 9.724 0 0 1 -.088 1.2zm7.559-1.846c.029-1.641-.674-4.189-3.574-4.189-2.607 0-3.75 2.4-3.955 4.189z"/><path d="m1482.1 820.7v17.139c0 1.26.029 2.7.117 3.662h-2.317l-.117-2.461h-.059a5.245 5.245 0 0 1 -4.834 2.783c-3.428 0-6.064-2.9-6.064-7.207-.029-4.717 2.9-7.617 6.357-7.617a4.741 4.741 0 0 1 4.277 2.168h.059v-8.467zm-2.578 12.393a4.551 4.551 0 0 0 -.122-1.093 3.792 3.792 0 0 0 -3.721-2.988c-2.666 0-4.248 2.344-4.248 5.479 0 2.871 1.406 5.244 4.189 5.244a3.876 3.876 0 0 0 3.779-3.076 4.478 4.478 0 0 0 .117-1.113z"/><path d="m1492.586 831.946c0-1.816-.059-3.281-.117-4.629h2.314l.117 2.432h.059a5.575 5.575 0 0 1 5.039-2.754c3.428 0 6.006 2.9 6.006 7.207 0 5.1-3.105 7.617-6.445 7.617a4.972 4.972 0 0 1 -4.365-2.227h-.059v7.708h-2.549zm2.549 3.779a5.805 5.805 0 0 0 .117 1.055 3.978 3.978 0 0 0 3.867 3.018c2.725 0 4.307-2.227 4.307-5.479 0-2.842-1.494-5.273-4.219-5.273a4.114 4.114 0 0 0 -3.9 3.193 4.181 4.181 0 0 0 -.176 1.055z"/><path d="m1517.105 841.5-.205-1.787h-.088a5.281 5.281 0 0 1 -4.336 2.109 4.04 4.04 0 0 1 -4.336-4.072c0-3.428 3.047-5.3 8.525-5.273v-.293c0-1.172-.322-3.281-3.223-3.281a7.065 7.065 0 0 0 -3.691 1.055l-.586-1.7a8.8 8.8 0 0 1 4.658-1.26c4.336 0 5.391 2.959 5.391 5.8v5.3a19.965 19.965 0 0 0 .234 3.4zm-.381-7.236c-2.812-.059-6.006.439-6.006 3.193a2.281 2.281 0 0 0 2.432 2.461 3.528 3.528 0 0 0 3.428-2.373 2.691 2.691 0 0 0 .146-.82z"/><path d="m1535.59 827.317c-.059 1.025-.117 2.168-.117 3.9v8.232c0 3.252-.645 5.244-2.021 6.475a7.517 7.517 0 0 1 -5.156 1.7 9.152 9.152 0 0 1 -4.717-1.172l.645-1.963a8 8 0 0 0 4.16 1.113c2.637 0 4.57-1.377 4.57-4.951v-1.582h-.059a5.062 5.062 0 0 1 -4.512 2.373c-3.516 0-6.035-2.988-6.035-6.914 0-4.8 3.135-7.529 6.387-7.529a4.716 4.716 0 0 1 4.424 2.461h.059l.117-2.139zm-2.666 5.6a3.672 3.672 0 0 0 -.146-1.172 3.714 3.714 0 0 0 -3.6-2.725c-2.461 0-4.219 2.08-4.219 5.361 0 2.783 1.406 5.1 4.189 5.1a3.769 3.769 0 0 0 3.574-2.637 4.485 4.485 0 0 0 .205-1.377z"/><path d="m1541.184 834.876c.059 3.486 2.285 4.922 4.863 4.922a9.323 9.323 0 0 0 3.926-.732l.439 1.846a11.485 11.485 0 0 1 -4.717.879c-4.365 0-6.973-2.871-6.973-7.148s2.52-7.646 6.65-7.646c4.629 0 5.859 4.072 5.859 6.68a9.724 9.724 0 0 1 -.088 1.2zm7.559-1.846c.029-1.641-.674-4.189-3.574-4.189-2.607 0-3.75 2.4-3.955 4.189z"/><path d="m1572.881 820.7v17.139c0 1.26.029 2.7.117 3.662h-2.314l-.117-2.461h-.059a5.245 5.245 0 0 1 -4.834 2.783c-3.428 0-6.064-2.9-6.064-7.207-.029-4.717 2.9-7.617 6.357-7.617a4.741 4.741 0 0 1 4.277 2.168h.059v-8.467zm-2.578 12.393a4.551 4.551 0 0 0 -.117-1.084 3.792 3.792 0 0 0 -3.721-2.988c-2.666 0-4.248 2.344-4.248 5.479 0 2.871 1.406 5.244 4.189 5.244a3.876 3.876 0 0 0 3.779-3.076 4.478 4.478 0 0 0 .117-1.113z"/><path d="m1589.988 834.29c0 5.244-3.633 7.529-7.061 7.529-3.838 0-6.8-2.812-6.8-7.295 0-4.746 3.105-7.529 7.031-7.529 4.076 0 6.83 2.959 6.83 7.295zm-11.25.146c0 3.105 1.787 5.449 4.307 5.449 2.461 0 4.307-2.314 4.307-5.508 0-2.4-1.2-5.449-4.248-5.449s-4.366 2.813-4.366 5.508z"/><path d="m1594.674 834.876c.059 3.486 2.285 4.922 4.863 4.922a9.323 9.323 0 0 0 3.926-.732l.439 1.846a11.485 11.485 0 0 1 -4.717.879c-4.365 0-6.973-2.871-6.973-7.148s2.52-7.646 6.65-7.646c4.629 0 5.859 4.072 5.859 6.68a9.724 9.724 0 0 1 -.088 1.2zm7.559-1.846c.029-1.641-.674-4.189-3.574-4.189-2.607 0-3.75 2.4-3.955 4.189z"/><path d="m1607.563 838.86a6.757 6.757 0 0 0 3.4 1.025c1.875 0 2.754-.937 2.754-2.109 0-1.23-.732-1.9-2.637-2.607-2.549-.908-3.75-2.314-3.75-4.014 0-2.285 1.846-4.16 4.893-4.16a7.077 7.077 0 0 1 3.486.879l-.645 1.875a5.519 5.519 0 0 0 -2.9-.82c-1.523 0-2.373.879-2.373 1.934 0 1.172.85 1.7 2.7 2.4 2.461.938 3.721 2.168 3.721 4.277 0 2.49-1.934 4.248-5.3 4.248a8.086 8.086 0 0 1 -3.984-.967z"/><path d="m1625.725 831.155c0-1.465-.029-2.666-.117-3.838h2.285l.146 2.344h.059a5.214 5.214 0 0 1 4.688-2.666c1.963 0 5.01 1.172 5.01 6.035v8.47h-2.578v-8.174c0-2.285-.85-4.189-3.281-4.189a3.663 3.663 0 0 0 -3.457 2.637 3.707 3.707 0 0 0 -.176 1.2v8.526h-2.578z"/><path d="m1654.815 834.29c0 5.244-3.633 7.529-7.061 7.529-3.838 0-6.8-2.812-6.8-7.295 0-4.746 3.105-7.529 7.031-7.529 4.076 0 6.83 2.959 6.83 7.295zm-11.25.146c0 3.105 1.787 5.449 4.307 5.449 2.461 0 4.307-2.314 4.307-5.508 0-2.4-1.2-5.449-4.248-5.449s-4.366 2.813-4.366 5.508z"/><path d="m1661.172 823.245v4.072h3.691v1.963h-3.691v7.646c0 1.758.5 2.754 1.934 2.754a5.735 5.735 0 0 0 1.494-.176l.117 1.934a6.311 6.311 0 0 1 -2.285.352 3.573 3.573 0 0 1 -2.783-1.084c-.732-.762-1-2.021-1-3.691v-7.735h-2.2v-1.963h2.2v-3.4z"/><path d="m1675.408 834.876c.059 3.486 2.285 4.922 4.863 4.922a9.323 9.323 0 0 0 3.926-.732l.439 1.846a11.485 11.485 0 0 1 -4.717.879c-4.365 0-6.973-2.871-6.973-7.148s2.52-7.646 6.65-7.646c4.629 0 5.859 4.072 5.859 6.68a9.724 9.724 0 0 1 -.088 1.2zm7.559-1.846c.029-1.641-.674-4.189-3.574-4.189-2.607 0-3.75 2.4-3.955 4.189z"/><path d="m1689.762 827.317 2.021 3.047c.527.791.967 1.523 1.436 2.314h.088c.469-.85.938-1.582 1.406-2.344l1.992-3.018h2.783l-4.834 6.855 4.98 7.324h-2.93l-2.08-3.193c-.557-.82-1.025-1.611-1.523-2.461h-.059c-.469.85-.967 1.611-1.494 2.461l-2.048 3.198h-2.842l5.039-7.236-4.8-6.943z"/><path d="m1705 823.333a1.6 1.6 0 0 1 -3.193 0 1.571 1.571 0 0 1 1.611-1.611 1.53 1.53 0 0 1 1.582 1.611zm-2.871 18.164v-14.18h2.578v14.183z"/><path d="m1708.628 838.86a6.757 6.757 0 0 0 3.4 1.025c1.875 0 2.754-.937 2.754-2.109 0-1.23-.732-1.9-2.637-2.607-2.549-.908-3.75-2.314-3.75-4.014 0-2.285 1.846-4.16 4.893-4.16a7.077 7.077 0 0 1 3.486.879l-.645 1.875a5.519 5.519 0 0 0 -2.9-.82c-1.523 0-2.373.879-2.373 1.934 0 1.172.85 1.7 2.7 2.4 2.461.938 3.721 2.168 3.721 4.277 0 2.49-1.934 4.248-5.3 4.248a8.086 8.086 0 0 1 -3.984-.967z"/><path d="m1723.685 823.245v4.072h3.691v1.963h-3.691v7.646c0 1.758.5 2.754 1.934 2.754a5.735 5.735 0 0 0 1.494-.176l.117 1.934a6.311 6.311 0 0 1 -2.285.352 3.573 3.573 0 0 1 -2.783-1.084c-.732-.762-1-2.021-1-3.691v-7.735h-2.2v-1.963h2.2v-3.4z"/><path d="m1729.573 839.973a1.732 1.732 0 0 1 1.758-1.846 1.849 1.849 0 1 1 -1.758 1.846z"/></g></svg>