<svg viewBox="0 0 13.81 11.84" xmlns="http://www.w3.org/2000/svg"><g fill="#22416d"><path d="m8.63 8.14a.5.5 0 0 1 -.49.49h-2.47a.5.5 0 0 1 -.49-.49v-1.23h-5.18v3.7a1.19 1.19 0 0 0 .36.87 1.19 1.19 0 0 0 .87.36h11.35a1.24 1.24 0 0 0 1.23-1.23v-3.7h-5.18zm0 0"/><path d="m5.92 6.91h1.97v.99h-1.97z"/><path d="m13.45 2.34a1.19 1.19 0 0 0 -.87-.34h-2.71v-1.26a.71.71 0 0 0 -.22-.52.71.71 0 0 0 -.52-.22h-4.44a.72.72 0 0 0 -.52.22.71.71 0 0 0 -.22.52v1.26h-2.72a1.19 1.19 0 0 0 -.87.36 1.19 1.19 0 0 0 -.36.85v3h13.81v-3a1.19 1.19 0 0 0 -.36-.87zm-4.57-.34h-3.95v-1h3.95zm0 0"/></g></svg>