<svg viewBox="0 0 13.84 13.84" xmlns="http://www.w3.org/2000/svg"><g fill="#22416d"><path d="m9.26 1.9.59-1.25a6.85 6.85 0 0 0 -6.47.35 6.82 6.82 0 0 0 -3.38 5.34l1.38.12a5.59 5.59 0 0 1 7.88-4.56zm0 0"/><path d="m13.74 5.74-1.36.26a5.57 5.57 0 0 1 -5 6.49c0 .46.08.9.12 1.35a6.9 6.9 0 0 0 6.23-8.08zm0 0"/><path d="m1.36 7.43-1.36.11a6.87 6.87 0 0 0 6.27 6.3l.12-1.34a5.66 5.66 0 0 1 -5.03-5.07zm0 0"/><path d="m11.31 3.56a5.82 5.82 0 0 1 .82 1.44l1.3-.47a7 7 0 0 0 -2.54-3.31l-.79 1.18a6 6 0 0 1 1.21 1.16zm0 0"/><path d="m8.62 5.07a.22.22 0 0 0 -.23.23v4.46a.22.22 0 0 0 .23.23h1.54a.22.22 0 0 0 .23-.23v-4.46a.22.22 0 0 0 -.23-.23zm1.32 4.46h-1.09v-4h1.09zm0 0"/><path d="m3.67 6.26a.22.22 0 0 0 -.23.23v3.27a.22.22 0 0 0 .23.23h1.55a.22.22 0 0 0 .23-.23v-3.28a.22.22 0 0 0 -.23-.23zm.23 3.27v-.35l.35.35zm.71 0-.71-.71v-.35l1.1 1.07h-.4zm.39-.33-1.1-1.09v-.36l1.1 1.09zm0-.71-1.1-1.09v-.4l1.1 1.13zm0-.71-1.07-1.07h.36l.71.71zm0-.72-.35-.35h.35zm0 0"/><path d="m6.15 3.26a.22.22 0 0 0 -.23.23v6.27a.22.22 0 0 0 .23.23h1.54a.22.22 0 0 0 .23-.23v-6.27a.22.22 0 0 0 -.23-.23zm0 0"/></g></svg>