<svg enable-background="new 0 0 13 8" height="8" viewBox="0 0 13 8" width="13" xmlns="http://www.w3.org/2000/svg"><path d="m2.41.372c-.646-.002-1.247.251-1.693.71-.445.459-.682 1.067-.664 1.715l.014.502c.019.646.288 1.254.761 1.714.471.458 1.087.709 1.734.711h6.834c.379 0 .731-.149.992-.418l.001-.001c.261-.269.399-.623.388-1.002l-.018-.6c-.01-.379-.167-.735-.443-1.003-.275-.27-.638-.419-1.018-.417h-6.028c-.231 0-.411.185-.403.415.005.23.197.416.427.415l6.03.002c.156-.004.307.059.421.171.115.111.18.258.182.415l.018.603c.005.156-.051.302-.161.415-.108.111-.254.173-.411.174l-6.834-.001c-.425 0-.831-.165-1.141-.466-.311-.302-.487-.704-.498-1.127l-.017-.502c-.023-.851.701-1.595 1.55-1.595l8.04.001c.425 0 .829.165 1.14.468.31.301.487.701.499 1.126l.07 2.411c.022.85-.701 1.595-1.55 1.595l-7.437-.003c-.23.001-.41.187-.405.416.008.23.199.415.427.415l7.439.001c.646.001 1.248-.252 1.693-.71.447-.459.682-1.067.664-1.714l-.07-2.411c-.017-.646-.288-1.255-.759-1.713-.473-.459-1.087-.712-1.735-.712z" fill="#e90e8b"/></svg>