<svg height="14.417" viewBox="0 0 14.417 14.417" width="14.417" xmlns="http://www.w3.org/2000/svg"><path d="m14.417 7.374a7.786 7.786 0 0 0 -.083-1.2l-1.177-.248-.434-1.281.805-.909a6.377 6.377 0 0 0 -.661-.991l-1.157.393-1.01-.887.248-1.2a7.48 7.48 0 0 0 -1.075-.535l-.785.909-1.322-.268-.392-1.157a7.785 7.785 0 0 0 -1.2.082l-.246 1.178-1.281.434-.908-.806a6.377 6.377 0 0 0 -.991.661l.392 1.157-.889 1.012-1.2-.248a7.472 7.472 0 0 0 -.535 1.074l.909.805-.268 1.322-1.157.372a7.782 7.782 0 0 0 .083 1.2l1.2.248.434 1.28-.806.909a6.365 6.365 0 0 0 .661.991l1.157-.392 1.012.888-.268 1.2a7.415 7.415 0 0 0 1.074.537l.806-.909 1.322.269.392 1.157a7.783 7.783 0 0 0 1.2-.083l.248-1.177 1.281-.434.909.806a6.379 6.379 0 0 0 .991-.661l-.396-1.161.888-1.012 1.2.248a7.415 7.415 0 0 0 .537-1.074l-.909-.806.269-1.322zm-7.209 3.821a4.007 4.007 0 1 1 4.007-4.007 4.011 4.011 0 0 1 -4.007 4.007zm0 0" fill="#22416d"/></svg>