<svg xmlns="http://www.w3.org/2000/svg" width="17.062" height="17.062" viewBox="0 0 17.062 17.062"><title>btc</title><path d="M9.858,9.648a.942.942,0,0,1,.048.581,1.082,1.082,0,0,1-.335.624,1.015,1.015,0,0,1-.6.258,3.01,3.01,0,0,1-.793-.056l-.538-.1a1.542,1.542,0,0,1-.323-.09.206.206,0,0,1-.07-.12c0-.034.014-.174.048-.4l.3-1.591.954.174a2.855,2.855,0,0,1,.909.289.978.978,0,0,1,.393.427ZM9.907,6.3a3.807,3.807,0,0,0-.96-.274l-.813-.147L7.8,7.672l.813.147a3.28,3.28,0,0,0,.952.07.981.981,0,0,0,.518-.23.89.89,0,0,0,.246-.47.813.813,0,0,0-.056-.518A.8.8,0,0,0,9.907,6.3Zm7.155,2.235A8.531,8.531,0,1,1,8.534,0a8.529,8.529,0,0,1,8.527,8.534ZM12.045,6.278a1.929,1.929,0,0,0-.728-.8,2.121,2.121,0,0,0-.47-.231l.246-1.3L9.844,3.713,9.62,4.926l-.805-.147.231-1.213L7.8,3.334,7.568,4.547l-1.9-.357L5.48,5.205l.287.057a.963.963,0,0,1,.386.126.3.3,0,0,1,.118.169,1.309,1.309,0,0,1-.034.427L5.465,10.09a1.03,1.03,0,0,1-.12.4.273.273,0,0,1-.167.118.952.952,0,0,1-.407-.029l-.287-.048L4.3,11.546l1.9.359L5.97,13.116l1.247.231.224-1.211.709.133c.034.007.063.007.091.014L8.016,13.5l1.247.231.246-1.317a3.749,3.749,0,0,0,.581-.048,2.219,2.219,0,0,0,1.135-.569,1.808,1.808,0,0,0,.552-1.008,1.721,1.721,0,0,0-.063-.933,1.693,1.693,0,0,0-.511-.735,3.156,3.156,0,0,0-.735-.441,2.473,2.473,0,0,0,.848-.267,1.833,1.833,0,0,0,.56-.5,1.646,1.646,0,0,0,.287-.665,1.619,1.619,0,0,0-.118-.974Z" fill="#f7931a"/></svg>