<svg height="71.373" viewBox="0 0 71.106 71.373" width="71.106" xmlns="http://www.w3.org/2000/svg" xmlns:xlink="http://www.w3.org/1999/xlink"><linearGradient id="a" gradientUnits="userSpaceOnUse" x1="35.372" x2="35.372" y1="22.889" y2="48.325"><stop offset="0" stop-color="#96c1e9"/><stop offset="1" stop-color="#0e6cb1"/></linearGradient><path d="m35.46.006s20.962-.943 32.072 20.124h-33.854s-6.393-.211-11.843 7.546c-1.571 3.25-3.248 6.6-1.362 13.206-2.726-4.612-14.465-25.05-14.465-25.05s8.281-14.988 29.452-15.826z" fill="#e33029"/><path d="m66.441 53.493s-9.667 18.623-33.467 17.707c2.936-5.082 16.931-29.316 16.931-29.316s3.379-5.431-.61-14.03c-2.029-2.986-4.094-6.116-10.756-7.784 5.357-.054 28.925 0 28.925 0s8.836 14.67-1.023 33.423z" fill="#fbd703"/><path d="m4.629 53.635s-11.294-17.685 1.4-37.835c2.933 5.082 16.921 29.32 16.921 29.32s3.013 5.641 12.455 6.486c3.6-.262 7.342-.486 12.119-5.42-2.634 4.665-14.467 25.048-14.467 25.048s-17.12.318-28.428-17.599z" fill="#64b24b"/><path d="m32.974 71.373 4.762-19.873a15.932 15.932 0 0 0 9.623-5.224c-2.723 4.793-14.385 25.097-14.385 25.097z" fill="#62a948"/><circle cx="35.373" cy="35.909" fill="#fff" r="15.861"/><circle cx="35.373" cy="35.909" fill="url(#a)" r="13.206"/><path d="m20.09 40.168c-2.755-4.768-14.081-24.336-14.081-24.336l14.525 14.368a14.243 14.243 0 0 0 -.927 7.456z" fill="#d73027"/></svg>