<svg height="73.347" viewBox="0 0 71.865 73.347" width="71.865" xmlns="http://www.w3.org/2000/svg" xmlns:xlink="http://www.w3.org/1999/xlink"><linearGradient id="a" gradientTransform="matrix(.975 -.224 .224 .975 -1067.05 404.189)" gradientUnits="userSpaceOnUse" x1="1132.523" x2="1190.669" y1="-135.692" y2="-77.547"><stop offset="0" stop-color="#eebe47"/><stop offset=".12" stop-color="#f8db77"/><stop offset=".21" stop-color="#ffee96"/><stop offset=".446" stop-color="#a2621e"/><stop offset=".667" stop-color="#eea54c"/><stop offset="1" stop-color="#eebe47"/></linearGradient><radialGradient id="b" cx="-3771.464" cy="-1206.003" gradientTransform="matrix(-1 .00003491 -.00003491 -1 -3713.934 -1143.145)" gradientUnits="userSpaceOnUse" r="58.364"><stop offset="0" stop-color="#304053"/><stop offset=".226" stop-color="#2c3c4f"/><stop offset=".516" stop-color="#0d1d30"/><stop offset="1" stop-color="#060d29"/></radialGradient><radialGradient id="c" cx="1137.711" cy="-134.636" gradientTransform="translate(-1121.365 147.574)" r="53.36" xlink:href="#b"/><linearGradient id="d" gradientTransform="translate(-1121.366 147.573)" x1="1135.879" x2="1189.205" xlink:href="#a" y1="-132.338" y2="-79.012"/><linearGradient id="e" x1="1138.11" x2="1176.593" xlink:href="#a" y1="-130.106" y2="-91.624"/><radialGradient id="f" cx="1138.174" cy="-136.933" gradientTransform="matrix(.975 -.224 .224 .975 -1067.05 404.189)" gradientUnits="userSpaceOnUse" r="87.246"><stop offset="0" stop-color="#fff1d1"/><stop offset=".054" stop-color="#ffc94c"/><stop offset=".14" stop-color="#a2621e"/><stop offset=".163" stop-color="#965b1c"/><stop offset=".25" stop-color="#6e4314"/><stop offset=".343" stop-color="#4c2e0e"/><stop offset=".441" stop-color="#301d09"/><stop offset=".546" stop-color="#1b1005"/><stop offset=".663" stop-color="#0c0702"/><stop offset=".798" stop-color="#030201"/><stop offset="1"/></radialGradient><radialGradient id="g" cx="1147.573" cy="-129.217" gradientTransform="matrix(.975 -.224 .224 .975 -1067.05 404.189)" r="51.301" xlink:href="#b"/><radialGradient id="h" cx="1164.489" cy="-129.835" gradientTransform="matrix(.975 -.224 .224 .975 -1067.05 404.189)" r="51.301" xlink:href="#b"/><radialGradient id="i" cx="1155.748" cy="-131.082" gradientTransform="matrix(.975 -.224 .224 .975 -1067.05 404.189)" r="71.685" xlink:href="#b"/><radialGradient id="j" cx="1143.363" cy="-126.978" gradientTransform="translate(-1116.903 146.765)" r="40.228" xlink:href="#b"/><radialGradient id="k" cx="1143.362" cy="-126.965" gradientTransform="translate(-1116.403 146.709)" r="40.218" xlink:href="#b"/><path d="m54.459 66.277a4.03 4.03 0 0 1 -6.153 3.054 6.951 6.951 0 0 0 -8.526 2.053 4.031 4.031 0 0 1 -6.869.081 6.95 6.95 0 0 0 -8.573-1.85 4.031 4.031 0 0 1 -6.225-2.907 6.949 6.949 0 0 0 -6.921-5.386 4.03 4.03 0 0 1 -4.345-5.322 6.95 6.95 0 0 0 -3.9-7.856 4.031 4.031 0 0 1 -1.607-6.674 6.949 6.949 0 0 0 -.1-8.769 4.031 4.031 0 0 1 1.449-6.715 6.95 6.95 0 0 0 3.71-7.946 4.031 4.031 0 0 1 4.22-5.421 6.951 6.951 0 0 0 6.787-5.549 4.031 4.031 0 0 1 6.154-3.055 6.947 6.947 0 0 0 8.525-2.052 4.03 4.03 0 0 1 6.869-.082 6.95 6.95 0 0 0 8.572 1.85 4.031 4.031 0 0 1 6.224 2.906 6.95 6.95 0 0 0 6.921 5.386 4.03 4.03 0 0 1 4.347 5.319 6.948 6.948 0 0 0 3.9 7.855 4.03 4.03 0 0 1 1.608 6.679 6.951 6.951 0 0 0 .1 8.77 4.031 4.031 0 0 1 -1.448 6.715 6.95 6.95 0 0 0 -3.71 7.945 4.03 4.03 0 0 1 -4.218 5.421 6.952 6.952 0 0 0 -6.791 5.55z" fill="url(#a)"/><circle cx="35.933" cy="36.673" fill="url(#b)" r="32.05" transform="matrix(.97455035 -.22416871 .22416871 .97455035 -7.307 8.989)"/><circle cx="35.933" cy="36.673" fill="url(#c)" r="29.302" transform="matrix(.97455035 -.22416871 .22416871 .97455035 -7.307 8.989)"/><circle cx="35.933" cy="36.673" fill="url(#d)" r="27.64" transform="matrix(.97455035 -.22416871 .22416871 .97455035 -7.307 8.989)"/><path d="m29.831 10.143a27.223 27.223 0 1 1 -20.431 32.632 27.253 27.253 0 0 1 20.431-32.632" fill="url(#e)" opacity=".5"/><path d="m56.342 18.036a27.639 27.639 0 1 0 -30.392 44.413 43.589 43.589 0 0 1 30.392-44.413z" fill="url(#f)"/><path d="m24.998 24.02-2.078-.662-1.579 1.505-.012-2.181-1.92-1.037 2.071-.685.393-2.146 1.292 1.757 2.162-.29-1.272 1.772z" fill="url(#g)"/><path d="m41.344 19.626-2.078-.663-1.579 1.505-.013-2.181-1.919-1.036 2.071-.686.392-2.146 1.293 1.758 2.162-.29-1.273 1.772z" fill="url(#h)"/><path d="m33.623 21.577-2.904-.926-2.206 2.104-.018-3.048-2.682-1.448 2.893-.958.549-2.999 1.806 2.456 3.021-.405-1.778 2.476z" fill="url(#i)"/><path d="m32.065 55.612h19.316v.623h-19.316z" fill="url(#j)" transform="matrix(.97455035 -.22416871 .22416871 .97455035 -11.475 10.777)"/><path d="m35.44 57.784h13.565v.623h-13.565z" fill="url(#k)" transform="matrix(.97455035 -.22416871 .22416871 .97455035 -11.949 10.944)"/><path d="m24.023 38.707a3.871 3.871 0 0 1 .057 1.793 3.577 3.577 0 0 1 -.687 1.46 4.7 4.7 0 0 1 -1.408 1.223 8.745 8.745 0 0 1 -2.172.8l-5.213 1.295-3.229-13.014 4.6-1.143a16.34 16.34 0 0 1 2.2-.429 4.292 4.292 0 0 1 1.5.114 2.584 2.584 0 0 1 1.294.746 3.068 3.068 0 0 1 .706 1.365 3.171 3.171 0 0 1 -.055 1.813 2.887 2.887 0 0 1 -1.045 1.42l.018.07a3.651 3.651 0 0 1 2.188.556 3.07 3.07 0 0 1 1.246 1.931zm-5.515-4.307a1.527 1.527 0 0 0 -.322-.606 1 1 0 0 0 -.622-.356 2.152 2.152 0 0 0 -.8.036q-.444.1-1.318.314l-.227.056.681 2.756.41-.1q.839-.208 1.172-.309a1.968 1.968 0 0 0 .649-.357 1.084 1.084 0 0 0 .416-.642 1.837 1.837 0 0 0 -.039-.792zm2.135 5.083a1.652 1.652 0 0 0 -.479-.884 1.532 1.532 0 0 0 -.862-.332 2.62 2.62 0 0 0 -.849.075q-.523.118-1.4.334l-.6.15.81 3.259.175-.043q1.276-.316 1.762-.455a2.819 2.819 0 0 0 .938-.484 1.334 1.334 0 0 0 .511-.725 1.758 1.758 0 0 0 -.006-.897z"/><path d="m26.884 42.227-3.233-13.014 8.8-2.187.616 2.483-5.55 1.379.566 2.28 5.117-1.268.616 2.483-5.116 1.269.816 3.285 5.55-1.379.616 2.482z"/><path d="m41.976 38.729a11 11 0 0 1 -2.7.364 13.739 13.739 0 0 1 -2.276-.193l-.772-3.1.3-.074a7.512 7.512 0 0 0 2.476.74 6.665 6.665 0 0 0 2.4-.122 6.368 6.368 0 0 0 .724-.245 2.655 2.655 0 0 0 .69-.376 1.674 1.674 0 0 0 .475-.559 1.053 1.053 0 0 0 .062-.762 1 1 0 0 0 -.583-.7 2.532 2.532 0 0 0 -1.027-.218q-.709-.01-1.5.021a11.616 11.616 0 0 1 -1.507-.034 4.524 4.524 0 0 1 -2.523-.895 3.847 3.847 0 0 1 -1.217-2.093 3.61 3.61 0 0 1 .813-3.342 6.563 6.563 0 0 1 3.582-2.091 11.791 11.791 0 0 1 2.37-.339 10.465 10.465 0 0 1 2.217.127l.738 2.972-.288.072a6.724 6.724 0 0 0 -2.03-.609 5.78 5.78 0 0 0 -2.253.105 4.51 4.51 0 0 0 -.754.251 3 3 0 0 0 -.658.415 1.5 1.5 0 0 0 -.426.546.983.983 0 0 0 -.069.67 1 1 0 0 0 .551.7 3.688 3.688 0 0 0 1.5.188l1.335-.025a12.717 12.717 0 0 1 1.393.062 4.567 4.567 0 0 1 2.342.816 3.488 3.488 0 0 1 1.2 2.017 3.867 3.867 0 0 1 -.75 3.5 6.769 6.769 0 0 1 -3.835 2.211z"/><path d="m51.732 36.055-2.616-10.531-3.845.955-.617-2.479 10.961-2.723.616 2.483-3.846.956 2.615 10.527z"/><path d="m33.5 53.4-1.185.294-.179-.719q-.22.3-.384.5a2.7 2.7 0 0 1 -.4.394 2.8 2.8 0 0 1 -.478.316 2.751 2.751 0 0 1 -.613.223 2.449 2.449 0 0 1 -1.121.023 2.321 2.321 0 0 1 -1-.494 3.55 3.55 0 0 1 -.822-1.016 6.117 6.117 0 0 1 -.578-1.526 4.954 4.954 0 0 1 -.159-1.663 3.874 3.874 0 0 1 .368-1.345 2.808 2.808 0 0 1 .75-.952 2.68 2.68 0 0 1 1.079-.546 3.3 3.3 0 0 1 .948-.112 4.145 4.145 0 0 1 .915.157l-.757-3.05 1.185-.294zm-1.61-1.419-1.009-4.059a3.969 3.969 0 0 0 -.864-.1 3.435 3.435 0 0 0 -.779.106 1.746 1.746 0 0 0 -1.261 1.04 3.328 3.328 0 0 0 -.025 2.1 3.818 3.818 0 0 0 .868 1.8 1.416 1.416 0 0 0 1.437.343 2.351 2.351 0 0 0 .887-.445 3.721 3.721 0 0 0 .749-.785z"/><path d="m38.313 52.379a3.6 3.6 0 0 1 -2.847-.3 3.8 3.8 0 0 1 -1.6-2.462 4.108 4.108 0 0 1 .221-2.962 3.091 3.091 0 0 1 2.1-1.6 3.393 3.393 0 0 1 1.206-.1 2.386 2.386 0 0 1 1.029.373 2.811 2.811 0 0 1 .824.843 4.54 4.54 0 0 1 .557 1.376l.159.644-4.871 1.209a2.705 2.705 0 0 0 1.084 1.725 2.318 2.318 0 0 0 1.869.225 3.291 3.291 0 0 0 .743-.28 3.633 3.633 0 0 0 .621-.395 4.872 4.872 0 0 0 .473-.415 3.187 3.187 0 0 0 .3-.346l.07-.017.32 1.292-.466.333q-.278.2-.507.33-.322.18-.591.3a4.328 4.328 0 0 1 -.694.227zm.277-4.812a3.373 3.373 0 0 0 -.319-.8 1.753 1.753 0 0 0 -.435-.514 1.382 1.382 0 0 0 -.633-.271 2.44 2.44 0 0 0 -1.606.4 2 2 0 0 0 -.5.562 2.032 2.032 0 0 0 -.25.714 2.714 2.714 0 0 0 .018.829z"/><path d="m45.755 49.56c-.079.1-.184.227-.313.4a2.854 2.854 0 0 1 -.394.421 3.622 3.622 0 0 1 -.546.4 3.083 3.083 0 0 1 -.8.293 2.194 2.194 0 0 1 -1.667-.249 2.227 2.227 0 0 1 -.632-.6 2.467 2.467 0 0 1 -.393-.855 2.44 2.44 0 0 1 0-1.321 2.172 2.172 0 0 1 .774-1.059 4.981 4.981 0 0 1 1.306-.723q.781-.3 1.7-.586l-.056-.227a1.567 1.567 0 0 0 -.293-.64.957.957 0 0 0 -.45-.306 1.426 1.426 0 0 0 -.6-.055 4.759 4.759 0 0 0 -.686.12 4.651 4.651 0 0 0 -.934.363 6.679 6.679 0 0 0 -1.021.631l-.069.017-.3-1.2q.3-.175.887-.441a6.874 6.874 0 0 1 1.182-.414 5.813 5.813 0 0 1 1.251-.19 2.432 2.432 0 0 1 1 .188 1.816 1.816 0 0 1 .76.606 3.067 3.067 0 0 1 .468 1.075l1.2 4.814-1.178.292zm-.244-.983-.485-1.953q-.413.144-1.042.369a6.007 6.007 0 0 0 -1 .445 1.968 1.968 0 0 0 -.671.638 1.142 1.142 0 0 0 -.1.912 1.207 1.207 0 0 0 .567.83 1.479 1.479 0 0 0 1.072.061 2.171 2.171 0 0 0 .954-.494 4.524 4.524 0 0 0 .705-.808z"/><path d="m49.993 49.3-1.184.294-2.436-9.8 1.184-.294z"/></svg>