<svg height="15" viewBox="0 0 13.213 15" width="13.213" xmlns="http://www.w3.org/2000/svg"><g fill="#fff"><path d="m8.864 1.108h-3.324v-1.108h-2.216v1.108h-3.324v2.216h8.864zm-4.764-.755"/><path d="m9.452 7.191.2-2.759h-8.442l.675 9.968h4.049c-.527 0-.837-1.652-.837-2.634a4.591 4.591 0 0 1 4.355-4.575zm0-.3"/><path d="m9.687 7.948a3.526 3.526 0 1 0 3.526 3.526 3.53 3.53 0 0 0 -3.526-3.526zm1.921 4.7-.752.752-1.169-1.174-1.169 1.174-.752-.752 1.169-1.169-1.169-1.179.752-.752 1.169 1.169 1.169-1.169.752.752-1.169 1.169zm0 0"/></g></svg>