<svg viewBox="0 0 20.97 20.97" xmlns="http://www.w3.org/2000/svg"><path d="m10.49.5a10 10 0 1 0 10 10 10 10 0 0 0 -10-10z" fill="none" stroke="#808080" stroke-miterlimit="10"/><path d="m13.21 14.34a3.17 3.17 0 0 1 -2.13 1v1.41h-1.18v-1.43a3.1 3.1 0 0 1 -2.9-2.69l1.83-.48a1.59 1.59 0 0 0 1.68 1.54 1.3 1.3 0 0 0 1-.33 1.12 1.12 0 0 0 .31-.8.88.88 0 0 0 -.31-.73 5.68 5.68 0 0 0 -1.4-.63 8.23 8.23 0 0 1 -1.52-.67 2.52 2.52 0 0 1 -.89-.92 2.74 2.74 0 0 1 -.34-1.39 3.08 3.08 0 0 1 .64-1.87 2.74 2.74 0 0 1 1.92-1v-1.11h1.18v1.1a2.86 2.86 0 0 1 2.57 2.24l-1.67.67q-.48-1.38-1.47-1.37a1.07 1.07 0 0 0 -.8.31 1 1 0 0 0 -.3.74.83.83 0 0 0 .29.69 5 5 0 0 0 1.28.58 11.1 11.1 0 0 1 1.65.73 2.6 2.6 0 0 1 1 .94 2.72 2.72 0 0 1 .36 1.41 3 3 0 0 1 -.74 2.06z" fill="#808080"/></svg>