<svg enable-background="new 0 0 16 19" height="19" viewBox="0 0 16 19" width="16" xmlns="http://www.w3.org/2000/svg"><g fill="#818181"><path d="m7.098 13.331c-.13.132-.13.348 0 .48.065.067.15.1.236.1.085 0 .169-.033.234-.1l4.001-4.072c.031-.03.055-.068.072-.109.034-.083.034-.177 0-.26-.017-.042-.041-.08-.072-.111l-4.001-4.07c-.13-.132-.34-.132-.47 0-.13.133-.13.348 0 .48l3.431 3.492h-10.195c-.184 0-.334.151-.334.338 0 .189.15.34.334.34h10.196zm0 0"/><path d="m15.668 0h-12.334c-.184 0-.334.152-.334.34v7.125c0 .187.15.338.334.338s.334-.151.334-.338v-6.786h11.667v17.641h-11.668v-6.786c0-.187-.15-.34-.334-.34-.183.001-.333.154-.333.341v7.125c0 .187.15.34.334.34h12.335c.183 0 .331-.153.331-.34v-18.32c0-.188-.148-.34-.332-.34zm0 0"/></g></svg>