<svg enable-background="new 0 0 11 10" height="10" viewBox="0 0 11 10" width="11" xmlns="http://www.w3.org/2000/svg"><g fill="#f3f3f3"><path d="m1.081 2.629.983.749 1.206-.345-.446 1.121.718.985-1.258-.057-.763.953-.332-1.156-1.189-.395 1.053-.657z"/><path d="m7.33.008.591.451.725-.207-.268.674.432.592-.757-.034-.459.573-.199-.695-.716-.238.634-.395z"/><path d="m4.72 9.997h-.768c0-1.758-.928-3.091-1.482-3.729l.592-.465c.619.714 1.658 2.207 1.658 4.194z"/><path d="m6.85 9.997h-.767c0-1.987 1.038-3.48 1.657-4.194l.592.465c-.554.638-1.482 1.97-1.482 3.729z"/><path d="m5.785 10.004-.768-.014c.023-1.083.058-2.718-.25-4.003l.748-.162c.329 1.372.293 3.061.27 4.179z"/><path d="m5.793 2.925.083.716.667.341-.691.297-.135.709-.509-.534-.751.097.376-.625-.329-.65.741.147z"/><path d="m3.068.483.056.486.453.231-.469.201-.091.481-.346-.362-.509.066.255-.424-.223-.441.503.1z"/><path d="m4.74 1.127.401.306.492-.141-.182.458.293.401-.514-.023-.311.389-.135-.472-.485-.161.429-.268z"/><path d="m9.918 2.629-.983.749-1.206-.345.446 1.121-.718.985 1.258-.057.763.953.332-1.156 1.189-.395-1.053-.657z"/></g></svg>