<svg xmlns="http://www.w3.org/2000/svg" width="14" height="14" viewBox="0 0 14 14"><path d="M7,0a7,7,0,1,0,7,7A7,7,0,0,0,7,0ZM8.844,11.4l-.948.362a2.572,2.572,0,0,1-.837.125,1.606,1.606,0,0,1-1.129-.362,1.169,1.169,0,0,1-.4-.92,3.377,3.377,0,0,1,.035-.446,4.672,4.672,0,0,1,.091-.509l.5-1.813c.049-.174.084-.349.112-.488a2.051,2.051,0,0,0,.049-.432.7.7,0,0,0-.139-.488.843.843,0,0,0-.537-.139,1.4,1.4,0,0,0-.4.07l-.349.118.125-.558a9.241,9.241,0,0,1,.941-.349,2.71,2.71,0,0,1,.851-.14,1.6,1.6,0,0,1,1.115.349,1.22,1.22,0,0,1,.383.927,2.962,2.962,0,0,1-.028.418,2.6,2.6,0,0,1-.1.544l-.488,1.8a2.941,2.941,0,0,0-.119.488,2.59,2.59,0,0,0-.049.432.621.621,0,0,0,.153.488.866.866,0,0,0,.544.139,2.167,2.167,0,0,0,.418-.07c.139-.049.258-.084.328-.118l.014.014Zm.265-8.136a1.093,1.093,0,0,1-.349.809,1.2,1.2,0,0,1-.837.321,1.181,1.181,0,0,1-.837-.328,1.068,1.068,0,0,1-.349-.809,1.067,1.067,0,0,1,.349-.809,1.214,1.214,0,0,1,1.673,0,1.081,1.081,0,0,1,.349.809Z" fill="#22416d"/></svg>