<svg enable-background="new 0 0 147 186.2" viewBox="0 0 147 186.2" xmlns="http://www.w3.org/2000/svg"><path d="m16.4 138.8c1.4-.2 2.8-.3 4.3-.3 2.1 0 3.6.3 4.6 1.1.9.7 1.4 1.8 1.3 2.9 0 1.5-1 2.9-2.5 3.4v.1c1 .5 1.7 1.5 1.9 2.6.3 1.3.7 2.6 1.2 3.9h-3.3c-.4-1-.8-2.1-1-3.2-.4-1.7-1-2.2-2.3-2.2h-1v5.4h-3.2zm3.2 6h1.3c1.6 0 2.5-.8 2.5-2 0-1.3-.9-1.9-2.3-1.9-.5 0-1 0-1.4.1v3.8z" fill="#fff"/><path d="m32.1 138.7v13.8h-3.2v-13.8z" fill="#fff"/><path d="m46.6 151.8c-1.5.5-3.1.8-4.7.8-2.1.2-4.1-.5-5.7-1.9-1.3-1.3-2.1-3.1-2-5 0-4.6 3.4-7.2 8.1-7.2 1.3 0 2.7.2 3.9.7l-.7 2.5c-1-.4-2.2-.6-3.3-.6-2.7 0-4.7 1.5-4.7 4.4-.2 2.3 1.5 4.3 3.8 4.5h.6c.5 0 1.1 0 1.6-.2v-2.8h-2.2v-2.4h5.3z" fill="#fff"/><path d="m52.3 138.7v5.3h5.3v-5.3h3.2v13.8h-3.2v-5.8h-5.3v5.8h-3.2v-13.8z" fill="#fff"/><path d="m66.3 141.3h-3.8v-2.6h10.9v2.6h-3.9v11.1h-3.2z" fill="#fff"/><path d="m79.3 152.4v-13.8h3.7l2.9 5c.9 1.5 1.6 3.1 2.3 4.7h.1c-.2-1.9-.3-3.8-.3-5.7v-4h3v13.8h-3.4l-3-5.3c-.9-1.6-1.7-3.2-2.5-4.9h-.1c.1 1.8.1 3.8.1 6v4.1z" fill="#fff"/><path d="m106.7 145.4c0 4.5-2.8 7.2-6.9 7.2-4.2 0-6.6-3.1-6.6-7 0-4.1 2.7-7.2 6.9-7.2s6.6 3.2 6.6 7zm-10.2.2c0 2.7 1.3 4.6 3.4 4.6 2.2 0 3.4-2 3.4-4.7 0-2.5-1.2-4.6-3.4-4.6-2.1 0-3.4 2-3.4 4.7z" fill="#fff"/><path d="m111.1 152.4-3.4-13.8h3.4l1.1 5.7c.3 1.6.6 3.4.8 4.8.2-1.5.6-3.1.9-4.8l1.2-5.6h3.4l1.1 5.8c.3 1.6.5 3.1.8 4.6.2-1.5.5-3.1.8-4.8l1.2-5.6h3.3l-3.6 13.8h-3.5l-1.2-5.9c-.3-1.4-.5-2.7-.7-4.2-.3 1.6-.5 2.9-.8 4.2l-1.3 5.9z" fill="#fff"/><path d="m127 150.8c0-1 .8-1.9 1.9-1.9 1 0 1.9.8 1.9 1.9s-.8 1.9-1.9 1.9c-1 0-1.8-.7-1.9-1.7 0-.1 0-.2 0-.2zm.7-2.9-.5-9.2h3.3l-.5 9.2z" fill="#fff"/><g fill="#fcee21"><path d="m32.5 159.2c1.2-.2 2.5-.3 3.7-.3 1.4-.1 2.8.2 4 1 .8.6 1.2 1.6 1.1 2.5 0 1.4-.9 2.5-2.2 3v.1c.9.4 1.5 1.3 1.7 2.3.3 1.2.6 2.3 1 3.4h-2.8c-.4-.9-.7-1.9-.9-2.8-.3-1.5-.9-1.9-2-1.9h-.9v4.8h-2.8v-12.1zm2.8 5.2h1.1c1.4 0 2.2-.7 2.2-1.7 0-1.1-.8-1.7-2.1-1.7-.4 0-.9 0-1.3.1z"/><path d="m50.8 166h-4.6v2.9h5.1v2.2h-7.9v-12.1h7.7v2.2h-4.8v2.5h4.6z"/><path d="m63.7 170.6c-1.3.4-2.7.7-4.1.7-1.8.1-3.6-.5-5.1-1.6-1.2-1.1-1.8-2.8-1.8-4.4 0-4 3-6.3 7.1-6.3 1.2 0 2.3.2 3.4.6l-.6 2.2c-.9-.4-1.9-.6-2.9-.5-2.3 0-4.1 1.3-4.1 3.9-.2 2 1.4 3.8 3.4 4h.5c.5 0 .9 0 1.4-.2v-2.5h-1.9v-2.1h4.6z"/><path d="m68.7 159v12.1h-2.8v-12.1z"/><path d="m71.2 168.3c1 .5 2 .7 3.1.8 1.3 0 2-.5 2-1.3s-.6-1.2-2.1-1.7c-2.1-.7-3.4-1.8-3.4-3.6 0-2.1 1.8-3.6 4.7-3.6 1.1 0 2.2.2 3.2.6l-.6 2.2c-.8-.4-1.7-.6-2.6-.6-1.2 0-1.8.5-1.8 1.2 0 .8.7 1.1 2.3 1.7 2.2.8 3.2 1.9 3.2 3.6 0 2-1.6 3.8-5 3.8-1.2 0-2.4-.2-3.5-.7z"/><path d="m83.5 161.3h-3.3v-2.3h9.6v2.3h-3.4v9.8h-2.8c-.1 0-.1-9.8-.1-9.8z"/><path d="m98.6 166h-4.6v2.9h5.1v2.2h-7.9v-12.1h7.7v2.2h-4.9v2.5h4.6z"/><path d="m101.1 159.2c1.2-.2 2.5-.3 3.7-.3 1.4-.1 2.8.2 4 1 .8.6 1.2 1.6 1.1 2.5 0 1.4-.9 2.5-2.2 3v.1c.9.4 1.5 1.3 1.7 2.3.3 1.2.6 2.3 1 3.4h-2.9c-.4-.9-.7-1.9-.9-2.8-.3-1.5-.9-1.9-2-1.9h-.8v4.8h-2.8zm2.7 5.2h1.1c1.4 0 2.2-.7 2.2-1.7 0-1.1-.8-1.7-2.1-1.7-.4 0-.9 0-1.3.1v3.3z"/><path d="m35.8 176.4h-3.3v-2.2h9.3v2.2h-3.3v9.6h-2.8z"/><path d="m54.4 179.9c0 3.9-2.4 6.2-6 6.2s-5.7-2.6-5.7-6c0-3.5 2.3-6.2 5.9-6.2 3.8.1 5.8 2.8 5.8 6zm-8.7.2c0 2.3 1.1 3.9 3 3.9s2.9-1.7 2.9-4c0-2.1-1-3.9-2.9-3.9-2 0-3 1.7-3 4z"/><path d="m60 183.2c.9.5 2 .7 3 .7 1.3 0 1.9-.5 1.9-1.3 0-.7-.6-1.2-2-1.7-2-.7-3.3-1.8-3.3-3.5 0-2 1.7-3.6 4.6-3.6 1.1 0 2.1.2 3.1.6l-.6 2.2c-.8-.4-1.7-.6-2.5-.6-1.2 0-1.8.5-1.8 1.1 0 .8.7 1.1 2.3 1.7 2.1.8 3.2 1.9 3.2 3.5 0 2-1.6 3.7-4.9 3.7-1.2 0-2.4-.2-3.4-.7z"/><path d="m72 176.4h-3.3v-2.2h9.3v2.2h-3.3v9.6h-2.7z"/><path d="m82.3 182.9-.9 3h-2.8l3.7-11.8h3.6l3.8 11.8h-3l-.9-3zm3.1-2-.8-2.5c-.2-.7-.4-1.6-.6-2.3-.2.7-.4 1.6-.6 2.3l-.7 2.5z"/><path d="m91.3 174.3c1.2-.2 2.4-.3 3.7-.2 1.4-.1 2.8.2 3.9.9.8.6 1.2 1.5 1.1 2.5 0 1.3-.9 2.5-2.1 2.9v.1c.9.4 1.5 1.3 1.6 2.2.3 1.1.6 2.2 1 3.3h-2.8c-.4-.9-.7-1.8-.8-2.8-.3-1.5-.8-1.9-2-1.9h-.9v4.7h-2.7zm2.7 5.1h1.1c1.4 0 2.2-.7 2.2-1.7 0-1.1-.8-1.6-2-1.6-.4 0-.8 0-1.2.1z"/><path d="m104.4 176.4h-3.3v-2.2h9.3v2.2h-3.3v9.6h-2.8z"/></g><path d="m35.3 8.6c0 5.6-3.4 9-8.3 9-5 0-8-3.8-8-8.7 0-5.1 3.3-8.9 8.3-8.9 5.1 0 8 3.9 8 8.6zm-12.3.2c0 3.3 1.6 5.7 4.1 5.7 2.6 0 4.1-2.5 4.1-5.8 0-3.1-1.5-5.7-4.1-5.7-2.6.1-4.1 2.5-4.1 5.8z" fill="#fff"/><path d="m37.8 17.3v-17h4.5l3.5 6.2c1.1 1.9 2 3.8 2.8 5.8h.1c-.2-2.4-.4-4.7-.3-7.1v-5h3.5v17h-4l-3.6-6.6c-1.1-1.9-2.1-3.9-3-6h-.1c.1 2.2.2 4.6.2 7.4v5.1z" fill="#fff"/><path d="m65.3 10.1h-6.3v4h7v3.2h-10.8v-17h10.5v3.2h-6.7v3.5h6.3z" fill="#fff"/><path d="m83.9 10.1h-6.3v4h7v3.2h-10.9v-17h10.5v3.2h-6.6v3.5h6.3z" fill="#fff"/><path d="m91.2 12.9-1.2 4.4h-4l5.2-17h5l5.3 17h-4.1l-1.4-4.4zm4.3-2.9-1.1-3.6c-.3-1-.6-2.3-.9-3.3h-.1c-.3 1-.5 2.3-.8 3.3l-1 3.6z" fill="#fff"/><path d="m103.9 13.3c1.3.7 2.8 1 4.3 1.1 1.8 0 2.7-.7 2.7-1.8s-.8-1.7-2.8-2.4c-2.8-1-4.7-2.5-4.7-5 0-2.9 2.4-5.1 6.4-5.1 1.5 0 3 .3 4.3.9l-.9 3c-1.1-.5-2.3-.8-3.6-.8-1.7 0-2.5.8-2.5 1.6 0 1.1 1 1.6 3.2 2.4 3 1.1 4.4 2.7 4.4 5.1 0 2.9-2.2 5.3-6.9 5.3-1.7 0-3.3-.3-4.8-1z" fill="#fff"/><path d="m121.3 17.3v-7l-5.4-10h4.4l1.7 4.1c.5 1.2.9 2.1 1.3 3.3h.1c.4-1.1.8-2 1.3-3.3l1.7-4.1h4.3l-5.6 9.9v7.1z" fill="#fff"/><text fill="#fff" font-family="'MyriadPro-Bold'" font-size="18" transform="translate(18.3257 35.6063)">STEP TO CHAT</text><text fill="#fcee21" font-family="'MyriadPro-Bold'" font-size="45" transform="translate(19.6 75.7616)">WITH</text><text fill="#fcee21" font-family="'MyriadPro-Bold'" font-size="65" transform="translate(12.0842 128.9143)">HER</text></svg>