<svg height="61.999" viewBox="0 0 114.667 61.999" width="114.667" xmlns="http://www.w3.org/2000/svg"><g fill="#22416d"><path d="m3.416 10.693v-4.308l-3.416-6.213h2.79l1.11 2.528c.336.765.561 1.326.834 2.014h.032c.234-.655.494-1.264.815-2.014l1.09-2.528h2.743l-3.56 6.135v4.387z"/><path d="m20.482 5.323c0 3.45-2.149 5.542-5.308 5.542-3.208 0-5.083-2.357-5.083-5.354-.001-3.154 2.068-5.511 5.259-5.511 3.32 0 5.132 2.42 5.132 5.323zm-7.81.141c0 2.061.995 3.512 2.63 3.512 1.652 0 2.6-1.529 2.6-3.574 0-1.889-.93-3.512-2.614-3.512-1.654 0-2.616 1.529-2.616 3.574z"/><path d="m24.527.172v6.057c0 1.811.706 2.731 1.957 2.731 1.283 0 1.988-.874 1.988-2.731v-6.057h2.438v5.9c0 3.247-1.684 4.793-4.506 4.793-2.727 0-4.33-1.468-4.33-4.824v-5.869z"/><path d="m44.209 10.4a7.127 7.127 0 0 1 -2.774.453c-3.736 0-5.661-2.264-5.661-5.261 0-3.592 2.626-5.592 5.902-5.592a6.519 6.519 0 0 1 2.662.469l-.5 1.889a5.4 5.4 0 0 0 -2.053-.391 3.208 3.208 0 0 0 -3.445 3.481 3.184 3.184 0 0 0 3.46 3.435 6.25 6.25 0 0 0 2.037-.344z"/><path d="m48.334 7.992-.77 2.7h-2.534l3.304-10.52h3.208l3.352 10.521h-2.63l-.834-2.7zm2.742-1.779-.676-2.233c-.192-.624-.385-1.4-.545-2.028h-.032c-.161.624-.321 1.42-.5 2.028l-.641 2.232z"/><path d="m56.34 10.693v-10.521h2.854l2.246 3.855a30.111 30.111 0 0 1 1.76 3.607h.048a38.064 38.064 0 0 1 -.208-4.387v-3.075h2.245v10.521h-2.562l-2.31-4.059a38.745 38.745 0 0 1 -1.876-3.714l-.048.016c.064 1.389.1 2.872.1 4.589v3.169z"/><path d="m72.4 10.693-2.568-10.521h2.614l.818 4.34c.241 1.249.465 2.606.642 3.668h.032c.176-1.14.433-2.4.706-3.7l.913-4.308h2.6l.866 4.434c.241 1.233.417 2.356.577 3.527h.032c.161-1.171.4-2.4.625-3.652l.881-4.309h2.485l-2.79 10.521h-2.646l-.914-4.527c-.208-1.062-.385-2.045-.513-3.246h-.032c-.192 1.186-.369 2.185-.625 3.246l-1.026 4.527z"/><path d="m84.9.313a22.031 22.031 0 0 1 3.25-.219 5.628 5.628 0 0 1 3.5.828 2.639 2.639 0 0 1 .994 2.2 2.8 2.8 0 0 1 -1.908 2.592v.047a2.661 2.661 0 0 1 1.443 1.967 30.854 30.854 0 0 0 .882 2.966h-2.5a12.891 12.891 0 0 1 -.761-2.452c-.289-1.311-.754-1.67-1.748-1.686h-.738v4.137h-2.414zm2.416 4.527h.962c1.219 0 1.94-.594 1.94-1.515 0-.968-.674-1.451-1.8-1.467a6.257 6.257 0 0 0 -1.106.078z"/><path d="m96.862.172v10.521h-2.454v-10.521z"/><path d="m101.064 2.17h-2.9v-2h8.307v2h-2.951v8.523h-2.454z"/><path d="m114.2 6.244h-3.977v2.5h4.442v1.951h-6.9v-10.523h6.671v1.951h-4.218v2.186h3.982z"/><path d="m36.184 19.807h9.836v2.9h-6.183v3.578h5.777v2.88h-5.777v6.3h-3.653z"/><path d="m63.491 27.474c0 5.135-3.2 8.249-7.9 8.249-4.775 0-7.568-3.509-7.568-7.97 0-4.693 3.08-8.2 7.83-8.2 4.941-.002 7.638 3.599 7.638 7.921zm-11.626.208c0 3.068 1.48 5.228 3.915 5.228 2.459 0 3.867-2.277 3.867-5.321 0-2.812-1.384-5.228-3.891-5.228-2.456 0-3.891 2.278-3.891 5.321z"/><path d="m65.873 20.015a32.834 32.834 0 0 1 4.847-.326c2.387 0 4.058.349 5.2 1.233a3.932 3.932 0 0 1 1.48 3.278 4.169 4.169 0 0 1 -2.841 3.856v.07a3.962 3.962 0 0 1 2.149 2.928 45.816 45.816 0 0 0 1.313 4.415h-3.721a19.2 19.2 0 0 1 -1.123-3.648c-.43-1.952-1.122-2.486-2.6-2.51h-1.1v6.158h-3.6zm3.6 6.738h1.433c1.814 0 2.888-.882 2.888-2.253 0-1.441-1-2.161-2.674-2.184a9.374 9.374 0 0 0 -1.648.116z"/><path d="m41.675 42.067h12.318v3.633h-7.743v4.481h7.235v3.607h-7.235v7.886h-4.575z"/><path d="m57.426 42.328a41.119 41.119 0 0 1 6.07-.408c2.99 0 5.082.437 6.518 1.544a4.923 4.923 0 0 1 1.853 4.1 5.221 5.221 0 0 1 -3.559 4.836v.087c1.4.553 2.183 1.862 2.691 3.667a57.376 57.376 0 0 0 1.644 5.529h-4.663a24.043 24.043 0 0 1 -1.406-4.568c-.538-2.445-1.4-3.114-3.258-3.143h-1.376v7.711h-4.514zm4.514 8.438h1.795c2.272 0 3.617-1.1 3.617-2.821 0-1.8-1.256-2.706-3.348-2.736a11.739 11.739 0 0 0 -2.064.145z"/><path d="m87.138 53.386h-7.414v4.656h8.282v3.637h-12.857v-19.612h12.437v3.633h-7.862v4.073h7.414z"/><path d="m103.1 53.386h-7.416v4.656h8.281v3.637h-12.856v-19.612h12.437v3.633h-7.862v4.073h7.416z"/><path d="m106.412 59.351a2.676 2.676 0 1 1 2.688 2.649 2.563 2.563 0 0 1 -2.688-2.649zm.986-4.1-.688-13.181h4.754l-.658 13.181z"/><path d="m14.561 29.433c-.07-1.875-.139-4.143-.139-6.41h-.07c-.486 1.99-1.132 4.211-1.735 6.039l-1.9 6.086h-2.751l-1.666-6.039c-.509-1.828-1.04-4.049-1.411-6.086h-.047c-.092 2.1-.162 4.513-.279 6.455l-.277 5.922h-3.264l.995-15.6h4.7l1.526 5.206c.486 1.805.972 3.75 1.319 5.577h.07c.439-1.805.972-3.865 1.481-5.6l1.666-5.184h4.605l.857 15.6h-3.449z"/><path d="m30.237 28.808h-5.737v3.7h6.41v2.892h-9.95v-15.6h9.627v2.9h-6.087v3.239h5.737z"/></g></svg>