<svg xmlns="http://www.w3.org/2000/svg" width="17" height="14.05" viewBox="0 0 17 14.05">
	<path fill="#E8168B" d="M1.34 6.76l3.02 2.97c6.14-6.05 4.1-4.2 7.1-7.02 1.22-1.54 3.74-.67 3.74 1.32 0 .5-.17.95-.46
	1.3-.6.6-5.26 5.34-6.05 6.1l-.84-.8 6.03-6.14c.58-1-.85-1.92-1.54-1.02l-7.17 7.1 3.54 3.5
	7.37-7.5c.56-.7.9-1.58.9-2.54 0-3.3-3.73-5.14-6.35-3.27l-6.33 6.4L2.34 5.2c-1.27-1.34-.26-3.62 1.6-3.62.5 0 1.2.2
	1.6.74l-.84.9c-.36-.35-.6-.43-.78-.43-.74 0-1.16.86-.7 1.44l1.35 1.33L7.5 2.55C6.9.9 5.42-.07 3.7 0 .2.2-1.3 4.6 1.33 6.77z"/>
</svg>