<svg xmlns="http://www.w3.org/2000/svg" viewBox="0 0 64 64"><path d="M44.845 18.506h-8c-.553 0-1 .447-1 1s.447 1 1 1h5.586l-10 10 1.415 1.415 10-10v5.585c0 .553.447 1 1 1s1-.447 1-1v-8c0-.552-.447-1-1-1zM22.318 42.092L10.845 53.564v-6.058c0-.553-.447-1-1-1s-1 .447-1 1v8c0 .552.447 1 1 1h8c.553 0 1-.448 1-1 0-.554-.447-1-1-1h-5.112l11-11-1.415-1.414z"/><path d="M57.304 0H16.788c-3.293 0-5.974 2.68-5.974 5.975v4.118h-4.12c-3.293 0-5.973 2.68-5.973 5.974v41.958C.72 61.32 3.4 64 6.696 64H47.21c3.295 0 5.976-2.68 5.976-5.975V55.35h4.118c3.294 0 5.975-2.682 5.975-5.976v-43.4C63.28 2.682 60.597 0 57.303 0zm-6.118 58.025c0 2.192-1.783 3.975-3.975 3.975H6.696c-2.192 0-3.974-1.783-3.974-3.975V16.067c0-2.19 1.783-3.974 3.975-3.974H47.21c2.193 0 3.976 1.783 3.976 3.974v41.958zm10.093-8.65c0 2.19-1.784 3.974-3.976 3.974h-4.118V16.066c0-3.293-2.68-5.974-5.975-5.974H12.815V5.975C12.814 3.783 14.597 2 16.788 2h40.516c2.192 0 3.975 1.783 3.975 3.975v43.4z"/></svg>