<svg xmlns="http://www.w3.org/2000/svg" width="24" height="27" viewBox="-2 4 27 24"><path fill="#D0AC4B" d="M11.5 24.82c-6.68 0-12.1-1.37-12.1-2.78v3.24c0 1.4 5.42 2.78 12.1 2.78s12.1-1.38 12.1-2.78v-3.24c0 1.4-5.4 2.78-12.1 2.78"/><path fill="#DFBB49" d="M10.1 19.73C3.43 19.73-2 18.36-2 16.95v3.24c0 1.4 5.42 2.76 12.1 2.76 6.7 0 12.1-1.38 12.1-2.78v-3.25c0 1.4-5.4 2.78-12.1 2.78"/><path fill="#D0AC4B" d="M12.9 14.64C6.2 14.64.8 13.27.8 11.87v3.23c0 1.4 5.4 2.78 12.1 2.78 6.68 0 12.1-1.37 12.1-2.78v-3.23c0 1.4-5.42 2.77-12.1 2.77"/><path fill="#EED561" d="M22.2 6.37c0 1.4-5.4 2.72-12.1 2.72C3.42 9.1-2 7.76-2 6.35-2 4.96 3.42 4 10.1 4c6.7 0 12.1.97 12.1 2.37"/><path fill="#DFBB49" d="M10.1 9.1C3.43 9.1-2 7.7-2 6.3v3.25c0 1.4 5.42 2.78 12.1 2.78 6.7 0 12.1-1.37 12.1-2.78V6.3c0 1.42-5.4 2.8-12.1 2.8"/><path fill="#C8A54C" d="M-.14 7.74v3.23l.93.3V8.03c-.36-.1-.66-.2-.95-.3m19.56.3v3.24c.36-.1.67-.2.95-.3V7.74l-.93.3M2.2 8.37v3.24c.3.08.6.14.92.2V8.53c-.32-.05-.63-.1-.93-.17m14.9.17v3.24c.3-.06.62-.1.92-.17V8.4c-.3.06-.6.12-.93.17m-12.58.2V12l.93.1V8.86l-.93-.1m10.24.1v3.24l.93-.1V8.74l-.95.1m-7.9.14v3.24c.3 0 .6.03.93.05V9.03c-.32 0-.63-.03-.94-.05m5.6.05v3.24c.3 0 .62-.03.92-.05V8.97l-.93.05m-2.33.08h-.46v3.22h.94V9.1h-.46"/><path fill="#B2914C" d="M2.65 13.3v3.22l.94.3v-3.24c-.36-.1-.67-.2-.96-.3m19.56.3v3.24c.35-.1.66-.2.94-.3V13.3c-.28.1-.6.2-.93.28M5 13.92v3.24c.3.06.6.12.93.17V14.1l-.9-.2m14.88.2v3.23c.32-.05.63-.1.93-.17v-3.24l-.9.17m-12.6.2v3.24l.94.1V14.4c-.32 0-.63-.05-.93-.1m10.25.1v3.25l.93-.1V14.3c-.3.04-.6.08-.93.1m-7.9.13v3.24l.92.05v-3.24c-.3 0-.63-.03-.93-.05m5.6.05v3.24c.3 0 .6-.03.92-.05v-3.24l-.93.05m-2.33.06h-.47v3.24h.93v-3.24h-.46"/><path fill="#C8A54C" d="M-.14 18.38v3.23l.93.3V18.7c-.36-.1-.66-.2-.95-.3m19.56.3v3.23c.36-.1.67-.2.95-.3V18.4l-.93.3M2.2 19v3.25l.92.17v-3.24c-.32-.05-.63-.1-.93-.17m14.9.18v3.24c.3-.05.62-.1.92-.17V19c-.3.07-.6.13-.93.18M4.5 19.4v3.23l.93.1V19.5l-.93-.1m10.24.1v3.23l.93-.1V19.4l-.95.1m-7.9.12v3.23c.3.03.6.04.93.06V19.7l-.94-.05m5.6.04v3.24c.3 0 .62 0 .92-.04v-3.23l-.93.05m-2.33.05h-.46v3.24h.94v-3.24h-.46"/><path fill="#B2914C" d="M1.26 23.46v3.24l.93.3v-3.24c-.36-.1-.67-.2-.95-.3m19.55.3V27c.35-.1.66-.2.94-.3v-3.24l-.93.3m-17.2.34v3.23c.28.07.6.13.92.18V24.3c-.32-.05-.63-.1-.93-.17m14.88.17v3.24c.33-.03.64-.1.94-.15V24.1c-.3.06-.6.12-.94.17m-12.58.2v3.25l.94.1V24.6c-.3-.05-.62-.08-.92-.12m10.24.12v3.22l.93-.1v-3.24l-.96.1m-7.9.12v3.24l.93.06v-3.24l-.93-.05m5.6.06V28l.92-.06V24.7c-.3.03-.62.05-.93.06m-2.33.06h-.47v3.23h.94V24.8l-.47.02"/><path fill="#E7C24C" d="M21.84 20.83c-1.32 1.15-6.07 2.14-11.73 2.14-4.4 0-8.3-.6-10.4-1.42-.2.17-.3.36-.3.55 0 1.4 5.4 2.72 12.1 2.72s12.1-1.3 12.1-2.72c0-.48-.63-.92-1.75-1.27"/><path fill="#EED561" d="M12.9 17.88c-6.15 0-11.23-1.16-12-2.45-1.8.4-2.9.95-2.9 1.58 0 1.43 5.42 2.74 12.1 2.74 6.7 0 12.1-1.3 12.1-2.72 0-.05 0-.1-.03-.17-2.22.62-5.55 1.05-9.27 1.05"/><path fill="#E7C24C" d="M21.74 10.27c-1.45 1.12-6.1 2.06-11.64 2.06-3.57 0-6.78-.4-9-.98-.2.18-.3.37-.3.57 0 1.4 5.4 2.72 12.1 2.72 6.68 0 12.1-1.3 12.1-2.72 0-.67-1.24-1.24-3.26-1.65"/></svg>