<svg xmlns="http://www.w3.org/2000/svg" width="25" height="25"><ellipse transform="translate(-.02 .02)" fill="#F8DC4A" cx="12.5" cy="12.5" rx="12.5" ry="12.5"/><path fill="#FFF" d="M21.1 3.4l-18.3 17c.3.3.5.6.8.9L22 4.3l-.9-.9zm3.2 4.9c-.4-1-.8-1.9-1.4-2.8L4.8 22.3c.8.6 1.7 1.2 2.6 1.6L24.3 8.3zM.7 16.5c.4 1.1.9 2 1.5 2.9L20.3 2.7c-.9-.7-1.8-1.3-2.8-1.7L.7 16.5z" opacity=".28"/><circle fill="#C99204" cx="12.5" cy="12.5" r="10.5"/><circle fill="#DEA004" cx="12.5" cy="12.5" r="10"/><path fill="#FFF" d="M2.7 14.6c.3 1.2.7 2.2 1.3 3.2L18.4 4.4c-.9-.7-1.9-1.2-3-1.5L2.7 14.6zm16.6-9.5L4.7 18.7c.3.3.5.6.8.9L20.2 6l-.9-.9zm2.9 5c-.2-1-.7-2-1.2-2.9L6.6 20.6c.8.6 1.8 1.1 2.8 1.4l12.8-11.9z" opacity=".16"/><g fill="#C99204"><path d="M9.4 11.4c-.6-1.2-.9-2.1-.9-2.9 0-.8.3-1.6.9-2.2l.1-.1c0 .1-.2.2-.3.3-.6.6-.9 1.4-.9 2.2 0 .8.3 1.7.8 2.9.1-.1.2-.1.3-.2zm5.9 7.6c-.6-.3-1.1-.7-1.6-1.1 0 0-.7.5-.8.6-.3.2-.6.3-.9.5-1.6.7-3.5.6-4.8-.7-1.4-1.4-1.5-3.7-.2-5.2.1-.2.3-.3.5-.5-.7.6-1.3 1.3-1.5 2.1-.4 1.3 0 2.8 1 3.7 1.6 1.6 4.1 1.3 5.8.1.2-.1.4-.3.6-.5.4.4.8.7 1.3 1 .5.3 1 .5 1.5.5.6 0 1.2-.2 1.6-.6-.8.7-1.7.5-2.5.1zM12.5 6.8c.3.4.5.8.5 1.4 0 .6-.2 1.1-.5 1.5l-.3.3c.2-.2.4-.4.6-.5.3-.4.5-.9.5-1.5s-.1-1-.4-1.3c-.3-.3-.7-.5-1.1-.5-.4 0-.8.2-1.1.4.2-.2.5-.2.8-.2.3-.1.7.1 1 .4zm5.3 10.9s-.1 0 0 0 .2-.1.3-.2c.2-.3.4-.7.5-1.3h-.2c-.2.7-.4 1.2-.6 1.5z"/><path d="M9.5 12.3c.8 1.4 1.5 2.5 1.9 3.2.5.7 1 1.4 1.6 2.1.1-.1.2-.1.3-.2-.6-.7-1.1-1.4-1.6-2.1-.5-.7-1.1-1.7-1.9-3.2-.4.2-.7.4-.9.6.1-.1.3-.2.6-.4zm1.9-.8c.7-.4 1.3-.7 1.7-1.1-.5.3-1.1.7-1.7 1.1-.1-.1-.1 0 0 0zm7.2.7c-.3 0-.6 0-.8.1-.2.1-.3.2-.5.3.1 0 .1-.1.2-.1.2-.1.5-.1.8-.1h.4v-.2h-.1zm-3.3.5c.2.2.4.5.4.8 0 .7-.4 1.5-1.2 2.6l.1.1c.9-1.2 1.4-2.1 1.4-2.8 0-.3-.1-.6-.4-.8-.2-.2-.6-.3-1.1-.3H14v-.4h-.3v.6h.5c.5-.1.8 0 1.1.2z"/></g><path fill="#F8DC4A" d="M18.5 15.9c-.1.5-.2 1.1-.5 1.5-.9 1.1-2.4-.1-3.1-.8.6-.7 1.1-1.7 1.6-2.7.2-.4.4-.9.8-1.3s1-.4 1.6-.4v-.6h-5v.6c.6 0 1.4 0 1.8.6.3.5 0 1.2-.2 1.7-.3.5-.6 1.2-1.1 1.6-.6-.6-1.1-1.4-1.6-2.1-.1-.2-1.6-2.5-1.6-2.5.9-.4 1.9-.9 2.5-1.7.9-1.1 1-2.9-.3-3.8-.5-.4-1.2-.6-1.9-.5-1.3.1-2.6.9-3 2.2-.2.6-.1 1.3 0 2 0 .2.7 1.9.7 1.8-1 .3-1.9 1.1-2.5 1.9-.9 1.5-.7 3.6.6 4.9 1.2 1.2 3.1 1.4 4.6.8.5-.2 1.2-.6 1.9-1.1.8.7 1.7 1.5 2.8 1.5.7 0 1.5-.4 1.9-1 .5-.7.6-1.6.6-2.5-.2-.1-.4-.1-.6-.1zM12.2 10c-.3.2-.7.5-1.2.7-.6-1.1-.9-2.1-.9-2.9 0-.5.2-.9.5-1.3.3-.3.7-.4 1.1-.4.5 0 .8.2 1.1.5.3.4.4.8.4 1.4 0 .6-.2 1.1-.5 1.5-.1.2-.3.4-.5.5zm.8 7.6c-.7.5-1.4.7-2 .7-.9 0-1.6-.4-2.2-1.2-.6-.8-.9-1.6-.9-2.4 0-.7.3-1.3 1-1.9l.9-.6c.8 1.4 1.5 2.5 1.9 3.2.5.7 1 1.4 1.6 2.1-.2-.1-.3 0-.3.1z"/></svg>