<svg xmlns="http://www.w3.org/2000/svg" viewBox="0 0 36 42.959"><defs/><path class="a" d="M16.979 22.082h2.505v1.67h-2.505zM22.454 14.474H36v7.608H22.454zM16.979 14.474h2.505v7.608h-2.505zM0 14.474h14.01v7.608H0zM16.979 23.845h2.505v19.113h-2.505zM22.454 23.845h11.412v19.113H22.454zM2.134 23.845H14.01v19.113H2.134zM30.247 5.845c.278-1.3.557-3.619-.928-4.825A4.535 4.535 0 0 0 26.443 0c-1.763 0-4.639.928-6.588 6.216a3.135 3.135 0 0 0-1.856-.557 2.723 2.723 0 0 0-1.485.371C14.567.835 11.691 0 10.021 0a4.535 4.535 0 0 0-2.877 1.021C5.661 2.32 5.938 4.639 6.216 5.845c-2.041 2.041-2.041 3.711-1.67 4.732.742 2.041 3.526 2.876 5.01 2.876a17.357 17.357 0 0 0 6.031-1.763 3.661 3.661 0 0 0 2.32.928 3.426 3.426 0 0 0 2.505-1.018 17.8 17.8 0 0 0 6.309 1.856c1.577 0 4.268-.742 5.01-2.876.465-1.023.465-2.693-1.484-4.735zm-15.68 3.526a15.915 15.915 0 0 1-4.918 1.485c-1.021 0-2.412-.557-2.691-1.206-.186-.464.464-1.392 1.577-2.412l.649-.557-.278-.835c-.371-1.021-.464-2.6-.093-2.876a1.851 1.851 0 0 1 1.208-.37c1.856 0 3.526 2.134 4.639 5.845a2.043 2.043 0 0 0-.093.742zm14.938.278c-.278.649-1.67 1.206-2.691 1.206a17.542 17.542 0 0 1-5.2-1.67c1.113-4.175 2.876-6.68 4.825-6.68a2.262 2.262 0 0 1 1.206.371c.371.371.278 1.856-.093 2.876l-.278.835.649.557c1.211 1.114 1.768 2.042 1.582 2.505z"/></svg>