<svg height="5.143mm" viewBox="0 0 14.58 14.58" width="5.143mm" xmlns="http://www.w3.org/2000/svg"><g fill="#b75347"><circle cx="7.29" cy="7.29" r="7.29"/><path d="m2.538 7.616a3 3 0 0 0 2.026 2.842 2.965 2.965 0 0 0 3.236-.864 3.4 3.4 0 0 0 .608-2.4c-.959-.009-1.917-.006-2.875 0v1.023c.574.016 1.148.009 1.722.02a1.661 1.661 0 0 1 -.976 1.138 1.9 1.9 0 1 1 -1.271-3.58 2.111 2.111 0 0 1 1.777.347c.267-.25.517-.517.762-.786a3.022 3.022 0 0 0 -5.009 2.26z"/><path d="m10.279 6.324c0 .286-.006.573-.007.858l-.858.006v.855l.858.006c0 .286 0 .571.006.858h.855c0-.287 0-.573.006-.86h.858v-.859l-.858-.006c0-.286 0-.573-.006-.858z"/></g><path d="m2.538 7.616a3.022 3.022 0 0 1 5.009-2.26c-.245.27-.5.537-.762.786a2.111 2.111 0 0 0 -1.777-.347 1.9 1.9 0 1 0 1.279 3.572 1.661 1.661 0 0 0 .976-1.138c-.574-.011-1.148 0-1.722-.02 0-.342 0-.682 0-1.023h2.875a3.4 3.4 0 0 1 -.608 2.4 2.965 2.965 0 0 1 -3.241.864 3 3 0 0 1 -2.029-2.834z" fill="#fff"/><path d="m10.279 6.324h.854c0 .286 0 .573.006.858l.861.006v.855h-.858c0 .287 0 .573-.006.86-.286 0-.571 0-.855 0 0-.287 0-.573-.006-.858l-.858-.006v-.851l.858-.006c-.002-.282.001-.572.004-.858z" fill="#fff"/></svg>