<svg xmlns="http://www.w3.org/2000/svg" viewBox="0 0 495.622 495.622"><path d="M495.622 113.09v150.03s-32.11 6.325-38.725 7.157c-6.594.83-27.316 7.52-42.334-6.914-23.16-22.197-105.447-104.03-105.447-104.03s-14.188-13.922-36.97-1.89c-20.91 11.022-51.91 27.175-64.858 33.465-24.477 13.028-44.764-7.642-44.764-23.387 0-12.212 7.62-20.5 18.515-26.597 29.523-17.898 91.75-52.827 117.67-66.598 15.753-8.38 27.104-9.097 48.733 9.124 26.638 22.402 50.344 42.823 50.344 42.823s7.732 6.453 20.063 3.854c30.28-6.402 77.772-17.038 77.772-17.038zM168.098 367.3c3.985-10.238 2.653-21.69-4.987-29.545-6.864-7.027-16.887-8.88-26.444-6.69 2.673-9.478 1.197-19.567-5.705-26.687-6.885-7.01-16.89-8.898-26.445-6.688 2.653-9.465 1.18-19.553-5.725-26.652-10.814-11.092-29.52-10.616-41.807 1.097-12.223 11.73-20.053 32.98-9.144 45.487 10.89 12.445 23.404 4.873 32.944 2.7-2.654 9.464-10.606 18.268-.813 30.657 9.785 12.394 23.405 4.874 32.955 2.72-2.663 9.43-10.268 19.117-.85 30.604 9.5 11.522 25.064 5.383 35.343 2.19-3.967 10.2-12.458 21.193-1.55 33.513 10.893 12.41 36.064 6.668 48.36-5.063 12.26-11.73 13.438-30.318 2.653-41.445-7.445-7.635-18.545-9.41-28.782-6.2zm224.344-78.054c-88.88-88.88-47.075-47.058-94.906-94.992 0 0-14.375-14.31-33.32-5.998-13.3 5.828-30.424 13.77-43.308 19.835-14.158 7.425-24.347 9.723-29.13 9.69-27.37-.178-49.577-22.177-49.577-49.52 0-17.738 9.418-33.18 23.463-41.947 19.75-13.667 65.21-37.847 65.21-37.847s-13.85-17.55-44.187-17.55c-30.33 0-93.695 41.513-93.695 41.513s-17.975 11.513-43.6 1.142L0 96.372V268.05s14.103 4.082 26.775 9.258c2.862-8.162 7.48-15.7 13.886-21.924 21.024-20.024 55.87-20.232 74.997-.537 5.762 5.987 9.783 13.13 11.835 21.024 7.707 2.38 14.688 6.594 20.298 12.374 5.78 5.947 9.785 13.13 11.854 20.984 7.698 2.38 14.67 6.61 20.298 12.395 6.34 6.537 10.562 14.433 12.534 22.988 8.047 2.345 15.32 6.706 21.176 12.694 11.495 11.807 15.575 27.826 13.103 43.278.02 0 .058 0 .076.035.19.246 7.123 7.976 11.447 12.336 8.474 8.482 22.31 8.482 30.81 0 8.445-8.48 8.482-22.29 0-30.81-.303-.304-30.57-31.964-28.135-34.42 2.418-2.437 40.98 37.69 41.7 38.423 8.462 8.465 22.29 8.465 30.79 0 8.482-8.48 8.464-22.29 0-30.79-.415-.397-2.15-2.06-2.795-2.722 0 0-38.234-34.06-35.324-36.97 2.946-2.928 50.438 41.392 50.515 41.392 8.537 7.688 21.687 7.63 29.9-.586 7.99-7.99 8.162-20.63 1.078-29.146-.15-.453-36.194-38.12-33.38-40.955 2.853-2.872 38.518 33.852 38.593 33.928 8.443 8.463 22.29 8.463 30.79 0 8.464-8.464 8.464-22.29 0-30.83-.114-.072-.265-.148-.378-.222z" fill="#030104"/></svg>