<svg xmlns="http://www.w3.org/2000/svg" viewBox="0 0 26.575 33.39"><path d="M12.224 13.766c.391.293.635.439.781.537.049 0 .1-.049.146-.1.146-.1.391-.244.635-.439.439-.342 1.025-.781 1.66-1.367a7.807 7.807 0 0 1-.635-3.027 6.26 6.26 0 0 1 3.466-5.663 5.714 5.714 0 0 0-5.272-3.71 5.773 5.773 0 0 0-5.663 5.858c0 3.859 3.271 6.74 4.882 7.911zM12.37 14.694a.488.488 0 0 0 0 .976h.342l-.83 1.464h2.343l-.83-1.464h.342a.488.488 0 0 0 0-.976H12.37zM13.249 17.72h-.535a4.441 4.441 0 0 0-.1 1.025 7.176 7.176 0 0 0 .488 2.587 6.443 6.443 0 0 1 .488 2.246 7.948 7.948 0 0 1-.391 2.148 7.555 7.555 0 0 0-.342 2.1 6.436 6.436 0 0 0 .342 2.05l.488-.146a6.692 6.692 0 0 1-.293-1.9 6.524 6.524 0 0 1 .293-1.953 8.037 8.037 0 0 0 .391-2.294 7.407 7.407 0 0 0-.488-2.441 6.452 6.452 0 0 1-.488-2.392c0-.342.049-.635.049-.781a.315.315 0 0 0 .098-.249z"/><path d="M15.25 9.373c0 3.856 3.222 6.737 4.882 7.957.391.293.635.439.781.537.049 0 .1-.049.146-.1.146-.1.391-.244.635-.439a14.206 14.206 0 0 0 2-1.757 9.069 9.069 0 0 0 2.88-6.2 5.773 5.773 0 0 0-5.663-5.858 5.742 5.742 0 0 0-5.661 5.86z"/><path d="M.25 9.373c0 3.856 3.222 6.737 4.882 7.957.391.293.635.439.781.537.049 0 .1-.049.146-.1.146-.1.391-.244.635-.439a14.206 14.206 0 0 0 2-1.757 9.069 9.069 0 0 0 2.88-6.2 5.773 5.773 0 0 0-5.663-5.858A5.742 5.742 0 0 0 .25 9.373z" stroke="#fff" stroke-width=".5"/><path d="M20.229 18.208a.488.488 0 0 0 0 .976h.342l-.83 1.464h2.343l-.83-1.464h.342a.488.488 0 1 0 0-.976h-1.367zM5.229 18.208a.488.488 0 0 0 0 .976h.342l-.83 1.464h2.343l-.83-1.464h.342a.488.488 0 1 0 0-.976H5.229zM21.157 21.235h-.535a4.441 4.441 0 0 0-.1 1.025 7.177 7.177 0 0 0 .488 2.587 6.442 6.442 0 0 1 .488 2.246 7.948 7.948 0 0 1-.391 2.148 7.552 7.552 0 0 0-.342 2.1 6.434 6.434 0 0 0 .342 2.05l.488-.146a6.694 6.694 0 0 1-.293-1.9 6.524 6.524 0 0 1 .293-1.953 8.035 8.035 0 0 0 .391-2.294 7.408 7.408 0 0 0-.488-2.441 6.452 6.452 0 0 1-.488-2.392c0-.342.049-.635.049-.781a.825.825 0 0 0 .098-.249zM6.157 21.235h-.535a4.441 4.441 0 0 0-.1 1.025 7.177 7.177 0 0 0 .488 2.587 6.442 6.442 0 0 1 .488 2.246 7.948 7.948 0 0 1-.391 2.148 7.552 7.552 0 0 0-.342 2.1 6.434 6.434 0 0 0 .342 2.05l.488-.146a6.694 6.694 0 0 1-.293-1.9 6.524 6.524 0 0 1 .293-1.953 8.035 8.035 0 0 0 .391-2.294 7.408 7.408 0 0 0-.488-2.441 6.452 6.452 0 0 1-.488-2.392c0-.342.049-.635.049-.781a.825.825 0 0 0 .098-.249z"/></svg>