<svg xmlns="http://www.w3.org/2000/svg" viewBox="0 0 33.472 25.347"><path d="M.606 21.709l2 1.273 4.427-6.792a3.412 3.412 0 0 1-.546-4.366c.121-.121.182-.3.3-.424l3.82-5.882 5.7 3.7-4.123 6.306a3.464 3.464 0 0 1-4.366 1.213l-4.427 6.792 2 1.273a.4.4 0 0 1 .121.546L-.006 21.77a.558.558 0 0 1 .606-.061zM16.494 0c.485 1.092.91 2.183 1.395 3.275 1.213-.182 2.486-.364 3.7-.546-.606.728-1.273 1.455-1.88 2.244-.849-.485-.849-.182-.061-1.152-2.668.364-2.062.728-3.153-1.758-1.031 2.486-.424 2.183-3.153 1.758.849 1.031.91.728.061 1.273l-2-2.365c1.213.182 2.486.364 3.7.546.485-1.091.97-2.183 1.395-3.275zm16.372 21.224l-2 1.273-4.427-6.792a3.412 3.412 0 0 0 .546-4.366c-.121-.121-.182-.3-.3-.424l-3.82-5.882-5.7 3.7 4.123 6.306a3.464 3.464 0 0 0 4.366 1.213l4.427 6.792-2 1.273a.4.4 0 0 0-.121.546l5.518-3.578a.558.558 0 0 0-.612-.061z" fill-rule="evenodd"/></svg>