<svg xmlns="http://www.w3.org/2000/svg" viewBox="0 0 25.216 29.344"><path d="M20.606 19.565c-.553-.27-1.128-.5-1.649-.823a5.409 5.409 0 0 1-1.621-1.529 1.564 1.564 0 0 0-.167.734c-.17 2-.447 3.987-.727 5.977-.241 1.706-.61 3.391-.873 5.094a13.833 13.833 0 0 0 2.969-.841.759.759 0 0 0 .394-.479c.447-1.085.88-2.171 1.249-3.285a.628.628 0 0 0-.138-.709c-.355-.408-.709-.837-1.064-1.259-.053-.064-.128-.149-.117-.209.025-.128.16-.078.252-.1.39-.074.777-.167 1.167-.223.259-.035.323-.174.319-.4-.005-.643.002-1.296.006-1.948z"/><path d="M20.985 19.693c0 .709-.039 1.419-.039 2.128 0 .266-.1.387-.355.415s-.529.085-.795.128-.355.128-.142.355c.27.309.525.631.787.944a.589.589 0 0 1 .124.589 28.423 28.423 0 0 1-1.029 2.873c-.078.192-.262.429-.121.575s.355-.082.521-.167a16.239 16.239 0 0 0 5.216-4.179c.52-.645-2.29-3.132-4.167-3.661zM4.601 19.604c.553-.27 1.128-.5 1.649-.823a5.409 5.409 0 0 0 1.618-1.532 1.564 1.564 0 0 1 .17.734c.17 2 .447 3.987.727 5.977.241 1.706.61 3.391.873 5.094a13.833 13.833 0 0 1-2.969-.841.759.759 0 0 1-.394-.479c-.447-1.085-.88-2.171-1.249-3.285a.628.628 0 0 1 .138-.709c.355-.408.709-.837 1.064-1.259.053-.064.128-.149.117-.209-.025-.128-.16-.078-.252-.1-.39-.074-.777-.167-1.167-.223-.259-.035-.323-.174-.319-.4.004-.643-.002-1.292-.006-1.945z"/><path d="M4.225 19.732c0 .709.039 1.419.039 2.128 0 .266.1.387.355.415s.529.085.795.128.355.128.142.355c-.27.309-.525.631-.787.944a.589.589 0 0 0-.124.589 28.419 28.419 0 0 0 1.029 2.873c.078.192.262.429.121.575s-.355-.082-.521-.167A16.239 16.239 0 0 1 .067 23.39c-.525-.644 2.281-3.129 4.158-3.658zM10.351 29.181c.273-1.064.539-2.1.826-3.146s.617-2.128.926-3.192a.646.646 0 0 0-.092-.6 4.5 4.5 0 0 1-.394-.642c-.1-.192-.355-.355-.245-.592a2.816 2.816 0 0 1 .582-.812c.17-.153.472 0 .709-.046.709-.153 1.064.319 1.458.77.117.138.057.252-.021.38a6 6 0 0 1-.461.795 1.206 1.206 0 0 0-.149 1.156c.4 1.976.972 3.9 1.341 5.9a.294.294 0 0 1-.245.145 20.638 20.638 0 0 1-4.235-.116zM18.25 4.897c.06.961.06 1.915.032 2.873 0 .135-.06.177-.184.231s-.376.1-.355.355c-.255.053-.163.333-.355.5-.142-.6-.273-1.174-.415-1.749-.124-.507-.259-1.011-.394-1.515a.33.33 0 0 0-.305-.287c-1.394-.223-2.785-.5-4.182-.709a22.482 22.482 0 0 0-2.838-.3.688.688 0 0 0-.72.553 18.314 18.314 0 0 0-.709 3.785 1.546 1.546 0 0 1-.032.213c-.174 0-.163-.184-.27-.241a.685.685 0 0 0-.543-.656c-.16-.028-.2-.106-.216-.252a11.17 11.17 0 0 1 0-3.973A4.257 4.257 0 0 1 9.598.456a7.619 7.619 0 0 1 3.547-.4c1.618.2 3.37.518 4.239 1.976a5.039 5.039 0 0 1 .858 2.4 3.327 3.327 0 0 0 0 .465zM16.381 13.996c-.078.841.035 1.632-.085 2.419a3.952 3.952 0 0 1-.355.855.851.851 0 0 1-.83.539 6.154 6.154 0 0 1-5.48-2.55 2.965 2.965 0 0 1-.585-1.043c2.503 3.086 4.901 2.504 7.335-.22z"/><path d="M17.743 8.356a.523.523 0 0 1 .557.447 3.294 3.294 0 0 1-.355 2.533c-.035.074-.085.156-.188.142s-.117-.11-.135-.192a.866.866 0 0 1 .06-.582 1.011 1.011 0 0 0-.06-1.153.709.709 0 0 1 0-.77c.06-.138.188-.255.117-.429zM7.513 8.601c0 .4.1.805-.209 1.171-.16.192-.064.465 0 .709.025.082.089.149.106.231.057.248.153.607-.082.709s-.27-.284-.355-.468a3.3 3.3 0 0 1-.188-2.192c.089-.465.28-.5.748-.163z"/></svg>