<svg xmlns="http://www.w3.org/2000/svg" viewBox="0 0 28.383 26.62"><path d="M17.525 11.885c.788-1.273 1.516-1.94 3.032-1.94a2.819 2.819 0 0 1 3.032 2.607c0 2.607-3.032 5.154-6.125 7.762-3.032-2.607-6.124-5.154-6.124-7.762a2.857 2.857 0 0 1 3.032-2.607 3.218 3.218 0 0 1 3.153 1.94zM1.577 0A1.605 1.605 0 0 0 0 1.577v12.855a1.605 1.605 0 0 0 1.577 1.577h.3l-.061 3.335 3.093-3.335h.91V8.732a2.433 2.433 0 0 1 2.426-2.426h13.522v-4.73A1.605 1.605 0 0 0 20.193 0zm25.286 7.155H8.247A1.605 1.605 0 0 0 6.67 8.732v12.855a1.605 1.605 0 0 0 1.577 1.577h3.275l3.153 3.456-.121-3.456H26.8a1.605 1.605 0 0 0 1.577-1.577V8.732a1.481 1.481 0 0 0-1.516-1.577zm-1.031 14.311a.673.673 0 0 0 .667-.667V9.4a.673.673 0 0 0-.667-.667H9.278a.673.673 0 0 0-.667.667v11.4a.673.673 0 0 0 .667.667h16.554z" fill-rule="evenodd"/></svg>