<svg xmlns="http://www.w3.org/2000/svg" viewBox="0 0 25.884 24.651"><path d="M6.9 1.972L5.177.25A13 13 0 0 0 0 9.86h2.465A10.186 10.186 0 0 1 6.9 1.972zM23.418 9.86h2.465A12.873 12.873 0 0 0 20.83.25L19.1 1.972a10.425 10.425 0 0 1 4.318 7.888zm-2.465.616a7.931 7.931 0 0 0-6.163-7.765V1.85a1.85 1.85 0 0 0-3.7 0v.863a7.931 7.931 0 0 0-6.16 7.764v6.779l-2.465 2.465v1.229h20.953v-1.229l-2.465-2.465zM12.942 24.65h.493a2.143 2.143 0 0 0 1.726-1.479 2.322 2.322 0 0 0 .247-.986h-4.93a2.472 2.472 0 0 0 2.464 2.465z"/></svg>