<svg viewBox="0 0 14.17 14.17" xmlns="http://www.w3.org/2000/svg"><g fill="#808080"><path d="m11.8 7.09a3.88 3.88 0 0 1 -.4 1.78 3.1 3.1 0 0 1 -1.07 1.24 3.31 3.31 0 0 1 -1.11.46 7.33 7.33 0 0 1 -1.44.12h-1.65v-7.2h1.64a6.54 6.54 0 0 1 1.59.15 3.36 3.36 0 0 1 1 .42 3.11 3.11 0 0 1 1.08 1.22 4 4 0 0 1 .36 1.81zm-1 0a3.34 3.34 0 0 0 -.27-1.42 2.09 2.09 0 0 0 -.82-.91 2.73 2.73 0 0 0 -.82-.33 4.78 4.78 0 0 0 -1.08-.1h-.72v5.53h.73a5.36 5.36 0 0 0 1.12-.1 2.38 2.38 0 0 0 .87-.38 2.09 2.09 0 0 0 .75-.9 3.43 3.43 0 0 0 .25-1.4z"/><path d="m7.09 0a7.09 7.09 0 1 0 7.09 7.09 7.09 7.09 0 0 0 -7.09-7.09zm0 12.88a5.8 5.8 0 1 1 5.8-5.8 5.8 5.8 0 0 1 -5.8 5.8zm0 0"/><path d="m4.81 3.49a.76.76 0 1 0 .76.76.76.76 0 0 0 -.76-.76zm0 0"/><path d="m4.81 6.14a.57.57 0 0 0 -.57.57v3.41a.57.57 0 0 0 1.14 0v-3.41a.57.57 0 0 0 -.57-.57zm0 0"/></g></svg>