<svg height="14" viewBox="0 0 14 14" width="14" xmlns="http://www.w3.org/2000/svg"><g fill="#818181"><path d="m11.65 7c0 .66-.13 1.24-.4 1.76-.25.52-.6.93-1.05 1.22-.35.23-.72.38-1.1.46-.36.07-.83.1-1.4.1h-1.66v-7.1h1.62c.67 0 1.2.06 1.57.16.38.1.7.24.97.4.47.3.83.7 1.08 1.22.25.5.37 1.1.37 1.8zm-.95 0c0-.42-.08-.83-.23-1.18-.38-.9-1.2-1.36-2.13-1.5-.1 0-1.34-.1-1.34-.06v5.48c0 .04 1.3-.04 1.4-.05.42-.07.82-.17 1.18-.38.78-.45 1.13-1.4 1.12-2.33z"/><g><path d="m7 0c-3.87 0-7 3.14-7 7s3.14 7 7 7 7-3.14 7-7-3.14-7-7-7zm0 12.73c-3.16 0-5.73-2.57-5.73-5.73s2.57-5.73 5.73-5.73 5.73 2.57 5.73 5.73-2.57 5.73-5.73 5.73zm0 0"/><path d="m4.74 3.45c-.4 0-.74.33-.74.75 0 .4.33.74.74.74.42 0 .75-.33.75-.74 0-.42-.34-.75-.76-.75zm0 2.62c-.3 0-.56.25-.56.56v3.37c0 .3.25.55.56.55.3 0 .56-.25.56-.56v-3.37c0-.3-.25-.56-.56-.56zm0 0"/></g></g></svg>