<svg enable-background="new 0 0 12 12" height="12" viewBox="0 0 12 12" width="12" xmlns="http://www.w3.org/2000/svg"><g fill="#fff"><path d="m9.968 5.987c0 .554-.11 1.056-.334 1.5-.225.448-.525.796-.903 1.044-.305.194-.616.322-.933.387-.316.065-.72.098-1.209.098h-1.396v-6.068h1.379c.569 0 1.016.043 1.34.129.324.085.6.203.828.351.391.259.692.601.908 1.031.213.427.32.938.32 1.528zm-.837-.01c0-.467-.078-.866-.231-1.197-.156-.331-.386-.588-.69-.773-.213-.13-.443-.225-.687-.281-.244-.057-.547-.086-.911-.086h-.614v4.685h.615c.358 0 .671-.029.94-.087.267-.057.513-.164.735-.318.28-.19.49-.444.631-.761.141-.315.212-.71.212-1.182z"/><path d="m5.998 0c-3.292 0-5.97 2.684-5.97 5.982s2.678 5.982 5.97 5.982 5.97-2.684 5.97-5.982-2.678-5.982-5.97-5.982zm0 10.876c-2.693 0-4.885-2.196-4.885-4.894s2.191-4.894 4.885-4.894 4.885 2.196 4.885 4.894-2.192 4.894-4.885 4.894zm0 0"/><path d="m4.077 2.948c-.352 0-.638.287-.638.639s.286.639.638.639.638-.287.638-.639c0-.353-.286-.639-.638-.639zm0 0"/><path d="m4.077 5.184c-.264 0-.478.215-.478.479v2.877c0 .265.214.479.478.479s.478-.215.478-.479v-2.876c0-.265-.214-.48-.478-.48zm0 0"/></g></svg>