<svg enable-background="new 0 0 50 44" height="44" viewBox="0 0 50 44" width="50" xmlns="http://www.w3.org/2000/svg"><g fill="#fff"><path d="m49.634 13.808-28.335-13.741c-.329-.161-.725-.021-.884.313l-6.166 13.101h3.359l4.527-9.627 24.565 11.915-7.68 16.324-4.329-2.095v8.63l2.661 1.291c.331.161.725.014.884-.32l11.706-24.894c.159-.335.02-.736-.308-.897zm0 0"/><path d="m32.064 15.067h-31.398c-.363 0-.666.3-.666.668v27.592c0 .373.304.675.666.675h31.397c.363 0 .658-.301.658-.675v-27.592c.007-.369-.295-.668-.657-.668zm-1.812 21.147h-1.99c-1.16-3.016-2.589-7.245-4.756-6.683-2.536.663-3.801 6.683-3.801 6.683s-1.299-6.798-4.882-10.43c-3.584-3.64-7.05 10.43-7.05 10.43h-4.742v-18.097h27.222v18.097zm0 0"/><path d="m9.645 21.996c0 1.252-.995 2.263-2.221 2.263-1.224 0-2.219-1.011-2.219-2.263 0-1.243.995-2.254 2.219-2.254 1.226 0 2.221 1.011 2.221 2.254zm0 0"/><path d="m22.319 23.589c.501 0 .97-.053 1.385-.134.481.207 1.073.334 1.712.334 1.634 0 2.965-.808 2.965-1.812s-1.331-1.814-2.965-1.814c-.619 0-1.186.115-1.66.315-.049.012-.429-.279-.606-.3-.363-.043-.803-.059-1.123.146-.276.177-.451.48-.491.803-1.326.14-2.314.629-2.314 1.204.001.696 1.392 1.258 3.097 1.258zm0 0"/></g></svg>