<svg xmlns="http://www.w3.org/2000/svg" width="90.776" height="72" viewBox="0 0 90.776 72"><title>ln-ms2</title><path d="M89.219,0H1.567A1.568,1.568,0,0,0,0,1.567V70.433A1.569,1.569,0,0,0,1.567,72H89.219a1.562,1.562,0,0,0,1.557-1.567V1.567A1.561,1.561,0,0,0,89.219,0ZM15.652,68.866H3.134V54.781H15.652Zm0-17.219H3.134V37.562H15.652Zm0-17.209H3.134V20.343H15.652Zm0-17.219H3.134V3.134H15.652Zm41.536,20.1L39.971,48.278a1.587,1.587,0,0,1-.841.244,1.647,1.647,0,0,1-.757-.192,1.573,1.573,0,0,1-.81-1.375V25.045a1.565,1.565,0,0,1,2.408-1.323l17.217,10.96a1.557,1.557,0,0,1,0,2.635ZM87.652,68.866H75.125V54.781H87.652Zm0-17.219H75.125V37.562H87.652Zm0-17.209H75.125V20.343H87.652Zm0-17.219H75.125V3.134H87.652Zm0,0" fill="#fff"/></svg>