<svg height="72" viewBox="0 0 88.166 72" width="88.166" xmlns="http://www.w3.org/2000/svg"><g fill="#fff"><path d="m44.083 22.041a17.632 17.632 0 1 0 17.637 17.637 17.656 17.656 0 0 0 -17.637-17.637zm0 0"/><path d="m81.112 14.694h-12.527l-5.875-14.694h-37.254l-5.876 14.694h-1.943v-7.347h-8.819v7.347h-1.765a7.062 7.062 0 0 0 -7.053 7.053v43.153a7.109 7.109 0 0 0 7.1 7.1h73.96a7.109 7.109 0 0 0 7.1-7.1v-43.153a7.062 7.062 0 0 0 -7.053-7.053zm-66.418 0h-2.942v-4.4h2.943zm29.389 51.43a26.451 26.451 0 1 1 26.446-26.446 26.476 26.476 0 0 1 -26.446 26.446zm32.331-33.793a5.88 5.88 0 1 1 5.876-5.885 5.893 5.893 0 0 1 -5.876 5.885zm0 0"/></g></svg>