<svg xmlns="http://www.w3.org/2000/svg" width="12" height="15" viewBox="0 0 20 24"><path fill="#B4B4B4" d="M17.993 19.377l-4.322-2.162a1.651 1.651 0 0 1-.913-1.476v-1.695c.122-.139.261-.316.411-.526a10.013 10.013 0 0 0 1.344-2.71c.553-.17.961-.683.961-1.291v-1.81c0-.4-.176-.756-.453-1.004V4.085S15.558.012 10.045.012c-5.518 0-4.979 4.073-4.979 4.073v2.619a1.343 1.343 0 0 0-.453 1.004v1.81c0 .478.249.897.625 1.138.453 1.972 1.638 3.388 1.638 3.388v1.653c0 .603-.329 1.16-.86 1.447l-4.037 2.204a3.63 3.63 0 0 0-1.892 3.187V24H20v-1.377a3.627 3.627 0 0 0-2.007-3.246zm0 0"/></svg>