<svg enable-background="new 0 0 46 31" height="31" viewBox="0 0 46 31" width="46" xmlns="http://www.w3.org/2000/svg"><g fill="#fff"><path d="m0 2.877 15.584 12.633-15.584 12.383z"/><path d="m45.694 31h-45.242c-.136 0-.452-.544-.452-.673v-.043l17.176-13.563 3.673 2.895c.619.5 1.429.773 2.283.773s1.664-.277 2.288-.777l3.488-2.805 17.092 13.481v.039c0 .129-.179.673-.306.673z"/><path d="m30.435 15.596 15.565-12.637v24.942z"/><path d="m25.094 17.489-.869.741c-.02.012-.036.079-.052.091l-.075.166c-.275.178-.615.513-.961.513h-.008c-.413 0-.802-.488-1.077-.711l-21.755-17.991c.044-.036.096-.298.151-.298h45.242c.079 0 .156.297.195.355z"/></g></svg>