<svg enable-background="new 0 0 32 32" height="32" viewBox="0 0 32 32" width="32" xmlns="http://www.w3.org/2000/svg"><g fill="#fff"><path d="m2.293.354c.469 0 .938.136 1.271.401.402-.265.803-.401 1.272-.401 1.27 0 2.276 1.065 2.276 2.402 0 1.405-2.344 3.746-3.078 4.479-.136.136-.265.204-.469.204-.197 0-.333-.068-.469-.204-.735-.665-3.079-3.006-3.079-4.478 0-1.338 1.006-2.403 2.276-2.403z"/><path d="m4.231 16.792c-.197 0-.333-.068-.469-.204-.734-.665-3.072-3.069-3.072-4.473 0-1.337 1-2.41 2.27-2.41.469 0 .938.136 1.272.407.407-.271.802-.407 1.271-.407 1.27 0 2.276 1.073 2.276 2.41 0 1.404-2.338 3.74-3.078 4.473-.13.136-.266.204-.47.204z"/><path d="m31.934 12.849c-.062-.136-.197-.265-.333-.401l-5.688-2.539c.134 0 .27.068.406.068.333 0 .667-.068 1-.203.741-.265 1.271-.8 1.605-1.465.673-1.406 0-3.143-1.401-3.746-.802-.333-2.48-.265-3.615-.129-.734.129-1.605.333-2.276.598-.197-.733-.605-1.467-1.006-2.139-.667-1.005-1.673-2.273-2.475-2.606-.665-.333-1.467-.332-2.208-.068-.736.271-1.273.801-1.606 1.471-.333.666-.333 1.473-.068 2.206.204.469.469.801.802 1.133l-5.687-2.539c-.13-.068-.334-.07-.531-.002-.136.068-.272.2-.401.329l-2.08 4.608c-.13.333 0 .719.34.849l19.403 8.726h-20.009c-.399 0-1.106.326-1.106.727v13.696c0 .401.707.577 1.106.577h21.879c.408 0 .015-.176.015-.577v-13.295l.662.135c.068.062.533.062.601.062.265 0 .468-.129.599-.401l2.079-4.608c.061-.134.061-.332-.007-.467zm-15.591-8.62c-.401-.135-.667-.468-.802-.869-.197-.333-.197-.733 0-1.134.136-.401.469-.672.87-.801.204-.068.333-.068.537-.068.197 0 .401.068.605.136.93.401 2.943 3.474 2.875 4.276-.401.062-1.605-.339-3.48-1.268-.272-.136-.469-.204-.605-.272zm3.282 8.355-2.474-1.14 1.535-3.339 1.673.74.802.394zm-.136-5.552c.265.068.537.136.802.136.137-.068.272-.068.334-.068.204.271.469.536.809.801zm5.554 1.14c-1.938-.801-3.074-1.405-3.276-1.806.603-.536 4.214-1.066 5.151-.665.734.333 1.068 1.27.734 2.003-.13.401-.469.672-.87.801-.395.136-.801.136-1.134-.068-.136-.067-.401-.135-.605-.265zm-7.043 22.828h-2v-12h2z"/></g></svg>