<svg enable-background="new 0 0 32 26" height="26" viewBox="0 0 32 26" width="32" xmlns="http://www.w3.org/2000/svg"><path d="m20.049 1.416c-.466.452-11.238 11.13-11.923 11.794-.594-.571-3.352-3.227-3.728-3.589-2.38-2.464-.49-6.674 2.991-6.674.943 0 2.269.366 3.032 1.377l-1.567 1.634c-.689-.621-1.123-.766-1.465-.766-1.397 0-2.192 1.606-1.334 2.673l2.549 2.454c.193-.195 5.099-5.164 5.506-5.577-1.071-3.049-3.879-4.836-7.153-4.678-6.597.318-9.383 8.41-4.438 12.444 5.186 5.005.181.175 5.681 5.483 11.562-11.163 7.72-7.722 13.354-12.946 2.324-2.864 7.059-1.258 7.059 2.414 0 .917-.325 1.758-.866 2.422-1.126 1.09-9.905 9.819-11.389 11.256l-1.56-1.502s11.357-11.321 11.357-11.322c1.096-1.847-1.592-3.544-2.883-1.886-.261.249-13.278 12.868-13.5 13.08.333.322 6.377 6.154 6.69 6.456.057-.056 13.86-13.843 13.86-13.843 1.051-1.274 1.68-2.895 1.68-4.662.002-6.086-7.013-9.496-11.953-6.042z" fill="#fff"/></svg>