<svg enable-background="new 0 0 30 32" height="32" viewBox="0 0 30 32" width="30" xmlns="http://www.w3.org/2000/svg"><g fill="#fff"><path d="m29.704 31.242c-.899-2.784-2.554-5.204-4.804-7.077.008-.008.017-.016.025-.025 2.639-2.638 4.092-6.147 4.092-9.878s-1.453-7.24-4.092-9.878c-2.638-2.638-6.146-4.092-9.878-4.092s-7.239 1.452-9.878 4.091c-2.638 2.639-4.092 6.145-4.092 9.877 0 3.731 1.453 7.237 4.092 9.875.009.008.017.01.026.019-2.25 1.873-3.905 4.304-4.804 7.089-.062.193-.029.38.091.544.119.163.309.213.512.213h28.107c.203 0 .393-.05.512-.214.119-.163.153-.351.091-.544zm-14.657-10.855c-3.377 0-6.124-2.747-6.124-6.124s2.747-6.124 6.124-6.124 6.124 2.747 6.124 6.124-2.747 6.124-6.124 6.124z"/><path d="m15.047 10.734c-1.946 0-3.53 1.583-3.53 3.53s1.583 3.53 3.53 3.53c1.946 0 3.529-1.583 3.529-3.53s-1.583-3.53-3.529-3.53zm0 5.792c-1.248 0-2.262-1.015-2.262-2.262 0-1.248 1.015-2.263 2.262-2.263 1.248 0 2.263 1.015 2.263 2.263 0 1.247-1.015 2.262-2.263 2.262z"/></g></svg>