<svg height="30" viewBox="0 0 17.891 30" width="17.891" xmlns="http://www.w3.org/2000/svg"><g fill-rule="evenodd"><path d="m8.945 30a8.945 8.945 0 1 1 8.945-8.945 8.945 8.945 0 0 1 -8.945 8.945z" fill="#c43647"/><path d="m8.945 17.89a8.945 8.945 0 1 1 8.945-8.945 8.945 8.945 0 0 1 -8.945 8.945z" fill="#fcb912"/><path d="m15.525 15v3.489h-.507v-4c.105.1.452.438.507.507z" fill="#c43647"/><path d="m14.475 14.037v4.457h-.507v-4.836a4.226 4.226 0 0 1 .507.379z" fill="#c43647"/><path d="m13.42 13.324v5.169h-.507v-5.452a3.811 3.811 0 0 1 .507.283z" fill="#c43647"/><path d="m12.365 12.8v5.694h-.507v-5.882a3.2 3.2 0 0 1 .507.187z" fill="#c43647"/><path d="m11.311 12.434v6.059h-.511v-6.182a4.25 4.25 0 0 1 .507.123z" fill="#c43647"/><path d="m10.799 12.306.507.123v1.32l-.507.644z" fill="#c43647"/><path d="m11.292 12.429-.036 1.11-.457.575v-1.803l.256.059z" fill="#c93c4b"/><path d="m11.279 12.425-.078.899-.397.507-.005-1.516.251.055z" fill="#cd4250"/><path d="m11.26 12.42-.118.694-.343.439v-1.238l.238.05z" fill="#d14554"/><path d="m11.247 12.411-.156.484-.292.374v-.954l.233.046z" fill="#d54c58"/><path d="m10.799 12.315.219.037.21.05-.196.278-.233.306z" fill="#db535f"/><path d="m10.256 12.215v6.279h-.507v-6.339a4.361 4.361 0 0 1 .507.059z" fill="#c43647"/><path d="m9.749 12.151.507.059v2.886l-.507.635z" fill="#c43647"/><path d="m10.26 14.808-.506.63v-3.137l.506-.086z" fill="#c93c4b"/><path d="m10.26 14.516-.502.63-.004-2.698.506-.233z" fill="#cd4250"/><path d="m10.26 14.224-.502.63-.004-2.26.506-.379z" fill="#d14554"/><path d="m10.26 13.932-.502.63-.004-1.822.506-.525z" fill="#d54c58"/><path d="m9.749 12.886.502-.671.005 1.42-.507.634z" fill="#db535f"/><path d="m9.2 12.128v6.372h-.507v-6.37a2.6 2.6 0 0 1 .507 0z" fill="#c43647"/><path d="m8.703 13.023.507-.639v4.054l-.507.626z" fill="#c43647"/><path d="m9.206 16.146-.503.626-.004-3.516.507-.64z" fill="#c93c4b"/><path d="m9.201 15.859-.502.63v-2.996l.502-.635z" fill="#cd4250"/><path d="m9.201 15.566-.502.635v-2.475l.502-.635z" fill="#d14554"/><path d="m9.201 15.279-.502.634v-1.949l.502-.635z" fill="#d54c58"/><path d="m8.699 14.201.497-.63.005 1.42-.502.644z" fill="#db535f"/><path d="m8.151 12.151v6.342h-.507v-6.293a3.165 3.165 0 0 1 .507-.046z" fill="#c43647"/><path d="m7.648 14.361.507-.64v4.055l-.507-.05z" fill="#c43647"/><path d="m7.648 14.598.507-.639v3.525l-.507.091z" fill="#c93c4b"/><path d="m7.648 14.836.507-.64v3l-.507.229z" fill="#cd4250"/><path d="m7.648 15.069.507-.64v2.471l-.507.369z" fill="#d14554"/><path d="m7.648 15.306.507-.639v1.94l-.507.512z" fill="#d54c58"/><path d="m7.648 15.543.507-.639v1.416l-.507.648z" fill="#db535f"/><path d="m7.1 12.306v5.457l-.507-.16v-5.174a4.673 4.673 0 0 1 .507-.123z" fill="#c43647"/><path d="m6.585 15.722.506-.64v1.882l-.506-.046z" fill="#c43647"/><path d="m6.585 15.941.506-.64v1.804l-.506-.046z" fill="#c93c4b"/><path d="m6.585 16.164.506-.639v1.731l-.506-.051z" fill="#cd4250"/><path d="m6.585 16.384.506-.64v1.653l-.506-.045z" fill="#d14554"/><path d="m6.585 16.607.506-.639v1.575l-.506-.045z" fill="#d54c58"/><path d="m6.585 16.831.506-.639v1.502l-.506-.05z" fill="#db535f"/><path d="m6.041 12.594v4.9l-.507-.237v-4.476c.242-.1.507-.187.507-.187z" fill="#c43647"/><path d="m4.991 13.041v4.087l-.507-.014v-3.808s.352-.2.507-.265z" fill="#c43647"/><path d="m3.936 13.639v4.854h-.507v-4.475s.388-.292.507-.379z" fill="#c43647"/><path d="m2.881 14.479v4.014h-.507v-3.493a5.77 5.77 0 0 1 .507-.521z" fill="#c43647"/><path d="m10.603 25.137v.808l-3.466-.739v.013l3.466 1.512v.849l-3.466.018v.014l3.466.735v.813l-4.151-.886v-1.265l3.274-.055v-.013l-3.274-1.434v-1.251z" fill="#fff"/><path d="m8.137 19.046a5.069 5.069 0 0 0 -.068 1.087c.046.438.16.534.292.562.489.1.137-1.9 1.269-1.653a1.472 1.472 0 0 1 1.055 1.566 3.622 3.622 0 0 1 -.151 1.292l-.6-.119a5.376 5.376 0 0 0 .155-1.237c-.014-.416-.219-.644-.333-.671-.516-.11-.128 1.881-1.279 1.639a1.361 1.361 0 0 1 -1.025-1.462 4.641 4.641 0 0 1 .148-1.114l.539.11z" fill="#fff"/><path d="m8.11 18.589-1.406-.3v-.808l.831.173v-.5l.575.123v.5l1.667.356c.183.037.251.046.251-.283a1.147 1.147 0 0 0 -.014-.169l.543.114c0 .128.082.274.082.4v.1c0 .7-.265.767-.667.68z" fill="#fff"/><path d="m9.27 16.639c.228.023.836.068.836-.58a2.406 2.406 0 0 0 -.352-1.411l.575.128a2.369 2.369 0 0 1 .352 1.438c0 .863-.416 1.443-1.676 1.174a1.855 1.855 0 0 1 -1.557-1.8c0-.607.292-1.384 1.694-1.082l.142.027v2.155l-.521-.132v-1.3c-.5-.059-.648.228-.648.489a.8.8 0 0 0 .648.767l.507.133z" fill="#fff"/><path d="m7.53 14v-.772l.53.114v-.014a1.173 1.173 0 0 1 -.607-.973c0-.055.023-.174.027-.224l.8.3a1.05 1.05 0 0 0 -.009.174.839.839 0 0 0 .729.895l1.6.338v.808z" fill="#fff"/><path d="m7.256 9.114a1.521 1.521 0 0 0 -.156 1.009c.064.411.274 1.087 1.448 1.338.6.128 1.315.059 1.452-.607.037-.192.11-1.032-.224-1.347l.753.219c.032.1.242.183.187 1.183-.064 1.105-.749 1.74-2.183 1.434a2.466 2.466 0 0 1 -2.186-2.375 1.422 1.422 0 0 1 .388-1z" fill="#fff"/><path d="m10.6 1.826v.79l-.383-.082v.009a1.232 1.232 0 0 1 .461.991c0 .913-.8 1.123-1.648.945a1.768 1.768 0 0 1 -1.582-1.616.759.759 0 0 1 .479-.785v-.014l-1.475-.31v-.809l4.151.881z" fill="#fff"/><path d="m10.018 3.2a.981.981 0 0 0 -.881-.9c-.493-.105-.991-.068-.991.484 0 .511.457.781.945.886.361.078.927.05.927-.466z" fill="#fcb912"/><path d="m9.95 6.7s.329.078.493.1l.16.041v.717a1.394 1.394 0 0 1 -.365 0 1.557 1.557 0 0 1 .443 1.087.681.681 0 0 1 -.89.744 1.218 1.218 0 0 1 -.982-1.105l-.109-.75a.354.354 0 0 0 -.243-.334c-.342-.069-.406.251-.411.457a3.23 3.23 0 0 0 .2 1.237l-.6-.183a2.766 2.766 0 0 1 -.2-1.288c.014-.434.132-1.2.877-1.05z" fill="#fff"/><path d="m9.105 7.338a1.449 1.449 0 0 1 .164.584c.055.31.128.575.466.644a.277.277 0 0 0 .37-.3.866.866 0 0 0 -.605-.846l-.393-.082z" fill="#fcb912"/><path d="m7.53 5.954v-.771l.53.114v-.014a1.173 1.173 0 0 1 -.607-.973c0-.055.023-.174.027-.224l.8.3a1.049 1.049 0 0 0 -.009.174.839.839 0 0 0 .731.9l1.6.338v.808z" fill="#fff"/><path d="m9.95 22.082s.329.078.493.1l.16.041v.717a1.4 1.4 0 0 1 -.365 0 1.556 1.556 0 0 1 .443 1.087.681.681 0 0 1 -.89.744 1.218 1.218 0 0 1 -.982-1.105l-.11-.749a.354.354 0 0 0 -.242-.338c-.342-.068-.406.251-.411.457a3.229 3.229 0 0 0 .2 1.237l-.6-.183a2.765 2.765 0 0 1 -.2-1.288c.014-.434.132-1.2.877-1.05l1.626.333z" fill="#fff"/><path d="m9.105 22.717a1.449 1.449 0 0 1 .164.584c.055.31.128.575.466.644a.277.277 0 0 0 .37-.3.866.866 0 0 0 -.605-.845l-.393-.082z" fill="#c43647"/></g><path d="m10.607 1.037a.311.311 0 0 0 -.307-.311.311.311 0 1 0 0 .621.311.311 0 0 0 .311-.31m-.142.11h-.329m0 0s-.04-.229.075-.238c.16 0 .128.224.128.224m-.019-.156.133-.087" fill="none" stroke="#f1f1f2" stroke-miterlimit="2.613" stroke-width=".935"/></svg>