<svg height="17" viewBox="0 0 21 17" width="21" xmlns="http://www.w3.org/2000/svg"><path d="m12.1 13.8c-4.8 0-8.7-.9-8.7-1.9v2.2c0 1 3.9 1.9 8.7 1.9s8.7-.9 8.7-1.9v-2.2c0 .9-3.9 1.9-8.7 1.9" fill="#fff" stroke="#ed1e79" stroke-miterlimit="10" stroke-width=".25"/><path d="m21 12c0 1-4 1.9-8.9 1.9s-8.9-.9-8.9-1.9 4-1.6 8.9-1.6c4.9-.1 8.9.6 8.9 1.6" fill="#eb008b"/><path d="m8.9 10.6c-4.8 0-8.7-.9-8.7-1.9v2.2c0 1 3.9 1.9 8.7 1.9s8.7-.9 8.7-1.9v-2.3c0 1-3.9 2-8.7 2" fill="#fff" stroke="#ed1e79" stroke-miterlimit="10" stroke-width=".25"/><path d="m17.8 8.7c0 1-4 1.9-8.9 1.9s-8.9-.9-8.9-1.9 4-1.6 8.9-1.6 8.9.7 8.9 1.6" fill="#eb008b"/><path d="m11.9 7.1c-4.8 0-8.7-.9-8.7-1.9v2.2c0 1 3.9 1.9 8.7 1.9s8.7-.9 8.7-1.9v-2.3c0 1-3.9 2-8.7 2" fill="#fff" stroke="#ed1e79" stroke-miterlimit="10" stroke-width=".25"/><path d="m20.8 5.2c0 1-4 1.9-8.9 1.9s-8.8-.9-8.8-1.9 4-1.6 8.9-1.6c4.8 0 8.8.7 8.8 1.6" fill="#eb008b"/><path d="m10.2 3.4c-4.8 0-8.7-.9-8.7-1.9v2.2c0 1 3.9 1.9 8.7 1.9s8.7-.9 8.7-1.9v-2.2c0 1-3.9 1.9-8.7 1.9" fill="#fff" stroke="#ed1e79" stroke-miterlimit="10" stroke-width=".25"/><path d="m19.1 1.6c0 1-4 1.9-8.9 1.9s-8.9-.9-8.9-1.9 4-1.6 8.9-1.6 8.9.7 8.9 1.6" fill="#eb008b"/></svg>