<svg xmlns="http://www.w3.org/2000/svg" viewBox="0 0 54 58.186"><path data-name="Path 379" d="M53.984 7.158l-4.441 42.486a2.939 2.939 0 0 1-2.75 2.626l-.544-11.856 1.283.134 3.522-33.7-37.361-3.901-.493 4.725-2.976.136.54-5.168A2.946 2.946 0 0 1 14.001.016l37.359 3.9a2.947 2.947 0 0 1 2.624 3.242zm-10.572 3.551l1.958 42.673a2.945 2.945 0 0 1-2.808 3.078L5.04 58.182a2.945 2.945 0 0 1-3.078-2.808L.003 12.7a2.945 2.945 0 0 1 2.808-3.078L40.333 7.9a2.945 2.945 0 0 1 3.079 2.809zM4.499 46.41l37.522-1.722-1.552-33.844-37.523 1.722zM40.084 34.6a4.418 4.418 0 0 0-1.175-2.8l-2.638-2.844a2.212 2.212 0 0 0-3.208.147l-4.77 5.525-10.374-12.773a2.2 2.2 0 0 0-3.449.026L6.365 32.56a4.418 4.418 0 0 0-.894 2.874l.433 9.437 34.58-1.586zm-6.065-11.663a4.051 4.051 0 1 0-4.232-3.861 4.049 4.049 0 0 0 4.232 3.861z" fill="#d2d2d2"/></svg>