<svg xmlns="http://www.w3.org/2000/svg" viewBox="0 0 12 12.677"><defs/><path fill="#707070" class="a" d="M7.792 6.563a.838.838 0 0 0 .615-.579l.311-.916.125.043a.11.11 0 0 0 .14-.069l.167-.491a.11.11 0 0 0-.069-.14L5.043 3.038a.111.111 0 0 0-.14.069l-.167.491a.111.111 0 0 0 .069.14l.125.043-.317.933a.675.675 0 0 0 .137.814l.817.978-.091.268c-.313.068-1.13.246-1.24.278a.838.838 0 0 0-.615.579l-.268.789-.125-.043a.111.111 0 0 0-.14.069l-.167.491a.11.11 0 0 0 .069.14l4.038 1.373a.111.111 0 0 0 .14-.069l.167-.491a.11.11 0 0 0-.069-.14l-.125-.043.274-.805a.675.675 0 0 0-.137-.814l-.817-.979.091-.268c.313-.065 1.13-.246 1.24-.278zm-1.707.714l.889 1.064a.514.514 0 0 1 .114.167.568.568 0 0 1-.048.265l-.274.805-3.037-1.033.268-.789a.449.449 0 0 1 .35-.326c.088-.025.839-.19 1.323-.295a.2.2 0 0 0 .146-.13l.163-.479a.2.2 0 0 0-.036-.191l-.886-1.061a.513.513 0 0 1-.114-.167.568.568 0 0 1 .048-.265l.317-.933 3.037 1.033-.312.916a.449.449 0 0 1-.35.326c-.088.025-.839.19-1.323.295a.2.2 0 0 0-.146.13l-.163.479a.2.2 0 0 0 .034.188z"/><path class="a" d="M8.484 11.058c-.089.05-.18.1-.271.143l-.043.024-.044.018a4.975 4.975 0 0 1-1.237.391h-.016c-.1.018-.2.033-.3.044a5.138 5.138 0 0 1-.564.031 5.044 5.044 0 0 1-4.748-3.36L1.23 8.26a5.038 5.038 0 0 1 0-3.174l.011-.033.031-.087.015-.041a5.056 5.056 0 0 1 3.512-3.139l.072-.017h.008a5.033 5.033 0 0 1 1.1-.127v.518c0 .161.1.207.225.1l1.094-.927a.235.235 0 0 0 0-.374L6.186.053c-.124-.1-.225-.054-.224.107v.517a5.96 5.96 0 0 0-4.209 1.757q-.166.166-.318.343l-.011.013A5.95 5.95 0 0 0 .004 6.5V6.925a5.947 5.947 0 0 0 1.243 3.416l.007.01c.074.1.153.191.233.282l.016.017q.122.137.252.269a5.956 5.956 0 0 0 3.23 1.673h.019a6.078 6.078 0 0 0 .993.082 5.95 5.95 0 0 0 2.532-.559.477.477 0 0 0 .049-.027.465.465 0 0 0 .053-.022c.109-.053.218-.111.324-.17a.483.483 0 1 0-.475-.84zM10.185 3.867a.482.482 0 1 0 .8-.538c-.068-.1-.14-.2-.213-.3a.482.482 0 1 0-.766.586c.06.084.12.167.179.252zM10.795 5.134c.031.1.06.2.085.3a.483.483 0 0 0 .935-.238 6.736 6.736 0 0 0-.1-.351.482.482 0 1 0-.919.294zM10.488 9.924a.483.483 0 0 0-.681.049 5.565 5.565 0 0 1-.208.226.483.483 0 1 0 .69.674 5.7 5.7 0 0 0 .247-.269.483.483 0 0 0-.048-.68zM11.532 6.363a.482.482 0 0 0-.5.468c0 .1-.009.205-.019.307a.483.483 0 0 0 .436.525h.045a.483.483 0 0 0 .48-.438c.011-.121.019-.244.022-.366a.483.483 0 0 0-.464-.496zM11.317 8.234a.482.482 0 0 0-.625.273 5.01 5.01 0 0 1-.121.283.483.483 0 1 0 .876.406c.051-.11.1-.223.144-.336a.483.483 0 0 0-.274-.626zM9.675 2.53a.482.482 0 0 0-.1-.675c-.1-.072-.2-.142-.3-.209a.482.482 0 0 0-.526.809c.086.056.17.115.252.175a.482.482 0 0 0 .675-.1z"/></svg>