<svg enable-background="new 0 0 25 25" height="25" viewBox="0 0 25 25" width="25" xmlns="http://www.w3.org/2000/svg"><ellipse cx="12.5" cy="12.5" fill="#f8dc4a" rx="12.5" ry="12.5" transform="matrix(1 -.00152198 .00152198 1 -.01901 .019039)"/><g fill="#fff" opacity=".28"><path d="m21.1 3.4-18.3 17c.3.3.5.6.8.9l18.4-17c-.3-.3-.6-.6-.9-.9z"/><path d="m24.3 8.3c-.4-1-.8-1.9-1.4-2.8l-18.1 16.8c.8.6 1.7 1.2 2.6 1.6z"/><path d="m.7 16.5c.4 1.1.9 2 1.5 2.9l18.1-16.7c-.9-.7-1.8-1.3-2.8-1.7z"/></g><path d="m12.8 24.2c-.2 0-.2-.4 0-.4h.4c.2 0 .3.3 0 .4-.1 0-.2 0-.4 0zm-1 0c-.1 0-.3 0-.4 0-.2 0-.2-.4 0-.4h.4c.2 0 .2.4 0 .4zm2.5-.2c-.2 0-.2-.3 0-.4.1 0 .2 0 .3-.1.2 0 .3.3.1.4s-.3.1-.4.1zm-4 0c-.1 0-.3 0-.4-.1-.2 0-.2-.4.1-.4.1 0 .2 0 .3.1.2.1.2.4 0 .4zm5.4-.3c-.2-.1-.2-.3-.1-.4.1 0 .2-.1.3-.1.2-.1.3.3.1.3 0 .1-.2.2-.3.2zm-6.8-.1c-.1 0-.3-.1-.4-.1-.2-.1-.1-.4.1-.3.1 0 .2.1.3.1s.2.2.1.3c0 0 0 0-.1 0zm8.1-.4c-.2 0-.2-.3-.1-.3s.2-.1.3-.1c.2-.1.4.2.2.3-.1 0-.2.1-.4.1zm-9.4-.1c-.1 0-.3-.1-.4-.2-.2-.1 0-.4.2-.3.1.1.2.1.3.2.1 0 .1.3-.1.3zm10.7-.5c-.2 0-.2-.3-.1-.3.1-.1.2-.1.3-.2.2-.1.4.2.2.3-.1 0-.2.2-.4.2zm-12-.2c-.1 0-.3-.2-.4-.2-.2-.1 0-.4.2-.3.1.1.2.1.3.2.2 0 .1.3-.1.3zm13.2-.6c-.1 0-.2-.1-.2-.2s.2-.2.3-.3c.2-.1.4.1.2.3 0 0-.2.2-.3.2zm-14.3-.2c-.1 0-.3-.2-.4-.3-.2-.2 0-.4.2-.3.1.1.2.2.3.2.1.1 0 .3-.1.4zm15.4-.8s-.1 0-.1-.1c-.2-.2.1-.4.2-.5.2-.2.4.1.3.2-.1.2-.3.4-.4.4zm-16.5-.2c-.2 0-.3-.2-.4-.3-.1-.2.2-.5.3-.3.1.1.2.2.2.3.1.1.1.3-.1.3zm17.4-.9c-.1 0-.2-.1-.2-.2s.2-.3.2-.4c.1-.2.4 0 .3.2-.1.1-.1.2-.2.3 0 .1 0 .1-.1.1zm-18.3-.2c-.1 0-.1 0-.1-.1-.1-.1-.1-.2-.2-.3-.1-.2.2-.4.3-.2.1.1.1.2.2.3 0 .1-.1.3-.2.3zm19.1-1c-.4 0 0-.5 0-.6.1-.2.4 0 .3.2 0 .2-.1.4-.3.4zm-19.9-.2c-.1 0-.1 0-.2-.1s-.1-.2-.2-.3c-.1-.2.2-.4.3-.2.1.1.1.2.2.3s.1.3-.1.3zm20.6-1c-.1 0-.1 0-.2-.1-.1-.2.1-.3.1-.5.1-.2.4-.1.3.1 0 .2 0 .5-.2.5zm-21.2-.4c-.1 0-.1 0-.2-.1 0-.1-.1-.2-.1-.3-.1-.2.3-.3.3-.1 0 .1.1.2.1.3.1.1 0 .2-.1.2zm21.7-1c-.3 0-.1-.4-.1-.6.1-.2.4-.1.3.1 0 .2 0 .5-.2.5zm-22.1-.3c-.1 0-.1 0-.2-.1 0-.1-.1-.2-.1-.4s.3-.3.4-.1c0 .1.1.2.1.3 0 .2-.1.3-.2.3zm22.4-1.1c-.3 0-.1-.4-.1-.6s.4-.2.4 0c-.1.3-.1.6-.3.6zm-22.7-.3c-.1 0-.2 0-.2-.2 0-.1 0-.2 0-.4s.3-.3.4 0v.4c0 .1-.1.2-.2.2zm22.8-1.1c-.2 0-.2-.2-.2-.3s0-.3.1-.4.2-.1.2 0c.2.1.1.4.1.6 0 0-.1.1-.2.1zm-22.9-.4c-.3 0-.2-.4-.2-.5 0-.2.4-.2.4 0v.3c0 .1-.1.2-.2.2zm22.9-1.1c-.2 0-.2-.3-.2-.5s.3-.3.4 0v.4s-.1.1-.2.1zm-22.8-.3c-.3 0-.2-.4-.1-.6 0-.1.1-.2.2-.2s.2.1.2.2v.4c-.1.1-.2.2-.3.2zm22.5-1.1c-.2 0-.2-.3-.3-.5s.3-.3.3-.1c0 .1.1.2.1.4.2.1 0 .2-.1.2zm-22.2-.3c-.1 0-.1 0 0 0-.1 0-.2-.1-.2-.2s.1-.2.1-.4c.1-.2.4-.1.3.1 0 .1-.1.2-.1.3s-.1.2-.1.2zm21.8-1.1c-.2 0-.2-.3-.3-.4-.1-.2.2-.3.3-.1 0 .1.1.2.1.3.2.1.1.2-.1.2zm-21.4-.3c-.1 0-.2-.1-.2-.2s.1-.2.1-.3c.1-.2.4-.1.3.1.1.1 0 .2 0 .3-.1.1-.1.1-.2.1zm20.9-1c-.2 0-.3-.3-.3-.4-.1-.2.2-.4.3-.2.1.1.1.2.2.3 0 .1-.1.3-.2.3zm-20.3-.3c-.1 0-.2-.1-.2-.3.1-.1.1-.2.2-.3.1-.2.4 0 .3.2 0 .1-.1.2-.1.3-.1.1-.1.1-.2.1zm19.5-1c-.2 0-.3-.3-.4-.4-.1-.2.2-.4.3-.2s.2.3.3.4 0 .2-.2.2zm-18.7-.2c-.1 0-.3-.2-.2-.3s.1-.2.2-.3c.1-.2.4 0 .3.2 0 .1-.1.2-.2.3 0 .1-.1.1-.1.1zm17.8-.9c-.2 0-.3-.2-.4-.3-.2-.2.1-.4.3-.2.1.1.2.2.2.3.2 0 .1.1-.1.2.1 0 .1 0 0 0zm-16.9-.2c-.1 0-.2-.1-.2-.2s.2-.3.3-.4c.2-.2.4.1.3.3-.1.1-.2.1-.3.2 0 .1-.1.1-.1.1zm15.9-.8h-.1c-.1-.1-.2-.2-.3-.2-.2-.1 0-.4.2-.3.2 0 .2.1.3.2.2.1.1.3-.1.3zm-14.9-.2c-.1 0-.2-.2-.1-.3s.2-.2.3-.2c.2-.1.4.1.2.3-.1 0-.2.2-.4.2zm13.8-.7c-.1 0-.3-.2-.4-.2-.2-.1 0-.4.2-.3.1.1.2.1.3.2s0 .3-.1.3zm-12.6-.2c-.2 0-.2-.2-.1-.3s.2-.1.3-.2c.2-.1.4.2.2.3-.1.1-.2.2-.4.2zm11.3-.5c-.1 0-.3-.1-.4-.2-.2-.1 0-.4.2-.3.1.1.2.1.3.2.2 0 .1.3-.1.3zm-10-.2c-.1 0-.1 0 0 0-.2 0-.3-.2-.1-.3.1 0 .2-.1.3-.1.2-.1.4.2.2.3-.2 0-.3.2-.4.1zm8.7-.4c-.1 0-.3-.1-.4-.1-.2-.1-.1-.4.1-.3.1 0 .2.1.3.1.3 0 .2.3 0 .3zm-7.4-.1c-.2 0-.2-.3-.1-.3s.2-.1.3-.1c.2-.1.3.3.1.3 0 0-.2.1-.3.1zm6-.3c-.1 0-.3-.1-.4-.1-.2 0-.2-.4.1-.4.1 0 .2 0 .4.1s.1.4-.1.4zm-4.6 0c-.2 0-.3-.3 0-.4.1 0 .2 0 .4-.1.2 0 .3.3.1.4-.2 0-.4.1-.5.1zm3.2-.2c-.1 0-.3 0-.4 0-.2 0-.2-.4 0-.4h.4c.2.1.2.4 0 .4zm-1.8 0c-.2 0-.2-.3 0-.4h.4c.2 0 .2.4 0 .4-.1 0-.3 0-.4 0z" fill="#f2c341"/><circle cx="12.5" cy="12.5" fill="#c99204" r="10.5"/><circle cx="12.5" cy="12.5" fill="#dea004" r="10"/><g fill="#fff" opacity=".16"><path d="m2.7 14.6c.3 1.2.7 2.2 1.3 3.2l14.4-13.4c-.9-.7-1.9-1.2-3-1.5z"/><path d="m19.3 5.1-14.6 13.6c.3.3.5.6.8.9l14.7-13.6c-.3-.3-.6-.6-.9-.9z"/><path d="m22.2 10.1c-.2-1-.7-2-1.2-2.9l-14.4 13.4c.8.6 1.8 1.1 2.8 1.4z"/></g><g fill="#c99204"><path d="m9.4 11.4c-.6-1.2-.9-2.1-.9-2.9s.3-1.6.9-2.2c0 0 .1-.1.1-.1 0 .1-.2.2-.3.3-.6.6-.9 1.4-.9 2.2s.3 1.7.8 2.9c.1-.1.2-.1.3-.2z"/><path d="m15.3 19c-.6-.3-1.1-.7-1.6-1.1 0 0-.7.5-.8.6-.3.2-.6.3-.9.5-1.6.7-3.5.6-4.8-.7-1.4-1.4-1.5-3.7-.2-5.2.1-.2.3-.3.5-.5-.7.6-1.3 1.3-1.5 2.1-.4 1.3 0 2.8 1 3.7 1.6 1.6 4.1 1.3 5.8.1.2-.1.4-.3.6-.5.4.4.8.7 1.3 1s1 .5 1.5.5c.6 0 1.2-.2 1.6-.6-.8.7-1.7.5-2.5.1z"/><path d="m12.5 6.8c.3.4.5.8.5 1.4s-.2 1.1-.5 1.5c-.1.1-.2.2-.3.3.2-.2.4-.4.6-.5.3-.4.5-.9.5-1.5s-.1-1-.4-1.3-.7-.5-1.1-.5-.8.2-1.1.4c.2-.2.5-.2.8-.2.3-.1.7.1 1 .4z"/><path d="m17.8 17.7c.1 0 .2-.1.3-.2.2-.3.4-.7.5-1.3h-.2c-.2.7-.4 1.2-.6 1.5z"/><path d="m9.5 12.3c.8 1.4 1.5 2.5 1.9 3.2.5.7 1 1.4 1.6 2.1.1-.1.2-.1.3-.2-.6-.7-1.1-1.4-1.6-2.1s-1.1-1.7-1.9-3.2c-.4.2-.7.4-.9.6.1-.1.3-.2.6-.4z"/><path d="m11.4 11.5c.7-.4 1.3-.7 1.7-1.1-.5.3-1.1.7-1.7 1.1-.1-.1-.1 0 0 0z"/><path d="m18.6 12.2c-.3 0-.6 0-.8.1s-.3.2-.5.3c.1 0 .1-.1.2-.1.2-.1.5-.1.8-.1h.4v-.2z"/><path d="m15.3 12.7c.2.2.4.5.4.8 0 .7-.4 1.5-1.2 2.6 0 0 0 0 .1.1.9-1.2 1.4-2.1 1.4-2.8 0-.3-.1-.6-.4-.8-.2-.2-.6-.3-1.1-.3h-.5v-.4h-.3v.6h.5c.5-.1.8 0 1.1.2z"/></g><path d="m18.5 15.9c-.1.5-.2 1.1-.5 1.5-.9 1.1-2.4-.1-3.1-.8.6-.7 1.1-1.7 1.6-2.7.2-.4.4-.9.8-1.3s1-.4 1.6-.4v-.6h-5v.6c.6 0 1.4 0 1.8.6.3.5 0 1.2-.2 1.7-.3.5-.6 1.2-1.1 1.6-.6-.6-1.1-1.4-1.6-2.1-.1-.2-1.6-2.5-1.6-2.5.9-.4 1.9-.9 2.5-1.7.9-1.1 1-2.9-.3-3.8-.5-.4-1.2-.6-1.9-.5-1.3.1-2.6.9-3 2.2-.2.6-.1 1.3 0 2 0 .2.7 1.9.7 1.8-1 .3-1.9 1.1-2.5 1.9-.9 1.5-.7 3.6.6 4.9 1.2 1.2 3.1 1.4 4.6.8.5-.2 1.2-.6 1.9-1.1.8.7 1.7 1.5 2.8 1.5.7 0 1.5-.4 1.9-1 .5-.7.6-1.6.6-2.5-.2-.1-.4-.1-.6-.1zm-6.3-5.9c-.3.2-.7.5-1.2.7-.6-1.1-.9-2.1-.9-2.9 0-.5.2-.9.5-1.3.3-.3.7-.4 1.1-.4.5 0 .8.2 1.1.5.3.4.4.8.4 1.4s-.2 1.1-.5 1.5c-.1.2-.3.4-.5.5zm.8 7.6c-.7.5-1.4.7-2 .7-.9 0-1.6-.4-2.2-1.2s-.9-1.6-.9-2.4c0-.7.3-1.3 1-1.9.3-.2.6-.4.9-.6.8 1.4 1.5 2.5 1.9 3.2.5.7 1 1.4 1.6 2.1-.2-.1-.3 0-.3.1z" fill="#f8dc4a"/></svg>