<svg xmlns="http://www.w3.org/2000/svg" width="76.706" height="84" viewBox="0 0 76.706 84"><path d="M71.756,38.352a33.207,33.207,0,0,0-6.576-19.84L76.706,6.986,69.72,0,58.194,11.525A33.365,33.365,0,0,0,11.518,58.2L0,69.718,6.986,76.7,18.508,65.183c.269.2.532.406.807.6A113.824,113.824,0,0,0,9.537,76.847c-4.589,5.987-1.455,9.288,4.42,5.539,16.9-10.91,32-10.91,48.9,0,5.82,3.8,8.952.448,4.365-5.539-2.9-3.673-5.637-6.79-8.251-9.5L59,67.335c-.469-.482-.922-.9-1.386-1.352-.07-.069-.141-.143-.21-.211A33.348,33.348,0,0,0,71.756,38.352Zm-52.428,0A19,19,0,0,1,47.84,21.88l-5.276,5.276A11.948,11.948,0,0,0,27.155,42.564L21.88,47.839A18.912,18.912,0,0,1,19.329,38.352Zm26.969,0A7.945,7.945,0,0,1,38.353,46.3a7.8,7.8,0,0,1-.87-.088l8.728-8.728A7.821,7.821,0,0,1,46.3,38.352Zm-15.891,0a7.945,7.945,0,0,1,7.946-7.945,7.819,7.819,0,0,1,.871.088l-8.729,8.729A7.811,7.811,0,0,1,30.407,38.352Zm7.946,19.024a18.91,18.91,0,0,1-9.487-2.55l5.276-5.276A11.948,11.948,0,0,0,49.551,34.141l5.275-5.275a19,19,0,0,1-16.473,28.51Z" fill="#999"/></svg>