<svg height="142.497" viewBox="0 0 142.497 142.497" width="142.497" xmlns="http://www.w3.org/2000/svg"><circle cx="71.248" cy="71.249" fill="#f8dc4a" r="43.208" transform="matrix(.99999885 -.00151844 .00151844 .99999885 -.108 .109)"/><g fill="#fff" opacity=".28"><path d="m101.089 39.911-63.28 58.611q1.372 1.675 2.9 3.207l63.35-58.676q-1.405-1.644-2.97-3.142z"/><path d="m111.925 56.564a43.057 43.057 0 0 0 -4.813-9.508l-62.637 58.016a43.2 43.2 0 0 0 9.109 5.528z"/><path d="m30.384 85.228a43.057 43.057 0 0 0 5.096 10.172l62.675-58.047a43.192 43.192 0 0 0 -9.755-5.861z"/></g><path d="m72.4 111.6a.622.622 0 0 1 -.019-1.243q.614-.02 1.223-.058a.622.622 0 0 1 .078 1.242q-.628.039-1.262.059zm-3.73-.055h-.038q-.633-.039-1.261-.1a.622.622 0 1 1 .115-1.238q.608.057 1.221.093a.622.622 0 0 1 -.037 1.242zm8.682-.412a.622.622 0 0 1 -.1-1.236q.606-.1 1.206-.21a.622.622 0 1 1 .242 1.213q-.62.118-1.245.217a.572.572 0 0 1 -.101.012zm-13.617-.2a.6.6 0 0 1 -.116-.011q-.623-.117-1.239-.254a.622.622 0 1 1 .27-1.214q.6.133 1.2.246a.622.622 0 0 1 -.114 1.233zm18.471-.883a.622.622 0 0 1 -.173-1.219q.588-.171 1.17-.361a.622.622 0 0 1 .385 1.182q-.6.2-1.209.372a.613.613 0 0 1 -.171.021zm-23.29-.35a.616.616 0 0 1 -.191-.031q-.6-.2-1.2-.409a.621.621 0 1 1 .42-1.17q.578.207 1.163.4a.622.622 0 0 1 -.191 1.213zm27.97-1.343a.622.622 0 0 1 -.247-1.192q.561-.244 1.112-.5a.622.622 0 0 1 .531 1.124q-.569.268-1.148.52a.625.625 0 0 1 -.248.047zm-32.6-.485a.627.627 0 0 1 -.264-.059q-.574-.27-1.138-.557a.622.622 0 0 1 .565-1.108q.546.28 1.1.54a.622.622 0 0 1 -.265 1.185zm37.027-1.772a.622.622 0 0 1 -.319-1.157q.528-.314 1.042-.641a.622.622 0 0 1 .669 1.049q-.532.338-1.075.661a.622.622 0 0 1 -.317.088zm-41.389-.622a.621.621 0 0 1 -.333-.1q-.535-.34-1.058-.7a.622.622 0 1 1 .7-1.028q.507.345 1.025.673a.622.622 0 0 1 -.334 1.147zm45.5-2.178a.621.621 0 0 1 -.383-1.112q.484-.377.955-.767a.622.622 0 1 1 .793.957q-.486.4-.984.791a.621.621 0 0 1 -.383.131zm-49.524-.751a.619.619 0 0 1 -.4-.142q-.487-.4-.962-.82a.622.622 0 0 1 .821-.934q.46.405.933.8a.621.621 0 0 1 -.4 1.1zm53.25-2.549a.621.621 0 0 1 -.44-1.06q.433-.434.852-.881a.622.622 0 1 1 .907.851q-.433.46-.879.907a.618.618 0 0 1 -.44.183zm-56.882-.857a.62.62 0 0 1 -.452-.2q-.433-.459-.852-.933a.622.622 0 1 1 .931-.824q.406.458.825.9a.621.621 0 0 1 -.452 1.048zm60.171-2.874a.621.621 0 0 1 -.49-1q.377-.484.737-.98a.621.621 0 0 1 1 .732q-.372.512-.76 1.011a.622.622 0 0 1 -.486.24zm-63.348-.953a.621.621 0 0 1 -.5-.256q-.372-.509-.728-1.031a.622.622 0 0 1 1.027-.7q.345.506.705 1a.622.622 0 0 1 -.5.988zm66.147-3.16a.622.622 0 0 1 -.534-.94q.314-.526.609-1.065a.622.622 0 0 1 1.089.6q-.306.556-.629 1.1a.623.623 0 0 1 -.534.308zm-68.82-1.033a.622.622 0 0 1 -.545-.322q-.3-.551-.592-1.112a.622.622 0 0 1 1.106-.568q.28.544.575 1.079a.622.622 0 0 1 -.544.922zm71.082-3.4a.614.614 0 0 1 -.247-.052.621.621 0 0 1 -.324-.817q.244-.564.47-1.135a.622.622 0 1 1 1.156.458q-.234.589-.485 1.17a.622.622 0 0 1 -.57.38zm-73.207-1.09a.622.622 0 0 1 -.578-.392q-.233-.586-.449-1.182a.622.622 0 1 1 1.169-.423q.209.577.435 1.145a.622.622 0 0 1 -.348.808.629.629 0 0 1 -.229.044zm74.894-3.59a.613.613 0 0 1 -.173-.025.621.621 0 0 1 -.424-.77q.17-.586.322-1.182a.622.622 0 1 1 1.205.309q-.158.614-.333 1.22a.622.622 0 0 1 -.597.448zm-76.437-1.143a.622.622 0 0 1 -.6-.467q-.157-.611-.3-1.228a.622.622 0 0 1 1.213-.273q.135.6.287 1.192a.622.622 0 0 1 -.447.757.6.6 0 0 1 -.153.019zm77.517-3.717a.635.635 0 0 1 -.1-.008.622.622 0 0 1 -.518-.711q.1-.6.171-1.213a.622.622 0 0 1 1.234.155q-.078.628-.176 1.251a.623.623 0 0 1 -.611.531zm-78.451-1.164a.622.622 0 0 1 -.616-.544q-.079-.625-.139-1.255a.622.622 0 0 1 1.239-.12q.058.611.135 1.218a.622.622 0 0 1 -.539.7.669.669 0 0 1 -.08.001zm78.914-3.783h-.021a.622.622 0 0 1 -.6-.642q.02-.609.02-1.224v-.127a.621.621 0 1 1 1.243 0v.117c0 .432-.006.854-.02 1.274a.621.621 0 0 1 -.622.602zm-79.23-1.212a.6.6 0 0 1 -.622-.59v-.064q0-.6.018-1.2a.635.635 0 0 1 .64-.6.622.622 0 0 1 .6.64q-.017.579-.017 1.162a.65.65 0 0 1 -.619.652zm79.062-3.886a.622.622 0 0 1 -.618-.563q-.059-.611-.137-1.216a.622.622 0 1 1 1.233-.159q.081.626.142 1.257a.622.622 0 0 1 -.56.678zm-78.762-1.047a.637.637 0 0 1 -.077 0 .622.622 0 0 1 -.541-.693q.077-.629.174-1.251a.622.622 0 0 1 1.229.19q-.093.6-.169 1.214a.622.622 0 0 1 -.616.54zm77.975-3.864a.622.622 0 0 1 -.606-.484q-.136-.6-.289-1.191a.622.622 0 1 1 1.2-.312q.158.611.3 1.228a.622.622 0 0 1 -.607.759zm-77.056-1.027a.614.614 0 0 1 -.153-.019.621.621 0 0 1 -.45-.756q.156-.614.331-1.22a.622.622 0 1 1 1.195.344q-.169.587-.32 1.182a.622.622 0 0 1 -.603.469zm75.657-3.748a.622.622 0 0 1 -.584-.409q-.21-.577-.437-1.145a.622.622 0 0 1 1.155-.461q.234.586.451 1.18a.622.622 0 0 1 -.371.8.615.615 0 0 1 -.214.038zm-74.13-.986a.622.622 0 0 1 -.578-.85q.232-.591.484-1.172a.622.622 0 1 1 1.141.492q-.243.563-.468 1.135a.622.622 0 0 1 -.579.398zm72.14-3.572a.622.622 0 0 1 -.553-.337q-.28-.544-.576-1.078a.622.622 0 1 1 1.087-.6q.306.552.595 1.113a.622.622 0 0 1 -.552.906zm-70.026-.931a.622.622 0 0 1 -.545-.921q.3-.555.627-1.1a.622.622 0 1 1 1.07.632q-.312.528-.607 1.066a.622.622 0 0 1 -.545.323zm67.479-3.335a.621.621 0 0 1 -.513-.27q-.348-.506-.708-1a.622.622 0 1 1 1-.734q.372.509.729 1.029a.622.622 0 0 1 -.512.974zm-64.817-.869a.622.622 0 0 1 -.5-.987q.371-.512.758-1.012a.622.622 0 1 1 .983.761q-.375.484-.735.981a.621.621 0 0 1 -.505.256zm61.755-3.05a.621.621 0 0 1 -.465-.209q-.406-.459-.827-.9a.622.622 0 1 1 .9-.853q.433.459.853.932a.622.622 0 0 1 -.465 1.034zm-58.587-.788a.622.622 0 0 1 -.454-1.046q.432-.461.878-.909a.622.622 0 1 1 .881.878q-.433.434-.851.881a.62.62 0 0 1 -.454.196zm55.06-2.721a.62.62 0 0 1 -.411-.155q-.46-.4-.933-.793a.622.622 0 0 1 .791-.96q.488.4.963.82a.622.622 0 0 1 -.41 1.088zm-51.441-.692a.622.622 0 0 1 -.4-1.1q.485-.4.983-.792a.622.622 0 0 1 .765.98q-.483.377-.954.768a.62.62 0 0 1 -.394.144zm47.5-2.349a.619.619 0 0 1 -.348-.107q-.508-.344-1.026-.671a.622.622 0 1 1 .664-1.051q.535.338 1.059.693a.622.622 0 0 1 -.349 1.137zm-43.487-.585a.622.622 0 0 1 -.335-1.146q.531-.34 1.073-.663a.622.622 0 1 1 .637 1.068q-.526.313-1.041.642a.617.617 0 0 1 -.331.099zm39.2-1.94a.617.617 0 0 1 -.28-.067q-.548-.278-1.1-.538a.622.622 0 1 1 .526-1.126q.575.269 1.139.555a.622.622 0 0 1 -.281 1.176zm-34.851-.467a.622.622 0 0 1 -.267-1.184q.569-.27 1.148-.522a.622.622 0 0 1 .5 1.14q-.561.245-1.112.506a.621.621 0 0 1 -.265.059zm30.279-1.5a.624.624 0 0 1 -.209-.036q-.578-.206-1.164-.4a.622.622 0 0 1 .382-1.184q.6.2 1.2.408a.622.622 0 0 1 -.209 1.207zm-25.663-.341a.622.622 0 0 1 -.193-1.213q.6-.2 1.207-.374a.622.622 0 0 1 .349 1.193q-.589.172-1.17.363a.618.618 0 0 1 -.189.03zm20.88-1.033a.631.631 0 0 1 -.134-.014q-.6-.131-1.2-.244a.622.622 0 1 1 .229-1.222q.622.117 1.238.252a.622.622 0 0 1 -.133 1.229zm-16.061-.213a.622.622 0 0 1 -.117-1.232q.619-.119 1.244-.219a.622.622 0 0 1 .2 1.228q-.606.1-1.207.212a.607.607 0 0 1 -.12.011zm11.15-.548h-.057q-.608-.055-1.221-.092a.622.622 0 0 1 -.584-.657.615.615 0 0 1 .657-.584q.634.037 1.26.094a.622.622 0 0 1 -.055 1.241zm-6.216-.081a.622.622 0 0 1 -.039-1.242q.628-.04 1.261-.062a.612.612 0 0 1 .643.6.622.622 0 0 1 -.6.643q-.614.021-1.224.06z" fill="#f2c341"/><circle cx="71.247" cy="71.158" fill="#c99204" r="36.178"/><circle cx="71.247" cy="71.158" fill="#dea004" r="34.584"/><g fill="#fff" opacity=".16"><path d="m37.486 78.65a34.368 34.368 0 0 0 4.417 10.8l49.832-46.15a34.457 34.457 0 0 0 -10.435-5.236z"/><path d="m94.743 45.789-50.586 46.854a34.784 34.784 0 0 0 2.894 3.216l50.676-46.938a34.788 34.788 0 0 0 -2.984-3.132z"/><path d="m104.875 63.093a34.373 34.373 0 0 0 -4.19-10.084l-49.785 46.109a34.46 34.46 0 0 0 9.727 4.956z"/></g><path d="m66.206 68.267q4.05 6.854 6.2 10a75.726 75.726 0 0 0 4.7 6.169q4.86-6.044 4.86-9.845a3.32 3.32 0 0 0 -1.215-2.711 5.653 5.653 0 0 0 -3.645-1h-1.647v-2.15h17.322v2.15h-1.308a6.69 6.69 0 0 0 -2.773.5 6.035 6.035 0 0 0 -2.01 1.542 17.533 17.533 0 0 0 -2.228 3.848 48.756 48.756 0 0 1 -5.67 9.471q4.268 4.362 7.446 4.362a4.056 4.056 0 0 0 3.225-1.527q1.293-1.527 1.729-5.265h1.932q0 5.826-2.508 8.848a7.891 7.891 0 0 1 -6.34 3.022 9.907 9.907 0 0 1 -4.377-1.09 24.819 24.819 0 0 1 -5.374-3.957 25.727 25.727 0 0 1 -6.449 3.957 16.778 16.778 0 0 1 -6.076 1.093 13.341 13.341 0 0 1 -9.736-3.77 12.488 12.488 0 0 1 -3.848-9.284 12.746 12.746 0 0 1 2.445-7.63q2.446-3.4 8.8-6.73-2.961-6.078-2.961-10.129a10.01 10.01 0 0 1 3.2-7.477 10.849 10.849 0 0 1 7.836-3.084 10.12 10.12 0 0 1 6.979 2.274 7.7 7.7 0 0 1 2.551 6.046 10.093 10.093 0 0 1 -2.446 6.558q-2.446 2.974-8.614 5.809zm-5.453 2.433q-6.574 3.645-6.574 8.755a14.364 14.364 0 0 0 3.069 8.241q3.069 4.315 7.649 4.315a13.018 13.018 0 0 0 7.945-3.147 89.567 89.567 0 0 1 -5.421-7.15q-2.399-3.539-6.668-11.014zm4.268-4.829q4.486-1.963 6.169-4.19a8.611 8.611 0 0 0 1.682-5.343 6.682 6.682 0 0 0 -1.542-4.642 5.066 5.066 0 0 0 -3.941-1.714 5.192 5.192 0 0 0 -3.926 1.636 6.041 6.041 0 0 0 -1.558 4.346q.001 3.953 3.117 9.904z" fill="#c99204"/><path d="m67.162 67.5q4.05 6.854 6.2 10a75.726 75.726 0 0 0 4.7 6.169q4.86-6.044 4.86-9.845a3.32 3.32 0 0 0 -1.215-2.711 5.653 5.653 0 0 0 -3.645-1h-1.646v-2.15h17.322v2.15h-1.308a6.69 6.69 0 0 0 -2.773.5 6.035 6.035 0 0 0 -2.01 1.542 17.533 17.533 0 0 0 -2.228 3.848 48.756 48.756 0 0 1 -5.67 9.471q4.269 4.366 7.451 4.366a4.056 4.056 0 0 0 3.225-1.527q1.293-1.527 1.729-5.265h1.932q0 5.826-2.508 8.848a7.891 7.891 0 0 1 -6.34 3.022 9.907 9.907 0 0 1 -4.377-1.09 24.819 24.819 0 0 1 -5.374-3.957 25.727 25.727 0 0 1 -6.449 3.957 16.778 16.778 0 0 1 -6.075 1.09 13.341 13.341 0 0 1 -9.736-3.77 12.488 12.488 0 0 1 -3.848-9.284 12.746 12.746 0 0 1 2.446-7.633q2.446-3.4 8.8-6.73-2.96-6.075-2.96-10.126a10.01 10.01 0 0 1 3.188-7.475 10.849 10.849 0 0 1 7.836-3.084 10.12 10.12 0 0 1 6.979 2.274 7.7 7.7 0 0 1 2.555 6.044 10.093 10.093 0 0 1 -2.446 6.558q-2.446 2.974-8.615 5.808zm-5.452 2.43q-6.574 3.645-6.574 8.755a14.364 14.364 0 0 0 3.069 8.241q3.069 4.315 7.649 4.315a13.018 13.018 0 0 0 7.946-3.146 89.567 89.567 0 0 1 -5.421-7.15q-2.401-3.537-6.669-11.014zm4.268-4.83q4.486-1.963 6.169-4.19a8.611 8.611 0 0 0 1.682-5.343 6.682 6.682 0 0 0 -1.542-4.642 5.066 5.066 0 0 0 -3.941-1.714 5.192 5.192 0 0 0 -3.926 1.636 6.041 6.041 0 0 0 -1.558 4.346q.001 3.958 3.116 9.907z" fill="#f8dc4a"/><g fill="#ed1c24"><path d="m71.248 0a71.249 71.249 0 1 0 71.252 71.249 71.329 71.329 0 0 0 -71.252-71.249zm0 126.779a55.53 55.53 0 1 1 55.53-55.53 55.593 55.593 0 0 1 -55.53 55.53z"/><path d="m63.414 6.837h17.382v128.823h-17.382z" transform="matrix(.70709444 -.70711912 .70711912 .70709444 -29.261 71.856)"/></g></svg>