<svg height="189.105" viewBox="0 0 212.027 189.105" width="212.027" xmlns="http://www.w3.org/2000/svg"><g fill="#22416d"><path d="m55.992 116.9c1.569-4.244 4.136-5.262 8.113-2.99 1.557.889 2.8 2.308 4.283 3.349 1.457 1.023 3.1 2.739 4.548 2.625a42.588 42.588 0 0 0 10.3-2.333c2.212-.757 3.123-2.938 3.2-5.313a18.984 18.984 0 0 0 -3.587-11.258c-1.464-2.232-3.182-2.95-5.723-3.156a156.016 156.016 0 0 1 -31.751-5.492c-8.203-2.432-15.939-5.87-22.175-11.939-2.4-2.333-4.926-4.744-6.569-7.595-3.631-6.298-6.214-13.022-5.049-20.579a3.1 3.1 0 0 0 -.152-.975c-1.007 0-1.906.032-2.8-.005-4.379-.185-8.1-4.323-8.562-9.491-.414-4.671 1.028-6.454 6.894-7.872-.579-1.96-1.517-3.886-1.622-5.857a7.535 7.535 0 0 0 -1.676-4.734c-.358-.446.421-2.4 1.194-2.993a5.657 5.657 0 0 1 3.408-.575c5.71.25 11.3.919 15.4 5.956 1.448-2.088 2.595-3.936 3.93-5.636 10.012-12.743 23.575-18.644 39.35-19.755 17.7-1.247 34.839 1.738 51.718 7.093 13.865 4.4 25.72 10.874 31.319 25.32a2.134 2.134 0 0 0 1.1 1.092c2.408.93 4.9 1.652 7.273 2.658 9.572 4.06 14.312 11.955 16.644 21.582.283 1.168-.59 2.615-.891 3.789l-9.968-4.637-.542.911 10.3 8.261c.876-.462 1.747-.958 2.647-1.391 9.43-4.529 19.262-6.341 29.46-3.375 6.2 1.8 7.847 8.033 3.827 13.08-1.7 2.138-3.661 4.073-5.354 6.218-2.617 3.316-5.105 6.733-7.656 10.118 3.941 2.636 4.278 4.79 1.4 8.211a7.325 7.325 0 0 1 -2.912 2.389c-3.257 1.062-3.367 3.082-3.039 6.108.78 7.19 1.454 14.574-5.566 18.954.805 2.079 1.871 3.833 2.113 5.694a36.1 36.1 0 0 1 .062 8.175 14.631 14.631 0 0 1 -8.584 12.434c-4.081 2.014-7.977 4.409-11.92 6.7-3.627 2.1-4.948 5.579-5.754 9.487-.7 3.4 1.913 4.5 3.7 6.3 3.649 3.675 3.386 8.407-.9 10.493-7.649 3.725-15.523 4.526-23.394.4-2.114-1.107-3.947-2.447-3.66-5.194.262-2.507 3-5.22 5.665-5.619 1.255-.188 2.545-.144 3.816-.234.766-.054 1.529-.165 2.487-.272-1.856-6.486-4.064-12.671-1.066-18.925-3.791.36-7.409 1.149-10.971.945-6.906-.4-13.778-1.376-20.67-2.042a5.6 5.6 0 0 0 -3.087.365c-2.141 1.2-2.628 3.291-2.516 5.646.117 2.465 1.043 4.541 3.164 5.688 3.7 2 4.177 6.011.559 8.287a24.93 24.93 0 0 1 -16.25 3.524c-3.065-.327-4.761-2.827-3.712-5.744.764-2.124 2.47-3.91 3.736-5.817-6.527-3.561-7.218-13.217-.354-18.318 2.336-1.736 4.473-3.745 6.654-5.683a30.372 30.372 0 0 0 3.5-3.455c1.423-1.754.749-2.975-1.348-3.834a7.99 7.99 0 0 1 -3.939-2.907 23.1 23.1 0 0 1 -2-6.688 40.766 40.766 0 0 1 -.31-5.592c-8.977 7.939-10.767 9.034-18.175 11.249-.138 2.108.039 4.248-.492 6.2-.557 2.043-1.89 4.016-4.467 3.576-2.346-.4-3.045-2.334-3.138-4.531-.058-1.372-.217-2.739-.349-4.32-4.729 2.469-4.729 2.469-6.79.777-1.2.515-2.58 1.61-3.23 1.278-1.226-.627-2.745-2-2.869-3.2-.277-2.66-2.009-2.766-3.834-3.194a5.2 5.2 0 0 1 -2.454-1.018c-2.034-2.047-4.153-1.225-6.327-.476s-3.64 2.065-3.567 4.568c.254 8.724.245 17.465.847 26.165.553 7.985 1.835 15.916 2.668 23.885.68 6.5-4.566 7.975-8.852 6.706-1.742-.516-2.9-1.635-1.507-3.688a3.077 3.077 0 0 0 .565-1.966 80.58 80.58 0 0 0 -1.712-9.41 130.167 130.167 0 0 1 -5.058-31.762c-.122-5.077.157-10 2.18-14.746 1.831-4.292 4.8-7.155 9.564-7.5 3.4-.247 6.834-.048 10.529-.048.253-.753.481-1.444.733-2.122zm89.135-47.981c-.9.647-2.682 1.2-3.4.735a10.351 10.351 0 0 1 -2.889-3.707c-.8-1.4-1.109-3.087-1.956-4.447-3.224-5.172-3.271-10.675-2-16.365a1.7 1.7 0 0 1 .274-.763c2.312-2.5 2.919-5.565 2.948-8.823.013-1.474.025-2.948 0-4.421-.005-.354-.339-.868-.2-1.036 2.172-2.577.959-5.118-.12-7.586-.494-1.13-1.143-2.6-2.118-3.045-6.775-3.08-13.5-6.386-20.533-8.76a124.025 124.025 0 0 0 -44.704-6.247c-19.229.737-34.737 8.382-46.576 24.039-6.262 8.281-9.281 17.174-8.89 27.134a44.662 44.662 0 0 0 3.688 14.989c1.123 2.7 4.21 4.661 6.586 6.759 7.991 7.055 17.763 10.164 27.936 12.292a69.69 69.69 0 0 0 10.238 1.673c3.95.223 7.934-.2 11.905-.27 3.454-.057 6.909 0 10.364 0 5.9.01 11.809.034 17.714.029 4.64 0 9.281.009 13.92-.075a41.853 41.853 0 0 0 18.869-4.689c3.551-1.869 6.573-4.783 9.694-7.393.627-.524.419-2.436.952-2.608a9.766 9.766 0 0 1 4.775-.442c1.819.376 2.981.345 4.192-1.318 2.223-3.051 2.12-6.363 1.292-9.646-.269-1.065-1.789-2.011-2.945-2.608-1.526-.788-2.68.026-3.678 1.382a13.545 13.545 0 0 1 -2.671 2.188l-.371-.114c-.746 1.075-1.295 2.424-2.295 3.139zm-55.904 46.381c-.6 4.8-5.381 8.159-11.576 8.569-1.049.069-2.1.121-3.357.192.79 2.287 2.259 2.225 3.836 1.955 1.414-.242 2.842-.416 4.247-.7a19.9 19.9 0 0 0 3.627-.971c1.578-.655 3-1.707 4.607-2.265 3.505-1.221 5.479-3.6 5.642-7.249.161-3.6.035-7.207.035-11.147a8.641 8.641 0 0 1 2.5 1.678c4.829 6.208 6.222 13.419 5.61 21.065-.217 2.718.636 4.74 2.957 5.854a23.076 23.076 0 0 0 15.6 1.868 77.566 77.566 0 0 1 14.533-2.2 89.8 89.8 0 0 0 28.772-5.816c5.035-1.884 9.876-3.608 13.033-8.35a19.21 19.21 0 0 0 3.048-15.059 43.739 43.739 0 0 0 -8.137-18.41c-1.408-1.844-1.025-5.189.8-6.423 3.974-2.688 8.3-4.6 13.233-4.546 2.275.024 4.569.6 5.415 2.946.888 2.46.023 4.608-2.234 6.168a46.419 46.419 0 0 0 -3.61 3.063c5.118 3.256 7.749 2.5 9.823-1.954 2.817-6.05 6.611-11.645 10.113-17.653-1.841-1.772-4.59-2.243-7.412-2.5-12.661-1.153-23.653 2.893-33.418 10.749-.283.228-.566.676-.837.667-5.261-.177-6.945 5.635-11.407 6.829-.5.133-.872 1.094-1.125 1.74-2.159 5.532-2.315 5.78-6.572 9.374 1.25 2.922 2.608 5.881 3.75 8.921.29.771-.109 1.8-.191 2.71a10.894 10.894 0 0 1 -2.441-1.061c-2.136-1.631-4.178-3.385-6.665-5.427-2.191 4.873-5.384 7.84-10.267 8.2-4.358.325-8.787.552-12.819-2.6-.891 2.26-1.681 4.476-2.654 6.608-.32.7-1.114 1.188-1.691 1.773a10.345 10.345 0 0 1 -1.267-2.22c-.782-2.784-1.322-5.64-2.2-8.388a2.917 2.917 0 0 0 -2.1-1.572c-8.134-.657-16.278-1.174-24.42-1.729l-.077.906c5.173 4.375 6.067 10.205 5.296 16.405zm55.016-55.761a7.852 7.852 0 0 1 .8-2.153 7.555 7.555 0 0 1 2.134 1.348 22.658 22.658 0 0 0 2.674 3.513c.257-1.254.544-2.5.765-3.764.4-2.264 1.308-3.64 4.017-3.236 1.526.227 3.432.787 4.4-1.455.157-.364 1.57-.527 2.217-.286 4.131 1.536 8.211 3.211 12.158 4.781a6.768 6.768 0 0 0 -.4-1.432c-3.7-8.628-8.289-16.411-17.815-19.9a10.9 10.9 0 0 0 -7.7.017c-10.068 3.551-13.994 16.873-7.58 25.411 1.21 1.61 2.485 2.206 4.486 1.09a35.3 35.3 0 0 1 -.156-3.929zm-130.289-21.316c-2.969-.338-5.848-.791-8.743-.949-1.861-.1-2.764 1.215-2.869 2.98-.183 3.086 2.38 8.308 7.294 7.725a20.866 20.866 0 0 1 2.307-.012zm-7.013-15.8c1.65 2.61 6.573 1.538 5.87 5.241-.267 1.408 1.167 5.232-3 5.417 1.158.571 2.286 1.215 3.481 1.694 1.426.572 2.439.3 3.351-1.231a76.738 76.738 0 0 1 4.683-6.39c-3.837-4.489-8.857-4.941-14.385-4.727zm62.118 101.32 2-1.5c-2.141-1.682-4.2-3.324-6.284-4.934-3.658-2.826-5.956-2.038-7.018 2.4-.127.531-.129 1.094-.282 1.615-.706 2.4-.032 3.862 3.1 4.012l.909-4.5zm127.8-26.486c.7-.555 1.419-2.208 1.108-2.666a3.815 3.815 0 0 0 -2.9-1.6c-2.9.342-2.856-1-2.083-3.26a10.943 10.943 0 0 0 -2.659.033c-2.926.779-3.155 1.432-1.934 4.185.92 2.075 1.72 4.2 2.812 6.9a58.845 58.845 0 0 0 5.66-3.592zm-97.038 60.192c4.424-5.151 8.837-10.313 13.163-15.546.487-.589.416-1.638.6-2.474a8.458 8.458 0 0 0 -2.406 1.135c-3.65 3.5-7.195 7.1-10.81 10.639a9.8 9.8 0 0 0 -3.178 8.532 27.6 27.6 0 0 0 2.631-2.286zm-62.258-7.5a148.281 148.281 0 0 1 -.8-16.277c.066-2.969.91-6.107 3.8-8.03.226-.15.074-.87.1-1.325-.593.211-1.594.286-1.717.654-1.221 3.671-3.094 7.356-3.258 11.1a86.7 86.7 0 0 0 2.927 27.846c.237.825.341 1.687.507 2.532l.4-.051c-.668-5.475-1.475-10.945-1.959-16.444zm119.723 32.283c-9.389-4.313-13.427-4.224-16.234.71zm-25.523-83.88c-.611 1.278-1.192 2.571-1.832 3.955 4.034.317 6.6-1.153 9.224-5.17-3.713-3.487-5.277-3.21-7.392 1.215zm50.659-17.4c-.463.2-.8 1.761-.522 2.389a17.31 17.31 0 0 0 2.22 3.157l6.2-7.448-.156-.841c-2.592.885-5.23 1.668-7.742 2.744zm-79.71 93.962c1.244-.245 3.3-.058 2.762-1.955-.3-1.068-2.136-1.765-3.372-2.466a1.67 1.67 0 0 0 -1.537.287c-1 .981-1.849 2.113-2.756 3.186l2.2 1.15c1.444-.099 2.087-.079 2.704-.2zm20.919-76.847a2.47 2.47 0 0 0 -2.359-.356 6.265 6.265 0 0 0 -1.506 2.973c-.066.263 1.056 1.069 1.725 1.223 1.547.356 3.151.467 5.461.774a40.085 40.085 0 0 0 -3.32-4.612zm29.392 59.678c1.687-1.581 3.618-2.9 5.385-4.4a5.846 5.846 0 0 0 .951-1.573c-.606-.253-1.26-.8-1.81-.708-2.619.427-6.986 5.846-7.171 8.716l.885.9a12.313 12.313 0 0 1 1.761-2.933zm-35.074-59.932-4.815.725 1.148 6.462.835.1zm28.076.263.631-.422-3.478-6.954-3.688 2.594zm-75.508 34.779c2.483-.907 3.142-4.18 1.376-7.492-2.547 2.415-2.866 4.36-1.376 7.492zm-4.877-.071c1.678-2.147 2.244-6.36 1.054-7.846-2.47 2.262-2.771 4.508-1.053 7.846zm-4.69-5.159c.4.026 1.571.321 1.7.07a30.776 30.776 0 0 0 1.533-3.989l-.739-.192z"/><path d="m84.862 34.314c1.406-1.614 2.456-.962 3.257.649 2.969 5.978 8.167 8.206 14.452 8.664a19.584 19.584 0 0 1 2.806.7c-1.1 1.573-1.708 3.49-2.841 3.875a26.564 26.564 0 0 1 -8.92 1.659 24.548 24.548 0 0 1 -8.137-2.086c-3.984-1.567-7.8-3.567-10.338-7.229a4.317 4.317 0 0 1 -.565-2.6c2.12-.991 2.005-3.071 2.664-4.79a11.046 11.046 0 0 1 1.434-2.126l2.235 1.87c1.846-1.838 2.597.514 3.953 1.414zm-3.624 7.41c3.568 2.916 7.841 4.176 12.313 4.688a18.313 18.313 0 0 0 6.946-.595 37.112 37.112 0 0 1 -6.007-1.794 26.308 26.308 0 0 1 -5.312-3.692c-1.194-1-1.594-3.235-3.925-2.195a.546.546 0 0 1 -.484-.2c-1.339-2.312-3.619-1.989-6.079-1.909-.926 2.673.782 4.254 2.548 5.696z"/><path d="m59.623 27.543c.643 1.353 1.912 2.757 1.805 4.048-.277 3.348-1.533 6.486-5.025 7.834-5.092 1.966-10.414 1.393-15.659.9-1.711-.159-2.1-1.665-1.854-3.367.2-1.389.587-2.034 2.182-2.074 6.21-.154 11.119-2.55 13.769-8.535.075-.17.464-.2 1.026-.423l.865 3.361zm-3.865 9.442c3.433-.763 4.859-4.173 3.224-6.8-1.312.888-1.835 4.64-4.131 1.489l-10.393 6.159-.141.542a109.789 109.789 0 0 0 11.441-1.39z"/><path d="m40.307 50.7c.062 2.516 1.558 4.1 3.815 4.035 3.563-.1 5.6-1.835 5.516-4.693-.083-2.7-2.208-4.456-5.238-4.328-2.241.086-4.156 2.423-4.093 4.986z"/><path d="m59.982 64.474c2.9 1.3 3.606 3.615 4.136 5.858a61.527 61.527 0 0 1 .823 6.884c3.808-4.72.116-13.945-3.463-15.343-.907-.354-2.974.215-3.359.957a38.106 38.106 0 0 0 -2.629 7.383c-.154.553.556 1.346.869 2.029.538-.513 1.321-.93 1.568-1.557.773-1.974 1.35-4.026 2.055-6.211z"/><path d="m88.293 60.9a3.339 3.339 0 0 0 3.12-3.741c-.121-2.873-2.224-5.444-4.408-5.388-1.867.048-3.283 1.763-3.276 3.966.009 2.85 2.094 5.209 4.564 5.163z"/><path d="m90.505 22.489c-4-8.14-18.369-11.594-25.628-8.2 9.74-.963 18.623.711 25.628 8.2z"/><path d="m55.38 18.041c12.375-1 23.725 1.233 32.835 10.5-5.245-8.353-21.815-13.625-32.835-10.5z"/><path d="m85.886 67.239c1.756 4.467 9.665 7.488 11.788 5.388z"/><path d="m34.769 64.092c5.156 2.972 12.069.6 12.423-4.2-2.76 5.046-7.851 2.918-12.423 4.2z"/><path d="m156 68.838c-2.782-2.817-6.109-1.886-7.47 2.287z"/><path d="m83.73 71.646a21.23 21.23 0 0 0 9.43 5.7l.474-.764-9.457-5.516z"/><path d="m138.157 25.58c-1.172-.945-1.886-1.886-2.767-2.082-.463-.1-1.217 1.094-1.839 1.7a24.965 24.965 0 0 0 2.634 2.364 17.864 17.864 0 0 0 1.972-1.982z"/><path d="m47.1 66.117-8.091 2.6.356 1.062 8.122-2.716z"/><path d="m99.3 60.438-5.952 1.482a3.814 3.814 0 0 0 5.952-1.482z"/></g></svg>