<svg height="65.802" viewBox="0 0 57.892 65.802" width="57.892" xmlns="http://www.w3.org/2000/svg" xmlns:xlink="http://www.w3.org/1999/xlink"><linearGradient id="a" gradientUnits="userSpaceOnUse" x1="28.946" x2="28.946" y2="65.802"><stop offset="0" stop-color="#ff3f46"/><stop offset=".224" stop-color="#eb1c24"/><stop offset=".526" stop-color="#ff3f46"/><stop offset=".893" stop-color="#a90409"/><stop offset="1" stop-color="#eb1c24"/></linearGradient><path d="m28.991 65.8a26.316 26.316 0 0 1 -11.106-2.349 28.031 28.031 0 0 1 -9.215-6.96 32.441 32.441 0 0 1 -6.583-10.662 37.207 37.207 0 0 1 -2.087-12.886 37.186 37.186 0 0 1 2.087-12.883 32.484 32.484 0 0 1 6.583-10.66 28.5 28.5 0 0 1 9.257-7.025 26.074 26.074 0 0 1 11.064-2.375 26.037 26.037 0 0 1 11.06 2.372 28.441 28.441 0 0 1 9.255 7.028 32.1 32.1 0 0 1 6.521 10.6 37.6 37.6 0 0 1 2.065 12.948 37.582 37.582 0 0 1 -2.065 12.942 32.15 32.15 0 0 1 -6.517 10.6 28 28 0 0 1 -9.216 6.96 26.309 26.309 0 0 1 -11.1 2.349zm0-4.249c4.465 0 7.309-1.706 8.911-5.015 1.719-3.531 2.692-11.27 2.692-23.594s-.973-20.06-2.692-23.6c-1.6-3.3-4.446-5.008-8.911-5.008-4.492 0-7.361 1.722-8.984 5.057-1.734 3.567-2.707 11.293-2.707 23.552s.973 19.992 2.707 23.556c1.623 3.332 4.492 5.054 8.984 5.054z" fill="url(#a)" fill-rule="evenodd"/></svg>