<svg height="19.831" viewBox="0 0 24 19.831" width="24" xmlns="http://www.w3.org/2000/svg"><path d="m15.035 1.055c-.35.346-8.428 8.513-8.942 9.021l-2.793-2.745a3.064 3.064 0 0 1 2.243-5.1 2.892 2.892 0 0 1 2.272 1.049l-1.175 1.25a1.677 1.677 0 0 0 -1.1-.586 1.272 1.272 0 0 0 -1 2.045l1.911 1.876 4.13-4.265a5.242 5.242 0 0 0 -5.365-3.579 5.428 5.428 0 0 0 -3.327 9.518l4.261 4.194c8.67-8.538 5.789-5.907 10.014-9.9a2.969 2.969 0 1 1 4.644 3.7c-.845.834-7.428 7.51-8.541 8.609l-1.167-1.151 8.517-8.66a1.3 1.3 0 0 0 -2.162-1.443c-.2.19-9.957 9.843-10.124 10l5.017 4.938 10.392-10.583a5.674 5.674 0 0 0 -7.7-8.188z" fill="#cd0061"/></svg>