<svg height="24" viewBox="0 0 164.302 24" width="164.302" xmlns="http://www.w3.org/2000/svg"><g fill="#cd0061"><path d="m2.067 12.738 4.662 4.588c9.487-9.343 6.334-6.463 10.957-10.834a3.248 3.248 0 1 1 5.082 4.047c-.924.913-8.128 8.219-9.345 9.421l-1.28-1.26 9.319-9.476a1.426 1.426 0 0 0 -2.362-1.575c-.218.209-10.9 10.77-11.08 10.951l5.49 5.4 11.371-11.585a6.209 6.209 0 0 0 -8.43-8.96c-.383.379-9.221 9.315-9.784 9.871l-3.059-3a3.353 3.353 0 0 1 2.455-5.59 3.166 3.166 0 0 1 2.488 1.153l-1.286 1.368a1.834 1.834 0 0 0 -1.2-.641 1.392 1.392 0 0 0 -1.097 2.237l2.091 2.054 4.518-4.667a5.735 5.735 0 0 0 -5.87-3.915 5.939 5.939 0 0 0 -3.64 10.415"/><path d="m34.939 21.919c0 1.407-.72 1.734-2.127 1.735h-.719c-1.243 0-2-.3-2-1.736v-17.402c0-1.7.916-2.257 2.518-2.257h5.53c5.658 0 8.8 2.519 8.8 7.2 0 4.745-3.009 7.2-8.8 7.2h-3.2zm3.107-8.9c2.682 0 4.121-1.276 4.122-3.5 0-2.258-1.44-3.467-4.122-3.467h-3.14v6.967z"/><path d="m48.741 2.324a2.305 2.305 0 0 1 2.616-2.324c1.6 0 2.553.851 2.553 2.323a2.266 2.266 0 0 1 -2.551 2.388 2.317 2.317 0 0 1 -2.618-2.387m.259 19.726v-13.085c0-1.505.917-1.665 2.1-1.665h.491c1.244 0 2.063.164 2.06 1.668v13.082c0 1.571-.849 1.6-2.028 1.6h-.491c-1.211 0-2.127-.032-2.127-1.6"/><path d="m55.871 15.442a8.228 8.228 0 0 1 8.571-8.407c4.908 0 6.836 2.845 6.838 4.352 0 1.894-2.39 2.518-2.716 1.7a3.821 3.821 0 0 0 -3.926-2.324 4.38 4.38 0 0 0 -4.383 4.678 4.428 4.428 0 0 0 4.384 4.712 3.9 3.9 0 0 0 3.924-2.353c.394-1.016 2.717-.295 2.717 1.734 0 1.536-2.029 4.317-6.837 4.317a8.17 8.17 0 0 1 -8.572-8.407"/><path d="m77.721 21.788c0 1.669-.884 1.865-2.061 1.864h-.489c-1.244 0-2.094-.164-2.093-1.865v-18.779c0-1.7.85-1.864 2.094-1.864h.492c1.178 0 2.062.2 2.06 1.864v11.321l4.576-5.985a2.843 2.843 0 0 1 2.549-1.18c2.291 0 2.748 1.146 2.292 1.736l-4.906 6.149 5.365 6.607c.491.59-.13 1.964-1.9 1.965-1.57 0-2.158-.1-3.075-1.278l-4.904-6.313z"/><path d="m89.2 3.011c0-1.7.85-1.865 2.094-1.863h.49c1.178 0 2.062.195 2.061 1.864v6.639a6.074 6.074 0 0 1 5.203-2.651c4.32 0 7.427 3.274 7.428 8.408 0 5.005-3.076 8.44-7.527 8.439a5.7 5.7 0 0 1 -5.1-2.747v.261c0 1.834-1.342 2.323-2.911 2.324-.916 0-1.734-.361-1.735-1.212zm4.646 12.333v.36c0 3.009 1.767 4.481 3.991 4.482 2.519 0 4.154-1.93 4.154-4.711 0-2.846-1.669-4.744-4.121-4.743-1.8 0-4.026 1.177-4.025 4.612"/><path d="m117.1 7.1c1.864 0 2.976.623 2.976 2.289 0 3.664-1.767 2.061-3.565 2.061-2.29 0-3.271 1.964-3.271 5.2v5.234c0 1.669-.851 1.767-2.027 1.767h-.489c-1.277 0-2.127-.067-2.128-1.768v-13.312c0-1.046.817-1.275 1.767-1.275 1.21 0 2.518.558 2.814 2.749a4.012 4.012 0 0 1 3.923-2.945"/><path d="m121.388 2.324c0-1.439 1.012-2.324 2.612-2.324s2.552.852 2.551 2.323a2.268 2.268 0 0 1 -2.549 2.39 2.318 2.318 0 0 1 -2.617-2.389m.259 19.726v-13.085c0-1.5.915-1.668 2.091-1.669h.492c1.244 0 2.061.162 2.06 1.666v13.086c0 1.572-.849 1.605-2.029 1.6h-.49c-1.209 0-2.127-.032-2.127-1.6"/><path d="m141.145 20.84a5.718 5.718 0 0 1 -5.2 3.009c-4.352 0-7.426-3.37-7.426-8.407 0-5.1 3.043-8.439 7.49-8.441a6.023 6.023 0 0 1 5.137 2.454v-6.445c0-1.667.884-1.865 2.062-1.864h.492c1.242 0 2.092.161 2.093 1.862v19.468c0 .849-.82 1.209-1.735 1.209-1.634 0-2.911-.621-2.91-2.846m0-5.693c0-3.465-2.027-4.414-3.957-4.416-2.552 0-4.186 1.834-4.188 4.743 0 2.748 1.7 4.712 4.09 4.71a4.177 4.177 0 0 0 4.057-4.449z"/><path d="m156.747 20.414a6.9 6.9 0 0 0 4.612-1.8c.621-.525 2.193-.392 2.19 1.6 0 1.7-2.485 3.632-6.967 3.631-5.2 0-8.832-3.238-8.833-8.31a8.342 8.342 0 0 1 8.538-8.535 7.629 7.629 0 0 1 8.013 7.82v.88c-.032.817-.26.949-1.112.948h-10.988a4.212 4.212 0 0 0 4.548 3.762m3.238-6.477a3.573 3.573 0 0 0 -3.762-3.7 4.026 4.026 0 0 0 -4.022 3.7z"/></g></svg>