<svg height="22.898" viewBox="0 0 32 22.898" width="32" xmlns="http://www.w3.org/2000/svg"><g fill="#1a1a1a"><path d="m9.965 7.966a4.968 4.968 0 1 0 4.967 4.967 4.968 4.968 0 0 0 -4.967-4.967zm0 8.528a3.561 3.561 0 1 1 3.561-3.561 3.561 3.561 0 0 1 -3.561 3.561z"/><path d="m18.439 10.367.686-1.5-.981-1.7-1.592-.15q-.253-.284-.531-.544l-.155-1.643-1.7-.98-1.449.663c-.241-.078-.488-.149-.737-.206l-.953-1.342h-1.964l-.925 1.3c-.249.052-.5.116-.741.188l-1.497-.68-1.7.98-.15 1.592c-.187.169-.371.346-.542.532l-1.644.154-.982 1.7.663 1.45c-.078.241-.146.488-.206.737l-1.339.955v1.962l1.3.924c.051.249.115.5.189.741l-.689 1.5.982 1.7 1.592.15q.254.281.529.542l.157 1.643 1.7.982 1.45-.663c.241.078.488.148.737.206l.953 1.34h1.965l.922-1.3c.251-.054.5-.115.742-.19l1.5.686 1.7-.983.15-1.591q.284-.254.543-.53l1.644-.156.98-1.7-.663-1.448c.078-.243.148-.487.206-.737l1.341-.951v-1.969l-1.3-.922q-.079-.377-.191-.742zm-8.474 8.911a6.345 6.345 0 1 1 6.345-6.345 6.344 6.344 0 0 1 -6.345 6.345z"/><path d="m25.188 3.417a3.4 3.4 0 1 0 3.4 3.4 3.4 3.4 0 0 0 -3.4-3.4zm0 5.83a2.434 2.434 0 1 1 2.434-2.434 2.435 2.435 0 0 1 -2.434 2.434z"/><path d="m32 7.537v-1.337l-.888-.632c-.037-.171-.08-.34-.13-.507l.467-1.023-.669-1.162-1.089-.1c-.115-.129-.236-.253-.362-.371l-.107-1.123-1.161-.676-.991.453c-.165-.053-.334-.1-.5-.14l-.656-.919h-1.34l-.632.89c-.173.035-.341.08-.507.13l-1.023-.47-1.161.671-.1 1.087c-.129.116-.253.237-.373.365l-1.122.1-.673 1.167.453.992c-.055.165-.1.334-.142.5l-.916.653v1.343l.89.632a5.09 5.09 0 0 0 .13.506l-.47 1.024.671 1.161 1.087.1c.115.128.237.254.362.371l.107 1.123 1.162.671.991-.453q.247.081.5.142l.651.915h1.343l.632-.888a5.048 5.048 0 0 0 .5-.13l1.024.47 1.161-.671.1-1.088c.13-.115.253-.237.373-.364l1.122-.105.686-1.159-.455-.99a5.218 5.218 0 0 0 .142-.5zm-6.812 3.613a4.337 4.337 0 1 1 4.339-4.337 4.339 4.339 0 0 1 -4.339 4.337z"/></g></svg>