<svg viewBox="0 0 13.04 16.95" xmlns="http://www.w3.org/2000/svg"><path d="m0 12.88a6 6 0 0 1 .91-1.41c.27-.4.57-.77.84-1.17a.62.62 0 0 0 .1-.3 6.21 6.21 0 0 0 0-.64.18.18 0 0 1 .15-.21c.22-.08.44-.18.66-.26a.9.9 0 0 0 .45-.33 4.43 4.43 0 0 1 1.6-1.38 4.09 4.09 0 0 1 5 1 2.47 2.47 0 0 0 1.21.87c.34.11.36.13.33.49a1.47 1.47 0 0 0 .35 1.1c.44.55.85 1.14 1.25 1.72a3.44 3.44 0 0 1 .24.48v.33a1.22 1.22 0 0 1 -.88.87c-.18.06-.36.15-.54.22-.42.17-.42.16-.42.62a.19.19 0 0 1 -.15.21l-2.93 1.2-1.61.71h-.07l-.13-.07-4.06-1.67c-.15-.06-.35-.09-.42-.2s0-.31 0-.47a.15.15 0 0 0 -.11-.17c-.29-.11-.57-.24-.86-.35a1.23 1.23 0 0 1 -.91-.86zm6.24 3.35v-.16-4.55a.18.18 0 0 0 -.13-.19l-3.56-1.43h-.12a.27.27 0 0 0 0 .06v2.51a.21.21 0 0 0 .11.14l1 .4a1 1 0 0 1 -.07 1.87 3.22 3.22 0 0 1 -.45.07zm3.85-1.32a3.36 3.36 0 0 1 -.4 0 1 1 0 0 1 -.19-1.91c.33-.15.67-.28 1-.41a.19.19 0 0 0 .14-.21v-2.37-.18l-1.23.5a.18.18 0 0 0 -.07.14v.69a.19.19 0 0 1 -.07.14l-.73.3v-.92l-.17.06-1.37.57a.21.21 0 0 0 -.16.24v4.69zm-7.23-5.5h.06l3.52 1.41a.28.28 0 0 0 .18 0l1.24-.5.1-.06-.12-.06-3.31-1.3a.47.47 0 0 0 -.42 0c-.17.08-.35.14-.52.21zm2.55-1h.08l3.51 1.42a.19.19 0 0 0 .12 0l1.06-.42h-.05l-3.51-1.41a.22.22 0 0 0 -.14 0zm1.41-8.41a7.46 7.46 0 0 1 1 .32 3 3 0 0 1 1.7 3.13 3.05 3.05 0 1 1 -3.4-3.45h.07z" fill="#22416d"/></svg>