<svg height="16.95" viewBox="0 0 13.044 16.95" width="13.044" xmlns="http://www.w3.org/2000/svg"><g fill="#22416d"><path d="m0 12.878a6.007 6.007 0 0 1 .906-1.407c.267-.4.565-.774.839-1.168a.62.62 0 0 0 .1-.3 6.211 6.211 0 0 0 0-.645.178.178 0 0 1 .136-.207c.223-.079.437-.183.66-.259a.9.9 0 0 0 .453-.334 4.427 4.427 0 0 1 1.6-1.38 4.091 4.091 0 0 1 4.96 1.03 2.474 2.474 0 0 0 1.212.871c.344.106.36.132.33.494a1.469 1.469 0 0 0 .354 1.1c.443.555.846 1.142 1.254 1.724a3.435 3.435 0 0 1 .239.481v.331a1.219 1.219 0 0 1 -.882.873c-.182.062-.356.146-.536.217-.418.166-.423.165-.42.621a.2.2 0 0 1 -.151.213q-1.443.572-2.881 1.155c-.541.218-1.079.441-1.619.661h-.065c-.043-.022-.086-.047-.131-.065l-4.058-1.627c-.147-.059-.347-.086-.423-.2s-.035-.307-.031-.465a.149.149 0 0 0 -.113-.168c-.287-.111-.566-.245-.856-.346a1.225 1.225 0 0 1 -.877-.869zm6.239 3.355c0-.073.008-.117.008-.161q0-2.275 0-4.55a.177.177 0 0 0 -.13-.194q-1.785-.712-3.57-1.428c-.039-.016-.08-.025-.123-.038a.266.266 0 0 0 -.018.059v2.515a.21.21 0 0 0 .115.144c.323.14.652.265.977.4a1 1 0 0 1 -.074 1.874 3.223 3.223 0 0 1 -.449.07zm3.849-1.316a3.356 3.356 0 0 1 -.4-.041 1 1 0 0 1 -.188-1.876c.331-.148.67-.281 1.008-.411a.186.186 0 0 0 .14-.205c0-.788 0-1.577 0-2.365 0-.052-.007-.1-.012-.175-.427.171-.831.33-1.231.5a.184.184 0 0 0 -.07.142c-.007.231 0 .463-.007.694a.187.187 0 0 1 -.069.143c-.23.1-.465.193-.725.3v-.924c-.075.027-.126.043-.175.063-.465.186-.927.379-1.395.557a.212.212 0 0 0 -.164.237c.005 1.489 0 2.977 0 4.466v.217zm-7.228-5.509c.036.02.049.03.064.036q1.761.708 3.524 1.412a.278.278 0 0 0 .185-.01c.415-.161.829-.328 1.242-.5a.771.771 0 0 0 .1-.063c-.053-.025-.087-.042-.122-.056-1.107-.44-2.216-.88-3.322-1.327a.474.474 0 0 0 -.422 0c-.168.082-.347.14-.52.21-.239.096-.476.19-.729.298zm2.55-1.027c.047.025.061.034.076.04q1.756.705 3.514 1.408a.191.191 0 0 0 .123.017c.352-.137.7-.279 1.061-.424-.026-.023-.037-.037-.051-.043q-1.755-.7-3.511-1.4a.219.219 0 0 0 -.141-.019c-.351.13-.697.271-1.071.421z"/><path d="m6.82 0a7.459 7.459 0 0 1 1.036.315 3.033 3.033 0 0 1 1.7 3.126 3.055 3.055 0 1 1 -3.439-3.412.345.345 0 0 0 .074-.029z"/></g></svg>