<svg xmlns="http://www.w3.org/2000/svg" viewBox="0 0 54.6 33.5"><path d="M19.4 0l.6.4a12.012 12.012 0 0 0-5.7 9.2C20.8 11.5 24 15.3 24 21a12.463 12.463 0 0 1-3.5 8.9 11.475 11.475 0 0 1-8.6 3.6 10.856 10.856 0 0 1-8.5-3.7A13.211 13.211 0 0 1 0 20.6 18.985 18.985 0 0 1 5.5 7.4 23.745 23.745 0 0 1 19.4 0zm30.7 0l.6.4A12.012 12.012 0 0 0 45 9.6q9.6 2.85 9.6 11.4a12.463 12.463 0 0 1-3.5 8.9 11.475 11.475 0 0 1-8.6 3.6 10.856 10.856 0 0 1-8.5-3.7 13.652 13.652 0 0 1-3.3-9.4 18.985 18.985 0 0 1 5.5-13.2A24.324 24.324 0 0 1 50.1 0z" fill="#d2d2d2"/></svg>