<svg xmlns="http://www.w3.org/2000/svg" width="24.892" height="26.44"><path d="M16.157 19.059a8.326 8.326 0 0 1-7.079-1.511l3.737-2.515-12.369.047.092.15 6.4 10.375.141-3.965a11.657 11.657 0 0 0 9.937.87 10.743 10.743 0 0 0 7.424-9.367v-.031s-1.41 4.515-8.283 5.947zM8.735 7.38a8.326 8.326 0 0 1 7.079 1.511l-3.737 2.515 12.369-.047-.092-.15L17.95.833 17.809 4.8a11.659 11.659 0 0 0-9.937-.87 10.745 10.745 0 0 0-7.424 9.365v.03S1.863 8.812 8.735 7.38z" fill="#fff" stroke="#4d4d4d" stroke-miterlimit="10" stroke-width=".5"/></svg>