<svg height="44.996" viewBox="0 0 20.873 44.996" width="20.873" xmlns="http://www.w3.org/2000/svg"><g fill="#e6e6e6"><path d="m-.69 30.806h19.223v2.919h-19.223z" transform="matrix(.08738177 -.9961749 .9961749 .08738177 -24 38.334)"/><path d="m-1.146 31.924h19.223v.605h-19.223z" transform="matrix(.08759041 -.99615657 .99615657 .08759041 -24.378 37.836)"/><g fill-rule="evenodd"><path d="m7.806 44.996 1.73-3.029-2.907-.254z"/><path d="m7.806 44.996.122-3.169-.602-.053z"/><path d="m11.182 13.493c5.748.5 10.075 4.723 9.664 9.424s-5.406 8.1-11.155 7.6-10.076-4.722-9.664-9.423 5.406-8.105 11.155-7.601z"/><path d="m11.168 13.66c5.318.466 9.321 4.37 8.94 8.719s-5 7.5-10.32 7.032-9.321-4.369-8.94-8.719 5.001-7.498 10.32-7.032z"/><path d="m6.316 10.915 10.106.885-.76 8.682c-.2 2.282-2.624 3.934-5.415 3.69s-4.892-2.292-4.692-4.572z"/><path d="m6.874 11.766 8.85.775-.666 7.6c-.174 2-2.3 3.445-4.742 3.231s-4.282-2.004-4.107-4.002z"/><path d="m6.874 11.766 3.18.279-.97 11.076a3.82 3.82 0 0 1 -2.875-3.751z"/><path d="m8.133 28.322c-4.164-.692-7.143-4.412-6.883-7.379a6.042 6.042 0 0 1 3.55-5.276c.6 1.9-.2 2.627-.368 4.544-.192 2.2 2.069 4.607 4.754 4.842a1.572 1.572 0 0 1 1.187 2.2c-.32 1.109-.973 1.197-2.24 1.069z"/><path d="m12.36.042c4.854.425 8.507 3.988 8.16 7.958s-4.565 6.843-9.419 6.418-8.507-3.988-8.16-7.958 4.565-6.844 9.419-6.418z"/><path d="m12.4.415c4.428.385 7.757 3.634 7.44 7.251s-4.16 6.236-8.583 5.848-7.751-3.634-7.434-7.251 4.159-6.235 8.577-5.848z"/><path d="m10 1.172c2.241.2 3.926 1.841 3.766 3.673s-2.102 3.155-4.342 2.963-3.924-1.841-3.766-3.673 2.106-3.159 4.342-2.963z"/></g></g></svg>