<svg enable-background="new 0 0 12 10" height="10" viewBox="0 0 12 10" width="12" xmlns="http://www.w3.org/2000/svg"><path d="m11.881 4.319-5.301-4.246c-.098-.078-.236-.095-.352-.043-.115.053-.189.168-.189.292v2.238c-2.573.09-4.342.972-5.262 2.624-.792 1.425-.784 3.113-.777 4.229v.258c0 .146.101.275.248.313.027.007.057.009.084.009.118 0 .229-.06.288-.162 1.796-3.077 3.274-3.225 5.416-3.232v2.23c0 .124.074.239.192.292s.253.036.354-.043l5.298-4.26c.076-.062.121-.153.121-.249 0-.095-.044-.188-.12-.25z" fill="#e90e8b"/></svg>