<svg height="18.507" viewBox="0 0 18.507 18.507" width="18.507" xmlns="http://www.w3.org/2000/svg"><g fill="#fff"><path d="m7.3 10.383-6.139 6.142v-3.052a.58.58 0 1 0 -1.161 0v4.454a.587.587 0 0 0 .359.536.6.6 0 0 0 .222.044h4.454a.58.58 0 0 0 0-1.161h-3.053l6.142-6.146a.581.581 0 1 0 -.821-.822zm0 0"/><path d="m18.462.359a.584.584 0 0 0 -.535-.359h-4.455a.58.58 0 1 0 0 1.161h3.053l-6.141 6.139a.581.581 0 0 0 .82.822l6.142-6.143v3.056a.58.58 0 0 0 1.161 0v-4.455a.576.576 0 0 0 -.045-.222zm0 0"/></g></svg>