<svg height="15" viewBox="0 0 14.693 15" width="14.693" xmlns="http://www.w3.org/2000/svg"><g fill="#22416d"><path d="m8.266 1.531h1.836v3.061h-1.836z"/><path d="m12.066 0h-12.066v15h14.693v-12.372zm-9 .613h7.96v4.9h-7.965zm8.877 13.776h-9.495v-6.429h9.49zm0 0"/><path d="m3.979 9.8h2.144a.307.307 0 1 0 0-.613h-2.144a.307.307 0 0 0 0 .613zm0 0"/><path d="m3.979 11.021h3.061a.307.307 0 1 0 0-.613h-3.061a.307.307 0 0 0 0 .613zm0 0"/><path d="m7.96 11.021a.314.314 0 0 0 .217-.09.306.306 0 0 0 0-.433.316.316 0 0 0 -.432 0 .305.305 0 0 0 -.091.217.3.3 0 0 0 .306.307zm0 0"/></g></svg>