<svg enable-background="new 0 0 16 17" height="17" viewBox="0 0 16 17" width="16" xmlns="http://www.w3.org/2000/svg"><path d="m15.762 15.488-3.945-4.208c1.015-1.238 1.57-2.794 1.57-4.415.001-3.785-3.002-6.865-6.694-6.865-3.69 0-6.693 3.08-6.693 6.865 0 3.786 3.003 6.866 6.693 6.866 1.386 0 2.707-.428 3.835-1.243l3.976 4.241c.166.178.389.275.63.275.226 0 .44-.089.604-.25.348-.342.358-.909.024-1.266zm-9.069-13.697c2.728 0 4.948 2.277 4.948 5.074 0 2.798-2.22 5.075-4.948 5.075-2.727 0-4.946-2.276-4.946-5.075 0-2.797 2.219-5.074 4.946-5.074zm0 0" fill="#f3f3f3"/></svg>