<svg xmlns="http://www.w3.org/2000/svg" viewBox="0 0 25.529 28.51"><path d="M12.977 28.51l4.912-2.122v-.3l.849-13.28-5.518 1.7-5.761-1.516c.061 4.487.243 8.974.243 13.462l5.276 2.062zm0-21.527l-.121-.121-.061.061.061-.061C9.456 3.162 7.399.616 8.308.374c1.152.121 2.789 2.971 4.609 6.488 1.94-3.4 3.76-6.246 4.912-6.306.849.3-1.334 2.789-4.912 6.306l.061.121zm.788-2.3c2-3.7 3.335-4.609 4.427-4.427a8.766 8.766 0 0 1 3.032 4.73 2.054 2.054 0 0 1-.364.91l4.669.788-.182 3.881-.546.182-3.517 1.031c.121-2.244.061-3.881-.182-4-.182-.364-1.213-.606-2.426-.728a16.165 16.165 0 0 1-4.245.121c1.516.364 4.123.728 4.184 1.152.3.061.3 1.759.182 4.184l-5.579 1.637-5.761-1.577c0-2.426.061-4.123.3-4.184.243-.3 3.638-.849 5.639-1.273h-.182a20.489 20.489 0 0 1-5.821-.121c-1.152.182-2.122.424-2.365.849-.182 0-.182 1.637-.182 4.123L.601 10.809v.364l4.245 1.152c.061 3.942.182 9.642.182 13.219L.844 23.907.601 10.688l-.546-.182L0 6.616l5.154-.849a1.823 1.823 0 0 1-.485-1.152A8.6 8.6 0 0 1 7.883.006c1.092-.121 2.426.849 4.245 4.609l.97-.182.667.242zm6.61 20.617l3.881-1.7.546-12.552-3.517 1.031c-.243 4.548-.849 11.339-.91 13.219zm-6.792-11.284l-.364.121z" fill="#cd0061" fill-rule="evenodd"/></svg>