<svg xmlns="http://www.w3.org/2000/svg" viewBox="0 0 16 16"><path d="M9.2 5.6a1.268 1.268 0 0 0-.6-.1.85.85 0 0 0-.5.3 1.268 1.268 0 0 0-.1.6.85.85 0 0 0 .3.5A2.717 2.717 0 0 1 9.5 9a2.875 2.875 0 0 1-.7 1.8l-3 3a2.41 2.41 0 0 1-1.8.7A2.476 2.476 0 0 1 1.5 12a2.875 2.875 0 0 1 .7-1.8l1.4-1.4c.2-.1.2-.3.2-.5a.707.707 0 0 0-1.2-.5L1.2 9.2A3.949 3.949 0 0 0 0 12a4.012 4.012 0 0 0 4 4 3.631 3.631 0 0 0 2.8-1.2l3-3A3.949 3.949 0 0 0 11 9a4.172 4.172 0 0 0-1.8-3.4zM12 0a3.631 3.631 0 0 0-2.8 1.2l-3 3A3.949 3.949 0 0 0 5 7a4.172 4.172 0 0 0 1.8 3.4 1.268 1.268 0 0 0 .6.1.85.85 0 0 0 .5-.3 1.268 1.268 0 0 0 .1-.6.85.85 0 0 0-.3-.5A2.57 2.57 0 0 1 6.5 7a2.875 2.875 0 0 1 .7-1.8l3-3a2.41 2.41 0 0 1 1.8-.7A2.476 2.476 0 0 1 14.5 4a2.875 2.875 0 0 1-.7 1.8l-1.4 1.4c-.2.1-.2.3-.2.5a.707.707 0 0 0 1.2.5l1.4-1.4A3.949 3.949 0 0 0 16 4a4.012 4.012 0 0 0-4-4zm0 0" fill-rule="evenodd"/></svg>