<svg xmlns="http://www.w3.org/2000/svg" width="22" height="18" viewBox="0 0 22 18"><path fill="#E90E8B" d="M13.3 3c1 .7 1.7 1.8 2 3 .3.2.8.3 1.3.3 1.8 0 3.2-1.4 3.2-3 0-1.8-1.4-3.2-3.2-3.2-2 0-3.3 1.4-3.3 3zm-2 6.5c1.7 0 3-1.4 3-3s-1.3-3.2-3-3.2c-2 0-3.3 1.4-3.3 3 0 1.8 1.4 3.2 3.2 3.2zm1.2.2H9.8c-2.3 0-4 1.8-4 4V17s4.2 1 5.7 1c3 0 5-1 5-1v-3.3c.2-2.2-1.7-4-4-4zM18 6.5H15c0 1-.5 2-1.2 2.7 2 .6 3.5 2.4 3.5 4.6v1c2.7 0 4.6-1 4.6-1v-3.3c0-2.2-2-4-4-4zM5.4 6.3c.6 0 1.2-.2 1.7-.5.2-1 .7-2 1.5-2.5C8.7 1 7.3 0 5.5 0 3.7 0 2.3 1.4 2.3 3c0 2 1.4 3.3 3.2 3.3zm3 3C7.6 8.4 7 7.5 7 6.4h-3c-2.3 0-4 1.8-4 4v3.3l4.8 1v-1c0-2.2 1.4-4 3.4-4.6z"/></svg>