<svg enable-background="new 0 0 20 21" height="21" viewBox="0 0 20 21" width="20" xmlns="http://www.w3.org/2000/svg"><g fill="#eb008b"><path d="m2.582 20.999c.017-.278.039-.55.045-.822.002-.076-.022-.185-.073-.226-.711-.567-.885-1.649-.456-2.525.247-.504.612-.878 1.121-1.102.26-.114.518-.238.76-.386.116-.071.193-.208.253-.331-.374.187-.752.364-1.12.563-.722.39-1.189 1.11-1.364 2.119-.158-.933.404-2.062 1.247-2.574.169-.103.712-.5.83-.615-1.108-.787-1.297-1.801-.801-3.005-.407.417-.553.936-.542 1.562-.235-.909.19-1.861 1.014-2.353.359-.214.374-.243.213-.639-.088-.217-.198-.424-.304-.632-.535-1.047.348-3.016.41-3.098-.424.067-2.235.288-2.748.215-.953-.134-1.324-.938-.882-1.823.443-.887 1.155-1.467 2.058-1.799 1.013-.373 2.069-.386 3.125-.351.59.02.581.035.719-.567.281-1.22 1.011-1.999 2.192-2.296 1.187-.299 2.391-.42 3.604-.202 1.896.341 3.404 3.634 3.426 3.738.568.059 2.9.303 3.465.556.666.297 1.12.776 1.215 1.548.059.481-.111.895-.396 1.262-.487.626-1.135 1.023-1.84 1.322-.187.079-.275.169-.272.378.008.456-.186.847-.385 1.238-.12.236-.215.486-.312.734-.063.159-.015.259.145.347.713.392 1.167.977 1.215 1.84.009.16.001.32-.026.482-.042-.553-.186-1.055-.581-1.464.493 1.207.31 2.226-.839 3.032.244.174.441.344.662.467.803.444 1.296 1.116 1.448 2.045.034.206.03.418.022.632-.099-.56-.302-1.065-.663-1.497-.294-.352-.656-.597-1.072-.774-.258-.11-.5-.261-.786-.383.087.109.154.252.264.32.249.153.516.276.781.398 1.133.521 1.663 1.894 1.14 2.987-.082.172-.476.725-.456.894.03.255.035.513.052.787-2.243 0-4.449 0-6.684 0 .228-.452.457-.876.657-1.313.309-.675.596-1.361.899-2.039.073-.163.063-.264-.093-.382-.39-.294-.65-.711-.776-1.18-.08-.3-.098-.611-.111-.92-.023-.534.42-.841.73-1.21.345-.41 1.229-2.21 1.372-2.654.053-.166.035-.403.311-.394.029.001.097-.098.086-.124-.084-.208.085-.281.18-.395.201-.241.358-.511.295-.839-.023-.118-.132-.259-.238-.309-.155-.073-.197.092-.247.213-.112.269-.254.517-.543.683.055-.38.106-.727.157-1.082-.395-.077-3.163-.871-4.131-1.339-.559-.271-1.05-.399-1.642-.053-.367.213-.834.242-1.256.353-.005-.02-.009-.039-.014-.059.5-.242 1-.484 1.499-.726-.005-.027-.009-.054-.014-.08-.205-.066-.408-.141-.616-.194-.057-.015-.775.381-1.057.557-.072.044-.132.133-.165.215-.267.679-.269 1.376-.117 2.082.02.094.033.189.057.328-.302-.174-.433-.431-.561-.697-.042-.087-.137-.147-.207-.219-.087.091-.226.17-.25.276-.09.4.121.696.366.977.102.116.106.29.212.411.063.072.185.117.214.214.404 1.341 1.008 2.555 2.047 3.501.052.047.091.134.097.206.07.82.002 1.636-.622 2.207-.36.329-.261.574-.109.897.457.971 1.415 3.012 1.45 3.085-1.501 0-6.502.001-6.684.001z"/><path d="m8.849 13.016c.213-.144.422-.281.626-.426.232-.165.461-.324.756-.152.023.013.064.018.086.006.337-.197.579.012.832.197.177.129.365.243.584.387-.347.253-.696.546-1.08.778-.372.225-.735.066-1.053-.172-.266-.199-.515-.422-.751-.618zm2.414 0c-.652-.277-1.305-.287-1.957 0 .65.383 1.304.371 1.957 0z"/><path d="m11.263 13.016c-.653.371-1.306.383-1.957 0 .651-.287 1.305-.277 1.957 0z"/></g></svg>