<svg enable-background="new 0 0 17 20" height="20" viewBox="0 0 17 20" width="17" xmlns="http://www.w3.org/2000/svg"><g fill="#e90e8b"><path d="m13.354 15.425c2.206-1.527 3.653-4.062 3.653-6.937 0-4.668-3.806-8.451-8.501-8.451s-8.501 3.784-8.501 8.451c0 2.876 1.448 5.413 3.656 6.94-.782.765-1.602 1.675-2.489 2.8-1.168 1.515-.37 2.35 1.125 1.401 4.301-2.76 8.145-2.76 12.446 0 1.481.963 2.278.113 1.111-1.401-.889-1.119-1.716-2.035-2.5-2.803zm-4.848-11.751c2.674 0 4.841 2.155 4.841 4.813s-2.167 4.813-4.841 4.813-4.842-2.155-4.842-4.813c.001-2.658 2.168-4.813 4.842-4.813z"/><path d="m8.506 5.458c-1.683 0-3.047 1.356-3.047 3.029s1.364 3.029 3.047 3.029 3.047-1.356 3.047-3.029c.001-1.673-1.364-3.029-3.047-3.029zm0 5.04c-1.117 0-2.022-.9-2.022-2.01s.905-2.01 2.022-2.01 2.022.9 2.022 2.01c0 1.109-.905 2.01-2.022 2.01z"/></g></svg>