<svg enable-background="new 0 0 23 17" height="17" viewBox="0 0 23 17" width="23" xmlns="http://www.w3.org/2000/svg"><g fill="#e90e8b"><path d="m22.996.168c-.02-.03-.058-.168-.098-.168h-22.816c-.027 0-.054.114-.076.132l10.971 9.418c.139.116.335.45.543.45h.004c.174 0 .346-.266.484-.359"/><path d="m.084 17h22.816c.064 0 .1-1.238.1-1.305v-.02l-8.592-6.996-1.714 1.456c-.314.259-.732.403-1.163.403s-.844-.142-1.156-.401l-1.783-1.503-8.592 7.039v.022c0 .067.016 1.305.084 1.305z"/><path d="m0 1.449v12.983l7.859-6.427z"/><path d="m23 1.491-7.849 6.559 7.849 6.386z"/></g></svg>