<svg enable-background="new 0 0 22 19" height="19" viewBox="0 0 22 19" width="22" xmlns="http://www.w3.org/2000/svg"><g fill="#e90e8b"><path d="m1.774 19h3.101v-9.344l-3.101 1.686zm0 0"/><path d="m5.819 9.142v9.858h3.101v-5.865l-2.41-4.37zm0 0"/><path d="m9.864 19h3.101v-6.84l-3.101 2.689zm0 0"/><path d="m13.908 19h3.101v-10.351l-3.101 2.689zm0 0"/><path d="m17.953 7.827v11.173h3.097v-9.984l-2.08-2.068zm0 0"/><path d="m10.326 12.75 8.699-7.616 1.471 1.462 1.532-6.596-6.637 1.52 1.373 1.365-5.608 4.911-2.919-5.096-8.186 4.456 1.533 2.785 5.435-2.959zm0 0"/></g></svg>