<svg enable-background="new 0 0 24 26" height="26" viewBox="0 0 24 26" width="24" xmlns="http://www.w3.org/2000/svg"><g fill="#e90e8b"><path d="m15.97.036c1.873 0 3.391 1.503 3.391 3.357s-1.518 3.357-3.391 3.357-3.391-1.503-3.391-3.357 1.518-3.357 3.391-3.357z"/><path d="m11.624 7.626c.017-.138.027-.278.027-.42 0-1.854-1.518-3.357-3.391-3.357s-3.391 1.503-3.391 3.357c0 .142.01.282.027.42z"/><path d="m12.214 19.287v-3.362c0-1.489 1.223-2.7 2.727-2.7h7.3v-2.777c0-.683-.559-1.236-1.248-1.236h-19.697c-.689 0-1.248.553-1.248 1.236v14.316c-.001.683.558 1.236 1.248 1.236h19.697c.689 0 1.248-.553 1.248-1.236v-2.777h-7.3c-1.504 0-2.727-1.211-2.727-2.7z"/><path d="m16.633 18.795c-.663 0-1.2-.532-1.2-1.188s.537-1.188 1.2-1.188 1.2.532 1.2 1.188-.537 1.188-1.2 1.188zm6.346-3.882h-8.038c-.565 0-1.023.453-1.023 1.012v3.362c0 .559.458 1.012 1.023 1.012h8.038c.565 0 1.023-.453 1.023-1.012v-3.362c-.001-.559-.458-1.012-1.023-1.012z"/></g></svg>