<svg enable-background="new 0 0 23 19" height="19" viewBox="0 0 23 19" width="23" xmlns="http://www.w3.org/2000/svg"><path d="m1.79 9.141c3.727 3.67.13.128 4.083 4.02 8.309-8.185 5.548-5.662 9.597-9.492 1.67-2.1 5.074-.923 5.074 1.77 0 .672-.233 1.289-.623 1.776-.809.8-7.119 7.2-8.185 8.254l-1.121-1.101 8.162-8.302c.788-1.354-1.144-2.598-2.072-1.383-.188.182-9.543 9.436-9.702 9.591.239.236 4.583 4.512 4.808 4.734.041-.041 9.961-10.15 9.961-10.15.755-.934 1.208-2.123 1.208-3.418 0-4.463-5.042-6.964-8.592-4.431-.335.332-8.077 8.161-8.569 8.648-.426-.42-2.409-2.367-2.679-2.632-1.711-1.807-.352-4.894 2.149-4.894.678 0 1.631.268 2.179 1.01l-1.125 1.198c-.495-.456-.807-.562-1.054-.562-1.004 0-1.575 1.178-.959 1.96l1.832 1.799c.139-.143 3.665-3.787 3.957-4.089-.77-2.235-2.788-3.546-5.141-3.43-4.74.233-6.742 6.166-3.188 9.124z" fill="#e90e8b"/></svg>