<svg height="25" viewBox="0 0 25 25" width="25" xmlns="http://www.w3.org/2000/svg"><path d="m20.99 4.011a12.006 12.006 0 1 0 0 16.977 12.019 12.019 0 0 0 0-16.977z" fill="none" stroke="#4d4d4d" stroke-miterlimit="10"/><path d="m8.022 9.251a1.4 1.4 0 1 1 1.4 1.4 1.4 1.4 0 0 1 -1.4-1.4z" fill="#4d4d4d"/><path d="m14.385 9.251a1.4 1.4 0 1 1 1.4 1.4 1.4 1.4 0 0 1 -1.4-1.4z" fill="#4d4d4d"/><path d="m17.7 15a5.6 5.6 0 0 1 -5.188 3.31 5.563 5.563 0 0 1 -5.22-3.327" fill="none" stroke="#4d4d4d" stroke-miterlimit="10"/></svg>