<svg enable-background="new 0 0 47 39" height="39" viewBox="0 0 47 39" width="47" xmlns="http://www.w3.org/2000/svg"><path d="m3.698 18.821c7.622 7.516.266.262 8.35 8.234 16.991-16.765 11.346-11.598 19.625-19.443 3.415-4.302 10.375-1.89 10.375 3.626 0 1.377-.477 2.641-1.273 3.638-1.655 1.638-14.557 14.747-16.738 16.905l-2.292-2.256 16.691-17.004c1.611-2.773-2.34-5.322-4.237-2.832-.384.374-19.514 19.327-19.84 19.645.49.483 9.372 9.242 9.832 9.696.084-.084 20.369-20.79 20.369-20.79 1.545-1.913 2.47-4.349 2.47-7.001 0-9.142-10.31-14.263-17.569-9.076-.685.679-16.517 16.716-17.524 17.714-.872-.858-4.926-4.847-5.478-5.39-3.498-3.7-.72-10.023 4.395-10.023 1.386 0 3.334.549 4.456 2.068l-2.302 2.454c-1.013-.933-1.65-1.151-2.154-1.151-2.053 0-3.222 2.412-1.961 4.015l3.746 3.686c.283-.294 7.494-7.757 8.092-8.376-1.574-4.579-5.701-7.262-10.513-7.026-9.694.475-13.788 12.628-6.52 18.687z" fill="#e90e8b"/></svg>