<svg enable-background="new 0 0 43 31" height="31" viewBox="0 0 43 31" width="43" xmlns="http://www.w3.org/2000/svg"><g fill="#e90e8b"><path d="m43.039.299c-.037-.055-.109-.299-.184-.299h-42.699c-.051 0-.1.208-.142.242l20.532 17.065c.259.211.627.693 1.016.693h.008c.326 0 .648-.357.907-.527"/><path d="m.16 31h42.699c.12 0 .141-2.226.141-2.348v-.037l-16.057-12.772-3.196 2.657c-.588.474-1.364.736-2.17.736s-1.576-.259-2.161-.733l-3.337-2.743-16.079 12.852v.041c0 .121.033 2.347.16 2.347z"/><path d="m0 2.645v23.701l14.707-11.732z"/><path d="m43 2.723-14.689 11.973 14.689 11.658z"/></g></svg>