<svg enable-background="new 0 0 41 39" height="39" viewBox="0 0 41 39" width="41" xmlns="http://www.w3.org/2000/svg"><path d="m40.962 17.035c0-9.408-9.161-17.035-20.462-17.035s-20.462 7.627-20.462 17.035 8.197 16.815 19.498 16.815c1.097 0 1.881-.065 2.932-.204 3.309 2.987 10.458 5.31 10.458 5.31-2.049-2.243-3.38-5.515-3.587-6.554 6.876-2.745 11.623-8.594 11.623-15.367zm-29.182 2.541c-1.503 0-2.721-1.227-2.721-2.742s1.218-2.741 2.721-2.741c1.502 0 2.721 1.227 2.721 2.741s-1.219 2.742-2.721 2.742zm8.26 0c-1.503 0-2.721-1.227-2.721-2.742s1.218-2.741 2.721-2.741 2.721 1.227 2.721 2.741-1.218 2.742-2.721 2.742zm7.926 0c-1.503 0-2.721-1.227-2.721-2.742s1.218-2.741 2.721-2.741 2.721 1.227 2.721 2.741-1.218 2.742-2.721 2.742z" fill="#e90e8b"/></svg>