<svg viewBox="0 0 10 10" xmlns="http://www.w3.org/2000/svg"><circle cx="5" cy="5" fill="#808080" r="5" transform="matrix(.99999877 -.0015708 .0015708 .99999877 -.01 .01)"/><g fill="#fff"><g opacity=".28"><path d="m8.45 1.37-7.32 6.79q.16.19.34.37l7.33-6.79q-.17-.19-.35-.37z"/><path d="m9.71 3.3a5 5 0 0 0 -.56-1.1l-7.25 6.71a5 5 0 0 0 1.1.64z"/><path d="m.27 6.62a5 5 0 0 0 .59 1.18l7.25-6.72a5 5 0 0 0 -1.11-.68z"/></g><path d="m5.13 9.67a.07.07 0 0 1 0-.14h.14a.07.07 0 1 1 0 .14zm-.43 0h-.15a.07.07 0 1 1 0-.14h.14a.07.07 0 0 1 0 .14zm1 0a.07.07 0 0 1 0-.14h.14a.07.07 0 1 1 0 .14zm-1.58 0-.12-.11a.07.07 0 1 1 0-.14h.14a.07.07 0 0 1 0 .14zm2.14-.1a.07.07 0 0 1 0-.14h.14a.07.07 0 1 1 0 .14zm-2.7 0h-.14a.07.07 0 1 1 0-.14h.13a.07.07 0 0 1 0 .14zm3.24-.16a.07.07 0 0 1 0-.14l.13-.06a.07.07 0 0 1 .07.02l-.13.06zm-3.8-.17-.13-.06a.07.07 0 0 1 .07-.18l.13.06a.07.07 0 0 1 0 .14zm4.32-.24a.07.07 0 0 1 0-.13l.12-.07a.07.07 0 0 1 .08.12l-.16.08zm-4.79 0-.12-.08a.07.07 0 1 1 .08-.12l.12.08a.07.07 0 0 1 0 .13zm5.27-.29a.07.07 0 0 1 0-.13l.11-.09a.07.07 0 1 1 .09.11l-.11.09zm-5.73-.09-.11-.09a.07.07 0 0 1 .04-.13l.11.09a.07.07 0 0 1 0 .13zm6.16-.29h-.05a.07.07 0 0 1 0-.1l.1-.1a.07.07 0 0 1 .1.1l-.1.1zm-6.58-.1h-.05l-.1-.13a.07.07 0 1 1 .1-.1l.1.1a.07.07 0 0 1 0 .1zm7-.33a.07.07 0 0 1 0-.1l.09-.11a.07.07 0 0 1 .12.08l-.09.12a.07.07 0 0 1 -.16.01zm-7.37-.11a.07.07 0 0 1 -.06 0l-.08-.12a.07.07 0 0 1 .12-.08l.08.12a.07.07 0 0 1 0 .1zm7.65-.37a.07.07 0 0 1 0-.1l.07-.12a.07.07 0 0 1 .13.07l-.13.11a.07.07 0 0 1 -.07.04zm-7.93-.12a.07.07 0 0 1 -.06 0l-.1-.17a.07.07 0 0 1 .16-.06v.12a.07.07 0 0 1 0 .1zm8.2-.39a.07.07 0 0 1 0-.09l.05-.13a.07.07 0 1 1 .13.05l-.06.14a.07.07 0 0 1 -.12.03zm-8.48-.13a.07.07 0 0 1 -.07 0l-.05-.18a.07.07 0 1 1 .14 0l.05.13a.07.07 0 0 1 0 .09zm8.67-.42a.07.07 0 0 1 0-.09v-.14a.07.07 0 0 1 .14 0v.14a.07.07 0 0 1 -.14.09zm-8.85-.13a.07.07 0 0 1 -.07-.05l-.03-.18a.07.07 0 0 1 .14 0v.14a.07.07 0 0 1 -.05.09zm9-.43a.07.07 0 0 1 -.06-.08v-.14a.07.07 0 0 1 .14 0v.14a.07.07 0 0 1 -.1.08zm-9.1-.13a.07.07 0 0 1 -.07-.07v-.15a.07.07 0 0 1 .14 0v.14a.07.07 0 0 1 -.06.08zm9.13-.44a.07.07 0 0 1 -.07-.07s0-.09 0-.14a.07.07 0 1 1 .14 0v.15a.07.07 0 0 1 -.07.06zm-9.17-.14a.07.07 0 0 1 -.07-.09s0-.09 0-.14a.07.07 0 0 1 .07-.05.07.07 0 0 1 .07.07s0 .12 0 .12a.08.08 0 0 1 -.07.09zm9.15-.45a.07.07 0 0 1 -.07-.07v-.14a.07.07 0 1 1 .14 0v.15a.07.07 0 0 1 -.06.08zm-9.11-.12a.07.07 0 0 1 -.06-.08v-.14a.07.07 0 1 1 .14 0v.14a.07.07 0 0 1 -.08.08zm9-.45a.07.07 0 0 1 -.05-.07v-.14a.07.07 0 1 1 .14 0v.14a.07.07 0 0 1 -.05.09zm-8.9-.07a.07.07 0 0 1 -.05-.09v-.14a.07.07 0 0 1 .14 0v.14a.07.07 0 0 1 -.09.09zm8.76-.48a.07.07 0 0 1 -.07 0l-.05-.13a.07.07 0 1 1 .13-.05l.05.14a.07.07 0 0 1 0 .09zm-8.58-.11a.07.07 0 0 1 0-.09l.06-.14a.07.07 0 1 1 .13.06l-.05.13a.07.07 0 0 1 -.14.04zm8.35-.41a.07.07 0 0 1 -.07 0l-.07-.12a.07.07 0 1 1 .13-.07l.07.13a.07.07 0 0 1 0 .1zm-8.07-.12a.07.07 0 0 1 0-.1v-.13a.07.07 0 1 1 .12.07l-.12.13a.07.07 0 0 1 0 .03zm7.77-.38a.07.07 0 0 1 -.06 0l-.08-.12a.07.07 0 0 1 .12-.08l.08.12a.07.07 0 0 1 0 .1zm-7.5-.1a.07.07 0 0 1 0-.1l.09-.12a.07.07 0 1 1 .11.09l-.09.11a.07.07 0 0 1 -.11.02zm7.15-.4h-.06l-.1-.1a.07.07 0 1 1 .1-.1l.1.11a.07.07 0 0 1 0 .1zm-6.78 0a.07.07 0 0 1 0-.1l.1-.11a.07.07 0 0 1 .1.1l-.1.1zm6.36-.36-.11-.09a.07.07 0 0 1 .09-.11l.11.09a.07.07 0 0 1 0 .1zm-6-.08a.07.07 0 0 1 0-.13l.11-.09a.07.07 0 0 1 .09.11l-.11.09zm5.5-.27-.11-.09a.07.07 0 1 1 .08-.12l.12.08a.07.07 0 0 1 0 .13zm-5-.07a.07.07 0 0 1 0-.13l.11-.09a.07.07 0 1 1 .07.12l-.12.07zm4.56-.22h-.06l-.1-.08a.07.07 0 1 1 .1-.13l.13.06a.07.07 0 0 1 0 .14zm-4.06-.06a.07.07 0 0 1 0-.14l.13-.06a.07.07 0 0 1 .06.13l-.13.06zm3.53-.17h-.13a.07.07 0 0 1 0-.14h.14a.07.07 0 0 1 0 .14zm-3 0a.07.07 0 0 1 0-.14h.14a.07.07 0 0 1 0 .14zm2.47-.16h-.14a.07.07 0 1 1 0-.14h.14a.07.07 0 0 1 0 .14zm-1.88-.03a.07.07 0 0 1 0-.14h.14a.07.07 0 0 1 0 .14zm1.29-.06h-.15a.07.07 0 0 1 -.07-.09.07.07 0 0 1 .08-.06h.15a.07.07 0 0 1 0 .14zm-.72 0a.07.07 0 0 1 0-.14h.15a.07.07 0 0 1 .06.05.07.07 0 0 1 -.07.07h-.14z"/><circle cx="5" cy="4.99" r="4.19"/><g opacity=".16"><path d="m1.09 5.86a4 4 0 0 0 .51 1.25l5.77-5.34a4 4 0 0 0 -1.21-.61z"/><path d="m7.72 2.05-5.86 5.43a4 4 0 0 0 .33.37l5.87-5.43a4 4 0 0 0 -.34-.37z"/><path d="m8.89 4.06a4 4 0 0 0 -.48-1.17l-5.76 5.34a4 4 0 0 0 1.13.57z"/></g></g><path d="m4.53 4.57q.47.79.72 1.16a8.76 8.76 0 0 0 .54.71 2.05 2.05 0 0 0 .56-1.14.38.38 0 0 0 -.14-.3.65.65 0 0 0 -.42-.12h-.19v-.26h2v.25h-.15a.77.77 0 0 0 -.32.06.7.7 0 0 0 -.23.18 2 2 0 0 0 -.26.45 5.64 5.64 0 0 1 -.64 1.09 1.35 1.35 0 0 0 .86.5.47.47 0 0 0 .36-.15 1.17 1.17 0 0 0 .2-.61h.22a1.57 1.57 0 0 1 -.29 1 .91.91 0 0 1 -.73.35 1.15 1.15 0 0 1 -.51-.13 2.87 2.87 0 0 1 -.62-.46 3 3 0 0 1 -.75.46 1.94 1.94 0 0 1 -.7.13 1.54 1.54 0 0 1 -1.13-.44 1.45 1.45 0 0 1 -.45-1.07 1.48 1.48 0 0 1 .28-.88 2.91 2.91 0 0 1 1-.78 2.82 2.82 0 0 1 -.34-1.17 1.16 1.16 0 0 1 .37-.87 1.26 1.26 0 0 1 .91-.36 1.17 1.17 0 0 1 .81.26.89.89 0 0 1 .3.7 1.17 1.17 0 0 1 -.28.76 2.82 2.82 0 0 1 -.98.68zm-.63.28a1.2 1.2 0 0 0 -.76 1 1.66 1.66 0 0 0 .36 1 1.05 1.05 0 0 0 .89.5 1.51 1.51 0 0 0 .92-.36 10.36 10.36 0 0 1 -.63-.83q-.29-.45-.78-1.31zm.49-.56a1.78 1.78 0 0 0 .71-.49 1 1 0 0 0 .19-.62.77.77 0 0 0 -.18-.54.59.59 0 0 0 -.46-.2.6.6 0 0 0 -.45.19.7.7 0 0 0 -.18.5 2.62 2.62 0 0 0 .37 1.16z" fill="#808080"/></svg>