<svg viewBox="0 0 12.21 12.21" xmlns="http://www.w3.org/2000/svg"><circle cx="6.1" cy="6.1" fill="#22416d" r="6.1" transform="matrix(.99999877 -.0015708 .0015708 .99999877 -.01 .01)"/><g fill="#fff"><g opacity=".28"><path d="m10.32 1.68-8.94 8.32q.19.24.41.45l8.95-8.29q-.2-.27-.42-.48z"/><path d="m11.85 4a6.08 6.08 0 0 0 -.68-1.34l-8.85 8.22a6.1 6.1 0 0 0 1.29.78z"/><path d="m.33 8.08a6.08 6.08 0 0 0 .72 1.44l8.85-8.2a6.1 6.1 0 0 0 -1.37-.83z"/></g><path d="m6.27 11.8a.09.09 0 0 1 0-.18h.17a.09.09 0 0 1 0 .18zm-.53 0h-.18a.09.09 0 1 1 0-.17h.17a.09.09 0 0 1 0 .18zm1.26-.06a.09.09 0 0 1 0-.17h.17a.09.09 0 0 1 0 .17h-.18zm-2-.03h-.18a.09.09 0 1 1 0-.17h.17a.09.09 0 0 1 0 .17zm2.61-.12a.09.09 0 0 1 0-.17l.17-.05a.09.09 0 0 1 .05.17l-.17.05zm-3.29 0-.17-.06a.09.09 0 1 1 .06-.17l.16.06a.09.09 0 0 1 0 .17zm4-.19a.09.09 0 0 1 0-.17l.16-.07a.09.09 0 1 1 .08.16l-.16.07zm-4.6-.07-.16-.08a.09.09 0 0 1 .03-.25l.16.08a.09.09 0 0 1 0 .17zm5.22-.33a.09.09 0 0 1 0-.16l.06-.07a.09.09 0 1 1 .09.15l-.09.08zm-5.85-.09h-.09l-.15-.1a.09.09 0 1 1 .1-.15l.14.1a.09.09 0 0 1 0 .16zm6.43-.31a.09.09 0 0 1 -.05-.16l.13-.11a.09.09 0 1 1 .11.14l-.14.11zm-7-.11h-.06l-.14-.12a.09.09 0 0 1 .12-.13l.13.11a.09.09 0 0 1 -.06.16zm7.48-.33a.09.09 0 0 1 0-.16l.12-.12a.09.09 0 0 1 .13.12l-.12.13a.09.09 0 0 1 -.13.03zm-8-.16a.09.09 0 0 1 -.06 0l-.12-.13a.09.09 0 1 1 .18-.1l.12.13a.09.09 0 0 1 0 .12zm8.5-.41h-.05a.09.09 0 0 1 0-.12l.1-.14a.09.09 0 0 1 .14.1l-.11.14a.09.09 0 0 1 -.07.07zm-8.94-.09a.09.09 0 0 1 -.07 0l-.1-.15a.09.09 0 0 1 .15-.1l.1.14a.09.09 0 0 1 0 .12zm9.34-.45a.09.09 0 0 1 0-.12l.09-.15a.09.09 0 0 1 .15.08l-.14.14a.09.09 0 0 1 -.1.06zm-9.72-.14a.09.09 0 0 1 -.08 0l-.1-.2a.09.09 0 0 1 .16-.08l.08.15a.09.09 0 0 1 0 .12zm10-.48a.09.09 0 0 1 0-.12l.07-.16a.09.09 0 0 1 .16.06l-.07.17a.09.09 0 0 1 -.12.05zm-10.3-.15a.09.09 0 0 1 -.08-.06l-.06-.17a.09.09 0 1 1 .16-.05l.1.16a.09.09 0 0 1 0 .11zm10.58-.51a.09.09 0 0 1 -.06-.11v-.17a.09.09 0 0 1 .17 0v.17a.09.09 0 0 1 -.11.11zm-10.79-.16a.09.09 0 0 1 -.09-.07v-.17a.09.09 0 0 1 .17 0v.17a.09.09 0 0 1 -.06.11zm10.95-.52a.09.09 0 0 1 -.08-.1v-.17a.09.09 0 0 1 .17 0v.18a.09.09 0 0 1 -.1.08zm-11.09-.17a.09.09 0 0 1 -.09-.08v-.18a.09.09 0 0 1 .17 0v.17a.09.09 0 0 1 -.08.1zm11.15-.53a.09.09 0 0 1 -.08-.09q0-.09 0-.17a.09.09 0 1 1 .18 0v.18a.09.09 0 0 1 -.1.07zm-11.19-.18a.08.08 0 0 1 -.09-.08q0-.13 0-.13a.09.09 0 0 1 .09-.09.09.09 0 0 1 .09.09q0 .08 0 .16a.09.09 0 0 1 -.09.05zm11.17-.55a.09.09 0 0 1 -.09-.08v-.17a.09.09 0 1 1 .17 0v.18a.09.09 0 0 1 -.08.1zm-11.13-.14a.09.09 0 0 1 -.08-.1v-.18a.09.09 0 0 1 .17 0v.17a.09.09 0 0 1 -.09.11zm11-.55a.09.09 0 0 1 -.09-.07v-.17a.09.09 0 1 1 .17 0v.17a.09.09 0 0 1 -.07.11zm-10.87-.15a.09.09 0 0 1 -.06-.11v-.17a.09.09 0 1 1 .17 0v.17a.09.09 0 0 1 -.11.11zm10.69-.52a.09.09 0 0 1 -.08-.06l-.06-.16a.09.09 0 0 1 .16-.08l.06.17a.09.09 0 0 1 -.05.11zm-10.47-.14a.09.09 0 0 1 -.09-.16l.07-.17a.09.09 0 1 1 .14.11v.16a.09.09 0 0 1 -.12.06zm10.19-.5a.09.09 0 0 1 -.08 0l-.08-.15a.09.09 0 1 1 .15-.09l.08.16a.09.09 0 0 1 0 .12zm-9.9-.14a.09.09 0 0 1 0-.12l.09-.16a.09.09 0 0 1 .15.09l-.09.15a.09.09 0 0 1 -.15.04zm9.54-.52a.09.09 0 0 1 -.07 0l-.1-.14a.09.09 0 1 1 .14-.1l.1.15a.09.09 0 0 1 0 .12zm-9.16-.07h-.05a.09.09 0 0 1 0-.12l.11-.14a.09.09 0 1 1 .14.11l-.1.14a.09.09 0 0 1 -.1.01zm8.72-.43a.09.09 0 0 1 -.07 0l-.12-.13a.09.09 0 1 1 .13-.12l.12.13a.09.09 0 0 1 0 .12zm-8.27-.12h-.06a.09.09 0 0 1 0-.12l.12-.13a.09.09 0 1 1 .12.12l-.12.12a.09.09 0 0 1 -.06.01zm7.78-.38h-.06l-.13-.11a.09.09 0 0 1 .11-.14l.14.12a.09.09 0 0 1 -.06.13zm-7.27-.1a.09.09 0 0 1 -.06-.16l.14-.11a.09.09 0 1 1 .11.14l-.13.11zm6.71-.33-.22-.11a.09.09 0 1 1 .09-.15l.15.1a.09.09 0 0 1 0 .16zm-6.14-.08a.09.09 0 0 1 0-.16l.15-.09a.09.09 0 0 1 .09.15l-.15.09zm5.54-.27-.16-.08a.09.09 0 1 1 .03-.14h.16a.09.09 0 0 1 0 .17zm-4.93-.07a.09.09 0 0 1 0-.17l.13-.07a.09.09 0 0 1 .07.16l-.16.07zm4.31-.21-.23-.07a.09.09 0 1 1 .06-.16l.17.06a.09.09 0 0 1 0 .17zm-3.66-.05a.09.09 0 0 1 0-.17l.15-.06a.09.09 0 1 1 0 .17l-.12.05zm2.95-.15-.19-.03a.09.09 0 1 1 0-.17h.17a.09.09 0 0 1 0 .17zm-2.29-.03a.09.09 0 0 1 0-.17h.18a.09.09 0 0 1 0 .17zm1.6-.08h-.18a.09.09 0 0 1 -.09-.1.09.09 0 0 1 .1-.08h.18a.09.09 0 0 1 0 .18zm-.88 0a.09.09 0 0 1 0-.18h.18a.09.09 0 0 1 .1.07.09.09 0 0 1 -.1.09h-.18z"/><circle cx="6.1" cy="6.09" r="5.11"/><g opacity=".16"><path d="m1.33 7.15a4.85 4.85 0 0 0 .67 1.52l7-6.51a4.87 4.87 0 0 0 -1.47-.74z"/><path d="m9.42 2.51-7.14 6.61a4.91 4.91 0 0 0 .41.45l7.15-6.62a4.91 4.91 0 0 0 -.42-.44z"/><path d="m10.85 5a4.85 4.85 0 0 0 -.59-1.42l-7.03 6.42a4.87 4.87 0 0 0 1.37.7z"/></g></g><path d="m5.53 5.57q.57.97.87 1.43a10.7 10.7 0 0 0 .66.87 2.5 2.5 0 0 0 .69-1.39.47.47 0 0 0 -.17-.38.8.8 0 0 0 -.51-.14h-.24v-.3h2.45v.3h-.19a.94.94 0 0 0 -.39.04.85.85 0 0 0 -.28.22 2.48 2.48 0 0 0 -.31.54 6.89 6.89 0 0 1 -.8 1.34 1.64 1.64 0 0 0 1.05.62.57.57 0 0 0 .46-.22 1.43 1.43 0 0 0 .24-.74h.27a1.91 1.91 0 0 1 -.33 1.24 1.11 1.11 0 0 1 -.9.43 1.4 1.4 0 0 1 -.62-.15 3.51 3.51 0 0 1 -.76-.56 3.63 3.63 0 0 1 -.91.56 2.37 2.37 0 0 1 -.86.15 1.88 1.88 0 0 1 -1.38-.53 1.76 1.76 0 0 1 -.57-1.3 1.8 1.8 0 0 1 .35-1.08 3.55 3.55 0 0 1 1.24-1 3.44 3.44 0 0 1 -.42-1.43 1.41 1.41 0 0 1 .45-1.06 1.53 1.53 0 0 1 1.11-.44 1.43 1.43 0 0 1 1 .32 1.09 1.09 0 0 1 .36.85 1.43 1.43 0 0 1 -.35.93 3.44 3.44 0 0 1 -1.21.88zm-.77.34a1.47 1.47 0 0 0 -.93 1.24 2 2 0 0 0 .43 1.16 1.29 1.29 0 0 0 1.08.61 1.84 1.84 0 0 0 1.12-.44 12.65 12.65 0 0 1 -.77-1q-.33-.48-.93-1.56zm.6-.68a2.18 2.18 0 0 0 .87-.59 1.22 1.22 0 0 0 .24-.75.94.94 0 0 0 -.22-.66.72.72 0 0 0 -.56-.23.73.73 0 0 0 -.55.23.85.85 0 0 0 -.22.61 3.19 3.19 0 0 0 .44 1.39z" fill="#22416d"/></svg>