<svg viewBox="0 0 19.97 19.97" xmlns="http://www.w3.org/2000/svg"><circle cx="9.99" cy="9.99" fill="#fff" r="9.99" transform="matrix(.99999877 -.0015708 .0015708 .99999877 -.02 .02)"/><g fill="#fff" opacity=".28"><path d="m16.88 2.74-14.62 13.55q.32.39.67.74l14.64-13.56q-.33-.38-.69-.73z"/><path d="m19.39 6.59a10 10 0 0 0 -1.11-2.2l-14.48 13.41a10 10 0 0 0 2.1 1.28z"/><path d="m.54 13.22a10 10 0 0 0 1.18 2.35l14.48-13.42a10 10 0 0 0 -2.25-1.35z"/></g><path d="m10.25 19.31a.14.14 0 0 1 0-.29h.28a.14.14 0 0 1 0 .29h-.3zm-.86 0h-.29a.14.14 0 1 1 0-.29h.28a.14.14 0 0 1 0 .29zm2-.1a.14.14 0 0 1 0-.29h.28a.14.14 0 1 1 .05.28l-.29.05zm-3.15 0-.29-.06a.14.14 0 1 1 .05-.34l.28.06a.14.14 0 0 1 0 .28zm4.27-.2a.14.14 0 0 1 0-.28l.27-.08a.14.14 0 1 1 .09.27l-.28.09zm-5.38-.08-.28-.09a.14.14 0 1 1 .1-.27l.27.09a.14.14 0 0 1 0 .28zm6.46-.31a.14.14 0 0 1 -.06-.28l.26-.12a.14.14 0 1 1 .12.26l-.27.12zm-7.53-.11h-.06l-.26-.13a.14.14 0 0 1 .13-.26l.25.12a.14.14 0 0 1 -.06.27zm8.56-.51a.14.14 0 0 1 -.07-.27l.24-.15a.14.14 0 1 1 .15.24l-.24.18zm-9.56-.1h-.08l-.24-.16a.14.14 0 1 1 .16-.24l.24.16a.14.14 0 0 1 -.08.27zm10.52-.5a.14.14 0 0 1 -.09-.26l.22-.18a.14.14 0 1 1 .18.22l-.23.18a.14.14 0 0 1 -.09.03zm-11.45-.18a.14.14 0 0 1 -.09 0l-.23-.22a.14.14 0 0 1 .19-.22l.22.18a.14.14 0 0 1 -.09.25zm12.31-.59a.14.14 0 0 1 -.1-.25l.2-.2a.14.14 0 0 1 .21.2l-.2.21a.14.14 0 0 1 -.12.04zm-13.15-.2a.14.14 0 0 1 -.1 0l-.19-.26a.14.14 0 1 1 .2-.17l.19.21a.14.14 0 0 1 -.1.24zm13.91-.66a.14.14 0 0 1 -.11-.23l.17-.23a.14.14 0 1 1 .23.17l-.18.23a.14.14 0 0 1 -.12.06zm-14.65-.22a.14.14 0 0 1 -.12-.06l-.17-.24a.14.14 0 0 1 .24-.16l.16.23a.14.14 0 0 1 -.12.23zm15.29-.73h-.07a.14.14 0 0 1 -.05-.2l.14-.25a.14.14 0 0 1 .25.14l-.15.25a.14.14 0 0 1 -.12.06zm-15.9-.24a.14.14 0 0 1 -.13-.07l-.14-.26a.14.14 0 0 1 .26-.13l.13.25a.14.14 0 0 1 -.06.2zm16.43-.79h-.06a.14.14 0 0 1 -.07-.19l.11-.26a.14.14 0 1 1 .27.11l-.11.27a.14.14 0 0 1 -.15.07zm-16.92-.25a.14.14 0 0 1 -.13-.09l-.1-.27a.14.14 0 1 1 .27-.1l.1.26a.14.14 0 0 1 -.08.19zm17.31-.83a.14.14 0 0 1 -.1-.18l.07-.27a.14.14 0 1 1 .28.07l-.08.28a.14.14 0 0 1 -.18.1zm-17.67-.26a.14.14 0 0 1 -.14-.11l-.07-.28a.14.14 0 0 1 .28-.06l.07.28a.14.14 0 0 1 -.1.17zm17.91-.86a.15.15 0 0 1 -.13-.17q0-.14 0-.28a.14.14 0 0 1 .29 0q0 .15 0 .29a.14.14 0 0 1 -.16.16zm-18.13-.27a.14.14 0 0 1 -.14-.13q0-.14 0-.29a.14.14 0 0 1 .29 0q0 .14 0 .28a.14.14 0 0 1 -.12.16zm18.24-.87a.14.14 0 0 1 -.11-.15q0-.14 0-.28a.14.14 0 1 1 .29 0v.29a.14.14 0 0 1 -.18.14zm-18.31-.28a.14.14 0 0 1 -.14-.17q0-.14 0-.28a.15.15 0 0 1 .15-.12.14.14 0 0 1 .14.15q0 .13 0 .27a.15.15 0 0 1 -.15.15zm18.27-.9a.14.14 0 0 1 -.14-.13q0-.14 0-.28a.14.14 0 1 1 .28 0q0 .14 0 .29a.14.14 0 0 1 -.13.16zm-18.2-.27a.14.14 0 0 1 -.12-.16q0-.15 0-.29a.14.14 0 1 1 .28 0q0 .14 0 .28a.14.14 0 0 1 -.16.17zm18-.89a.14.14 0 0 1 -.12-.11l-.07-.28a.14.14 0 1 1 .32-.05v.33a.14.14 0 0 1 -.11.17zm-17.79-.21h-.08a.14.14 0 0 1 -.1-.17l.1-.3a.14.14 0 0 1 .28.08l-.07.27a.14.14 0 0 1 -.13.12zm17.49-.9a.14.14 0 0 1 -.14-.09l-.1-.26a.14.14 0 1 1 .27-.11l.1.27a.14.14 0 0 1 -.09.18zm-17.14-.2h-.05a.14.14 0 0 1 -.08-.2l.11-.27a.14.14 0 1 1 .26.11l-.11.26a.14.14 0 0 1 -.13.1zm16.68-.8a.14.14 0 0 1 -.11-.1l-.13-.25a.14.14 0 1 1 .25-.14l.14.26a.14.14 0 0 1 -.06.19zm-16.19-.24h-.07a.14.14 0 0 1 -.06-.2l.14-.25a.14.14 0 0 1 .25.15l-.18.23a.14.14 0 0 1 -.08.07zm15.6-.76a.14.14 0 0 1 -.12-.06l-.16-.23a.14.14 0 0 1 .23-.17l.17.24a.14.14 0 0 1 0 .2zm-15-.2a.14.14 0 0 1 -.12-.23l.18-.23a.14.14 0 1 1 .23.18l-.17.23a.14.14 0 0 1 -.1.04zm14.27-.7a.14.14 0 0 1 -.11 0l-.19-.21a.14.14 0 1 1 .21-.2l.2.22a.14.14 0 0 1 -.11.24zm-13.52-.2a.14.14 0 0 1 -.1-.24l.2-.21a.14.14 0 0 1 .2.2l-.2.2a.14.14 0 0 1 -.1.05zm12.73-.63a.14.14 0 0 1 -.09 0l-.22-.18a.14.14 0 0 1 .18-.22l.22.19a.14.14 0 0 1 -.09.25zm-11.89-.16a.14.14 0 0 1 -.11-.25l.23-.18a.14.14 0 1 1 .18.23l-.22.18a.14.14 0 0 1 -.08.02zm11-.54h-.08l-.24-.16a.14.14 0 1 1 .15-.24l.24.16a.14.14 0 0 1 -.08.26zm-10.11-.14a.14.14 0 0 1 0-.26l.21-.17a.14.14 0 1 1 .15.25l-.24.15zm9.09-.43h-.09l-.26-.12a.14.14 0 1 1 .12-.26l.26.13a.14.14 0 0 1 -.07.27zm-8.09-.12a.14.14 0 0 1 0-.28l.27-.12a.14.14 0 0 1 .11.26l-.26.12zm7-.35-.27-.09a.14.14 0 0 1 .09-.27l.28.09a.14.14 0 0 1 0 .28zm-5.89-.08a.14.14 0 0 1 0-.28l.28-.09a.14.14 0 1 1 .08.28l-.27.08zm4.83-.24-.28-.06a.14.14 0 1 1 .05-.28l.29.06a.14.14 0 0 1 0 .28zm-3.71 0a.14.14 0 0 1 0-.28l.25-.1a.14.14 0 1 1 0 .28h-.28zm2.57-.21h-.3a.14.14 0 0 1 -.14-.15.14.14 0 0 1 .15-.13h.29a.14.14 0 0 1 0 .29zm-1.44 0a.14.14 0 0 1 0-.29h.29a.14.14 0 0 1 .15.14.14.14 0 0 1 -.15.15z" fill="#22416d"/><circle cx="9.99" cy="9.96" fill="#22416d" r="8.36"/><g fill="#fff"><g opacity=".16"><path d="m2.18 11.7a7.94 7.94 0 0 0 1 2.5l11.54-10.67a8 8 0 0 0 -2.41-1.21z"/><path d="m15.42 4.1-11.7 10.83a8 8 0 0 0 .67.74l11.72-10.84a8 8 0 0 0 -.69-.73z"/><path d="m17.76 8.1a7.94 7.94 0 0 0 -1-2.33l-11.48 10.66a8 8 0 0 0 2.25 1.15z"/></g><path d="m9 9.12q.94 1.58 1.43 2.31a17.5 17.5 0 0 0 1.09 1.43 4.1 4.1 0 0 0 1.12-2.28.77.77 0 0 0 -.24-.58 1.31 1.31 0 0 0 -.84-.23h-.38v-.5h4v.5h-.3a1.55 1.55 0 0 0 -.64.12 1.39 1.39 0 0 0 -.46.36 4.05 4.05 0 0 0 -.51.89 11.27 11.27 0 0 1 -1.27 2.13 2.69 2.69 0 0 0 1.72 1 .94.94 0 0 0 .75-.35 2.34 2.34 0 0 0 .4-1.22h.45a3.13 3.13 0 0 1 -.58 2 1.82 1.82 0 0 1 -1.47.7 2.29 2.29 0 0 1 -1-.25 5.74 5.74 0 0 1 -1.27-.86 6 6 0 0 1 -1.49.91 3.88 3.88 0 0 1 -1.4.25 3.08 3.08 0 0 1 -2.25-.87 2.89 2.89 0 0 1 -.89-2.15 3 3 0 0 1 .57-1.76 5.81 5.81 0 0 1 2-1.56 5.63 5.63 0 0 1 -.68-2.34 2.31 2.31 0 0 1 .74-1.73 2.51 2.51 0 0 1 1.81-.71 2.34 2.34 0 0 1 1.59.53 1.78 1.78 0 0 1 .59 1.4 2.33 2.33 0 0 1 -.59 1.52 5.62 5.62 0 0 1 -2 1.34zm-1.26.56a2.4 2.4 0 0 0 -1.52 2 3.32 3.32 0 0 0 .78 1.93 2.11 2.11 0 0 0 1.77 1 3 3 0 0 0 1.84-.73 20.7 20.7 0 0 1 -1.25-1.65q-.59-.82-1.58-2.55zm1-1.12a3.56 3.56 0 0 0 1.43-1 2 2 0 0 0 .39-1.23 1.54 1.54 0 0 0 -.36-1.07 1.17 1.17 0 0 0 -.91-.4 1.2 1.2 0 0 0 -.91.38 1.4 1.4 0 0 0 -.36 1 5.22 5.22 0 0 0 .75 2.33z"/></g></svg>