<svg viewBox="0 0 17 17" xmlns="http://www.w3.org/2000/svg"><circle cx="8.5" cy="8.5" fill="#808080" r="8.5" transform="matrix(.99999877 -.0015708 .0015708 .99999877 -.01 .01)"/><g fill="#fff" opacity=".28"><path d="m14.37 2.34-12.45 11.53q.27.33.57.63l12.51-11.5q-.32-.37-.63-.66z"/><path d="m16.5 5.61a8.47 8.47 0 0 0 -.95-1.87l-12.32 11.41a8.5 8.5 0 0 0 1.77 1.09z"/><path d="m.46 11.25a8.47 8.47 0 0 0 1 2l12.33-11.42a8.5 8.5 0 0 0 -1.92-1.15z"/></g><path d="m8.73 16.44a.12.12 0 0 1 0-.24h.27a.12.12 0 1 1 0 .24zm-.73 0h-.25a.12.12 0 1 1 0-.24h.24a.12.12 0 0 1 0 .24zm1.71-.08a.12.12 0 0 1 0-.24h.24a.12.12 0 1 1 0 .24zm-2.71-.05h-.24a.12.12 0 1 1 .05-.31h.24a.12.12 0 0 1 0 .24zm3.63-.17a.12.12 0 0 1 0-.24l.23-.07a.12.12 0 1 1 .08.23l-.24.07zm-4.58-.07h-.05l-.2-.07a.12.12 0 1 1 .08-.23l.23.08a.12.12 0 0 1 0 .24zm5.5-.26a.12.12 0 0 1 0-.23l.22-.1a.12.12 0 0 1 .1.22l-.23.1zm-6.41-.1h-.03l-.22-.11a.12.12 0 0 1 .11-.23l.22.11a.12.12 0 0 1 -.05.23zm7.28-.35a.12.12 0 0 1 -.06-.23l.2-.13a.12.12 0 0 1 .13.21l-.21.13zm-8.12-.13h-.07l-.23-.15a.12.12 0 1 1 .14-.2l.2.13a.12.12 0 0 1 -.07.23zm9-.43a.12.12 0 0 1 -.08-.22l.19-.15a.12.12 0 1 1 .16.19l-.19.16zm-9.74-.15a.12.12 0 0 1 -.08 0l-.19-.16a.12.12 0 0 1 .16-.18l.18.16a.12.12 0 0 1 -.08.22zm10.44-.49a.12.12 0 0 1 -.09-.21l.17-.17a.12.12 0 0 1 .18.17l-.17.18a.12.12 0 0 1 -.09.03zm-11.2-.16a.12.12 0 0 1 -.09 0l-.17-.18a.12.12 0 1 1 .18-.16l.16.18a.12.12 0 0 1 -.08.16zm11.84-.57h-.07a.12.12 0 0 1 0-.17l.15-.19a.12.12 0 0 1 .2.14l-.15.2a.12.12 0 0 1 -.13.01zm-12.47-.19a.12.12 0 0 1 -.1-.05l-.14-.19a.12.12 0 0 1 .2-.14l.14.2a.12.12 0 0 1 0 .17zm13-.62h-.06a.12.12 0 0 1 0-.17l.12-.21a.12.12 0 0 1 .21.12l-.12.22a.12.12 0 0 1 -.13.03zm-13.54-.2a.12.12 0 0 1 -.11-.06l-.12-.22a.12.12 0 0 1 .24-.14l.11.21a.12.12 0 0 1 0 .17zm14-.67a.12.12 0 0 1 -.06-.16l.09-.22a.12.12 0 0 1 .23.09l-.1.23a.12.12 0 0 1 -.16.05zm-14.4-.22a.12.12 0 0 1 -.11-.08l-.12-.23a.12.12 0 1 1 .23-.08l.09.23a.12.12 0 0 1 -.07.16zm14.77-.71a.12.12 0 0 1 -.08-.15l.06-.23a.12.12 0 0 1 .24.06l-.07.24a.12.12 0 0 1 -.15.08zm-15-.22a.12.12 0 0 1 -.12-.09l-.06-.24a.12.12 0 0 1 .18-.06l.06.23a.12.12 0 0 1 -.09.15zm15.25-.73a.12.12 0 0 1 -.11-.14v-.24a.12.12 0 0 1 .24 0v.25a.12.12 0 0 1 -.2.13zm-15.51-.23a.12.12 0 0 1 -.12-.11q0-.12 0-.25a.12.12 0 0 1 .24 0q0 .12 0 .24a.12.12 0 0 1 -.11.14zm15.52-.74a.12.12 0 0 1 -.12-.13q0-.12 0-.24a.12.12 0 1 1 .24 0v.25a.12.12 0 0 1 -.11.11zm-15.58-.25a.12.12 0 0 1 -.12-.12q0-.12 0-.24a.12.12 0 0 1 .13-.12.12.12 0 0 1 .12.13q0 .11 0 .23a.13.13 0 0 1 -.13.12zm15.55-.76a.12.12 0 0 1 -.12-.11q0-.12 0-.24a.12.12 0 1 1 .24 0q0 .12 0 .25a.12.12 0 0 1 -.11.13zm-15.49-.21a.12.12 0 0 1 -.11-.14v-.25a.12.12 0 0 1 .24 0v.24a.12.12 0 0 1 -.13.15zm15.34-.76a.12.12 0 0 1 -.12-.1l-.06-.23a.12.12 0 1 1 .24-.06l.06.24a.12.12 0 0 1 -.09.15zm-15.16-.2a.12.12 0 0 1 -.12-.15l.07-.24a.12.12 0 1 1 .24.07l-.11.23a.12.12 0 0 1 -.08.09zm14.88-.72a.12.12 0 0 1 -.11-.08l-.09-.23a.12.12 0 0 1 .23-.09l.09.23a.12.12 0 0 1 -.07.16zm-14.58-.21a.12.12 0 0 1 -.07-.16l.1-.23a.12.12 0 0 1 .22.1l-.09.22a.12.12 0 0 1 -.16.07zm14.19-.7a.12.12 0 0 1 -.11-.09l-.11-.21a.12.12 0 1 1 .21-.12l.12.22a.12.12 0 0 1 -.05.16zm-13.77-.19h-.06a.12.12 0 0 1 0-.17l.12-.22a.12.12 0 0 1 .21.12l-.12.21a.12.12 0 0 1 -.15.06zm13.27-.66a.12.12 0 0 1 -.1-.05l-.14-.19a.12.12 0 1 1 .2-.14l.14.2a.12.12 0 0 1 0 .17zm-12.75-.16h-.07a.12.12 0 0 1 0-.17l.15-.2a.12.12 0 1 1 .19.15l-.17.14a.12.12 0 0 1 -.1.08zm12.15-.6a.12.12 0 0 1 -.09 0l-.16-.18a.12.12 0 1 1 .18-.17l.17.18a.12.12 0 0 1 -.09.2zm-11.53-.16a.12.12 0 0 1 -.09-.21l.17-.18a.12.12 0 1 1 .14.18l-.17.17a.12.12 0 0 1 -.05.04zm10.83-.54a.12.12 0 0 1 -.08 0l-.18-.16a.12.12 0 0 1 .16-.19l.19.16a.12.12 0 0 1 -.08.21zm-10.11-.13a.12.12 0 0 1 -.08-.22l.19-.16a.12.12 0 1 1 .15.19l-.19.15a.12.12 0 0 1 -.07.04zm9.35-.46h-.07l-.21-.19a.12.12 0 1 1 .13-.21l.21.14a.12.12 0 0 1 -.07.22zm-8.56-.12a.12.12 0 0 1 -.07-.23l.21-.13a.12.12 0 0 1 .13.21l-.2.13zm7.71-.38h-.06l-.22-.11a.12.12 0 1 1 .1-.22l.22.11a.12.12 0 0 1 -.06.23zm-6.86-.09a.12.12 0 0 1 -.05-.23l.23-.1a.12.12 0 1 1 .1.22l-.22.1zm6-.3-.23-.08a.12.12 0 1 1 -.01-.22l.24.08a.12.12 0 0 1 0 .24zm-5.14-.06a.12.12 0 0 1 0-.24l.25-.08a.12.12 0 1 1 .07.23l-.23.07zm4.16-.24h-.27a.12.12 0 1 1 0-.24h.24a.12.12 0 0 1 0 .24zm-3.16 0a.12.12 0 0 1 0-.25h.24a.12.12 0 0 1 0 .24zm2.19-.12h-.24a.12.12 0 0 1 -.13-.14.12.12 0 0 1 .18-.12h.25a.12.12 0 0 1 0 .24zm-1.19-.01a.12.12 0 0 1 0-.25h.25a.12.12 0 0 1 .13.12.12.12 0 0 1 -.12.13z" fill="#fff"/><circle cx="8.5" cy="8.48" fill="#808080" r="7.12"/><g fill="#fff"><g opacity=".16"><path d="m1.86 10a6.76 6.76 0 0 0 .87 2.13l9.8-9.13a6.78 6.78 0 0 0 -2.05-1z"/><path d="m13.12 3.49-10 9.22a6.84 6.84 0 0 0 .57.63l10-9.23a6.84 6.84 0 0 0 -.57-.62z"/><path d="m15.12 6.9a6.76 6.76 0 0 0 -.82-2l-9.8 9.1a6.78 6.78 0 0 0 1.91 1z"/></g><path d="m7.7 7.76q.8 1.35 1.22 2a14.9 14.9 0 0 0 .93 1.21 3.49 3.49 0 0 0 .95-1.97.65.65 0 0 0 -.24-.53 1.11 1.11 0 0 0 -.72-.2h-.32v-.42h3.41v.42h-.26a1.32 1.32 0 0 0 -.55.1 1.19 1.19 0 0 0 -.4.3 3.45 3.45 0 0 0 -.44.76 9.59 9.59 0 0 1 -1.12 1.86 2.29 2.29 0 0 0 1.46.86.8.8 0 0 0 .63-.3 2 2 0 0 0 .34-1h.41a2.67 2.67 0 0 1 -.49 1.74 1.55 1.55 0 0 1 -1.25.59 2 2 0 0 1 -.86-.21 4.88 4.88 0 0 1 -1.06-.78 5.06 5.06 0 0 1 -1.27.78 3.3 3.3 0 0 1 -1.2.21 2.62 2.62 0 0 1 -1.87-.77 2.46 2.46 0 0 1 -.76-1.83 2.51 2.51 0 0 1 .48-1.5 5 5 0 0 1 1.69-1.32 4.79 4.79 0 0 1 -.58-2 2 2 0 0 1 .63-1.46 2.13 2.13 0 0 1 1.54-.61 2 2 0 0 1 1.37.45 1.51 1.51 0 0 1 .5 1.19 2 2 0 0 1 -.48 1.29 4.79 4.79 0 0 1 -1.69 1.14zm-1.07.48a2 2 0 0 0 -1.3 1.76 2.83 2.83 0 0 0 .6 1.62 1.79 1.79 0 0 0 1.5.85 2.56 2.56 0 0 0 1.57-.66 17.62 17.62 0 0 1 -1.07-1.41q-.47-.69-1.31-2.16zm.84-1a3 3 0 0 0 1.21-.82 1.69 1.69 0 0 0 .32-1 1.31 1.31 0 0 0 -.3-.91 1 1 0 0 0 -.78-.34 1 1 0 0 0 -.77.32 1.19 1.19 0 0 0 -.31.86 4.45 4.45 0 0 0 .62 1.94z"/></g></svg>