<svg xmlns="http://www.w3.org/2000/svg" viewBox="0 0 1726 291.105"><path d="M27.553 139.113c56.717 55.824 1.98 1.947 62.133 61.156 126.44-124.519 84.429-86.137 146.04-144.4 25.413-31.949 77.2-14.034 77.2 26.929a43.12 43.12 0 0 1-9.474 27.02C291.139 121.979 195.131 219.342 178.9 235.37l-17.058-16.753 124.2-126.29c11.988-20.6-17.414-39.527-31.525-21.036-2.858 2.775-145.207 143.539-147.636 145.9 3.644 3.587 69.738 68.643 73.165 72.012.622-.623 151.573-154.409 151.573-154.409a82.384 82.384 0 0 0 18.378-52c0-67.9-76.72-105.934-130.738-67.411-5.1 5.044-122.9 124.149-130.4 131.564-6.492-6.375-36.657-36-40.766-40.032C22.066 79.432 42.74 32.471 80.8 32.471c10.312 0 24.813 4.081 33.158 15.362L96.833 66.057C89.3 59.126 84.552 57.506 80.8 57.506c-15.28 0-23.973 17.915-14.594 29.819L94.083 114.7c2.108-2.181 55.762-57.609 60.217-62.21C142.588 18.481 111.876-1.449 76.069.306 3.939 3.853-26.529 94.111 27.553 139.113zM494.338 266.255c0 17.235-8.818 21.243-26.053 21.243h-8.818c-15.231 0-24.448-3.607-24.448-21.243V53.028c0-20.841 11.222-27.654 30.862-27.654h67.735c69.339 0 107.816 30.862 107.816 88.176 0 58.116-36.873 88.176-107.816 88.176h-39.278zm38.075-109.019c32.866 0 50.5-15.631 50.5-42.885 0-27.656-17.635-42.485-50.5-42.485h-38.476v85.37zM667.482 258.239V53.028c0-20.841 12.024-27.654 31.663-27.654h88.978c58.919 0 90.582 23.647 90.582 66.934 0 28.857-16.032 46.493-46.494 54.91 38.878 9.619 56.513 33.667 56.513 64.929 0 50.5-31.663 73.748-105.41 73.748h-84.169c-19.639 0-31.663-6.813-31.663-27.656zM776.1 135.193c27.656 0 41.684-12.825 41.684-33.667 0-21.243-12.425-31.663-41.684-31.663h-49.7v65.331zm3.607 106.614c35.671 0 48.1-10.421 48.1-35.672 0-24.85-12.425-33.266-48.1-33.266H726.4v68.938zM1063.475 253.029c-12.425 22.445-34.469 36.873-63.728 36.873-53.307 0-90.982-41.282-90.982-103.006 0-62.525 37.275-103.407 91.783-103.407 28.857 0 51.7 12.825 62.926 30.06V34.592c0-20.441 10.822-22.846 25.25-22.846h6.012c15.231 0 25.651 2 25.651 22.846V273.07c0 10.421-10.019 14.829-21.243 14.829-20.038.001-35.669-7.616-35.669-34.87zm0-69.739c0-42.485-24.85-54.109-48.5-54.109-31.263 0-51.3 22.445-51.3 58.116 0 33.667 20.841 57.716 50.1 57.716 27.254 0 49.7-22.444 49.7-54.509zM1280.707 261.045v-4.809c-14.028 20.44-38.878 32.865-68.136 32.865-41.282 0-66.132-23.246-66.132-56.913 0-44.891 40.481-65.732 126.653-66.935h6.413c0-25.25-14.028-38.878-40.481-38.878-24.448 0-38.476 13.628-48.9 24.85-14.028 15.632-35.27-1.6-35.27-18.837 0-24.85 36.072-48.9 87.776-48.9 62.125 0 92.986 28.457 92.986 75.751V273.07c0 10.421-10.02 14.829-21.243 14.829-19.639.001-33.666-6.413-33.666-26.854zm-1.2-53.307v-11.222l-10.421.4c-44.89 1.2-68.136 10.019-68.136 31.262 0 14.829 11.623 24.048 30.462 24.048 28.452.001 48.088-18.837 48.088-44.488zM1441.831 194.112c0 34.068 2 51.3 25.651 51.3 19.64 0 26.853-4.009 35.671-4.009 5.212 0 8.016 2.406 8.016 15.231 0 20.842-8.016 34.469-52.906 34.469-53.707 0-70.942-21.643-70.942-81.363v-76.15H1374.9c-16.031 0-21.243-2.806-21.243-15.631v-11.624c0-14.028 5.212-17.235 21.243-17.235h12.425V57.437c0-18.437 9.62-20.441 25.651-20.441h4.81c15.231 0 25.25 1.2 25.25 20.441V89.1h40.882c16.032 0 22.044 2.806 20.441 16.434l-1.2 11.222c-1.6 13.628-8.818 16.834-25.25 16.834h-36.072zM1633.414 247.819c26.453 0 44.088-11.623 56.513-22.044 7.616-6.413 26.854-4.81 26.854 19.64 0 20.841-30.46 44.488-85.37 44.488-63.728 0-108.217-39.679-108.217-101.8 0-60.12 45.291-104.61 104.61-104.61 58.116 0 98.2 40.882 98.2 95.792V190.1c-.4 10.02-3.207 11.623-13.628 11.623H1577.7c4.011 29.262 25.253 46.096 55.714 46.096zm39.679-79.359c-1.2-27.254-18.437-45.291-46.091-45.291-26.454 0-45.692 18.838-49.3 45.291z" fill="#eb008b"/></svg>