<svg xmlns="http://www.w3.org/2000/svg" width="14" height="14" viewBox="0 0 14 14"><path fill="#24B574" d="M12.1 4.1c.1-.2.15-.4.15-.6v-.88C12.25 1.2 9.9 0 7 0 5.37 0 3.48.33 2.24 1.52c-.26.26-.46.73-.46 1.1v-.2c-.2.15-.45.22-.66.36-.2.14-.4.3-.58.48-.28.3-.5.68-.5 1.12v.87c0 .8.74 1.54 1.9 2.02-.1.2-.15.4-.15.6v.88c0 .3.1.6.3.88-.2.27-.3.56-.3.87v.88C1.77 12.8 4.12 14 7 14s5.25-1.18 5.25-2.63v-.87c0-.3-.1-.6-.32-.88.15-.2.26-.43.3-.66C13.3 8.48 14 7.78 14 7v-.88c0-.8-.74-1.53-1.9-2zM7 .45c2.84 0 4.82 1.15 4.82 2.19 0 1.03-1.98 2.18-4.8 2.18-2.84 0-4.8-1.14-4.8-2.18C2.2 1.6 4.17.44 7 .44zM.47 4.38c0-.52.48-1.05 1.3-1.47v.6c0 1.45 2.36 2.63 5.25 2.63.45 0 .86-.03 1.26-.08-.8.3-1.8.5-3 .5-2.83 0-4.8-1.14-4.8-2.17zm11.36 6.12c0 1.03-1.98 2.2-4.8 2.2-2.84 0-4.8-1.17-4.8-2.2 0-.17.06-.35.16-.52.88.83 2.62 1.4 4.63 1.4 2.02 0 3.76-.58 4.64-1.4.1.17.18.34.18.52zm-1.8-.95c-.8.3-1.83.5-3 .5-2.84 0-4.8-1.14-4.8-2.18 0-.14.04-.3.12-.44.42.14.9.25 1.4.33.66 1.08 2.65 1.86 5.02 1.86.43 0 .85-.02 1.26-.07zM8.75 8.3c-1.12 0-2.1-.17-2.88-.46 2.46-.14 4.4-1.13 4.6-2.38.6-.26 1.07-.6 1.38-.97 1.06.43 1.7 1.04 1.7 1.63 0 1.03-1.97 2.18-4.8 2.18zm-.8-5.04c0-.1-.1-.16-.23-.2-.15-.06-.48-.12-1-.2-.44-.05-.8-.12-1.05-.18-.26-.06-.46-.15-.63-.27-.15-.1-.24-.24-.24-.4 0-.18.16-.36.44-.52.3-.16.74-.26 1.35-.3V.9h.82v.3c.92.05 1.52.27 1.8.65l-1.15.2c-.22-.27-.56-.4-1.03-.4-.23 0-.42.03-.56.1-.14.05-.2.12-.2.2 0 .1.06.15.2.2.13.04.42.1.87.17.5.07.88.14 1.15.2.28.07.5.16.67.28.17.1.25.25.25.4 0 .24-.17.43-.5.6-.36.15-.85.24-1.5.27v.4H6.6v-.4c-1.1-.04-1.76-.3-2.02-.77l1.28-.14c.12.3.5.45 1.18.45.3 0 .54-.05.68-.1.15-.07.23-.15.23-.24zm0 0"/></svg>