<svg xmlns="http://www.w3.org/2000/svg" width="21" height="21" viewBox="0 0 21 21"><path fill="#EB008B" d="M10.5 0C5 0 0 4 0 10.5 0 15 4 21 10.5 21 16 21 21 17 21 10.5 21 5 17 0 10.5 0zm1.8 17.1c0 .2-.2.4-.4.4H9.3c-.2 0-.4-.2-.4-.4v-2.6c0-.2.2-.4.4-.4h2.6c.2 0 .4.2.4.4v2.6zM15.6 9c-.2.5-.5 1-.9 1.4-.5.4-1.1.7-1.6 1.1-.4.3-.8.7-.8 1.2 0 .2-.2.4-.4.4H9.7c-.3 0-.8 0-.8-.4 0-1.5.8-2.6 2.1-3.3.5-.3 1.3-.6 1.4-1.3.1-.9-.9-1.3-1.6-1.4-1.3-.1-1.9.7-2.6 1.6-.1.1-.4.2-.6.1L5.8 7c-.2-.2-.2-.4-.1-.6 1.8-2.9 6.1-3.9 8.7-1.5C15.5 6 16.1 7.5 15.6 9zm0 0"/></svg>