<svg height="17" viewBox="0 0 21 17" width="21" xmlns="http://www.w3.org/2000/svg"><path d="m12.1 14.5c-4.8 0-8.7-1-8.7-2v2.3c0 1 3.9 2 8.7 2s8.7-1 8.7-2v-2.3c0 1-3.9 2-8.7 2" fill="#fff" stroke="#808080" stroke-miterlimit="10" stroke-width=".25"/><path d="m21 12.6c0 1-4 2-8.9 2s-8.9-1-8.9-2 4-1.7 8.9-1.7 8.9.7 8.9 1.7" fill="#666"/><path d="m8.9 11.1c-4.8 0-8.7-1-8.7-2v2.3c0 1 3.9 2 8.7 2s8.7-1 8.7-2v-2.3c0 1-3.9 2-8.7 2" fill="#fff" stroke="#808080" stroke-miterlimit="10" stroke-width=".25"/><path d="m17.8 9.2c0 1-4 2-8.9 2s-8.9-1-8.9-2 4-1.7 8.9-1.7 8.9.7 8.9 1.7" fill="#666"/><path d="m11.9 7.4c-4.8 0-8.7-1-8.7-2v2.3c0 1 3.9 2 8.7 2s8.7-1 8.7-2v-2.3c0 1-3.9 2-8.7 2" fill="#fff" stroke="#808080" stroke-miterlimit="10" stroke-width=".25"/><path d="m20.8 5.5c0 1-4 2-8.9 2s-8.9-1-8.9-2 4-1.7 8.9-1.7 8.9.7 8.9 1.7" fill="#666"/><path d="m10.2 3.6c-4.8 0-8.7-1-8.7-2v2.4c0 1 3.9 2 8.7 2s8.7-1 8.7-2v-2.4c0 1-3.9 2-8.7 2" fill="#fff" stroke="#808080" stroke-miterlimit="10" stroke-width=".25"/><path d="m19.1 1.7c0 1-4 2-8.9 2s-8.9-1-8.9-2 4-1.7 8.9-1.7 8.9.7 8.9 1.7" fill="#666"/></svg>