<svg height="17" viewBox="0 0 15 17" width="15" xmlns="http://www.w3.org/2000/svg"><g fill="#f3f3f3"><path d="m9.48 10.78v-.7s2.32.05 3.42-1.04c0 0-1.6-.43-1.32-3.27.3-2.82-.35-5.3-2.7-5.1 0 0-1-1.2-3.03-.44-.7.26-2.55.9-2.45 4.82s-1.44 3.95-1.44 3.95.8 1.1 3.46 1.08v.73l2.04 5.78 2.03-5.75-.02-.05zm0 0"/><path d="m14.53 14.47c-.13-.7-.6-1.32-1.27-1.64l-2.56-1.23c-.15-.07-.3-.14-.43-.22l.8 2.3-1.12-.07-2.5 2.98-2.48-2.97-1.12.1.82-2.32-.5.25-2.5 1.2c-.67.3-1.17.9-1.29 1.62l-.42 2.2c-.03.15.1.3.27.3h14.42c.17 0 .3-.15.27-.3l-.4-2.2zm0 0"/></g></svg>