<svg height="20.22" viewBox="0 0 20.524 20.22" width="20.524" xmlns="http://www.w3.org/2000/svg"><path d="m19.2 3.681h-8.668l1.69 5.1h2.585v-1.168h.836v1.171h3.179v.837h-1.312a18.837 18.837 0 0 1 -1.692 3c.687.823 1.355 1.562 1.99 2.2l.3.3-.592.591-.3-.3c-.616-.612-1.258-1.324-1.916-2.112-.333.4-.777.887-1.153 1.288l.635 1.916-3.458 3.681h7.876a1.32 1.32 0 0 0 1.32-1.32v-13.865a1.32 1.32 0 0 0 -1.32-1.319z" fill="#a3a3a3"/><path d="m13.66 11.232-.246-.339.677-.491.246.339c0 .006.362.5.929 1.206a18.391 18.391 0 0 0 1.322-2.326h-4.088l1.346 4.066c.333-.364.674-.748.911-1.039-.657-.816-1.078-1.389-1.097-1.416z" fill="#a3a3a3"/><path d="m10.097 16.54 1.225 3.68-.175-3.68z" fill="#cecccc"/><path d="m11.147 16.508.175 3.681 3.458-3.681z" fill="#cecccc"/><g fill="#a3a3a3"><path d="m11.091 15.325-.048-1.014-1.737-4.844.324-2.295.9-3.491-1.216-3.681h-7.994a1.32 1.32 0 0 0 -1.32 1.32v13.868a1.32 1.32 0 0 0 1.32 1.32h8.78l.5-1.342zm-2-7.082a3.109 3.109 0 1 1 -.911-2.2l-.591.592a2.273 2.273 0 1 0 .627 2.025h-2.231v-.835h3.109z"/><path d="m9.306 9.467 1.737 4.844.048 1.014 3.689 1.183-.635-1.916c-.2.209-.379.4-.507.529l-.591-.592c.205-.206.5-.517.8-.843l-1.347-4.065h-.557v-.837h.28l-1.69-5.1-.9 3.491z"/><path d="m11.091 15.325-.495-.159-.499 1.342h1.05z"/><path d="m11.147 16.508h3.633l-3.689-1.183z"/><path d="m13.845 13.686c-.3.327-.594.638-.8.843l.591.592c.129-.129.311-.32.507-.529l-.143-.428z"/><path d="m11.942 9.621h.557l-.138-.419-.139-.418h-.28z"/></g></svg>