<svg height="23.609" viewBox="0 0 24 23.609" width="24" xmlns="http://www.w3.org/2000/svg"><path d="m22.456 4.3h-10.14l-1.055 4.087-.379 2.683 2.031 5.665.326 6.874h9.217a1.544 1.544 0 0 0 1.544-1.544v-16.217a1.544 1.544 0 0 0 -1.544-1.548z" fill="#ededed"/><path d="m17.283 19.304-4.044 4.305-1.432-4.305.584-1.569z" fill="#4555a1"/><path d="m22.011 11.25v-.978h-3.718v-1.372h-.978v1.37h-3.35v.978h5.435a21.5 21.5 0 0 1 -1.546 2.72c-.662-.827-1.081-1.4-1.086-1.41l-.287-.4-.792.574.287.4c.022.031.51.7 1.281 1.655-.526.644-1.491 1.692-2 2.2l.692.692c.439-.439 1.349-1.416 1.942-2.125.772.917 1.525 1.743 2.243 2.462l.346.346.692-.692-.346-.346c-.742-.742-1.524-1.606-2.327-2.569a22.022 22.022 0 0 0 1.978-3.509z" fill="#898583"/><path d="m16.375 16.563.908 2.741h-15.739a1.543 1.543 0 0 1 -1.544-1.543v-16.217a1.543 1.543 0 0 1 1.544-1.544h9.348l1.425 4.3 2.138 6.457 1.921 5.8z" fill="#6788c5"/><path d="m7 13.275a3.636 3.636 0 1 1 2.569-6.207l-.691.692a2.658 2.658 0 1 0 .733 2.368h-2.611v-.978h3.636v.489a3.64 3.64 0 0 1 -3.636 3.636z" fill="#fff"/></svg>