<svg height="5.143mm" viewBox="0 0 14.58 14.58" width="5.143mm" xmlns="http://www.w3.org/2000/svg"><circle cx="7.29" cy="7.29" fill="#79a6db" r="7.29"/><path d="m11.755 5.239a3.478 3.478 0 0 1 -1 .274 1.748 1.748 0 0 0 .766-.964 3.488 3.488 0 0 1 -1.107.423 1.744 1.744 0 0 0 -2.969 1.59 4.947 4.947 0 0 1 -3.592-1.821 1.744 1.744 0 0 0 .539 2.327 1.732 1.732 0 0 1 -.792-.219v.022a1.744 1.744 0 0 0 1.4 1.709 1.747 1.747 0 0 1 -.787.03 1.744 1.744 0 0 0 1.629 1.21 3.518 3.518 0 0 1 -2.58.722 4.955 4.955 0 0 0 7.629-4.175q0-.113-.005-.225a3.537 3.537 0 0 0 .87-.9zm0 0" fill="#f2f2f1"/></svg>