<svg xmlns="http://www.w3.org/2000/svg" width="14" height="12" viewBox="0 0 14 12"><g fill="#FFF"><path d="M.16 9.82c0 .02-.03.18-.07.18H.03C0 10 0 9.63 0 9.6v-6c0-.06 0-.1.04-.1.04-.02.07-.02.1 0L4.1 5.76c.03.02.05.05.05.1 0 .04-.02.15-.05.16L.16 9.83zM13.4 11.32c.02.04.03.32.02.36-.03.05-.07.32-.12.32H.43c-.07 0-.14-.27-.22-.32-.03 0-.05-.16-.05-.2 0-.05 0-.14.04-.16l5-4.76c.05-.04.1-.06.14-.03l1.33.76c.2.1.38.1.58-.02l1.5-.9c.07-.04.12-.04.14 0l4.5 4.94zM13.9 3.4c.04.02.1.05.1.1V9.2c0 .1.05 1.07-.28.73l-3.76-4.1c-.03-.04-.04-.07-.03-.1 0-.04.02-.07.05-.1l3.78-2.23c.03-.03.1-.03.14 0zM13.44 0c.14 0 .3.04.38.13.1.1.18.2.18.33V2c0 .02-.2.05-.26.1L7.06 6.03l-.08.02c-.03 0-.06 0-.07-.02L.1 2.1C.02 2.04 0 2 0 1.96V.47C0 .32.03.2.12.12.22.03.3 0 .42 0h13.02z"/></g></svg>