<svg xmlns="http://www.w3.org/2000/svg" width="14" height="14" viewBox="0 0 14 14"><g fill="#F79421"><path d="M8.4 4.45H5.6c-.43 0 .22.8.3.9.34.44.75.98.75 1.65 0 .67-.4 1.2-.76 1.66-.1.1-.77.9-.3.9h2.8c.44 0-.22-.8-.3-.9-.34-.45-.75-1-.75-1.66 0-.67.4-1.2.76-1.65.1-.1.77-.9.3-.9zm0 0"/><path d="M7 0C3.12 0 0 3.12 0 7s3.12 7 7 7 7-3.12 7-7-3.12-7-7-7zm3.18 4.14c0 .22-.32.23-.32.4-.03.65-.4 1.12-.76 1.57-.25.33-.5.65-.5.9s.25.54.5.9c.35.4.73.9.76 1.55 0 .2.32.17.32.4v.65c0 .2-.12.32-.32.32H4.14c-.2 0-.32-.13-.32-.32v-.64c0-.13.1-.2.18-.27.22-.18.18-.55.3-.8.15-.34.38-.62.6-.9.26-.33.5-.65.5-.9s-.25-.54-.5-.9c-.18-.24-.39-.46-.53-.74-.08-.15-.14-.3-.18-.46-.04-.12 0-.34-.1-.44-.1-.13-.28-.1-.28-.32V3.5c0-.2.13-.32.32-.32h5.73c.2 0 .3.13.3.32v.64zm0 0"/></g></svg>