<svg enable-background="new 0 0 14 14" height="14" viewBox="0 0 14 14" width="14" xmlns="http://www.w3.org/2000/svg"><path d="m13.964 11.071c.029.227-.039.425-.207.593-.31.311-1.61 1.622-1.954 1.959-.746.73-1.94.261-2.797.045-.912-.23-2.397-.965-3.731-2.074-1.539-1.279-3.069-2.784-4.046-4.549-.272-.491-.497-1.006-.688-1.534-.364-1.004-.982-2.352-.15-3.299.529-.601 1.137-1.137 1.703-1.703.167-.166.376-.425.612-.49.651-.179.989.853 1.214 1.278.303.573.597 1.15.897 1.723.284.542.381 1.004-.046 1.502-.263.307-.734.478-.704.956.022.358.247.71.447.993.215.307.431.615.676.899.496.577 1.047 1.098 1.642 1.572.332.264.681.507 1.04.733.377.237.861.369 1.207.01.373-.387.724-.808 1.11-1.181.142-.138.318-.42.523-.464.291-.062 2.416 1.681 2.851 2.066.256.228.358.633.401.965z" fill="#fff"/></svg>