<svg xmlns="http://www.w3.org/2000/svg" width="14" height="14" viewBox="0 0 14 14"><path fill="#24B574" d="M7 14.02c-1.9-.06-3.88-.87-5.17-2.28-.33-.37-.66-.8-.9-1.24C.2 9.2-.13 7.65.03 6.18c.2-1.64.98-3.22 2.22-4.32.34-.3.72-.6 1.1-.84C4.46.35 5.73 0 7 0c2.07 0 4.22.96 5.47 2.63.96 1.28 1.56 2.85 1.53 4.46-.03 1.45-.5 2.93-1.4 4.08-.73.9-1.6 1.7-2.65 2.22-.92.45-1.94.65-2.95.62zm4.3-9L10.18 3.9c-.04-.05-.1-.06-.16-.06s-.1 0-.15.05l-4.4 4.4-1.34-1.37c-.1-.08-.2-.08-.3 0L2.7 8.06c-.04.04-.05.1-.05.16 0 .05 0 .1.05.14l2.62 2.6c.05.04.1.04.15.04h.02c.05 0 .1 0 .13-.05L11.3 5.3c.04-.04.07-.08.07-.14 0-.06-.02-.1-.07-.13z"/></svg>