<svg height="14" viewBox="0 0 12 14" width="12" xmlns="http://www.w3.org/2000/svg"><g fill="#24b574"><path d="m6 12.03c1.4 0 2.68-.37 3.7-.98-.37-.4-.74-.72-1.1-1-1.74-.52-3.43-.52-5.18 0-.35.27-.72.6-1.1 1 1.02.6 2.3.98 3.7.98zm0 0"/><g><path d="m9.42 10.77c1.56-1.07 2.58-2.84 2.58-4.85 0-3.27-2.68-5.92-6-5.92-3.3 0-5.97 2.65-5.97 5.92 0 2 1.02 3.8 2.58 4.85-.55.54-1.13 1.18-1.76 1.96-.82 1.06-.26 1.65.8 1 3.03-1.95 5.73-1.95 8.76 0 1.04.66 1.6.06.78-1-.62-.78-1.2-1.42-1.76-1.96zm-3.4-8.22c1.87 0 3.4 1.5 3.4 3.37 0 1.86-1.53 3.37-3.4 3.37-1.92-.02-3.42-1.52-3.42-3.39s1.53-3.37 3.4-3.37z"/><path d="m6 3.8c-1.18 0-2.14.94-2.14 2.12 0 1.17.96 2.12 2.15 2.12 1.2 0 2.16-.95 2.16-2.12s-.97-2.13-2.15-2.13zm0 3.5c-.78 0-1.4-.63-1.4-1.4 0-.78.62-1.4 1.4-1.4.8 0 1.43.62 1.43 1.4 0 .77-.63 1.4-1.42 1.4z"/></g></g></svg>