<svg enable-background="new 0 0 12 14" height="14" viewBox="0 0 12 14" width="12" xmlns="http://www.w3.org/2000/svg"><path d="m6.009 12.03c1.384 0 2.668-.367 3.701-.981-.381-.386-.752-.723-1.103-1.011-1.745-.505-3.44-.505-5.185 0-.351.287-.722.624-1.103 1.011 1.023.614 2.306.981 3.69.981zm0 0" fill="#24b574"/><g fill="#ec2127"><path d="m9.424 10.772c1.554-1.069 2.573-2.844 2.573-4.856-.001-3.267-2.681-5.916-5.988-5.916-3.306 0-5.987 2.649-5.987 5.916 0 2.013 1.02 3.789 2.575 4.858-.551.535-1.128 1.172-1.753 1.96-.822 1.06-.261 1.645.792.981 3.029-1.932 5.736-1.932 8.765 0 1.043.674 1.604.079.782-.981-.625-.783-1.207-1.424-1.759-1.962zm-3.415-8.225c1.883 0 3.41 1.508 3.41 3.369s-1.526 3.369-3.41 3.369c-1.883 0-3.41-1.508-3.41-3.369.001-1.861 1.527-3.369 3.41-3.369z"/><path d="m6.009 3.795c-1.185 0-2.146.949-2.146 2.12s.961 2.121 2.146 2.121 2.146-.949 2.146-2.121c.001-1.17-.961-2.12-2.146-2.12zm0 3.528c-.787 0-1.424-.63-1.424-1.407s.638-1.407 1.424-1.407 1.424.63 1.424 1.407-.637 1.407-1.424 1.407z"/></g></svg>