<svg xmlns="http://www.w3.org/2000/svg" width="14" height="14" viewBox="0 0 14 14"><path fill="#EC2227" d="M13.42 4.25c-.64-1.38-1.65-2.63-3-3.38C9.35.3 8.17 0 6.97 0 6.33 0 5.7.1 5.1.25 3.28.7 1.6 2.07.78 3.77c-.5 1.02-.8 2.08-.8 3.2 0 .65.1 1.27.26 1.86.46 1.6 1.47 3.04 2.86 3.96.37.25.8.47 1.22.63.85.34 1.74.52 2.65.52.63 0 1.25-.08 1.85-.25 1.53-.43 2.9-1.37 3.84-2.67.25-.35.48-.74.65-1.14.4-.93.65-1.92.65-2.92 0-.94-.2-1.84-.53-2.73zM10.7 8.93c.07.1.1.2 0 .3L9.3 10.6c-.08.08-.2.08-.3 0L7.07 8.64 5.1 10.6c-.1.07-.2.08-.3 0L3.46 9.22c-.1-.1-.1-.2 0-.3L5.4 7 3.43 5.02c-.1-.08-.1-.22 0-.3L4.8 3.36c.08-.07.22-.1.3 0L7.06 5.3l1.97-1.95c.07-.07.2-.1.3 0l1.36 1.37c.08.1.06.2-.02.3L8.73 6.97s1.95 1.95 1.97 1.95z"/></svg>