<svg height="14.417" viewBox="0 0 12.184 14.417" width="12.184" xmlns="http://www.w3.org/2000/svg"><g fill="#22416d"><path d="m11.357 13.112a18.706 18.706 0 0 0 -2.622-2.786 9.107 9.107 0 0 0 -5.275 0 17.732 17.732 0 0 0 -2.623 2.786c-.837 1.088-.266 1.694.806 1.01a7.408 7.408 0 0 1 8.918 0c1.061.694 1.633.082.8-1.01zm0 0"/><path d="m6.092 12.388a7.322 7.322 0 0 0 3.765-1.01 14.482 14.482 0 0 0 -1.122-1.041 9.11 9.11 0 0 0 -5.276 0 14.449 14.449 0 0 0 -1.122 1.041 7.258 7.258 0 0 0 3.755 1.01zm0 0"/><path d="m6.092 0a6.092 6.092 0 1 0 6.092 6.092 6.092 6.092 0 0 0 -6.092-6.092zm0 9.561a3.469 3.469 0 1 1 3.469-3.469 3.469 3.469 0 0 1 -3.469 3.469z"/><path d="m6.092 3.908a2.184 2.184 0 1 0 2.184 2.184 2.184 2.184 0 0 0 -2.184-2.184zm0 3.633a1.449 1.449 0 1 1 1.449-1.449 1.449 1.449 0 0 1 -1.449 1.449z"/><path d="m6.561 1.286a.469.469 0 1 1 -.469-.47.469.469 0 0 1 .469.469zm0 0"/></g></svg>