<svg height="30" viewBox="0 0 17.566 30" width="17.566" xmlns="http://www.w3.org/2000/svg"><g fill-rule="evenodd"><path d="m4.371 30v-30h-4.371v30z" fill="#323390"/><path d="m17.566 30v-30h-4.371v30z" fill="#f1972d"/><g fill="#323390"><path d="m5.633 19.494v-1.539l6.782 4.176v1.816l-5.366.164a1.8 1.8 0 0 0 -.69.106.887.887 0 0 0 -.426.428 1.5 1.5 0 0 0 -.146.667h-.154v-3l4.617-.147z"/><path d="m12.415 17.657-6.782-2.144v1.908l6.782 2.145z"/><path d="m11.841 16.549a2.169 2.169 0 0 0 .6-1.173 5.114 5.114 0 0 0 -.007-1.769 3.724 3.724 0 0 0 -.623-1.6 2.114 2.114 0 0 0 -1.183-.766 1.666 1.666 0 0 0 -1.321.136 3.664 3.664 0 0 0 -.912 1.135 2.328 2.328 0 0 1 -.772.86.726.726 0 0 1 -.77-.077.979.979 0 0 1 -.3-.734 3.221 3.221 0 0 1 .114-1.01 2.064 2.064 0 0 1 .393-.776l-1.016-.636a2.971 2.971 0 0 0 -.472 1.1 5.72 5.72 0 0 0 -.142 1.619 2.818 2.818 0 0 0 .455 1.385 2.735 2.735 0 0 0 1.056.946 1.691 1.691 0 0 0 1.231.119 2.018 2.018 0 0 0 .931-.7 7.406 7.406 0 0 0 .528-.858 1.691 1.691 0 0 1 .554-.615.612.612 0 0 1 .675.008 1.272 1.272 0 0 1 .433.82 2.6 2.6 0 0 1 -.1 1.146 3.129 3.129 0 0 1 -.538 1.033l1.19.4z"/><path d="m10.845 9.407 1.57.864v1.539l-6.782-4.095v-1.733l6.782-.582v1.8l-1.57.127zm-3.293-1.807 2.411 1.321v-1.521z"/><path d="m5.755 4.769a.167.167 0 0 0 -.055.131v.28h.664v-.064h-.288v-.142l.285-.193v-.081l-.285.188a.138.138 0 0 0 -.036-.111.189.189 0 0 0 -.129-.056.238.238 0 0 0 -.156.046zm.245.347h-.224v-.191a.106.106 0 0 1 .018-.076.125.125 0 0 1 .088-.035.139.139 0 0 1 .1.03.1.1 0 0 1 .018.081zm-.466-.437a.553.553 0 1 0 .2-.2.557.557 0 0 0 -.2.2zm.25-.121a.461.461 0 1 1 -.169.169.463.463 0 0 1 .169-.169z"/></g></g></svg>