<svg height="12" viewBox="0 0 20 12" width="20" xmlns="http://www.w3.org/2000/svg"><g fill="#b4b4b4"><path d="m10 11.14c-2.68 0-4.86-2.3-4.86-5.14 0-2.83 2.18-5.14 4.86-5.14s4.86 2.3 4.86 5.14c0 2.83-2.18 5.14-4.86 5.14zm9.68-6.14c-1.12-1.52-2.58-2.78-4.2-3.64-1.68-.88-3.48-1.34-5.33-1.36h-.3c-1.88.02-3.67.48-5.33 1.36-1.62.86-3.07 2.12-4.19 3.64-.44.6-.44 1.4 0 2 1.12 1.52 2.57 2.78 4.2 3.64 1.66.88 3.45 1.33 5.32 1.36h.3c1.87-.02 3.66-.48 5.32-1.36 1.63-.86 3.08-2.12 4.2-3.64.44-.6.44-1.4 0-2z"/><path d="m10 7.34c-.7 0-1.26-.6-1.26-1.33s.56-1.33 1.26-1.33 1.27.6 1.27 1.34-.57 1.34-1.27 1.34zm0-3.53c-1.15 0-2.08 1-2.08 2.2 0 1.22.94 2.2 2.08 2.2 1.15 0 2.08-.98 2.08-2.2 0-1.2-.93-2.2-2.08-2.2z"/></g></svg>