<svg height="10" viewBox="0 0 10 10" width="10" xmlns="http://www.w3.org/2000/svg"><g fill="#b3b4b4"><path d="m5.182 0a.64.64 0 0 0 -.4.11s-2.609 2.276-2.722 2.39h-1.434a.627.627 0 0 0 -.626.625v3.83a.626.626 0 0 0 .626.626h1.434c.113.113 2.719 2.3 2.719 2.3a.645.645 0 0 0 .4.113.535.535 0 0 0 .445-.421c0-.018 0-9.134 0-9.152a.524.524 0 0 0 -.442-.421zm0 0"/><path d="m8.81 5 1.077-1.078a.381.381 0 0 0 0-.541.387.387 0 0 0 -.54 0l-1.077 1.08-1.08-1.08a.381.381 0 1 0 -.537.541l1.077 1.078-1.077 1.079a.381.381 0 0 0 .537.541l1.08-1.08 1.077 1.08a.387.387 0 0 0 .54 0 .381.381 0 0 0 0-.541zm0 0"/></g></svg>