<svg height="10" viewBox="0 0 10.551 10" width="10.551" xmlns="http://www.w3.org/2000/svg"><g fill="#22416d"><path d="m5.182 0a.64.64 0 0 0 -.4.11s-2.609 2.276-2.722 2.39h-1.434a.627.627 0 0 0 -.626.625v3.83a.626.626 0 0 0 .626.626h1.434c.113.113 2.719 2.3 2.719 2.3a.645.645 0 0 0 .4.113.535.535 0 0 0 .445-.421c0-.018 0-9.134 0-9.152a.524.524 0 0 0 -.442-.421zm0 0"/><path d="m7.334 7.383h-.034a.448.448 0 0 1 -.318-.131l-.06-.06a.45.45 0 0 1 -.043-.586 2.612 2.612 0 0 0 -.069-3.2.449.449 0 0 1 .031-.6l.06-.06a.439.439 0 0 1 .34-.131.45.45 0 0 1 .326.164 3.6 3.6 0 0 1 .094 4.421.448.448 0 0 1 -.328.179z"/><path d="m9.192 8.771a.45.45 0 0 1 -.325.159h-.019a.451.451 0 0 1 -.318-.13l-.059-.06a.45.45 0 0 1 -.026-.607 4.788 4.788 0 0 0 -.079-6.257.449.449 0 0 1 .018-.615l.059-.061a.438.438 0 0 1 .331-.132.451.451 0 0 1 .323.151 5.77 5.77 0 0 1 .095 7.551z"/></g></svg>