<svg height="17" viewBox="0 0 14.367 17" width="14.367" xmlns="http://www.w3.org/2000/svg"><g fill="#999"><path d="m11.618 13.419h.005c-.1-.1-.2-.193-.3-.291l-.045-.045a7.183 7.183 0 1 0 -8.191 0 24.477 24.477 0 0 0 -2.1 2.38c-.987 1.288-.313 2 .95 1.191 3.634-2.346 6.883-2.346 10.516 0 1.252.818 1.925.1.939-1.191-.624-.791-1.212-1.463-1.774-2.044zm-4.435-10.327a4.091 4.091 0 1 1 -4.091 4.091 4.091 4.091 0 0 1 4.091-4.091z"/><path d="m7.183 9.758a2.575 2.575 0 1 0 -2.575-2.575 2.575 2.575 0 0 0 2.575 2.575zm0-4.283a1.709 1.709 0 1 1 -1.708 1.708 1.708 1.708 0 0 1 1.708-1.708z"/></g></svg>