<svg xmlns="http://www.w3.org/2000/svg" viewBox="0 0 31.598 32.085"><defs><style>.a{fill:none;stroke:#000;}</style></defs><g transform="translate(-0.477 0.5)"><g transform="translate(0.977)"><path class="a" d="M40.961,58.224l-.477,2.833a1.033,1.033,0,0,0,1.5,1.088l2.547-1.329,2.547,1.33a1.033,1.033,0,0,0,1.5-1.088L48.1,58.225l2.051-2.012a1.033,1.033,0,0,0-.572-1.761l-2.842-.421-1.28-2.572a1.034,1.034,0,0,0-1.851,0l-1.279,2.572-2.842.421a1.034,1.034,0,0,0-.572,1.761Z" transform="translate(-29.23 -38.212)"/><path class="a" d="M28.488,3.3H25.234V1.5a1.5,1.5,0,0,0-1.5-1.5H23.5A1.5,1.5,0,0,0,22,1.5V3.3H10.517V1.5A1.5,1.5,0,0,0,9.017,0H8.779a1.5,1.5,0,0,0-1.5,1.5V3.3H4.064A3.09,3.09,0,0,0,.977,6.391V28a3.091,3.091,0,0,0,3.087,3.087H28.489A3.091,3.091,0,0,0,31.575,28V6.391A3.091,3.091,0,0,0,28.488,3.3Zm-.4,24.291H4.466V10.776H28.086Z" transform="translate(-0.977)"/></g></g></svg>