<svg xmlns="http://www.w3.org/2000/svg" viewBox="0 0 176 35.25"><defs><style>.a{fill:#00011c}</style></defs><path class="a" d="M36.89 8.91l4.449 7.272 4.482-7.272a3.019 3.019 0 0 1 3.221-1.793c2.026 0 2.823 1.162 2.192 2.092l-7.405 10.959v7.105c0 1.495-.731 1.726-2.155 1.726h-.664c-1.362 0-2.092-.233-2.092-1.726v-7.107l-7.406-10.92c-.664-.964.133-2.126 2.155-2.126a2.977 2.977 0 0 1 3.223 1.79zM49.476 20.798c0-5.048 3.918-8.567 9.1-8.567 5.146 0 9 3.526 9 8.6s-3.851 8.5-9.066 8.5c-5.182 0-9.034-3.42-9.034-8.533zm13.615.033c0-2.856-1.892-4.915-4.549-4.915a4.876 4.876 0 1 0 4.549 4.915zM75.643 29.234c-4.251 0-6.073-3.021-6.073-6.774v-8.269c0-1.693.864-1.763 2.092-1.763h.5c1.262 0 2.125.033 2.125 1.763v7.572c0 2.351 1.1 3.526 3.021 3.526 2.155 0 3.587-1.461 3.587-2.89v-8.208c0-1.693.9-1.763 2.092-1.763h.5c1.262 0 2.126.033 2.126 1.763V28.1c0 .6-.831.931-1.763.931a2.666 2.666 0 0 1-2.89-2.69 6.118 6.118 0 0 1-5.317 2.893zM93.343 27.272c0 1.428-.731 1.763-2.155 1.763h-.731c-1.262 0-2.026-.3-2.026-1.763V9.607c0-1.726.931-2.292 2.557-2.292h5.613c5.746 0 8.933 2.557 8.933 7.305 0 4.815-3.054 7.305-8.933 7.305h-3.258zm3.15-9.031c2.723 0 4.185-1.295 4.185-3.554 0-2.292-1.461-3.526-4.185-3.526h-3.184v7.074zM116.155 12.231c1.892 0 3.021.631 3.021 2.325 0 3.722-1.793 2.092-3.62 2.092-2.325 0-3.33 1.992-3.33 5.289v5.3c0 1.693-.864 1.793-2.059 1.793h-.5c-1.295 0-2.155-.067-2.155-1.793V13.724c0-1.062.831-1.295 1.792-1.295 1.228 0 2.557.564 2.856 2.79a4.091 4.091 0 0 1 3.995-2.988zM120.174 20.798c0-5.048 3.918-8.567 9.1-8.567 5.146 0 9 3.526 9 8.6s-3.853 8.5-9.064 8.5c-5.185 0-9.036-3.42-9.036-8.533zm13.615.033c0-2.856-1.892-4.915-4.549-4.915a4.876 4.876 0 1 0 4.549 4.915zM146.341 29.234c-4.251 0-6.073-3.021-6.073-6.774v-8.269c0-1.693.864-1.763 2.092-1.763h.5c1.262 0 2.126.033 2.126 1.763v7.572c0 2.351 1.1 3.526 3.021 3.526 2.155 0 3.587-1.461 3.587-2.89v-8.208c0-1.693.9-1.763 2.092-1.763h.5c1.262 0 2.126.033 2.126 1.763V28.1c0 .6-.831.931-1.763.931a2.666 2.666 0 0 1-2.89-2.69 6.118 6.118 0 0 1-5.318 2.893zM171.281 26.183a5.805 5.805 0 0 1-5.289 3.054c-4.416 0-7.538-3.42-7.538-8.534 0-5.18 3.088-8.567 7.6-8.567a6.115 6.115 0 0 1 5.213 2.49V8.079c0-1.693.9-1.892 2.092-1.892h.513c1.262 0 2.126.167 2.126 1.892v19.759c0 .864-.831 1.228-1.763 1.228-1.659.001-2.954-.63-2.954-2.883zm0-5.777c0-3.526-2.059-4.482-4.018-4.482-2.59 0-4.251 1.859-4.251 4.815 0 2.79 1.726 4.782 4.151 4.782a4.237 4.237 0 0 0 4.114-4.516z"/><g><path d="M4.698 26.599a9.233 9.233 0 0 1 1.661-5.233l1.324-1.937 4.132 6.036a1.646 1.646 0 0 0-.421 1.454 1.593 1.593 0 0 0 3.154-.4 1.948 1.948 0 0 0-.321-.876c-1.279-1.9-2.584-3.793-3.875-5.681q-1.857-2.727-3.7-5.47-.9-1.331-1.816-2.654l-1.2-1.763C2.592 8.529 1.497 7.015.511 5.434A3.592 3.592 0 0 1 2.023.378a3.739 3.739 0 0 1 4.819 1.427c1.959 2.976 4.006 5.9 6.012 8.855q2.888 4.261 5.775 8.525c.588.878 1.2 1.747 1.779 2.641a8.974 8.974 0 0 1 1.217 3.08 8.705 8.705 0 0 1 .08 3.158 8.575 8.575 0 0 1-9.388 7.135 8.435 8.435 0 0 1-6.383-4.018 7.921 7.921 0 0 1-.98-2.253 11.846 11.846 0 0 1-.256-2.329z" fill="#ff00f8"/><path d="M18.781 16.065c-.408-.588-.793-1.148-1.175-1.708-1.027-1.512-2.047-3.029-3.078-4.535a.319.319 0 0 1 0-.429q2.5-3.679 4.986-7.368A4.467 4.467 0 0 1 21.301.336a3.693 3.693 0 0 1 4.443 1.111 3.789 3.789 0 0 1-.057 4.506c-1.352 1.914-2.641 3.873-3.955 5.812l-2.8 4.134a1.674 1.674 0 0 0-.151.166z" fill="#00d0ff"/></g></svg>