<svg xmlns="http://www.w3.org/2000/svg" width="20" height="24" viewBox="0 0 20 24"><g transform="translate(-7.5)"><path d="M24.417,17.555H23.1l.006-.765a.621.621,0,0,1,.62-.618h.084a.622.622,0,0,1,.622.618Zm-4.94-1.639a.563.563,0,0,0-.607.5v3.721a.62.62,0,0,0,1.217,0V16.415A.564.564,0,0,0,19.477,15.916ZM27.5,13.834v7.078A3.193,3.193,0,0,1,24.228,24H10.772A3.193,3.193,0,0,1,7.5,20.913V13.834a3.193,3.193,0,0,1,3.272-3.087H24.228A3.193,3.193,0,0,1,27.5,13.834ZM11.67,21.681V14.225h1.668v-1.1L8.89,13.114V14.2l1.388,0v7.477Zm5-6.346H15.279v3.982a7.057,7.057,0,0,1,0,.966c-.113.309-.621.637-.819.033a7.924,7.924,0,0,1,0-.971l-.006-4.009H13.065l0,3.946c0,.6-.014,1.056,0,1.261.034.362.022.784.358,1.025a1.68,1.68,0,0,0,2.125-.711l0,.822H16.67V15.336ZM21.119,19.9l0-3.314c0-1.263-.946-2.019-2.228-1l.006-2.464-1.389,0-.007,8.5,1.142-.017.1-.53C20.2,22.419,21.121,21.5,21.119,19.9Zm4.352-.439-1.043.006c0,.041,0,.089,0,.141v.582a.569.569,0,0,1-.57.565h-.2a.569.569,0,0,1-.57-.565v-1.53h2.388v-.9a14.179,14.179,0,0,0-.071-1.689c-.171-1.188-1.838-1.376-2.68-.768a1.57,1.57,0,0,0-.583.785,4.421,4.421,0,0,0-.177,1.4v1.976C21.957,22.746,25.947,22.281,25.471,19.456ZM20.122,8.729a.947.947,0,0,0,.334.422.969.969,0,0,0,.569.158.885.885,0,0,0,.533-.166,1.278,1.278,0,0,0,.39-.5l-.026.546h1.55V2.6h-1.22V7.728a.508.508,0,0,1-1.016,0V2.6H19.962V7.044c0,.566.01.944.027,1.135A1.911,1.911,0,0,0,20.122,8.729Zm-4.7-3.723a5.486,5.486,0,0,1,.158-1.483A1.587,1.587,0,0,1,17.2,2.342a1.923,1.923,0,0,1,.922.208,1.537,1.537,0,0,1,.595.541,2.134,2.134,0,0,1,.287.686,5.475,5.475,0,0,1,.078,1.079V6.524a9.026,9.026,0,0,1-.072,1.347,2.135,2.135,0,0,1-.306.8,1.449,1.449,0,0,1-.6.548,1.9,1.9,0,0,1-.841.177,2.336,2.336,0,0,1-.9-.151A1.23,1.23,0,0,1,15.8,8.79a2.029,2.029,0,0,1-.291-.739,7.124,7.124,0,0,1-.086-1.3V5.005Zm1.214,2.619a.619.619,0,1,0,1.232,0V4.115a.619.619,0,1,0-1.232,0ZM12.349,9.4h1.462l0-5.056L15.541.009h-1.6l-.919,3.217L12.091,0H10.508l1.838,4.342Z"/></g></svg>